<?xml version="1.0" encoding="UTF-8" standalone="no"?>
<svg
   xmlns:dc="http://purl.org/dc/elements/1.1/"
   xmlns:cc="http://creativecommons.org/ns#"
   xmlns:rdf="http://www.w3.org/1999/02/22-rdf-syntax-ns#"
   xmlns:svg="http://www.w3.org/2000/svg"
   xmlns="http://www.w3.org/2000/svg"
   viewBox="0 0 653.93164 727.20954"
   height="727.20953"
   width="653.93164"
   version="1.1"
   id="svg4635">
  <metadata
     id="metadata4641">
    <rdf:RDF>
      <cc:Work
         rdf:about="">
        <dc:format>image/svg+xml</dc:format>
        <dc:type
           rdf:resource="http://purl.org/dc/dcmitype/StillImage" />
        <dc:title></dc:title>
      </cc:Work>
    </rdf:RDF>
  </metadata>
  <defs
     id="defs4639" />
  <g
     transform="translate(171.60614,-2.1381431)"
     id="g4700">
    <path
       id="path4689"
       d="m -155.54211,727.64389 c -5.70838,-2.62055 -14.03571,-11.15469 -15.2368,-15.61519 -0.72173,-2.68032 -0.94247,-102.80091 -0.77324,-350.72352 l 0.23685,-346.972371 2.53649,-3.631983 c 1.39507,-1.99759 4.07838,-4.675796 5.96291,-5.951569 l 3.42642,-2.3195873 310.30944,-0.2374102 c 221.59904,-0.16954 311.38242,0.05151 314.0627,0.773234 4.46267,1.2016695 12.99605,9.5274565 15.6173,15.2373715 1.64334,3.579694 1.7045,15.980126 1.72415,349.591655 0.0183,310.63062 -0.12648,346.23186 -1.4206,349.32988 -1.91083,4.57439 -5.6091,8.39938 -10.15696,10.50497 -3.58899,1.66164 -13.91219,1.71829 -313.14433,1.71829 -298.27113,0 -309.56686,-0.0614 -313.14433,-1.70377 z m 620.83165,-9.03997 c 1.74569,-0.82837 4.10518,-2.81162 5.24332,-4.40722 l 2.06936,-2.90107 0.23723,-239.61339 0.23723,-239.6134 -320.11363,0 -320.11364,0 0.23723,239.6134 0.23723,239.61339 2.05811,2.88528 c 1.13196,1.5869 3.42835,3.56064 5.10309,4.38609 2.78629,1.37331 29.32192,1.5026 312.33775,1.52194 283.47226,0.0194 309.55774,-0.10462 312.46672,-1.48502 z M 229.98626,525.49523 c -6.31672,-3.16815 -7.42786,-9.86651 -2.42012,-14.58943 2.24837,-2.12047 2.92155,-3.35642 2.3338,-4.2848 -1.35607,-2.14202 -0.97088,-5.08169 0.993,-7.57837 1.51883,-1.93087 1.60997,-2.43972 0.51243,-2.86089 -4.55386,-1.74748 -5.38943,-12.61203 -1.30752,-17.00107 3.4363,-3.69488 5.82217,-4.1629 17.68413,-3.46908 9.82749,0.57483 10.95426,0.8181 10.95426,2.36497 0,1.16532 -0.6767,1.72883 -2.08763,1.73844 -3.0681,0.0209 -4.47603,1.16281 -3.44461,2.79378 1.37801,2.17903 1.03064,7.34291 -0.68988,10.25551 -1.97576,3.34469 -6.37539,5.4932 -11.24873,5.4932 -4.01566,0 -6.65286,1.82235 -6.65286,4.59724 0,2.098 2.48818,2.79645 10.0203,2.81278 9.05489,0.0197 13.17558,2.92074 13.17558,9.27609 0,4.56113 -2.483,8.31895 -6.78834,10.27364 -5.19908,2.36046 -16.49181,2.45602 -21.03381,0.17799 z m 18.18167,-4.51627 c 3.42124,-1.62348 4.99798,-5.17202 3.41596,-7.68776 -0.72211,-1.14828 -2.88485,-1.54116 -9.64695,-1.75246 -7.97998,-0.24935 -8.85331,-0.10352 -10.33987,1.7265 -2.1312,2.6236 -2.05397,5.07437 0.23196,7.36029 2.37637,2.37638 11.65299,2.57704 16.3389,0.35343 z m -1.75005,-28.38885 c 2.82915,-2.27761 2.16845,-9.93544 -1.04218,-12.07924 -2.02816,-1.35423 -8.58004,-0.75649 -10.01442,0.91363 -3.52964,4.10973 -2.54932,10.54157 1.85498,12.17055 2.68413,0.99274 7.35364,0.48278 9.20162,-1.00494 z m -295.5844,18.16228 c -5.28971,-2.69374 -7.97869,-7.88142 -8.31337,-16.03839 -0.24172,-5.89148 0.0581,-7.69234 1.85567,-11.14755 3.29781,-6.33875 6.13091,-7.94091 14.0419,-7.94091 5.54369,0 7.18185,0.37306 9.78235,2.22779 8.94201,6.37761 8.87162,25.45343 -0.11811,32.00445 -3.53391,2.57524 -12.98554,3.06546 -17.24844,0.89461 z m 11.60052,-4.07086 c 6.91586,-2.41089 9.04351,-16.49563 3.48902,-23.09678 -4.32539,-5.14041 -12.89172,-4.5122 -15.87826,1.16446 -2.21713,4.2142 -2.11371,14.10741 0.18818,18.00226 2.55227,4.31849 6.98811,5.7473 12.20106,3.93006 z m 27.13533,3.49837 c -9.54434,-6.34271 -9.89749,-25.81929 -0.59114,-32.60104 3.00394,-2.18904 12.72915,-3.12216 16.67228,-1.5997 2.14877,0.82966 2.41064,1.29902 1.72719,3.09566 -0.507,1.33283 -1.44573,2.02342 -2.53277,1.86328 -0.94997,-0.13995 -3.79492,-0.2925 -6.32213,-0.33902 -3.98212,-0.0733 -4.92458,0.28439 -7.06676,2.6819 -4.56505,5.10917 -4.38398,16.61755 0.33572,21.33725 2.45184,2.45182 7.11424,3.11231 12.48576,1.76875 2.89327,-0.72369 3.01546,-0.64284 3.01546,1.99476 0,3.23431 -1.51478,3.86145 -9.3731,3.88061 -3.86151,0.009 -6.00837,-0.52597 -8.35051,-2.08245 z m 76.8731,1.01671 c -2.0179,-0.73699 -2.55155,-1.52052 -2.55155,-3.7463 0,-2.49313 0.23832,-2.74002 2.08763,-2.16287 1.1482,0.35834 5.42784,0.86797 9.51031,1.13251 6.63749,0.43012 7.69259,0.26738 9.97423,-1.53848 2.81225,-2.22583 3.47892,-6.80236 1.39175,-9.55398 -0.63789,-0.84096 -4.70876,-3.16216 -9.04639,-5.15824 -9.7559,-4.48943 -12.20063,-6.96859 -12.71071,-12.88973 -0.71938,-8.35047 4.89919,-13.25654 15.17052,-13.24675 10.1578,0.01 14.17329,2.2302 11.54314,6.38321 -0.65335,1.03164 -1.41031,1.07741 -3.83559,0.23196 -4.37545,-1.52529 -12.16189,-1.31674 -14.60009,0.39103 -1.527,1.06956 -2.06212,2.37632 -2.06212,5.03575 0,4.29817 1.99525,6.16989 9.94971,9.33371 6.91254,2.74942 10.15784,5.02908 11.86842,8.33696 3.15089,6.09316 0.56303,13.30283 -5.97157,16.63653 -2.84914,1.45353 -5.38904,1.87609 -10.93846,1.81985 -3.97522,-0.0403 -8.37588,-0.49261 -9.77923,-1.00516 z m 40.7378,0.0499 c -3.24505,-1.92865 -4.32028,-6.63004 -4.32028,-18.89016 l 0,-11.62774 -2.31958,0 c -3.25894,0 -3.0135,-2.84597 0.41359,-4.79573 1.91643,-1.09031 2.90585,-2.53123 3.34482,-4.87113 0.5085,-2.71054 1.03177,-3.32283 2.83969,-3.32283 2.00821,0 2.21633,0.39208 2.21633,4.17526 l 0,4.17525 5.16762,0 c 4.82832,0 5.14816,0.13708 4.87114,2.08763 -0.2583,1.81871 -0.92399,2.12376 -5.16763,2.36808 l -4.87113,0.28045 0,11.94709 c 0,13.98451 0.64902,15.39377 6.71481,14.58018 3.45048,-0.4628 3.58719,-0.38078 3.31322,1.98775 -0.26707,2.30886 -0.61958,2.48526 -5.38886,2.69655 -2.8067,0.12435 -5.87288,-0.23144 -6.81374,-0.79063 z m 25.50892,-0.49416 c -5.28971,-2.69374 -7.97869,-7.88141 -8.31337,-16.03839 -0.24172,-5.89148 0.0581,-7.69234 1.85567,-11.14755 3.2978,-6.33875 6.13091,-7.94091 14.0419,-7.94091 5.54369,0 7.18184,0.37306 9.78235,2.22779 8.94201,6.37761 8.87162,25.45343 -0.11811,32.00445 -3.53391,2.57524 -12.98554,3.06546 -17.24844,0.89461 z m 11.60052,-4.07086 c 6.91586,-2.41089 9.04351,-16.49563 3.48901,-23.09677 -4.32538,-5.14042 -12.89171,-4.5122 -15.87825,1.16445 -2.21713,4.2142 -2.11371,14.10741 0.18818,18.00226 2.55227,4.31849 6.98811,5.7473 12.20106,3.93006 z m 50.74972,4.50204 c -5.47135,-2.64782 -6.54656,-13.0812 -1.77137,-17.18865 3.00508,-2.58485 7.96738,-3.97614 14.20534,-3.98276 l 4.87113,-0.005 0,-3.24742 c 0,-6.30115 -4.89659,-8.42243 -12.91295,-5.59409 -3.7415,1.32008 -3.89376,1.29734 -4.65889,-0.69588 -0.93806,-2.4437 -0.5827,-2.86818 3.56081,-4.25351 4.95398,-1.65628 12.19774,-1.30455 15.5778,0.75641 4.05063,2.46984 4.91669,6.28363 4.9229,21.67859 l 0.006,12.81936 -2.51485,-0.29359 c -1.79632,-0.2097 -2.67164,-0.95632 -3.06363,-2.61317 -0.45628,-1.9286 -0.69705,-2.07555 -1.42844,-0.87183 -2.54289,4.18505 -11.5083,6.0492 -16.79302,3.49172 z m 12.53136,-4.86987 c 2.99754,-1.55009 4.77374,-4.9761 4.77374,-9.2078 l 0,-3.01996 -6.06086,0.62733 c -7.03036,0.72766 -9.71234,2.58621 -9.71234,6.73045 0,5.53746 5.23048,7.85324 10.99946,4.86998 z m 66.01085,5.29188 c -6.56239,-2.46588 -10.15512,-8.78752 -10.18581,-17.9226 -0.0249,-7.40656 2.61851,-13.30144 7.40231,-16.5075 4.51055,-3.02295 13.57604,-2.59569 17.22313,0.81173 3.36478,3.14366 4.83388,6.27161 5.57715,11.87469 l 0.63466,4.78427 -12.70783,0 c -12.26476,0 -12.68947,0.0647 -12.18139,1.85567 0.28955,1.02062 0.78459,2.79511 1.1001,3.9433 1.80668,6.57471 10.26991,8.59266 20.14483,4.8033 1.23595,-0.47428 1.54955,-0.0296 1.54955,2.19739 0,2.29744 -0.51758,2.97243 -2.92195,3.8106 -3.01064,1.04952 -13.16725,1.27632 -15.63475,0.34915 z m 13.91753,-22.55622 c 0,-2.82061 -2.94618,-7.50065 -5.28052,-8.38817 -5.57202,-2.11847 -12.34835,1.80592 -12.34835,7.15135 0,2.15339 0.16495,2.19446 8.81444,2.19446 5.44059,0 8.81443,-0.36655 8.81443,-0.95764 z m -401.75258,-1.45512 0,-23.75298 11.995,0.32514 c 13.800097,0.37406 16.248997,1.42405 18.55816,7.95702 1.15493,3.26749 1.15067,4.21401 -0.0329,7.32388 -0.74762,1.96428 -2.660616,4.44838 -4.25111,5.52022 l -2.891812,1.94879 3.165606,1.1447 c 3.809286,1.37746 5.931326,5.06122 5.931326,10.2965 0,9.75136 -5.301919,12.9389 -21.57217,12.96932 l -10.90206,0.0204 0,-23.75296 z m 23.004169,16.61999 c 1.976521,-1.47036 2.57054,-2.76286 2.789499,-6.06952 0.191533,-2.89248 -0.179536,-4.65907 -1.191099,-5.67064 -2.055163,-2.05516 -7.424579,-3.38364 -13.700509,-3.38973 l -5.33505,-0.005 0,8.93365 0,8.93364 7.46294,-0.43201 c 5.543555,-0.32091 8.108798,-0.9125 9.974219,-2.30021 z m -2.661485,-20.9864 c 5.297734,-1.84624 6.265058,-9.17933 1.612958,-12.2275 -1.176235,-0.77069 -5.344862,-1.67229 -9.263622,-2.00354 l -7.12501,-0.60229 0,8.02274 0,8.02275 5.79897,-0.0523 c 3.189435,-0.0289 7.228951,-0.55072 8.976704,-1.1598 z m 21.409896,3.06783 0,-25.05155 2.7835,0 2.78351,0 0,25.05155 0,25.05154 -2.78351,0 -2.7835,0 0,-25.05154 z m 88.14433,0 0,-25.05155 2.7835,0 2.78351,0 0,15.37093 0,15.37094 7.52368,-7.94825 c 6.65176,-7.02713 7.8994,-7.94826 10.76566,-7.94826 l 3.24197,0 -5.89453,6.56014 c -3.24198,3.60807 -6.27037,7.09437 -6.72976,7.74734 -0.57898,0.82294 1.34257,4.06291 6.26289,10.56003 3.90397,5.15507 7.09813,9.60176 7.09813,9.88154 0,0.27978 -1.44258,0.50868 -3.20573,0.50868 -3.21104,0 -4.42959,-1.27174 -14.95278,-15.60552 -0.11962,-0.16294 -1.09319,0.25064 -2.16351,0.91906 -1.68582,1.05282 -1.94602,2.11592 -1.94602,7.95089 l 0,6.73557 -2.78351,0 -2.7835,0 0,-25.05154 z m 150.30928,7.42268 0,-17.62887 2.219,0 c 1.60951,0 2.38346,0.65526 2.81776,2.38563 l 0.59875,2.38563 3.24545,-2.84954 c 2.58635,-2.27084 4.08685,-2.84955 7.38844,-2.84955 3.98474,0 4.14297,0.1063 4.14297,2.7835 0,2.65896 -0.17758,2.78351 -3.96881,2.78351 -8.43769,0 -10.87655,4.46637 -10.87655,19.91865 l 0,10.6999 -2.78351,0 -2.7835,0 0,-17.62886 z M -91.985406,422.33521 c -13.065354,-3.9887 -20.313154,-13.7221 -22.357324,-30.02464 -2.37323,-18.9269 4.93477,-35.58228 18.458226,-42.06746 7.473063,-3.58372 19.645114,-4.17178 28.660264,-1.38467 9.46049,2.9248 9.29173,2.69364 6.81044,9.32854 -1.16704,3.12062 -2.49058,5.90173 -2.94121,6.18024 -0.45064,0.27851 -3.21472,-0.40924 -6.14239,-1.52832 -9.12877,-3.48938 -18.140487,-2.47839 -22.686721,2.54514 -3.943711,4.35775 -5.71103,10.61554 -5.733363,20.30092 -0.01917,8.31511 0.256261,9.90554 2.514953,14.52215 2.831689,5.78777 5.031437,7.59563 11.102031,9.12422 4.00948,1.0096 7.96263,0.55168 21.30994,-2.46848 l 2.55155,-0.57735 -0.0142,5.90713 c -0.007,3.24892 -0.32199,6.39082 -0.69815,6.98201 -1.93966,3.04833 -23.84636,5.29383 -30.834037,3.16057 z m 46.391756,-37.17359 0,-37.1134 7.88659,0 7.8866,0 0,37.1134 0,37.1134 -7.8866,0 -7.88659,0 0,-37.1134 z m 34.32989,-0.0314 0,-37.14479 9.95953,0.26335 9.95953,0.26334 15.11332,25.97939 c 8.31232,14.28865 15.41687,26.47298 15.78789,27.07629 0.37102,0.60331 0.5469,-11.20979 0.39085,-26.2513 l -0.28374,-27.34822 7.2425,0.27192 7.24249,0.27192 0.2426,36.88145 0.24261,36.88144 -10.44879,-0.0152 -10.44879,-0.0152 -15.66792,-27.35595 C 9.45096,379.8429 2.35302,367.53243 2.29512,367.53206 c -0.0579,-3.6e-4 0.0169,12.31665 0.16628,27.37113 l 0.27154,27.37182 -6.99834,0 -6.99836,0 0,-37.14479 z m 83.50516,0.0314 0,-37.1134 14.79969,0 c 8.13983,0 17.01225,0.46946 19.71649,1.04324 10.78137,2.28757 19.39792,8.91431 23.80014,18.30401 2.26255,4.82589 2.45687,6.19443 2.45687,17.30223 0,11.33215 -0.16163,12.4118 -2.67172,17.84627 -2.98614,6.46515 -9.69122,13.4042 -15.20873,15.73945 -7.6529,3.23903 -12.75789,3.96959 -27.81542,3.98059 l -15.07732,0.011 0,-37.1134 z m 34.61124,21.13071 c 7.28834,-4.02373 10.30013,-11.24106 9.78023,-23.43695 -0.62764,-14.72277 -6.33675,-20.55542 -21.11131,-21.5681 l -7.50697,-0.51454 0,24.39382 0,24.39381 7.50798,-0.57897 c 5.23381,-0.4036 8.66569,-1.21812 11.33007,-2.68907 z m 41.47123,-21.14781 0,-37.1305 21.57217,0.24906 21.57216,0.24906 0.27435,6.26288 0.27435,6.26289 -13.496,0 -13.496,0 0,8.35051 0,8.35052 12.06186,0 12.06185,0 0,6.49485 0,6.49484 -12.06185,0 -12.06186,0 0,9.25287 0,9.25288 13.22165,0.25743 13.22165,0.25744 0.27435,6.26288 0.27435,6.26289 -21.84651,0 -21.84652,0 0,-37.1305 z m 58.14433,36.51194 c -0.34021,-0.3402 -0.61856,-17.04123 -0.61856,-37.1134 l 0,-36.49484 15.6048,0 c 16.77695,0 22.22334,0.94992 28.08545,4.89846 6.32583,4.26087 9.61841,14.33744 7.34179,22.46873 -1.25258,4.47377 -7.21345,12.04343 -10.24034,13.00413 -1.00245,0.31815 -1.82262,0.97699 -1.82262,1.46406 0,0.48709 4.59278,7.75652 10.20618,16.15431 5.6134,8.39779 10.20619,15.48659 10.20619,15.7529 0,0.26632 -3.89964,0.48421 -8.66586,0.48421 l -8.66586,0 -8.73825,-14.14948 -8.73825,-14.14949 -3.9361,-0.28531 -3.9361,-0.28531 0,14.4348 0,14.43479 -7.73195,0 c -4.25258,0 -8.01032,-0.27835 -8.35052,-0.61856 z m 28.92739,-42.57609 c 2.05394,-0.82183 4.05738,-2.43691 4.65795,-3.75501 1.45955,-3.20336 1.31745,-7.93117 -0.30812,-10.25201 -1.5222,-2.17325 -7.71978,-4.03544 -13.43035,-4.03544 l -3.7644,0 0,9.74227 0,9.74227 4.6204,0 c 2.54122,0 6.24225,-0.64894 8.22452,-1.44208 z M 414.77143,171.15184 c 1.58877,-1.43781 1.69677,-3.84792 1.69677,-37.8639 0,-29.90534 -0.23278,-36.646773 -1.31659,-38.129393 -1.27275,-1.741079 -3.05666,-1.808718 -53.58247,-2.031603 -40.95815,-0.180686 -52.76774,0.02598 -54.58548,0.955003 l -2.31958,1.18557 -0.24273,37.001263 c -0.21941,33.44418 -0.0941,37.16553 1.30359,38.70995 1.46754,1.62161 4.24167,1.70867 54.44803,1.70867 47.92353,0 53.06136,-0.1445 54.59846,-1.53556 z m -66.75657,-55.5789 c -2.50106,-1.75181 -2.67229,-5.13852 -0.36535,-7.22627 1.3807,-1.24952 3.77357,-1.53556 12.84588,-1.53556 9.62274,0 11.35935,0.2323 12.68467,1.69677 2.04065,2.25488 1.93764,4.396 -0.32011,6.65375 -1.63627,1.63627 -3.09278,1.85567 -12.31932,1.85567 -7.96876,0 -10.95534,-0.34439 -12.52577,-1.44436 z m 71.39575,-28.854088 c 1.45668,-1.318281 1.69676,-3.047448 1.69676,-12.220754 0,-8.640637 -0.29381,-11.009869 -1.53555,-12.381969 -1.45618,-1.609056 -4.51011,-1.69677 -59.07643,-1.69677 -52.24033,0 -57.69717,0.141452 -59.23764,1.535556 -1.45668,1.318282 -1.69677,3.04745 -1.69677,12.220755 0,8.640637 0.29382,11.009869 1.53556,12.38197 1.45617,1.609052 4.51011,1.69677 59.07643,1.69677 52.24033,0 57.69717,-0.141449 59.23764,-1.535558 z m -581.62957,-74.43073 c 1.12072,-1.219159 3.70778,-2.987454 5.74902,-3.929547 2.10806,-0.972935 2.97028,-1.721696 1.99589,-1.733271 -5.25611,-0.06243 -11.31793,5.509228 -12.25876,11.267518 l -0.50545,3.093548 1.49082,-3.240798 c 0.81995,-1.782438 2.40777,-4.238291 3.52848,-5.45745 z m 633.83991,2.221858 c -1.87312,-3.947327 -5.60922,-6.79983 -9.84271,-7.5149 l -3.09355,-0.522524 3.74973,1.789826 c 4.27422,2.040179 8.46952,6.597773 9.42963,10.243952 0.46393,1.76183 0.7502,2.020453 0.98853,0.893052 0.18452,-0.872841 -0.36972,-3.073074 -1.23163,-4.889406 z"
       style="fill:#d2dde7" />
    <path
       id="path4687"
       d="m 232.24182,526.18886 c -6.74691,-2.10286 -9.38801,-9.76226 -4.98302,-14.45115 1.16061,-1.23541 2.6637,-2.2462 3.3402,-2.2462 1.44409,0 1.63866,-1.4936 0.30219,-2.31958 -1.64266,-1.01522 -1.04177,-6.56806 0.90101,-8.32624 1.81326,-1.64099 1.80959,-1.67023 -0.43196,-3.43343 -2.85913,-2.249 -4.23208,-7.09313 -3.24756,-11.45836 1.63498,-7.24928 5.79045,-8.93803 20.0119,-8.13268 8.59507,0.48674 9.67383,0.73917 9.67383,2.2637 0,1.30127 -0.69688,1.71587 -2.8841,1.71587 -2.70944,0 -2.83869,0.15451 -2.13447,2.55155 2.73244,9.3007 -2.51541,16.00515 -12.52789,16.00515 -4.38759,0 -7.12664,2.80679 -5.57265,5.71047 0.76065,1.42128 2.05381,1.71245 7.61051,1.71365 10.8839,0.003 16.22279,3.96872 14.98489,11.13258 -1.08579,6.28363 -5.83267,9.26703 -15.58954,9.79799 -3.6403,0.19809 -7.8943,-0.0374 -9.45334,-0.52332 z m 17.21607,-5.44182 c 1.59524,-1.16748 2.40954,-2.75586 2.60765,-5.08644 0.24896,-2.92878 -0.0427,-3.51459 -2.14803,-4.31505 -1.33985,-0.50941 -5.27529,-0.9262 -8.74541,-0.9262 -4.97804,0 -6.82515,0.40576 -8.75403,1.92301 -4.18757,3.29394 -2.73872,8.98898 2.65838,10.4494 3.38781,0.91673 12.00999,-0.30915 14.38144,-2.04472 z m -3.37255,-28.0239 c 3.35026,-2.63531 3.43226,-8.30782 0.1673,-11.57276 -5.00356,-5.00357 -13.49578,-1.47399 -13.49578,5.60918 0,6.83844 7.78694,10.32256 13.32848,5.96358 z M -47.1231,511.31022 c -3.72809,-1.14231 -8.29571,-6.32746 -9.54878,-10.83974 -3.96135,-14.26469 4.4997,-26.50085 17.32517,-25.05524 15.05049,1.69641 19.47599,24.80115 6.5799,34.35248 -2.85254,2.1127 -9.99189,2.87979 -14.35629,1.5425 z m 11.6272,-5.18739 c 2.94549,-2.06311 4.74761,-6.77164 4.74761,-12.40451 0,-9.0034 -3.76751,-13.91753 -10.67011,-13.91753 -6.9026,0 -10.6701,4.91413 -10.6701,13.91753 0,9.00339 3.7675,13.91752 10.6701,13.91752 2.0693,0 4.73442,-0.68085 5.9225,-1.51301 z m 26.10621,4.06456 c -5.7499,-2.93766 -7.905,-7.42752 -7.905,-16.46907 0,-5.67388 0.41701,-7.68685 2.25844,-10.90198 3.15581,-5.51002 8.6052,-8.08589 15.58269,-7.36574 5.85719,0.60451 7.18962,1.4924 6.32547,4.21509 -0.50972,1.60599 -0.97364,1.76735 -2.93608,1.02123 -6.36634,-2.42047 -13.3165,0.36681 -15.20834,6.09915 -0.62034,1.87966 -0.94948,5.88407 -0.73142,8.89871 0.68811,9.51313 5.54645,13.23362 14.80443,11.33714 4.57831,-0.93785 4.58604,-0.9353 4.30754,1.42421 -0.49226,4.17038 -9.81687,5.15455 -16.49773,1.74126 z m 80.23933,1.68817 c -0.5103,-0.20133 -2.07603,-0.61929 -3.47938,-0.92881 -2.05101,-0.45236 -2.55154,-1.07866 -2.55154,-3.19267 l 0,-2.62991 4.84138,1.25584 c 9.82957,2.54976 17.11589,0.60932 18.69174,-4.97784 1.31988,-4.67961 -0.99678,-7.18946 -10.86269,-11.76854 -9.70461,-4.50422 -11.88005,-6.90622 -11.97554,-13.22272 -0.10843,-7.1724 4.73534,-11.46952 13.68655,-12.14195 4.81071,-0.36138 12.63392,1.44103 13.13604,3.02644 0.15807,0.49911 -0.0505,1.44052 -0.46348,2.09205 -0.59803,0.94346 -2.05875,0.96841 -7.17564,0.12259 -7.41684,-1.22601 -10.54133,-0.42793 -12.99692,3.31978 -1.19843,1.82902 -1.37162,3.09133 -0.73769,5.37647 0.8543,3.07948 2.73102,4.29803 15.03022,9.75912 5.52482,2.45313 7.58891,5.54364 7.58891,11.36265 0,7.95727 -5.12796,12.06355 -15.74063,12.60449 -3.33492,0.16998 -6.48102,0.14434 -6.99133,-0.057 z m 38.00903,-0.48339 c -4.07401,-1.65137 -4.58623,-3.42718 -5.07088,-17.58011 l -0.46392,-13.54735 -2.55155,-0.29359 c -3.27185,-0.37646 -3.24701,-1.61871 0.0666,-3.33225 1.76904,-0.91481 2.98478,-2.57756 3.74859,-5.12692 1.58565,-5.29244 3.83943,-5.05633 3.83943,0.40225 l 0,4.17525 5.1031,0 c 4.43889,0 5.10309,0.23522 5.10309,1.80718 0,1.52593 -0.75812,1.85083 -4.87113,2.08763 l -4.87114,0.28045 -0.26146,11.48381 c -0.31581,13.8707 0.48562,15.88732 6.31378,15.88732 3.00188,0 3.68995,0.32752 3.68995,1.7564 0,2.74747 -5.27003,3.82576 -9.77448,1.99993 z m 25.8739,-0.0819 c -3.72809,-1.14232 -8.29572,-6.32746 -9.54878,-10.83974 -3.96135,-14.26469 4.4997,-26.50085 17.32517,-25.05524 15.05049,1.69641 19.47599,24.80115 6.5799,34.35248 -2.85254,2.1127 -9.99189,2.87979 -14.35629,1.5425 z m 11.62719,-5.18739 c 6.34641,-4.44519 6.34641,-20.36383 0,-24.80903 -1.18807,-0.83217 -3.85319,-1.51303 -5.92249,-1.51303 -6.9026,0 -10.6701,4.91413 -10.6701,13.91753 0,9.00339 3.7675,13.91752 10.6701,13.91752 2.0693,0 4.73442,-0.68085 5.92249,-1.51301 z m 49.48093,4.7543 c -3.74257,-1.62607 -6.18277,-6.75037 -5.3439,-11.22194 1.07743,-5.74318 8.86115,-9.64823 19.23126,-9.64823 l 3.78707,0 -0.54565,-3.3625 c -0.30012,-1.84937 -1.28451,-4.17892 -2.18755,-5.17677 -1.64082,-1.81308 -3.18515,-1.87992 -13.28279,-0.57494 -1.78582,0.23079 -2.31959,-0.11785 -2.31959,-1.5151 0,-2.48148 6.80724,-4.49266 12.98969,-3.83776 3.6432,0.38592 5.18696,1.09839 7.19072,3.31863 l 2.55155,2.8272 0,14.83072 c 0,13.92885 -0.10673,14.83072 -1.75508,14.83072 -1.12085,0 -1.97613,-0.88068 -2.36674,-2.43702 l -0.61166,-2.43702 -2.04048,1.9113 c -4.17129,3.90722 -9.89461,4.83987 -15.29685,2.49269 z m 12.68402,-4.7543 c 2.45602,-1.72026 4.74761,-6.57371 4.74761,-10.05512 0,-2.10023 -0.369,-2.34705 -3.47938,-2.32726 -11.27181,0.0717 -17.1249,5.52315 -12.70512,11.83327 1.78219,2.54444 8.15156,2.85024 11.43689,0.54911 z m 65.38312,5.13857 c -10.39324,-3.01087 -14.0414,-21.23136 -6.13286,-30.63012 9.0035,-10.70006 25.22693,-4.53335 25.27591,9.60766 l 0.0153,4.40719 -12.06186,0 c -13.5457,0 -13.74102,0.12713 -10.53262,6.85522 2.79773,5.8669 9.75718,7.51192 19.66052,4.64721 1.88999,-0.54672 2.12879,-0.34213 1.85567,1.5897 -0.53769,3.80313 -10.44759,5.7342 -18.08002,3.52313 z m 13.5913,-23.17111 c 0,-7.57074 -9.02087,-11.06871 -14.79761,-5.73797 -1.52077,1.40335 -3.03395,3.69974 -3.36264,5.10309 l -0.59763,2.55155 9.37894,0 c 8.85988,0 9.37894,-0.10608 9.37894,-1.91667 z m -401.75258,-0.30751 0,-23.7552 8.86749,0 c 11.296706,0 16.464181,1.28194 19.444434,4.82377 4.180386,4.96812 2.766406,13.12161 -2.794964,16.11659 l -3.027637,1.6305 3.8295,1.93622 c 2.106232,1.06491 4.346677,2.98003 4.978777,4.2558 1.69058,3.41213 1.41876,8.40596 -0.64148,11.78485 -3.061811,5.02154 -6.508728,6.20168 -19.29014,6.60448 l -11.36598,0.35818 0,-23.75519 z m 22.913576,17.11033 c 2.085782,-1.27179 3.143765,-2.76021 3.567507,-5.01896 1.408036,-7.50547 -2.764076,-10.78627 -13.723353,-10.79156 l -7.19072,-0.003 0,8.81444 0,8.81443 7.19072,-0.004 c 5.49001,-0.003 7.892021,-0.43107 10.155846,-1.81142 z m 0.228915,-22.72383 c 1.589224,-1.43871 1.939695,-2.66725 1.720457,-6.03093 -0.24686,-3.78756 -0.61097,-4.39185 -3.522739,-5.84645 -2.127615,-1.06286 -5.407053,-1.62276 -9.510309,-1.62371 l -6.26289,-0.001 0,7.98181 0,7.98181 7.78985,-0.32717 c 6.107182,-0.2565 8.220949,-0.71744 9.785631,-2.13392 z m 18.610089,4.12634 0,-25.05155 2.7835,0 2.78351,0 0,25.05155 0,25.05154 -2.78351,0 -2.7835,0 0,-25.05154 z m 88.14433,0 0,-25.05155 2.8446,0 2.84461,0 -0.29306,15.77441 c -0.16118,8.67593 -0.0843,15.74039 0.17086,15.6988 0.25515,-0.0416 3.73841,-3.79986 7.74057,-8.35173 6.64967,-7.563 7.56719,-8.27612 10.64834,-8.27612 l 3.37168,0 -7.32351,7.36671 -7.32349,7.36671 5.42098,7.24669 c 2.98154,3.98568 6.44085,8.60365 7.68735,10.26216 l 2.26637,3.01546 -3.14418,0 c -2.87969,0 -3.67542,-0.70921 -9.45894,-8.43055 -6.11263,-8.1607 -6.3719,-8.37884 -8.09996,-6.81495 -1.45305,1.31499 -1.78521,2.88359 -1.78521,8.43055 l 0,6.81495 -2.78351,0 -2.7835,0 0,-25.05154 z m 150.30928,7.42268 0,-17.62887 2.31958,0 c 1.95877,0 2.31959,0.433 2.31959,2.78351 0,2.92979 1.28606,3.75052 2.18916,1.39706 0.89663,-2.33657 6.42766,-5.10128 10.21287,-5.10493 3.26832,-0.003 3.53781,0.18232 3.02814,2.08416 -0.30771,1.14819 -0.56517,2.31693 -0.57214,2.59719 -0.007,0.28026 -1.43523,0.34349 -3.17392,0.1405 -2.59817,-0.30331 -3.79637,0.21255 -6.72681,2.89615 l -3.56555,3.2652 -0.30384,12.59945 -0.30385,12.59944 -2.71162,0 -2.71161,0 0,-17.62886 z M -91.909908,421.79308 c -15.695252,-4.4198 -23.322532,-18.10185 -22.114612,-39.66984 1.03894,-18.55068 9.25969,-29.69522 24.853479,-33.69291 7.329411,-1.879 15.661201,-1.36525 24.150431,1.48914 3.28534,1.10465 6.09637,2.12839 6.24673,2.27497 0.15035,0.14658 -0.84307,3.05533 -2.20761,6.46389 -1.95798,4.89096 -2.79797,6.06595 -3.98472,5.57393 -14.22052,-5.89582 -21.372309,-5.4377 -27.704848,1.77467 -4.263898,4.85631 -6.114314,12.04754 -5.62158,21.84701 0.730297,14.5241 5.820332,21.2434 16.740568,22.09906 5.14677,0.40328 13.01583,-0.89855 18.76364,-3.10419 1.1936,-0.45804 1.42158,0.49797 1.42158,5.96138 l 0,6.50689 -4.40722,1.51083 c -6.44213,2.20843 -19.949517,2.70724 -26.135838,0.96517 z m 46.316258,-36.16754 0,-36.64949 7.88659,0 7.8866,0 0,36.64949 0,36.64948 -7.8866,0 -7.88659,0 0,-36.64948 z m 34.32989,0 0,-36.64949 9.97423,0.017 9.97423,0.017 15.09434,26.19434 c 8.3019,14.4069 15.45961,26.77311 15.90604,27.48047 0.46785,0.74133 0.59842,-10.36164 0.30824,-26.21134 l -0.50342,-27.49743 7.0974,0 7.0974,0 0,36.68088 0,36.68087 -9.81732,-0.26335 -9.81733,-0.26335 -15.77974,-27.37113 c -8.67887,-15.05412 -15.8768,-27.4701 -15.9954,-27.59108 -0.11862,-0.12096 -0.0269,12.30043 0.20375,27.6031 l 0.4194,27.82303 -7.08091,0 -7.08091,0 0,-36.64948 z m 83.50516,-0.34882 0,-37.2285 12.75773,0.007 c 7.01675,0.004 15.47165,0.4329 18.78866,0.95344 8.24045,1.29316 16.68607,5.57034 21.26042,10.76707 12.69092,14.41764 10.47948,43.21853 -4.17486,54.37174 -7.89677,6.01012 -13.36114,7.35013 -32.16288,7.88726 l -16.46907,0.47048 0,-37.22849 z m 35.50631,20.93644 c 6.42375,-3.76457 9.42741,-10.46966 9.42741,-21.04483 0,-9.6204 -1.9321,-15.41884 -6.46344,-19.39739 -3.92428,-3.44558 -8.35834,-4.72118 -16.4342,-4.72785 l -6.26289,-0.005 0,24.24006 0,24.24006 7.7401,-0.40625 c 6.26077,-0.3286 8.55295,-0.8826 11.99302,-2.89862 z m 41.504,-21.05154 0,-37.1134 20.87628,0 20.87629,0 0,6.49484 0,6.49485 -13.45361,0 -13.4536,0 0,8.35051 0,8.35052 12.52577,0 12.52577,0 0,6.49485 0,6.49484 -12.52577,0 -12.52577,0 0,9.27835 0,9.27835 13.4536,0 13.45361,0 0,6.49485 0,6.49484 -20.87629,0 -20.87628,0 0,-37.1134 z m 57.52577,-0.46392 0,-36.64948 12.81928,0 c 19.10544,0 27.06475,1.9484 32.81757,8.03358 3.39406,3.59015 4.46624,6.84013 4.46624,13.53801 0,7.17804 -2.63639,12.89581 -7.60596,16.49575 -2.0066,1.45358 -4.1432,2.81803 -4.748,3.03213 -0.6531,0.23119 3.04493,6.51815 9.10654,15.48189 5.6134,8.30096 10.34536,15.45827 10.51546,15.90513 0.17011,0.44686 -3.45059,0.81248 -8.04599,0.81248 l -8.35528,0 -8.55679,-13.91753 -8.55679,-13.91752 -4.50546,0 -4.50546,0 0,13.91752 0,13.91753 -7.42268,0 -7.42268,0 0,-36.64949 z m 30.65535,-6.26288 c 5.61996,-3.79108 5.61701,-11.50911 -0.006,-15.30928 -2.45836,-1.66131 -4.38749,-2.08763 -9.44679,-2.08763 l -6.35764,0 0,9.74227 0,9.74227 6.35764,0 c 5.05758,0 6.99045,-0.42689 9.45235,-2.08763 z m -404.5525,-251.4433 c 0.0195,-100.29846 0.0985,-105.246105 1.73867,-108.788655 2.10559,-4.547857 5.93058,-8.246135 10.50497,-10.156965 3.09487,-1.292802 34.74903,-1.440973 307.83908,-1.440973 273.09005,0 304.74421,0.148171 307.83908,1.440973 4.57438,1.91083 8.39937,5.609108 10.50496,10.156965 1.64015,3.54255 1.71922,8.490195 1.73867,108.788655 l 0.0204,105.07732 -320.10309,0 -320.10309,0 0.0204,-105.07732 z M 415.3548,171.574 c 0.82907,-0.82908 1.1134,-10.64507 1.1134,-38.43888 0,-32.69514 -0.18087,-37.506353 -1.45803,-38.783503 -1.29158,-1.291588 -7.53314,-1.458032 -54.67599,-1.458032 -47.14285,0 -53.38441,0.166444 -54.67599,1.458032 -1.27716,1.27715 -1.45803,6.088363 -1.45803,38.783503 0,27.79381 0.28432,37.6098 1.1134,38.43888 1.60761,1.60761 108.43362,1.60761 110.04124,0 z m -67.85514,-57.40023 c -1.76582,-2.52106 -0.91923,-5.43881 1.88773,-6.50601 2.98541,-1.13504 19.00042,-1.09997 22.02041,0.0482 1.7795,0.67657 2.37999,1.56614 2.37999,3.52578 0,4.39946 -1.25627,4.8477 -13.58657,4.8477 -10.42659,0 -11.46998,-0.15737 -12.70156,-1.91569 z m 72.49431,-27.032763 c 0.74816,-0.748158 1.1134,-4.948453 1.1134,-12.804123 0,-7.85567 -0.36524,-12.055964 -1.1134,-12.804123 -1.60903,-1.609029 -117.71055,-1.609029 -119.31958,0 -0.74816,0.748159 -1.11341,4.948453 -1.11341,12.804123 0,7.85567 0.36525,12.055965 1.11341,12.804123 1.60903,1.609033 117.71055,1.609033 119.31958,0 z"
       style="fill:#238dc5" />
    <path
       id="path4685"
       d="m 232.75686,526.09071 c -4.92924,-1.48333 -7.42268,-4.26654 -7.42268,-8.28529 0,-3.66628 2.89037,-8.31391 5.17043,-8.31391 1.52076,0 1.772,-1.46953 0.39658,-2.31958 -1.59885,-0.98815 -1.04817,-6.56227 0.81488,-8.2483 1.69435,-1.53336 1.6686,-1.65126 -0.92783,-4.24768 -2.17256,-2.17256 -2.67055,-3.47105 -2.67055,-6.96327 0,-9.95239 4.48778,-12.64302 19.78552,-11.86227 8.50203,0.43393 9.94676,0.73139 9.70466,1.99814 -0.16597,0.8684 -1.52569,1.68156 -3.26443,1.95224 -2.37771,0.37016 -2.80038,0.7452 -2.0913,1.85567 1.20464,1.88657 1.1509,8.96347 -0.0856,11.2739 -1.32692,2.47937 -7.87357,5.38128 -12.19757,5.40676 -2.65353,0.0157 -3.81227,0.56108 -4.98089,2.34461 -2.36588,3.6108 -0.48292,5.09729 6.46486,5.10362 11.12501,0.0101 15.50287,2.58541 15.59378,9.17309 0.10138,7.34515 -4.64427,10.97525 -15.31269,11.71318 -3.15136,0.21798 -7.19108,-0.0434 -8.97717,-0.58091 z m 16.61112,-5.24985 c 3.04056,-2.2595 3.81423,-7.43887 1.37736,-9.22076 -1.02438,-0.74904 -4.47641,-1.20075 -9.17643,-1.20075 -6.29979,0 -7.86703,0.30998 -9.56493,1.89182 -3.54275,3.30058 -2.24696,8.51438 2.60855,10.49585 2.76805,1.1296 12.29847,-0.14032 14.75545,-1.96616 z m -2.86855,-28.08653 c 3.07828,-2.86785 2.85247,-9.38888 -0.41409,-11.95836 -5.70436,-4.48705 -13.32848,-0.87305 -13.32848,6.31799 0,2.87712 0.53658,4.10824 2.44472,5.60918 3.21164,2.52628 8.60371,2.54117 11.29785,0.0312 z M -47.4427,510.797 c -4.9768,-2.15822 -7.35096,-4.92564 -8.95279,-10.43575 -1.61453,-5.55377 -1.16868,-12.54015 1.07745,-16.88369 4.55712,-8.81252 16.54264,-10.75267 24.59074,-3.98063 5.26211,4.42776 6.97554,17.20785 3.26339,24.34071 -3.71182,7.13219 -12.51168,10.19751 -19.97879,6.95936 z m 11.85409,-4.60923 c 3.27871,-2.2965 4.84032,-6.31946 4.84032,-12.46945 0,-9.21493 -3.60533,-13.91753 -10.67011,-13.91753 -7.06477,0 -10.6701,4.7026 -10.6701,13.91753 0,9.21493 3.60533,13.91752 10.6701,13.91752 2.0693,0 4.69271,-0.65163 5.82979,-1.44807 z m 28.47107,5.10179 c -3.43075,-0.99793 -6.38592,-3.6492 -8.49781,-7.62392 -1.96335,-3.69519 -2.19386,-15.78897 -0.36643,-19.22567 3.67713,-6.91529 9.74645,-9.90939 17.83279,-8.79723 4.8618,0.66867 5.75832,1.32614 4.89084,3.58676 -0.45425,1.18374 -1.56226,1.34677 -6.00042,0.88289 -4.27739,-0.44708 -5.96392,-0.22782 -7.87391,1.02365 -3.25904,2.1354 -5.05911,6.78314 -5.05911,13.06247 0,5.67464 1.64609,9.75193 4.84032,11.98926 2.32583,1.62907 8.6692,1.91002 12.26422,0.5432 2.14978,-0.81734 2.37999,-0.68693 2.37999,1.34815 0,1.81313 -0.6793,2.44166 -3.47938,3.21928 -4.06353,1.1285 -7.0293,1.12609 -10.9311,-0.009 z m 75.87956,-0.0963 c -3.34514,-0.74913 -3.9433,-1.23303 -3.9433,-3.1901 0,-2.17853 0.19379,-2.26593 3.47938,-1.56911 1.91366,0.40585 6.33436,0.73792 9.82377,0.73792 5.80139,0 6.53595,-0.22281 8.58247,-2.60329 1.23095,-1.4318 2.23809,-3.59178 2.23809,-4.79995 0,-2.30332 -4.09897,-7.90604 -5.78409,-7.90604 -0.53898,0 -4.04735,-1.47536 -7.7964,-3.27858 -7.76198,-3.73337 -9.61539,-6.23605 -9.61539,-12.98383 0,-3.47952 0.49952,-4.79223 2.63689,-6.9296 3.3157,-3.3157 9.40487,-5.00786 15.23673,-4.23424 6.99707,0.9282 8.97464,1.93583 8.36613,4.26276 -0.41769,1.59725 -0.99819,1.88105 -2.94191,1.43824 -10.51846,-2.39627 -17.09397,-1.0837 -18.28189,3.64934 -1.42368,5.67238 1.10283,8.40592 11.92539,12.90263 8.20379,3.40863 10.89371,6.55937 10.89371,12.75993 0,4.0348 -0.41084,5.07162 -3.05899,7.71977 -4.74813,4.74812 -12.29536,6.14382 -21.76059,4.02415 z m 39.88984,-0.30445 c -1.6806,-0.7304 -3.43134,-2.38885 -3.9433,-3.73543 -0.50643,-1.33199 -0.92077,-8.03122 -0.92077,-14.88718 l 0,-12.46537 -2.78351,0 c -3.54718,0 -3.56202,-1.40543 -0.0341,-3.22979 1.94474,-1.00566 3.04141,-2.50616 3.74711,-5.12692 1.41775,-5.2653 3.70962,-4.97485 3.70962,0.47012 l 0,4.17525 5.1031,0 c 4.48453,0 5.10309,0.22493 5.10309,1.85567 0,1.63075 -0.61856,1.85567 -5.10309,1.85567 l -5.1031,0 0,11.85541 c 0,14.11711 0.76316,15.97964 6.54746,15.97964 2.96464,0 3.65873,0.33151 3.65873,1.74746 0,2.91596 -5.00047,3.67017 -9.98129,1.50547 z m 25.76111,-0.0918 c -4.97681,-2.15822 -7.35096,-4.92564 -8.95279,-10.43575 -1.61453,-5.55377 -1.16868,-12.54015 1.07745,-16.88369 4.55712,-8.81252 16.54264,-10.75267 24.59074,-3.98063 5.26211,4.42776 6.97554,17.20785 3.26338,24.34071 -3.71181,7.13219 -12.51167,10.19751 -19.97878,6.95936 z m 11.85409,-4.60923 c 3.2787,-2.29651 4.84032,-6.31947 4.84032,-12.46946 0,-9.21493 -3.60533,-13.91753 -10.67011,-13.91753 -7.06477,0 -10.6701,4.7026 -10.6701,13.91753 0,9.21493 3.60533,13.91752 10.6701,13.91752 2.0693,0 4.69271,-0.65163 5.82979,-1.44807 z m 49.68141,4.73469 c -3.59541,-1.56398 -5.04596,-4.08882 -5.11234,-8.89857 -0.10109,-7.32465 4.08954,-10.40437 15.70939,-11.54496 6.35204,-0.62351 6.7268,-0.78767 6.7268,-2.9467 0,-2.50264 -1.54825,-5.94893 -3.15436,-7.02136 -1.50956,-1.00795 -8.40993,-0.85332 -11.32165,0.25371 -1.91063,0.72642 -2.72183,0.66929 -3.29362,-0.23196 -1.20605,-1.90092 -0.96799,-2.28718 2.2284,-3.61565 4.39201,-1.8254 12.8089,-1.61535 15.87901,0.39627 3.76469,2.46671 4.3014,4.98425 4.3014,20.17682 0,13.23856 -0.0829,13.85712 -1.85567,13.85712 -1.2183,0 -1.85567,-0.61856 -1.85567,-1.80091 0,-2.64193 -1.37684,-3.04957 -3.26251,-0.96592 -1.68546,1.86242 -6.83805,3.70945 -10.1911,3.65318 -1.02062,-0.0172 -3.17975,-0.60712 -4.79808,-1.31107 z m 13.6891,-5.86826 c 2.2274,-1.99019 3.00239,-3.58445 3.38273,-6.95877 l 0.49335,-4.37712 -4.06396,0.006 c -8.73663,0.0107 -13.80623,3.03891 -13.80623,8.24638 0,6.00663 8.60154,7.90218 13.99411,3.08393 z m 64.57849,5.87656 c -6.44989,-2.30032 -9.38373,-6.28321 -10.42823,-14.15701 -0.88759,-6.69095 1.4454,-14.11228 5.57665,-17.73957 6.98665,-6.13436 17.83564,-4.27023 21.70853,3.73008 1.09622,2.26449 1.99313,5.65554 1.99313,7.53565 l 0,3.41841 -12.06186,0 -12.06185,0 0,2.34939 c 0,4.08591 2.48334,8.58176 5.64268,10.21552 3.03618,1.57007 11.30864,1.56487 15.00165,-0.009 1.2968,-0.55281 1.62371,-0.22736 1.62371,1.61654 0,1.95753 -0.62702,2.4666 -4.12221,3.34669 -5.3019,1.33503 -8.48229,1.25936 -12.8722,-0.30628 z m 13.28307,-22.82554 c 0,-2.62758 -2.40338,-7.0322 -4.21683,-7.72808 -3.27615,-1.25717 -8.77012,-0.5791 -10.66558,1.31636 -1.80536,1.80536 -3.67429,5.5928 -3.67429,7.44604 0,0.48019 4.14206,0.86743 9.27835,0.86743 8.73472,0 9.27835,-0.11143 9.27835,-1.90175 z m -401.75258,-0.5452 0,-23.78716 10.90521,0.44913 c 15.179585,0.62517 19.71335,3.26651 19.71335,11.48486 0,4.35777 -2.569826,8.34503 -6.290064,9.75946 -2.309418,0.87805 -2.290286,0.91035 1.745564,2.94617 3.26622,1.64762 4.35262,2.84537 5.44373,6.0017 1.19897,3.46837 1.19897,4.4081 0,7.80255 -2.482841,7.02925 -7.521904,9.07173 -22.4714,9.10831 l -9.04639,0.0221 0,-23.78715 z m 24.668585,16.08078 c 2.959961,-3.44211 2.959961,-8.05236 0,-11.49447 -2.097668,-2.43936 -2.769541,-2.6237 -10.670105,-2.92756 l -8.43147,-0.32428 0,8.99908 0,8.99907 8.43147,-0.32428 c 7.900564,-0.30386 8.572437,-0.4882 10.670105,-2.92756 z m -1.895576,-21.32038 c 3.186334,-2.74078 3.428322,-8.27689 0.490231,-11.21551 -1.635588,-1.63589 -3.321112,-2.0303 -9.83505,-2.3014 l -7.86118,-0.32717 0,7.98181 0,7.98181 7.37094,0 c 6.339151,0 7.715874,-0.2967 9.835059,-2.11954 z m 18.979571,3.97521 0,-25.05155 2.7835,0 2.78351,0 0,25.05155 0,25.05154 -2.78351,0 -2.7835,0 0,-25.05154 z m 88.14433,0 0,-25.05155 2.31959,0 2.31958,0 0,15.85051 c 0,8.71779 0.35075,15.71135 0.77945,15.54124 0.4287,-0.1701 4.07062,-3.96262 8.09314,-8.42783 5.85734,-6.50193 7.82685,-8.11856 9.89066,-8.11856 1.41733,0 2.57696,0.25326 2.57696,0.56281 0,0.30954 -2.96519,3.62083 -6.58933,7.35841 -4.44359,4.58271 -6.35156,7.1942 -5.85916,8.01967 0.40159,0.67323 3.79957,5.29494 7.55107,10.27045 l 6.8209,9.04639 -3.08196,0 c -2.76027,0 -3.58941,-0.70213 -7.94365,-6.7268 -8.3631,-11.57149 -7.23091,-10.6434 -9.91172,-8.12491 -2.04258,1.9189 -2.32636,2.95804 -2.32636,8.5186 0,6.13677 -0.0719,6.33311 -2.31958,6.33311 l -2.31959,0 0,-25.05154 z m 150.30928,7.42268 0,-17.62887 2.31958,0 c 2.05096,0 2.31959,0.39258 2.31959,3.38976 l 0,3.38975 3.25211,-3.34859 c 4.77658,-4.91828 13.03299,-6.05279 11.87694,-1.632 -0.36812,1.40767 -1.26744,1.9211 -3.40736,1.94531 -3.77259,0.0427 -6.75545,1.74609 -8.98797,5.13277 -1.53594,2.32999 -1.79454,4.4207 -1.79977,14.55084 l -0.006,11.82989 -2.78351,0 -2.7835,0 0,-17.62886 z"
       style="fill:#2f729b" />
  </g>
</svg>
