<?xml version="1.0" encoding="UTF-8" standalone="no"?>
<svg
   xmlns:dc="http://purl.org/dc/elements/1.1/"
   xmlns:cc="http://creativecommons.org/ns#"
   xmlns:rdf="http://www.w3.org/1999/02/22-rdf-syntax-ns#"
   xmlns:svg="http://www.w3.org/2000/svg"
   xmlns="http://www.w3.org/2000/svg"
   xmlns:sodipodi="http://sodipodi.sourceforge.net/DTD/sodipodi-0.dtd"
   xmlns:inkscape="http://www.inkscape.org/namespaces/inkscape"
   viewBox="0 0 787.09227 334.71213"
   height="334.71213"
   width="787.09229"
   version="1.1"
   id="svg3603"
   inkscape:version="0.91 r13725"
   sodipodi:docname="fuel.svg">
  <sodipodi:namedview
     pagecolor="#ffffff"
     bordercolor="#666666"
     borderopacity="1"
     objecttolerance="10"
     gridtolerance="10"
     guidetolerance="10"
     inkscape:pageopacity="0"
     inkscape:pageshadow="2"
     inkscape:window-width="1920"
     inkscape:window-height="1180"
     id="namedview3345"
     showgrid="false"
     inkscape:zoom="1.2285726"
     inkscape:cx="387.39051"
     inkscape:cy="263.19267"
     inkscape:window-x="1364"
     inkscape:window-y="-3"
     inkscape:window-maximized="1"
     inkscape:current-layer="svg3603"
     fit-margin-top="0"
     fit-margin-left="0"
     fit-margin-right="0"
     fit-margin-bottom="0" />
  <metadata
     id="metadata3609">
    <rdf:RDF>
      <cc:Work
         rdf:about="">
        <dc:format>image/svg+xml</dc:format>
        <dc:type
           rdf:resource="http://purl.org/dc/dcmitype/StillImage" />
        <dc:title></dc:title>
      </cc:Work>
    </rdf:RDF>
  </metadata>
  <defs
     id="defs3607" />
  <path
     style="fill:#e8edf2"
     d="M 23.134661,333.5235 C 16.15673,331.96984 10.084515,328.58006 6.2318058,324.08759 -0.01211523,316.80684 0.36840154,326.23782 0.04832635,170.83244 -0.12307765,87.611463 0.17309609,25.391892 0.75249215,22.902472 1.3699277,20.249605 1.7996968,74.022628 1.8758966,163.46349 c 0.06787,79.67167 0.453745,146.24016 0.857489,147.92998 0.5067117,2.12077 3.0008421,4.94775 8.0525814,9.12723 12.099795,10.01056 -32.525165,8.96574 382.932253,8.96574 405.71169,0 371.42942,0.56705 379.72994,-6.28093 8.11472,-6.6947 7.63622,3.6211 7.31283,-157.64802 l -0.28931,-144.26962 -2.87867,-4.527162 c -1.58326,-2.489941 -3.44529,-4.424751 -4.13788,-4.299579 -0.69255,0.125171 -1.13877,-0.07966 -0.99157,-0.45517 0.52261,-1.333408 -6.18769,-6.598448 -10.71343,-8.405922 C 757.17214,1.771689 755.74646,1.764241 389.78369,1.656947 187.7297,1.597709 23.902462,1.236525 25.723127,0.854315 27.543793,0.472106 192.91313,0.110922 393.21054,0.051684 792.64069,-0.066449 765.35925,-0.434515 774.35976,5.19392 c 5.09082,3.183518 7.15,5.245281 10.21312,10.225808 l 2.51941,4.096522 0,147.92997 0,147.92997 -2.3865,4.21438 c -3.04448,5.37632 -9.26119,10.50515 -15.72153,12.97034 l -5.06409,1.93239 -367.44337,0.17178 C 79.343904,334.81336 28.225766,334.65708 23.134661,333.5235 Z"
     id="path3619"
     inkscape:connector-curvature="0" />
  <path
     style="fill:#238dc6"
     d="m 11.793184,327.02039 c -4.0033195,-2.09545 -5.4372715,-3.53222 -7.5286315,-7.54337 l -2.583412,-4.9549 0,-149.13291 C 1.6811405,1.911915 1.3111585,12.818356 7.0654115,6.669855 12.459072,0.90665199 14.450613,0.55485299 41.810005,0.53234699 l 24.819588,-0.02042 0,164.54847301 0,164.54847 -24.945595,0 -24.945596,0 -4.945218,-2.58848 z M 40.128981,184.17717 c 0.755286,-5.04647 2.558938,-5.70687 6.845493,-2.50646 l 3.076841,2.29723 3.84308,-3.85061 3.843081,-3.85062 -2.048787,-2.77655 c -1.126832,-1.52711 -2.048787,-3.40629 -2.048787,-4.17598 0,-1.74637 2.833555,-3.32414 5.969931,-3.32414 2.2823,0 2.380585,-0.22291 2.380585,-5.39935 l 0,-5.39937 -3.941295,-0.87579 c -4.750944,-1.0557 -5.489894,-3.13796 -2.534815,-7.14273 l 2.05447,-2.78427 -3.79491,-3.80234 -3.794911,-3.80234 -2.851899,2.11262 c -4.001219,2.96403 -5.837314,2.31753 -6.887006,-2.42489 l -0.874077,-3.94901 -5.334208,0 -5.334207,0 -0.778373,3.94367 c -0.931345,4.71872 -2.767306,5.40788 -6.779984,2.545 -2.644575,-1.88679 -2.962751,-1.9192 -5.095535,-0.519 -1.251155,0.82139 -2.969282,2.55539 -3.818058,3.85331 -1.466879,2.24313 -1.441989,2.49709 0.503083,5.13309 2.817187,3.81793 1.907677,5.97392 -2.9511645,6.99576 -3.584146,0.75378 -3.94694,1.09536 -4.221451,3.97465 -0.549298,5.76151 0.406225,7.54099 4.049229,7.54099 2.5262815,0 3.4746105,0.49475 4.2603165,2.22256 0.839484,1.84607 0.646241,2.71643 -1.140843,5.13832 l -2.151524,2.91579 3.807396,3.81487 3.807394,3.81484 3.113687,-2.37958 c 3.921839,-2.99719 5.954344,-2.0836 6.822792,3.06677 l 0.626941,3.71809 5.380105,0 5.380105,0 0.617305,-4.12453 z m -10.061019,-15.8503 c -3.774733,-2.02586 -5.127249,-4.1279 -5.161438,-8.02177 -0.0386,-4.39633 2.836133,-8.01661 6.984921,-8.79646 9.034402,-1.69818 14.984579,7.87762 8.990725,14.46906 -3.118893,3.42984 -7.163523,4.30844 -10.814208,2.34917 z"
     id="path3615"
     inkscape:connector-curvature="0" />
  <text
     xml:space="preserve"
     style="font-style:normal;font-weight:normal;font-size:40px;line-height:125%;font-family:sans-serif;letter-spacing:0px;word-spacing:0px;fill:#248ec7;fill-opacity:1;stroke:none;stroke-width:1px;stroke-linecap:butt;stroke-linejoin:miter;stroke-opacity:1"
     x="121.16801"
     y="133.2691"
     id="text3433"
     sodipodi:linespacing="125%"><tspan
       sodipodi:role="line"
       id="tspan3435"
       x="121.16801"
       y="133.2691"
       style="font-style:normal;font-variant:normal;font-weight:bold;font-stretch:normal;font-size:92.5px;font-family:'Open Sans';-inkscape-font-specification:'Open Sans Bold';letter-spacing:0px;word-spacing:0px;fill:#248ec7;fill-opacity:1">FUEL</tspan></text>
  <text
     xml:space="preserve"
     style="font-style:normal;font-weight:normal;font-size:40px;line-height:125%;font-family:sans-serif;letter-spacing:0px;word-spacing:0px;fill:#30739c;fill-opacity:1;stroke:none;stroke-width:1px;stroke-linecap:butt;stroke-linejoin:miter;stroke-opacity:1"
     x="120.86581"
     y="220.75294"
     id="text4241"
     sodipodi:linespacing="125%"><tspan
       sodipodi:role="line"
       id="tspan4243"
       x="120.86581"
       y="220.75294"
       style="font-style:normal;font-variant:normal;font-weight:normal;font-stretch:normal;font-size:50px;font-family:'Open Sans';-inkscape-font-specification:'Open Sans';fill:#30739c;fill-opacity:1">Deployment/Management</tspan></text>
</svg>
