<?xml version="1.0" encoding="UTF-8" standalone="no"?>
<svg
   xmlns:dc="http://purl.org/dc/elements/1.1/"
   xmlns:cc="http://creativecommons.org/ns#"
   xmlns:rdf="http://www.w3.org/1999/02/22-rdf-syntax-ns#"
   xmlns:svg="http://www.w3.org/2000/svg"
   xmlns="http://www.w3.org/2000/svg"
   viewBox="0 0 787.09227 334.71213"
   height="334.71213"
   width="787.09229"
   version="1.1"
   id="svg3603">
  <metadata
     id="metadata3609">
    <rdf:RDF>
      <cc:Work
         rdf:about="">
        <dc:format>image/svg+xml</dc:format>
        <dc:type
           rdf:resource="http://purl.org/dc/dcmitype/StillImage" />
        <dc:title></dc:title>
      </cc:Work>
    </rdf:RDF>
  </metadata>
  <defs
     id="defs3607" />
  <path
     style="fill:#e8edf2"
     d="m 23.108326,333.5235 c -6.969988,-1.55366 -13.03529,-4.94344 -16.8836138,-9.43591 -6.23681363,-7.28075 -5.85673,2.15023 -6.17644085,-153.25515 C -0.12293754,87.611465 0.17289907,25.391894 0.7516356,22.902474 1.3683683,20.249607 1.7976482,74.02263 1.8737613,163.46349 c 0.067792,79.67167 0.4532285,146.24016 0.8565129,147.92998 0.5061348,2.12077 2.9974263,4.94775 8.0434148,9.12723 12.086022,10.01056 -32.488141,8.96574 382.496361,8.96574 405.24987,0 371.00662,0.56705 379.29769,-6.28093 8.10549,-6.6947 7.62753,3.6211 7.30451,-157.64802 L 779.58327,21.287872 776.70788,16.76071 c -1.58146,-2.489941 -3.44138,-4.424751 -4.13318,-4.299579 -0.69175,0.125171 -1.13746,-0.07966 -0.99044,-0.45517 0.52202,-1.333408 -6.18064,-6.5984477 -10.70123,-8.4059217 -4.57278,-1.828348 -5.99684,-1.835796 -371.54302,-1.94309 -201.824,-0.059238 -365.464756,-0.420422 -363.646164,-0.80263199 1.818594,-0.382209 166.999694,-0.743393 367.069104,-0.802631 398.97547,-0.118133 371.72509,-0.486199 380.71536,5.14223599 5.08502,3.183518 7.14186,5.2452807 10.20149,10.2258077 l 2.51655,4.096522 0,147.929968 0,147.92997 -2.38379,4.21438 c -3.04102,5.37632 -9.25065,10.50515 -15.70364,12.97034 l -5.05831,1.93239 -367.02511,0.17178 C 79.253587,334.81336 28.193637,334.65708 23.108326,333.5235 Z"
     id="path3619" />
  <path
     style="fill:#d40000;fill-opacity:1"
     d="m 11.793184,327.02039 c -4.0033195,-2.09545 -5.4372715,-3.53222 -7.5286315,-7.54337 l -2.583412,-4.9549 0,-149.13291 c 0,-163.4772927 -0.369982,-152.570852 5.384271,-158.7193527 5.3936605,-5.763203 7.3852015,-6.115002 34.7445935,-6.137508 l 24.819588,-0.02042 0,164.5484707 0,164.54847 -24.945595,0 -24.945596,0 -4.945218,-2.58848 z M 40.128981,184.17717 c 0.755286,-5.04647 2.558938,-5.70687 6.845493,-2.50646 l 3.076841,2.29723 3.84308,-3.85061 3.843081,-3.85062 -2.048787,-2.77655 c -1.126832,-1.52711 -2.048787,-3.40629 -2.048787,-4.17598 0,-1.74637 2.833555,-3.32414 5.969931,-3.32414 2.2823,0 2.380585,-0.22291 2.380585,-5.39935 l 0,-5.39937 -3.941295,-0.87579 c -4.750944,-1.0557 -5.489894,-3.13796 -2.534815,-7.14273 l 2.05447,-2.78427 -3.79491,-3.80234 -3.794911,-3.80234 -2.851899,2.11262 c -4.001219,2.96403 -5.837314,2.31753 -6.887006,-2.42489 l -0.874077,-3.94901 -5.334208,0 -5.334207,0 -0.778373,3.94367 c -0.931345,4.71872 -2.767306,5.40788 -6.779984,2.545 -2.644575,-1.88679 -2.962751,-1.9192 -5.095535,-0.519 -1.251155,0.82139 -2.969282,2.55539 -3.818058,3.85331 -1.466879,2.24313 -1.441989,2.49709 0.503083,5.13309 2.817187,3.81793 1.907677,5.97392 -2.9511645,6.99576 -3.584146,0.75378 -3.94694,1.09536 -4.221451,3.97465 -0.549298,5.76151 0.406225,7.54099 4.049229,7.54099 2.5262815,0 3.4746105,0.49475 4.2603165,2.22256 0.839484,1.84607 0.646241,2.71643 -1.140843,5.13832 l -2.151524,2.91579 3.807396,3.81487 3.807394,3.81484 3.113687,-2.37958 c 3.921839,-2.99719 5.954344,-2.0836 6.822792,3.06677 l 0.626941,3.71809 5.380105,0 5.380105,0 0.617305,-4.12453 z m -10.061019,-15.8503 c -3.774733,-2.02586 -5.127249,-4.1279 -5.161438,-8.02177 -0.0386,-4.39633 2.836133,-8.01661 6.984921,-8.79646 9.034402,-1.69818 14.984579,7.87762 8.990725,14.46906 -3.118893,3.42984 -7.163523,4.30844 -10.814208,2.34917 z"
     id="path3615" />
  <text
     xml:space="preserve"
     style="font-style:normal;font-weight:normal;font-size:40px;line-height:125%;font-family:sans-serif;letter-spacing:0px;word-spacing:0px;fill:#d40000;fill-opacity:1;stroke:none;stroke-width:1px;stroke-linecap:butt;stroke-linejoin:miter;stroke-opacity:1"
     x="121.16801"
     y="133.2691"
     id="text3433"><tspan
       id="tspan3435"
       x="121.16801"
       y="133.2691"
       style="font-style:normal;font-variant:normal;font-weight:bold;font-stretch:normal;font-size:92.5px;font-family:'Open Sans';-inkscape-font-specification:'Open Sans Bold';letter-spacing:0px;word-spacing:0px;fill:#d40000;fill-opacity:1">FUEL</tspan></text>
  <text
     xml:space="preserve"
     style="font-style:normal;font-weight:normal;font-size:40px;line-height:125%;font-family:sans-serif;letter-spacing:0px;word-spacing:0px;fill:#d40000;fill-opacity:1;stroke:none;stroke-width:1px;stroke-linecap:butt;stroke-linejoin:miter;stroke-opacity:1"
     x="120.86581"
     y="220.75294"
     id="text4241"><tspan
       id="tspan4243"
       x="120.86581"
       y="220.75294"
       style="font-style:normal;font-variant:normal;font-weight:normal;font-stretch:normal;font-size:50px;font-family:'Open Sans';-inkscape-font-specification:'Open Sans';fill:#d40000;fill-opacity:1">Deployment/Management</tspan></text>
</svg>
