<?xml version="1.0" encoding="UTF-8" standalone="no"?>
<svg
   xmlns:dc="http://purl.org/dc/elements/1.1/"
   xmlns:cc="http://creativecommons.org/ns#"
   xmlns:rdf="http://www.w3.org/1999/02/22-rdf-syntax-ns#"
   xmlns:svg="http://www.w3.org/2000/svg"
   xmlns="http://www.w3.org/2000/svg"
   viewBox="0 0 653.93164 727.20954"
   height="727.20953"
   width="653.93164"
   version="1.1"
   id="svg4797">
  <metadata
     id="metadata4803">
    <rdf:RDF>
      <cc:Work
         rdf:about="">
        <dc:format>image/svg+xml</dc:format>
        <dc:type
           rdf:resource="http://purl.org/dc/dcmitype/StillImage" />
        <dc:title></dc:title>
      </cc:Work>
    </rdf:RDF>
  </metadata>
  <defs
     id="defs4801" />
  <path
     style="fill:#d2dde7"
     d="m 16.064036,725.50575 c -5.708382,-2.62055 -14.0357161,-11.1547 -15.23680507,-15.6152 -0.721733,-2.68031 -0.942467,-102.80091 -0.773235,-350.72351 L 0.29083993,12.194665 2.8273289,8.5626833 c 1.39507,-1.99759 4.078379,-4.675796 5.962909,-5.9515691 L 12.216659,0.29152665 322.5261,0.05411635 c 221.59904,-0.1695399 311.38242,0.05151 314.0627,0.7732339 4.46266,1.20167005 12.99605,9.52745575 15.6173,15.23737175 1.64334,3.579694 1.7045,15.980126 1.72415,349.591648 0.0183,310.63062 -0.12648,346.23187 -1.4206,349.32989 -1.91083,4.57438 -5.6091,8.39937 -10.15696,10.50496 -3.58899,1.66165 -13.91219,1.7183 -313.14433,1.7183 -298.271128,0 -309.56686,-0.0614 -313.144324,-1.70377 z m 620.831644,-9.03998 c 1.74569,-0.82837 4.10518,-2.81161 5.24332,-4.40721 l 2.06936,-2.90107 0.23723,-239.6134 0.23723,-239.61339 -320.11364,0 -320.1136251,0 0.23723,239.61339 0.23723,239.6134 2.058108,2.88528 c 1.131959,1.5869 3.4283511,3.56064 5.1030931,4.38609 2.786288,1.3733 29.321917,1.5026 312.337744,1.52193 283.47226,0.0194 309.55774,-0.10461 312.46672,-1.48502 z M 174.27281,523.35709 c -6.31672,-3.16815 -7.42786,-9.86652 -2.42012,-14.58943 2.24837,-2.12048 2.92155,-3.35643 2.33381,-4.28481 -1.35608,-2.14202 -0.97089,-5.08169 0.99299,-7.57836 1.51883,-1.93087 1.60997,-2.43972 0.51243,-2.8609 -4.55385,-1.74747 -5.38943,-12.61202 -1.30752,-17.00107 3.43631,-3.69487 5.82217,-4.1629 17.68413,-3.46907 9.82749,0.57483 10.95426,0.8181 10.95426,2.36497 0,1.16532 -0.6767,1.72883 -2.08763,1.73843 -3.0681,0.0209 -4.47603,1.16281 -3.44461,2.79379 1.37801,2.17903 1.03064,7.3429 -0.68987,10.25551 -1.97576,3.34469 -6.3754,5.4932 -11.24874,5.4932 -4.01566,0 -6.65286,1.82235 -6.65286,4.59724 0,2.098 2.48818,2.79644 10.0203,2.81277 9.0549,0.0197 13.17558,2.92075 13.17558,9.2761 0,4.56113 -2.483,8.31895 -6.78834,10.27364 -5.19908,2.36046 -16.49181,2.45602 -21.03381,0.17799 z m 18.18167,-4.51627 c 3.42124,-1.62349 4.99798,-5.17202 3.41596,-7.68776 -0.72211,-1.14828 -2.88485,-1.54116 -9.64695,-1.75246 -7.97998,-0.24936 -8.8533,-0.10353 -10.33987,1.7265 -2.1312,2.6236 -2.05397,5.07436 0.23196,7.36029 2.37637,2.37637 11.65299,2.57703 16.3389,0.35343 z m -1.75005,-28.38886 c 2.82915,-2.27761 2.16845,-9.93543 -1.04218,-12.07923 -2.02816,-1.35423 -8.58004,-0.75649 -10.01441,0.91363 -3.52965,4.10972 -2.54933,10.54157 1.85497,12.17054 2.68413,0.99275 7.35364,0.48278 9.20162,-1.00494 z m -51.37849,18.59346 c -5.47135,-2.64781 -6.54656,-13.0812 -1.77136,-17.18865 3.00507,-2.58485 7.96737,-3.97613 14.20533,-3.98276 l 4.87113,-0.005 0,-3.24742 c 0,-6.30114 -4.89659,-8.42242 -12.91295,-5.59408 -3.7415,1.32007 -3.89376,1.29733 -4.65889,-0.69588 -0.93806,-2.4437 -0.5827,-2.86819 3.56081,-4.25351 4.95398,-1.65629 12.19774,-1.30456 15.5778,0.75641 4.05063,2.46984 4.91669,6.28363 4.9229,21.67858 l 0.006,12.81936 -2.51486,-0.29358 c -1.79632,-0.2097 -2.67164,-0.95632 -3.06363,-2.61318 -0.45627,-1.92859 -0.69705,-2.07554 -1.42844,-0.87183 -2.54289,4.18506 -11.5083,6.04921 -16.79302,3.49172 z m 12.53136,-4.86989 c 2.99754,-1.55008 4.77374,-4.9761 4.77374,-9.20779 l 0,-3.01997 -6.06086,0.62733 c -7.03036,0.72766 -9.71234,2.58622 -9.71234,6.73046 0,5.53746 5.23048,7.85323 10.99946,4.86997 z m 66.01085,5.29188 c -6.56239,-2.46588 -10.15512,-8.78751 -10.18581,-17.9226 -0.0249,-7.40655 2.61851,-13.30143 7.40231,-16.5075 4.51055,-3.02294 13.57604,-2.59568 17.22313,0.81174 3.36479,3.14366 4.83388,6.2716 5.57715,11.87469 l 0.63466,4.78427 -12.70783,0 c -12.26476,0 -12.68947,0.0647 -12.18139,1.85567 0.28955,1.02062 0.78459,2.7951 1.10011,3.9433 1.80667,6.5747 10.2699,8.59266 20.14482,4.8033 1.23596,-0.47428 1.54955,-0.0296 1.54955,2.19739 0,2.29744 -0.51758,2.97243 -2.92195,3.8106 -3.01064,1.04952 -13.16725,1.27632 -15.63475,0.34914 z m 13.91753,-22.55621 c 0,-2.82061 -2.94618,-7.50066 -5.28052,-8.38817 -5.57201,-2.11848 -12.34835,1.80592 -12.34835,7.15134 0,2.1534 0.16495,2.19446 8.81444,2.19446 5.44059,0 8.81443,-0.36655 8.81443,-0.95763 z m 31.31443,22.14727 c -2.0179,-0.737 -2.55154,-1.52053 -2.55154,-3.7463 0,-2.49313 0.23831,-2.74003 2.08762,-2.16288 1.1482,0.35834 5.42784,0.86797 9.51031,1.13252 6.63749,0.43012 7.69259,0.26737 9.97423,-1.53848 2.81225,-2.22583 3.47893,-6.80237 1.39175,-9.55398 -0.63788,-0.84097 -4.70876,-3.16217 -9.04639,-5.15825 -9.7559,-4.48943 -12.20062,-6.96859 -12.71071,-12.88972 -0.71938,-8.35047 4.89919,-13.25655 15.17052,-13.24675 10.1578,0.01 14.1733,2.2302 11.54314,6.38321 -0.65334,1.03164 -1.41031,1.07741 -3.83558,0.23196 -4.37545,-1.5253 -12.1619,-1.31675 -14.60009,0.39102 -1.527,1.06957 -2.06212,2.37633 -2.06212,5.03575 0,4.29817 1.99524,6.16989 9.9497,9.33372 6.91255,2.74941 10.15785,5.02908 11.86842,8.33696 3.15089,6.09316 0.56304,13.30282 -5.97156,16.63653 -2.84914,1.45352 -5.38905,1.87609 -10.93847,1.81984 -3.97522,-0.0403 -8.37588,-0.4926 -9.77923,-1.00515 z m 44.76804,0.40894 c -6.56239,-2.46588 -10.15512,-8.78751 -10.18581,-17.9226 -0.0249,-7.40655 2.61851,-13.30143 7.40231,-16.5075 4.51055,-3.02294 13.57604,-2.59568 17.22313,0.81174 3.36479,3.14366 4.83388,6.2716 5.57715,11.87469 l 0.63466,4.78427 -12.70783,0 c -12.26476,0 -12.68947,0.0647 -12.18139,1.85567 0.28955,1.02062 0.78459,2.7951 1.1001,3.9433 1.80668,6.5747 10.26991,8.59266 20.14483,4.8033 1.23596,-0.47428 1.54955,-0.0296 1.54955,2.19739 0,2.29744 -0.51758,2.97243 -2.92195,3.8106 -3.01064,1.04952 -13.16725,1.27632 -15.63475,0.34914 z m 13.91753,-22.55621 c 0,-2.82061 -2.94618,-7.50066 -5.28052,-8.38817 -5.57202,-2.11848 -12.34835,1.80592 -12.34835,7.15134 0,2.1534 0.16495,2.19446 8.81444,2.19446 5.44059,0 8.81443,-0.36655 8.81443,-0.95763 z m 97.32793,21.13056 c -9.54433,-6.34271 -9.89749,-25.81929 -0.59113,-32.60104 3.00394,-2.18905 12.72914,-3.12217 16.67227,-1.5997 2.14877,0.82966 2.41064,1.29901 1.7272,3.09565 -0.50701,1.33284 -1.44574,2.02343 -2.53278,1.86328 -0.94996,-0.13994 -3.79492,-0.2925 -6.32213,-0.33901 -3.98212,-0.0733 -4.92458,0.28438 -7.06676,2.6819 -4.56505,5.10917 -4.38398,16.61754 0.33573,21.33724 2.45183,2.45183 7.11423,3.11231 12.48575,1.76875 2.89327,-0.72368 3.01546,-0.64284 3.01546,1.99477 0,3.23431 -1.51478,3.86145 -9.3731,3.88061 -3.86151,0.009 -6.00837,-0.52597 -8.35051,-2.08245 z m 34.42465,1.42565 c -6.5624,-2.46588 -10.15513,-8.78751 -10.18581,-17.9226 -0.0249,-7.40655 2.6185,-13.30143 7.4023,-16.5075 4.51055,-3.02294 13.57605,-2.59568 17.22313,0.81174 3.36479,3.14366 4.83388,6.2716 5.57715,11.87469 l 0.63466,4.78427 -12.70783,0 c -12.26476,0 -12.68947,0.0647 -12.18139,1.85567 0.28955,1.02062 0.7846,2.7951 1.10011,3.9433 1.80667,6.5747 10.26991,8.59266 20.14483,4.8033 1.23595,-0.47428 1.54955,-0.0296 1.54955,2.19739 0,2.29744 -0.51759,2.97243 -2.92196,3.8106 -3.01064,1.04952 -13.16725,1.27632 -15.63474,0.34914 z m 13.91752,-22.55621 c 0,-2.82061 -2.94618,-7.50066 -5.28052,-8.38817 -5.57201,-2.11848 -12.34834,1.80592 -12.34834,7.15134 0,2.1534 0.16495,2.19446 8.81443,2.19446 5.44059,0 8.81443,-0.36655 8.81443,-0.95763 z m -409.17525,-1.36195 0,-23.6598 2.783505,0 2.783506,0 0,23.6598 0,23.65979 -2.783506,0 -2.783505,0 0,-23.65979 z m 17.628865,6.03092 0,-17.62886 2.25706,0 c 1.45163,0 2.46991,0.67061 2.85351,1.87924 0.58133,1.83159 0.66708,1.81982 3.38114,-0.46391 3.96458,-3.33598 11.52494,-3.33706 15.48816,-0.002 l 2.782035,2.34094 3.44955,-2.34094 c 6.30118,-4.27609 16.21773,-2.63794 19.05322,3.14747 0.72736,1.48408 1.32578,7.79153 1.56996,16.54769 l 0.39457,14.14948 -3.34656,0 -3.34657,0 0,-13.49578 c 0,-13.26113 -0.0415,-13.5373 -2.38775,-15.88354 -1.98048,-1.98048 -2.96012,-2.29486 -5.74351,-1.84318 -6.79577,1.10279 -8.5124,5.37011 -8.54763,21.24827 l -0.0221,9.97385 -2.7835,0 -2.783505,0 0,-13.49578 c 0,-13.09174 -0.0682,-13.56396 -2.27742,-15.77319 -2.48445,-2.48447 -4.35934,-2.77831 -8.5053,-1.33302 -4.67893,1.63108 -5.39283,3.8424 -5.7609,17.84426 l -0.33536,12.75773 -2.69453,0 -2.69453,0 0,-17.62887 z m 260.721645,0 0,-17.62886 2.219,0 c 1.60952,0 2.38346,0.65525 2.81776,2.38563 l 0.59875,2.38563 3.24546,-2.84955 c 2.58635,-2.27084 4.08684,-2.84955 7.38843,-2.84955 3.98475,0 4.14297,0.10631 4.14297,2.78351 0,2.65896 -0.17758,2.7835 -3.9688,2.7835 -8.4377,0 -10.87656,4.46638 -10.87656,19.91865 l 0,10.69991 -2.78351,0 -2.7835,0 0,-17.62887 z m 28.45727,1.62372 c -3.37086,-8.80284 -6.39585,-16.73583 -6.72221,-17.62887 -0.49271,-1.34824 -0.0477,-1.62371 2.62278,-1.62371 l 3.21616,0 4.99247,13.91752 c 2.74586,7.65464 5.2095,13.91753 5.47477,13.91753 0.26526,0 2.72891,-6.26289 5.47476,-13.91753 l 4.99247,-13.91752 3.21616,0 c 2.67052,0 3.1155,0.27547 2.62279,1.62371 -0.32637,0.89304 -3.35136,8.82603 -6.72221,17.62887 l -6.12882,16.00515 -3.45515,0 -3.45516,0 -6.12881,-16.00515 z m 31.85201,-1.62372 0,-17.62886 2.7835,0 2.78351,0 0,17.62886 0,17.62887 -2.78351,0 -2.7835,0 0,-17.62887 z m -0.0228,-24.6151 c -1.63863,-1.97446 0.24472,-6.00345 2.80633,-6.00345 2.56162,0 4.44496,4.02899 2.80631,6.00345 -0.64782,0.78057 -1.91066,1.41923 -2.80631,1.41923 -0.89565,0 -2.15848,-0.63866 -2.80631,-1.41923 z M 79.886135,419.71866 c -14.090273,-4.40355 -21.264946,-15.03024 -22.280487,-33.00051 -1.070306,-18.93936 4.836762,-30.76604 18.817967,-37.67593 6.19622,-3.06233 7.85404,-3.46004 16.07277,-3.8558 6.5364,-0.31475 11.125455,-0.002 16.004975,1.09027 10.10157,2.26151 9.95724,2.06149 6.97404,9.66517 l -2.53444,6.45987 -4.83022,-1.84605 c -7.11865,-2.72065 -16.564675,-2.66403 -22.332355,0.13386 -7.59021,3.68201 -11.709767,11.88118 -11.719482,23.32533 -0.0094,11.06547 3.379702,18.16332 10.462662,21.91217 3.07226,1.62607 15.00361,2.21701 17.211495,0.85246 0.67898,-0.41963 1.08355,-3.42062 1.08355,-8.03759 l 0,-7.36792 -6.958765,0 -6.95876,0 0,-6.49484 0,-6.49485 14.845355,0 14.84536,0 0,18.98798 c 0,21.97295 0.89573,20.11686 -10.78679,22.35209 -8.590975,1.64373 -22.648265,1.64085 -27.916875,-0.006 z m 285.964545,-0.26443 c -12.5871,-4.50648 -19.22387,-14.92935 -20.52005,-32.22616 -1.36862,-18.26341 6.31388,-33.62046 19.86174,-39.70291 6.63965,-2.98094 19.50079,-3.35401 27.74623,-0.80486 9.23975,2.85655 9.06167,2.61747 6.71391,9.01354 -1.10744,3.01704 -2.34055,5.84322 -2.74025,6.28043 -0.39969,0.4372 -2.95767,-0.0288 -5.68438,-1.03537 -10.53715,-3.89014 -16.68808,-3.42224 -22.53849,1.71449 -4.85499,4.26274 -6.5431,9.75541 -6.5417,21.285 9.3e-4,8.65781 0.27124,10.29412 2.3746,14.38145 5.11605,9.94172 12.33225,11.40554 31.76505,6.4436 l 2.59444,-0.66246 -0.27486,6.83716 -0.27485,6.83717 -3.71134,1.28061 c -2.04124,0.70434 -8.30412,1.44738 -13.91753,1.65121 -8.15754,0.29621 -11.13882,0.0367 -14.85252,-1.2929 z m -230.55985,-36.43075 0,-37.1134 7.8866,0 7.8866,0 0,30.61855 0,30.61856 15.30928,0 15.30928,0 0,6.49484 0,6.49485 -23.19588,0 -23.19588,0 0,-37.1134 z m 49.37848,35.9536 c 0.22096,-0.63788 6.00661,-17.33294 12.857,-37.10012 l 12.45525,-35.94032 9.88009,-0.0133 9.88009,-0.0133 2.42352,6.72681 c 1.33293,3.69974 7.17934,20.29639 12.99202,36.88144 l 10.5685,30.15464 -8.41312,0.26882 c -4.63305,0.14804 -8.65798,-0.12734 -8.95806,-0.61288 -0.29971,-0.48494 -1.55084,-4.46802 -2.7803,-8.8513 l -2.23538,-7.96962 -13.21202,0 -13.21202,0 -1.88601,6.26289 c -1.0373,3.44459 -2.16704,7.41108 -2.51054,8.81443 l -0.62455,2.55155 -8.81311,0 c -6.6462,0 -8.71434,-0.28516 -8.41136,-1.1598 z m 44.32436,-30.15464 c -0.005,-0.38273 -2.01211,-7.26685 -4.46094,-15.29806 l -4.45244,-14.60218 -4.37936,14.60218 c -2.40864,8.03121 -4.36771,14.91533 -4.35349,15.29806 0.0142,0.38274 3.99236,0.69588 8.8403,0.69588 4.84794,0 8.81061,-0.31314 8.80593,-0.69588 z m 35.48755,-5.56701 0.2426,-36.88144 10.06789,0 10.06789,0 15.44757,26.62275 15.44758,26.62275 0.24597,-26.85471 0.24598,-26.8547 6.94474,0 6.94475,0 0,37.1134 0,37.1134 -10.04864,0 -10.04865,0 -11.03202,-19.25258 c -6.0676,-10.58892 -13.13205,-22.85069 -15.69877,-27.24839 l -4.66676,-7.99581 0.31547,27.24839 0.31547,27.24839 -7.51684,0 -7.51684,0 0.24261,-36.88145 z m 149.16013,-0.23195 0,-37.1134 21.80412,0 21.80413,0 0,6.49484 0,6.49485 -13.45361,0 -13.45361,0 0,8.35051 0,8.35052 12.52577,0 12.52578,0 0,6.49484 0,6.49485 -12.52578,0 -12.52577,0 0,9.27835 0,9.27835 13.45361,0 13.45361,0 0,6.49484 0,6.49485 -21.80413,0 -21.80412,0 0,-37.1134 z M 580.6988,158.85328 c 5.58959,-2.5863 10.59782,-7.08753 13.61595,-12.23757 1.97127,-3.36372 2.53762,-5.70878 2.85942,-11.83989 0.35096,-6.68663 0.11157,-8.27816 -1.9089,-12.69147 -2.92424,-6.38737 -7.97206,-11.45509 -14.29224,-14.34857 l -4.9422,-2.26261 1.48333,-2.86846 c 2.22539,-4.303422 1.37553,-12.533918 -1.7878,-17.314044 -4.90261,-7.408336 -15.59643,-10.073351 -23.62632,-5.887936 l -3.90482,2.035305 -1.94908,-3.820508 C 541.66949,68.646555 530.88605,61.122323 519.59705,59.022913 499.11492,55.213864 478.2664,71.427251 476.9332,92.201556 l -0.44088,6.869782 -3.95656,2.318702 c -4.75097,2.78425 -8.05833,6.55847 -11.32667,12.92551 -3.48403,6.78719 -4.02814,18.3412 -1.21512,25.80223 3.61541,9.58921 13.61399,18.20026 23.44147,20.18843 2.18283,0.44161 24.01003,0.73494 48.50488,0.65185 43.15882,-0.1464 44.66665,-0.21149 48.75848,-2.10478 z m -66.20036,-16.72529 c -0.358,-0.358 -0.65091,-6.63543 -0.65091,-13.94987 l 0,-13.29897 -8.70083,0 c -13.89288,0 -13.86088,-0.16288 3.42836,-17.452112 l 14.54327,-14.543279 14.3295,14.307129 c 17.33901,17.311932 17.41907,17.688262 3.763,17.688262 l -8.75698,0 -0.25677,13.68557 -0.25676,13.68557 -8.39549,0.2643 c -4.61753,0.14536 -8.68841,-0.0286 -9.04639,-0.3866 z M 9.3871869,10.149979 C 10.507907,8.9308203 13.094964,7.1625243 15.136201,6.2204323 17.244266,5.2474973 18.106479,4.4987363 17.132093,4.4871613 11.875982,4.4247313 5.8141589,9.9963883 4.8733289,15.754678 l -0.505446,3.093549 1.490816,-3.240798 c 0.819948,-1.782439 2.407768,-4.238291 3.528488,-5.45745 z M 643.22709,12.371836 c -1.87312,-3.9473257 -5.60922,-6.7998297 -9.84271,-7.5148987 l -3.09355,-0.522524 3.74973,1.789826 c 4.27422,2.040179 8.46952,6.5977717 9.42963,10.2439517 0.46393,1.761829 0.7502,2.020452 0.98853,0.893052 0.18451,-0.872841 -0.36972,-3.073074 -1.23163,-4.889407 z"
     id="path4953" />
  <path
     style="fill:#238dc5"
     d="m 176.52837,524.05072 c -6.74691,-2.10287 -9.38801,-9.76227 -4.98302,-14.45115 1.16061,-1.23542 2.6637,-2.2462 3.3402,-2.2462 1.44409,0 1.63866,-1.4936 0.30219,-2.31959 -1.64266,-1.01522 -1.04177,-6.56805 0.90101,-8.32623 1.81326,-1.64099 1.80959,-1.67023 -0.43196,-3.43344 -2.85913,-2.24899 -4.23208,-7.09313 -3.24756,-11.45835 1.63498,-7.24929 5.79045,-8.93803 20.01191,-8.13268 8.59506,0.48673 9.67382,0.73917 9.67382,2.2637 0,1.30127 -0.69688,1.71587 -2.88409,1.71587 -2.70945,0 -2.8387,0.1545 -2.13448,2.55154 2.73244,9.30071 -2.51541,16.00516 -12.52789,16.00516 -4.38759,0 -7.12664,2.80678 -5.57265,5.71046 0.76065,1.42129 2.05381,1.71246 7.61051,1.71366 10.88391,0.003 16.22279,3.96872 14.98489,11.13258 -1.08579,6.28362 -5.83267,9.26702 -15.58954,9.79798 -3.6403,0.1981 -7.8943,-0.0374 -9.45334,-0.52331 z m 17.21607,-5.44182 c 1.59524,-1.16749 2.40954,-2.75587 2.60765,-5.08645 0.24896,-2.92877 -0.0427,-3.51458 -2.14803,-4.31504 -1.33985,-0.50941 -5.27529,-0.92621 -8.74541,-0.92621 -4.97804,0 -6.82515,0.40577 -8.75403,1.92302 -4.18757,3.29393 -2.73872,8.98897 2.65838,10.4494 3.38781,0.91672 12.00999,-0.30916 14.38144,-2.04472 z m -3.37255,-28.0239 c 3.35026,-2.63531 3.43226,-8.30782 0.1673,-11.57277 -5.00355,-5.00356 -13.49578,-1.47399 -13.49578,5.60918 0,6.83844 7.78694,10.32256 13.32848,5.96359 z m -50.24465,18.15399 c -3.74257,-1.62607 -6.18277,-6.75037 -5.34389,-11.22194 1.07742,-5.74316 8.86115,-9.64822 19.23125,-9.64822 l 3.78707,0 -0.54565,-3.3625 c -0.30012,-1.84937 -1.28451,-4.17891 -2.18755,-5.17676 -1.64082,-1.81308 -3.18515,-1.87992 -13.28279,-0.57494 -1.78582,0.23079 -2.31959,-0.11786 -2.31959,-1.5151 0,-2.48149 6.80724,-4.49266 12.98969,-3.83777 3.6432,0.38592 5.18696,1.09839 7.19072,3.31863 l 2.55155,2.8272 0,14.83073 c 0,13.92885 -0.10673,14.83072 -1.75508,14.83072 -1.12085,0 -1.97612,-0.88068 -2.36674,-2.43702 l -0.61166,-2.43703 -2.04048,1.91131 c -4.17129,3.90722 -9.89461,4.83986 -15.29685,2.49269 z m 12.68402,-4.7543 c 2.45602,-1.72026 4.74762,-6.57371 4.74762,-10.05513 0,-2.10023 -0.369,-2.34704 -3.47939,-2.32725 -11.27181,0.0717 -17.1249,5.52314 -12.70512,11.83327 1.7822,2.54444 8.15156,2.85024 11.43689,0.54911 z m 65.38312,5.13857 c -10.39324,-3.01087 -14.0414,-21.23136 -6.13286,-30.63012 9.0035,-10.70006 25.22694,-4.53335 25.27591,9.60765 l 0.0153,4.40722 -12.06186,0 c -13.5457,0 -13.74102,0.12712 -10.53262,6.85522 2.79773,5.86689 9.75719,7.51191 19.66053,4.64721 1.88998,-0.54672 2.12878,-0.34213 1.85567,1.58969 -0.5377,3.80313 -10.4476,5.73421 -18.08003,3.52313 z m 13.5913,-23.17109 c 0,-7.57075 -9.02087,-11.06871 -14.79761,-5.73798 -1.52076,1.40336 -3.03395,3.69975 -3.36264,5.1031 l -0.59762,2.55154 9.37893,0 c 8.85988,0 9.37894,-0.10608 9.37894,-1.91666 z m 35.72165,23.78524 c -0.51031,-0.20133 -2.07603,-0.61929 -3.47938,-0.92881 -2.05102,-0.45235 -2.55155,-1.07865 -2.55155,-3.19267 l 0,-2.62991 4.84138,1.25585 c 9.82958,2.54975 17.11589,0.60931 18.69175,-4.97785 1.31988,-4.67961 -0.99679,-7.18946 -10.8627,-11.76854 -9.7046,-4.50422 -11.88004,-6.90622 -11.97554,-13.22271 -0.10842,-7.1724 4.73534,-11.46952 13.68655,-12.14195 4.81072,-0.36138 12.63393,1.44102 13.13604,3.02644 0.15808,0.4991 -0.0505,1.44052 -0.46348,2.09205 -0.59803,0.94346 -2.05874,0.9684 -7.17563,0.12258 -7.41685,-1.226 -10.54133,-0.42793 -12.99692,3.31979 -1.19843,1.82902 -1.37162,3.09133 -0.7377,5.37647 0.85431,3.07947 2.73102,4.29802 15.03023,9.75911 5.52482,2.45313 7.58891,5.54364 7.58891,11.36265 0,7.95727 -5.12797,12.06355 -15.74063,12.60449 -3.33493,0.16999 -6.48102,0.14434 -6.99133,-0.057 z m 40.68705,-0.61415 c -10.39324,-3.01087 -14.0414,-21.23136 -6.13286,-30.63012 9.0035,-10.70006 25.22694,-4.53335 25.27591,9.60765 l 0.0153,4.40722 -12.06186,0 c -13.5457,0 -13.74102,0.12712 -10.53262,6.85522 2.79773,5.86689 9.75719,7.51191 19.66053,4.64721 1.88998,-0.54672 2.12878,-0.34213 1.85567,1.58969 -0.5377,3.80313 -10.4476,5.73421 -18.08003,3.52313 z m 13.5913,-23.17109 c 0,-7.57075 -9.02087,-11.06871 -14.79761,-5.73798 -1.52076,1.40336 -3.03395,3.69975 -3.36264,5.1031 l -0.59763,2.55154 9.37894,0 c 8.85988,0 9.37894,-0.10608 9.37894,-1.91666 z m 98.36891,22.09708 c -5.7499,-2.93766 -7.90499,-7.42753 -7.90499,-16.46908 0,-5.67387 0.417,-7.68684 2.25843,-10.90197 3.15581,-5.51003 8.6052,-8.08589 15.58269,-7.36574 5.85719,0.60451 7.18962,1.49239 6.32547,4.21509 -0.50972,1.60599 -0.97364,1.76735 -2.93608,1.02123 -6.36634,-2.42047 -13.3165,0.36681 -15.20834,6.09915 -0.62034,1.87965 -0.94948,5.88407 -0.73142,8.89871 0.68811,9.51313 5.54645,13.23361 14.80443,11.33714 4.57832,-0.93786 4.58604,-0.93531 4.30754,1.42421 -0.49226,4.17037 -9.81687,5.15455 -16.49773,1.74126 z m 33.70989,1.07401 c -10.39323,-3.01087 -14.0414,-21.23136 -6.13286,-30.63012 9.0035,-10.70006 25.22694,-4.53335 25.27591,9.60765 l 0.0153,4.40722 -12.06185,0 c -13.54571,0 -13.74103,0.12712 -10.53263,6.85522 2.79773,5.86689 9.75719,7.51191 19.66053,4.64721 1.88998,-0.54672 2.12879,-0.34213 1.85567,1.58969 -0.5377,3.80313 -10.4476,5.73421 -18.08003,3.52313 z m 13.5913,-23.17109 c 0,-7.57075 -9.02087,-11.06871 -14.7976,-5.73798 -1.52077,1.40336 -3.03396,3.69975 -3.36265,5.1031 l -0.59762,2.55154 9.37893,0 c 8.85988,0 9.37894,-0.10608 9.37894,-1.91666 z m -409.17525,-0.40292 0,-23.6598 2.783505,0 2.783506,0 0,23.6598 0,23.65979 -2.783506,0 -2.783505,0 0,-23.65979 z m 17.628865,6.03092 0,-17.62886 2.31959,0 c 1.70103,0 2.31959,0.49484 2.31959,1.85567 0,2.19951 1.17837,2.39797 2.77996,0.46818 1.74757,-2.10568 7.73842,-3.5737 11.61565,-2.84632 1.89232,0.35499 4.46821,1.67308 5.724195,2.92907 l 2.28362,2.28361 2.74311,-2.30819 c 5.65711,-4.76013 15.12001,-3.93579 18.50261,1.61182 1.58275,2.59578 1.80826,4.72655 1.81129,17.11441 l 0.003,14.14948 -2.31958,0 -2.31959,0 0,-11.9234 c 0,-16.40454 -1.36961,-19.62299 -8.35052,-19.62299 -7.54892,0 -9.27835,3.6232 -9.27835,19.43846 l 0,12.10793 -2.7835,0 -2.783505,0 0,-13.91753 c 0,-12.68041 -0.16495,-14.08247 -1.85567,-15.77319 -2.67763,-2.67763 -8.43527,-2.49121 -11.77816,0.38134 -2.60098,2.23504 -2.60355,2.24898 -2.90369,15.77319 l -0.30041,13.53619 -2.71505,0 -2.71506,0 0,-17.62887 z m 260.721645,0 0,-17.62886 2.31959,0 c 1.95876,0 2.31958,0.43299 2.31958,2.7835 0,2.9298 1.28606,3.75053 2.18917,1.39706 0.89662,-2.33656 6.42766,-5.10127 10.21286,-5.10493 3.26832,-0.003 3.53781,0.18232 3.02814,2.08416 -0.30771,1.1482 -0.56517,2.31694 -0.57214,2.5972 -0.007,0.28026 -1.43523,0.34348 -3.17392,0.1405 -2.59817,-0.30332 -3.79637,0.21255 -6.7268,2.89614 l -3.56555,3.2652 -0.30385,12.59946 -0.30385,12.59944 -2.71161,0 -2.71162,0 0,-17.62887 z m 28.20747,0.21838 c -6.00497,-15.84895 -6.42897,-17.41028 -4.80365,-17.68866 0.98047,-0.16793 2.29348,-0.10931 2.9178,0.13025 0.62431,0.23958 3.41225,6.94782 6.19541,14.9072 4.52098,12.92926 6.4277,16.86275 6.46396,13.3349 0.007,-0.63789 2.23176,-7.21392 4.9449,-14.61341 4.85176,-13.23214 4.98152,-13.4584 7.88249,-13.74493 l 2.94953,-0.29133 -1.78206,4.46658 c -0.98014,2.45663 -4.01073,10.41147 -6.73463,17.67744 l -4.95256,13.21086 -3.24742,-0.003 -3.24743,-0.003 -6.58634,-17.38332 z m 32.10181,-0.21838 0,-17.62886 2.7835,0 2.78351,0 0,17.62886 0,17.62887 -2.78351,0 -2.7835,0 0,-17.62887 z m 0.3813,-24.46835 c -1.03147,-2.68797 0.0193,-4.75845 2.41491,-4.75845 1.94464,0 2.30688,0.43708 2.30688,2.78351 0,2.18184 -0.45214,2.84771 -2.09178,3.08054 -1.22676,0.1742 -2.31435,-0.283 -2.63001,-1.1056 z M 82.733665,420.16385 C 68.990697,417.21657 60.46396,407.0305 58.217115,390.87628 c -2.160551,-15.53378 1.725638,-28.41203 11.140439,-36.91774 9.422931,-8.51305 26.220011,-11.15774 41.828166,-6.58583 2.79647,0.81914 5.36216,1.76458 5.70153,2.10098 0.33937,0.33641 -0.44511,3.2452 -1.74328,6.464 -1.86552,4.62552 -2.67563,5.71657 -3.86446,5.2046 -3.70108,-1.59385 -11.07074,-3.17036 -14.820335,-3.17036 -14.01441,0 -22.710586,9.76118 -22.731555,25.51546 -0.02143,16.12742 6.761665,24.53487 19.810645,24.55458 9.289765,0.014 9.278345,0.025 9.278345,-8.88959 l 0,-7.77839 -6.958765,0 -6.95876,0 0,-6.49484 0,-6.49485 14.381445,0 14.38144,0 0,19.41017 0,19.41016 -6.66129,1.51508 c -8.00854,1.82151 -22.948335,2.58477 -28.267015,1.44414 z m 285.443765,-0.50736 c -10.14569,-2.80679 -17.17822,-10.00246 -20.51624,-20.99217 -1.66736,-5.48943 -1.91516,-8.19554 -1.58877,-17.35009 0.34617,-9.70902 0.68405,-11.48164 3.22254,-16.90626 1.5597,-3.33302 4.12117,-7.52396 5.69217,-9.31322 6.61424,-7.5332 19.77574,-11.42933 31.70123,-9.38434 7.7473,1.32852 13.9633,3.6789 13.9633,5.27978 0,0.85695 -3.1059,9.35914 -4.14464,11.34565 -0.0543,0.10376 -2.92063,-0.83568 -6.36973,-2.08763 -17.92235,-6.50546 -28.4547,2.08864 -28.4547,23.21824 0,12.83149 3.83588,20.7621 11.42638,23.62383 4.65987,1.75684 16.46396,0.62886 24.06331,-2.29946 1.45225,-0.55961 1.62371,0.0668 1.62371,5.93249 l 0,6.55817 -4.87114,1.47591 c -7.17816,2.17491 -19.57142,2.60768 -25.74742,0.8991 z m -232.8866,-36.1691 0,-36.64948 7.8866,0 7.8866,0 0,30.15464 0,30.15464 14.84536,0 14.84536,0 0,6.49484 0,6.49485 -22.73196,0 -22.73196,0 0,-36.64949 z m 51.45363,30.3866 c 2.71015,-7.82963 21.32386,-60.86199 22.79613,-64.94845 l 1.08641,-3.01546 9.41955,0.007 9.41954,0.007 12.76657,36.41004 c 7.02161,20.02552 12.76259,36.73943 12.75773,37.14203 -0.005,0.40261 -3.65035,0.61137 -8.10109,0.46392 l -8.09225,-0.26795 -2.65048,-8.60686 -2.65048,-8.60686 -13.56671,0.25635 -13.56672,0.25634 -2.63299,8.58247 -2.63298,8.58248 -8.26002,0 -8.26003,0 2.16782,-6.26289 z M 228.4885,385.1111 c -0.74402,-2.42396 -2.89785,-9.50531 -4.7863,-15.73634 -1.88845,-6.23101 -3.55566,-11.20698 -3.70493,-11.05771 -0.14927,0.14926 -2.08368,6.29118 -4.2987,13.6487 -2.21501,7.35752 -4.33124,14.31675 -4.70272,15.46494 -0.67149,2.07546 -0.61849,2.08763 9.08499,2.08763 l 9.76041,0 -1.35275,-4.40722 z m 36.69924,-1.6551 0,-36.68087 9.92193,0.26335 9.92191,0.26335 15.40641,26.64276 c 8.47352,14.65351 15.59567,26.83202 15.82699,27.06333 0.23131,0.23132 0.26985,-11.8623 0.0856,-26.87472 l -0.33493,-27.29529 7.06025,0 7.06025,0 0,36.68087 0,36.68087 -9.91274,-0.26334 -9.91275,-0.26335 -8.04417,-13.91753 c -4.4243,-7.65463 -11.62438,-20.13483 -16.00019,-27.73376 l -7.956,-13.81624 0.54205,27.96572 0.54205,27.96573 -7.10335,0 -7.10335,0 0,-36.68088 z m 149.38144,-0.43252 0,-37.1134 20.87629,0 20.87629,0 0,6.49484 0,6.49485 -13.45361,0 -13.45361,0 0,8.35051 0,8.35052 12.52578,0 12.52577,0 0,6.49484 0,6.49485 -12.52577,0 -12.52578,0 0,9.27835 0,9.27835 13.45361,0 13.45361,0 0,6.49484 0,6.49485 -20.87629,0 -20.87629,0 0,-37.1134 z M 4.4864749,124.85338 C 4.5059249,24.554917 4.5849949,19.607272 6.2251459,16.064722 8.3307359,11.516864 12.155724,7.8185873 16.730111,5.9077563 c 3.094871,-1.292801 34.749028,-1.440972 307.839069,-1.440972 273.09006,0 304.74421,0.148171 307.83908,1.440972 4.57439,1.910831 8.39938,5.6091077 10.50497,10.1569657 1.64014,3.54255 1.71921,8.490195 1.73867,108.788658 l 0.0204,105.07732 -320.1031,0 -320.1030821,0 0.02038,-105.07732 z M 580.12601,159.35865 c 6.18834,-2.31536 12.29228,-7.99344 15.41501,-14.33954 3.29832,-6.70292 3.18459,-17.51736 -0.25417,-24.16791 -2.89366,-5.59636 -8.67091,-11.05724 -14.36028,-13.57392 -3.20261,-1.41667 -3.98005,-2.1729 -3.46948,-3.37484 3.22348,-7.588542 2.30711,-14.63429 -2.63548,-20.263595 -5.88935,-6.707593 -14.55706,-8.533421 -22.18285,-4.672754 l -4.20369,2.128175 -2.09996,-3.958458 c -2.91025,-5.485887 -11.03703,-12.903774 -17.40781,-15.889337 -4.73472,-2.218857 -6.43772,-2.501338 -15.07977,-2.501338 -8.98352,0 -10.21196,0.224306 -15.77319,2.880089 -7.32036,3.495861 -14.8352,10.790947 -18.19947,17.667269 -1.45261,2.969018 -2.83903,8.012063 -3.427,12.465467 -0.87026,6.59156 -1.26975,7.62776 -3.36606,8.730942 -4.14984,2.18383 -10.08227,9.09554 -12.74958,14.85417 -2.17209,4.6895 -2.58171,6.81014 -2.59863,13.45361 -0.0174,6.79579 0.34159,8.62314 2.5949,13.21184 2.83161,5.76638 9.30039,12.845 13.95643,15.27217 7.17193,3.7387 8.9458,3.86417 55.53296,3.92814 43.45296,0.0597 45.39438,-0.0117 50.30812,-1.85018 z m -65.11868,-17.25893 c -0.85509,-0.34504 -1.1598,-4.10418 -1.1598,-14.30819 l 0,-13.84021 -9.27835,0 c -8.24389,0 -9.27835,-0.18237 -9.27835,-1.63571 0,-1.98244 25.8901,-28.055014 27.85867,-28.055014 1.95059,0 27.81144,26.109284 27.81144,28.078614 0,1.42344 -1.08584,1.61211 -9.27836,1.61211 l -9.27835,0 0,13.81826 c 0,11.74452 -0.22024,13.90277 -1.46764,14.38144 -1.73373,0.66529 -14.25327,0.62498 -15.92926,-0.0513 z"
     id="path4951" />
  <path
     style="fill:#2f729b"
     d="m 177.04341,523.95257 c -4.92924,-1.48334 -7.42268,-4.26655 -7.42268,-8.2853 0,-3.66627 2.89037,-8.3139 5.17044,-8.3139 1.52075,0 1.77199,-1.46953 0.39657,-2.31959 -1.59885,-0.98814 -1.04816,-6.56226 0.81488,-8.24829 1.69435,-1.53336 1.6686,-1.65126 -0.92783,-4.24769 -2.17256,-2.17255 -2.67055,-3.47105 -2.67055,-6.96326 0,-9.9524 4.48779,-12.64302 19.78552,-11.86227 8.50203,0.43392 9.94676,0.73138 9.70466,1.99814 -0.16597,0.8684 -1.52569,1.68155 -3.26443,1.95224 -2.37771,0.37016 -2.80038,0.7452 -2.0913,1.85567 1.20464,1.88657 1.1509,8.96347 -0.0856,11.2739 -1.32692,2.47937 -7.87357,5.38128 -12.19757,5.40675 -2.65353,0.0157 -3.81227,0.56108 -4.98089,2.34462 -2.36588,3.61079 -0.48291,5.09729 6.46486,5.10362 11.12501,0.0101 15.50287,2.58541 15.59378,9.17308 0.10138,7.34515 -4.64427,10.97525 -15.31269,11.71319 -3.15135,0.21797 -7.19108,-0.0434 -8.97717,-0.58091 z m 16.61113,-5.24986 c 3.04055,-2.2595 3.81422,-7.43887 1.37735,-9.22076 -1.02438,-0.74904 -4.47641,-1.20075 -9.17643,-1.20075 -6.29979,0 -7.86703,0.30998 -9.56493,1.89182 -3.54275,3.30058 -2.24696,8.51438 2.60855,10.49586 2.76805,1.1296 12.29847,-0.14033 14.75546,-1.96617 z m -2.86856,-28.08652 c 3.07828,-2.86785 2.85248,-9.38888 -0.41409,-11.95836 -5.70436,-4.48705 -13.32848,-0.87305 -13.32848,6.31799 0,2.87711 0.53658,4.10824 2.44472,5.60918 3.21164,2.52628 8.60371,2.54117 11.29785,0.0312 z m -50.55095,18.16812 c -3.59542,-1.56397 -5.04597,-4.08882 -5.11235,-8.89857 -0.10108,-7.32464 4.08954,-10.40437 15.70939,-11.54495 6.35204,-0.62351 6.72681,-0.78767 6.72681,-2.94671 0,-2.50264 -1.54826,-5.94892 -3.15437,-7.02135 -1.50956,-1.00795 -8.40993,-0.85332 -11.32165,0.25371 -1.91063,0.72642 -2.72182,0.66929 -3.29362,-0.23196 -1.20605,-1.90092 -0.96799,-2.28718 2.2284,-3.61565 4.39201,-1.8254 12.8089,-1.61536 15.87901,0.39626 3.76469,2.46672 4.3014,4.98426 4.3014,20.17683 0,13.23856 -0.0829,13.85712 -1.85567,13.85712 -1.2183,0 -1.85567,-0.61856 -1.85567,-1.80091 0,-2.64194 -1.37684,-3.04957 -3.26251,-0.96592 -1.68546,1.86241 -6.83805,3.70944 -10.1911,3.65317 -1.02062,-0.0172 -3.17975,-0.60711 -4.79807,-1.31107 z m 13.68909,-5.86826 c 2.2274,-1.99018 3.00239,-3.58445 3.38273,-6.95876 l 0.49336,-4.37712 -4.06397,0.006 c -8.73663,0.0107 -13.80623,3.03892 -13.80623,8.24639 0,6.00662 8.60154,7.90218 13.99411,3.08392 z m 64.57849,5.87657 c -6.44989,-2.30032 -9.38373,-6.28322 -10.42823,-14.15701 -0.88758,-6.69095 1.4454,-14.11229 5.57665,-17.73958 6.98666,-6.13436 17.83565,-4.27023 21.70853,3.73009 1.09622,2.26449 1.99313,5.65553 1.99313,7.53565 l 0,3.4184 -12.06186,0 -12.06185,0 0,2.34939 c 0,4.08592 2.48334,8.58176 5.64268,10.21552 3.03619,1.57008 11.30864,1.56488 15.00165,-0.009 1.29681,-0.55281 1.62371,-0.22737 1.62371,1.61654 0,1.95753 -0.62702,2.46659 -4.1222,3.34669 -5.3019,1.33502 -8.4823,1.25936 -12.87221,-0.30628 z m 13.28307,-22.82553 c 0,-2.62758 -2.40338,-7.0322 -4.21683,-7.72809 -3.27614,-1.25717 -8.77012,-0.5791 -10.66558,1.31637 -1.80536,1.80536 -3.67429,5.59279 -3.67429,7.44603 0,0.48019 4.14206,0.86743 9.27835,0.86743 8.73472,0 9.27835,-0.11142 9.27835,-1.90174 z m 33.63402,23.08798 c -3.34513,-0.74912 -3.9433,-1.23302 -3.9433,-3.1901 0,-2.17853 0.1938,-2.26593 3.47938,-1.5691 1.91366,0.40585 6.33436,0.73791 9.82377,0.73791 5.80139,0 6.53595,-0.22281 8.58248,-2.60328 1.23094,-1.43181 2.23808,-3.59179 2.23808,-4.79995 0,-2.30332 -4.09897,-7.90605 -5.78408,-7.90605 -0.53898,0 -4.04736,-1.47536 -7.79641,-3.27858 -7.76198,-3.73336 -9.61538,-6.23604 -9.61538,-12.98382 0,-3.47952 0.49951,-4.79223 2.63688,-6.9296 3.31571,-3.3157 9.40487,-5.00786 15.23674,-4.23424 6.99706,0.92819 8.97464,1.93582 8.36613,4.26276 -0.4177,1.59725 -0.9982,1.88105 -2.94192,1.43824 -10.51846,-2.39628 -17.09397,-1.08371 -18.28188,3.64934 -1.42368,5.67237 1.10282,8.40591 11.92539,12.90263 8.20378,3.40862 10.89371,6.55937 10.89371,12.75993 0,4.03479 -0.41085,5.07161 -3.059,7.71976 -4.74812,4.74813 -12.29536,6.14382 -21.76059,4.02415 z m 43.08291,-0.26245 c -6.44989,-2.30032 -9.38373,-6.28322 -10.42823,-14.15701 -0.88758,-6.69095 1.4454,-14.11229 5.57665,-17.73958 6.98666,-6.13436 17.83564,-4.27023 21.70853,3.73009 1.09622,2.26449 1.99313,5.65553 1.99313,7.53565 l 0,3.4184 -12.06186,0 -12.06185,0 0,2.34939 c 0,4.08592 2.48334,8.58176 5.64268,10.21552 3.03618,1.57008 11.30864,1.56488 15.00165,-0.009 1.2968,-0.55281 1.62371,-0.22737 1.62371,1.61654 0,1.95753 -0.62702,2.46659 -4.12221,3.34669 -5.3019,1.33502 -8.48229,1.25936 -12.8722,-0.30628 z m 13.28307,-22.82553 c 0,-2.62758 -2.40338,-7.0322 -4.21683,-7.72809 -3.27614,-1.25717 -8.77012,-0.5791 -10.66558,1.31637 -1.80536,1.80536 -3.67429,5.59279 -3.67429,7.44603 0,0.48019 4.14206,0.86743 9.27835,0.86743 8.73472,0 9.27835,-0.11142 9.27835,-1.90174 z m 100.64106,23.18432 c -3.43074,-0.99792 -6.38592,-3.64919 -8.49781,-7.62392 -1.96335,-3.69518 -2.19386,-15.78897 -0.36643,-19.22567 3.67713,-6.91528 9.74645,-9.90939 17.83279,-8.79723 4.8618,0.66868 5.75832,1.32615 4.89084,3.58676 -0.45425,1.18374 -1.56226,1.34677 -6.00042,0.88289 -4.27739,-0.44707 -5.96392,-0.22782 -7.87391,1.02366 -3.25904,2.1354 -5.05911,6.78314 -5.05911,13.06247 0,5.67463 1.64609,9.75192 4.84032,11.98926 2.32583,1.62906 8.6692,1.91002 12.26422,0.5432 2.14978,-0.81734 2.37999,-0.68693 2.37999,1.34814 0,1.81314 -0.6793,2.44167 -3.47938,3.21928 -4.06352,1.1285 -7.0293,1.1261 -10.9311,-0.009 z m 31.74597,-0.35879 c -6.44988,-2.30032 -9.38373,-6.28322 -10.42823,-14.15701 -0.88758,-6.69095 1.4454,-14.11229 5.57665,-17.73958 6.98666,-6.13436 17.83565,-4.27023 21.70853,3.73009 1.09622,2.26449 1.99313,5.65553 1.99313,7.53565 l 0,3.4184 -12.06185,0 -12.06186,0 0,2.34939 c 0,4.08592 2.48334,8.58176 5.64268,10.21552 3.03619,1.57008 11.30864,1.56488 15.00165,-0.009 1.29681,-0.55281 1.62371,-0.22737 1.62371,1.61654 0,1.95753 -0.62702,2.46659 -4.1222,3.34669 -5.3019,1.33502 -8.4823,1.25936 -12.87221,-0.30628 z m 13.28307,-22.82553 c 0,-2.62758 -2.40338,-7.0322 -4.21682,-7.72809 -3.27615,-1.25717 -8.77012,-0.5791 -10.66559,1.31637 -1.80536,1.80536 -3.67429,5.59279 -3.67429,7.44603 0,0.48019 4.14206,0.86743 9.27835,0.86743 8.73472,0 9.27835,-0.11142 9.27835,-1.90174 z m -409.17525,-0.41784 0,-23.6598 2.783505,0 2.783506,0 0,23.6598 0,23.65979 -2.783506,0 -2.783505,0 0,-23.65979 z m 17.628865,6.03092 0,-17.62886 2.31959,0 c 1.85567,0 2.31959,0.46392 2.31959,2.31959 0,2.86077 0.23916,2.86921 3.2128,0.11334 4.47551,-4.14776 12.49005,-4.10589 16.683095,0.0871 l 2.3243,2.3243 2.81184,-2.366 c 3.70657,-3.11887 9.74509,-4.0196 14.27072,-2.12867 5.24555,2.19173 6.16115,5.37564 6.16115,21.42461 l 0,13.48344 -2.25273,0 -2.25275,0 -0.2988,-13.82304 c -0.26016,-12.0351 -0.52743,-14.07529 -2.06633,-15.7732 -2.5623,-2.82708 -8.87741,-2.68015 -12.33023,0.28686 -2.60098,2.23504 -2.60355,2.24898 -2.90368,15.77319 l -0.30042,13.53619 -2.25113,0 -2.251135,0 -0.0222,-10.90206 c -0.0351,-17.2986 -1.42516,-20.64433 -8.57708,-20.64433 -2.74778,0 -4.25051,0.64512 -6.31751,2.71213 l -2.7121,2.71213 0,13.06107 0,13.06106 -2.7835,0 -2.78351,0 0,-17.62887 z m 260.721645,0 0,-17.62886 2.31959,0 c 2.05095,0 2.31958,0.39257 2.31958,3.38975 l 0,3.38975 3.25211,-3.34858 c 4.77658,-4.91829 13.033,-6.0528 11.87694,-1.63201 -0.36812,1.40768 -1.26744,1.9211 -3.40736,1.94531 -3.77259,0.0427 -6.75545,1.74609 -8.98797,5.13278 -1.53594,2.32998 -1.79453,4.42069 -1.79977,14.55083 l -0.006,11.8299 -2.78351,0 -2.7835,0 0,-17.62887 z m 34.35356,15.59953 c -0.50463,-1.18026 -3.59819,-9.16287 -6.87458,-17.73917 l -5.95707,-15.59324 2.81576,0.28396 c 2.74734,0.27707 2.94236,0.63863 8.02769,14.88252 2.86658,8.0292 5.42072,14.59906 5.67588,14.5997 0.25515,6.3e-4 2.79462,-6.56871 5.64325,-14.59855 5.07909,-14.31711 5.23457,-14.6052 8.03323,-14.88408 l 2.8539,-0.28438 -6.74205,17.44933 c -6.64823,17.20653 -6.78252,17.45337 -9.65027,17.73958 -2.30701,0.23024 -3.09791,-0.15338 -3.82574,-1.85567 z m 25.95572,-15.59953 0,-17.62886 2.7835,0 2.78351,0 0,17.62886 0,17.62887 -2.78351,0 -2.7835,0 0,-17.62887 z m 1.07862,-24.01088 c -0.68254,-0.43263 -1.10006,-1.7832 -0.92784,-3.00126 0.23474,-1.66024 0.89382,-2.21466 2.63272,-2.21466 1.7389,0 2.39798,0.55442 2.63273,2.21466 0.26773,1.89353 -1.04891,3.78785 -2.63273,3.78785 -0.25515,0 -1.02235,-0.35397 -1.70488,-0.78659 z"
     id="path4949" />
</svg>
