<?xml version="1.0" encoding="UTF-8" standalone="no"?>
<svg
   xmlns:dc="http://purl.org/dc/elements/1.1/"
   xmlns:cc="http://creativecommons.org/ns#"
   xmlns:rdf="http://www.w3.org/1999/02/22-rdf-syntax-ns#"
   xmlns:svg="http://www.w3.org/2000/svg"
   xmlns="http://www.w3.org/2000/svg"
   viewBox="0 0 653.93158 728.13739"
   height="728.13739"
   width="653.93158"
   version="1.1"
   id="svg3390">
  <metadata
     id="metadata3396">
    <rdf:RDF>
      <cc:Work
         rdf:about="">
        <dc:format>image/svg+xml</dc:format>
        <dc:type
           rdf:resource="http://purl.org/dc/dcmitype/StillImage" />
        <dc:title></dc:title>
      </cc:Work>
    </rdf:RDF>
  </metadata>
  <defs
     id="defs3394" />
  <path
     style="fill:#d2dde7"
     d="m 16.064023,726.43367 c -5.7084,-2.6206 -14.0356998,-11.1547 -15.23679976,-15.6152 -0.7217,-2.6803 -0.9425,-102.93174 -0.7732,-351.18746 l 0.2368,-347.436343 2.53649996,-3.6319796 c 1.3951,-1.99759 4.0784,-4.6758 5.9629,-5.95157 l 3.4263998,-2.31959001 310.309497,-0.23741 c 221.599,-0.16954 311.3824,0.0515 314.0627,0.77324 4.4626,1.20167001 12.996,9.52744961 15.6173,15.23736961 1.6433,3.57972 1.7045,15.99391 1.7241,350.055593 0.018,311.05005 -0.1264,346.69575 -1.4206,349.79385 -1.9108,4.5744 -5.6091,8.3994 -10.1569,10.5049 -3.589,1.6617 -13.9122,1.7183 -313.1444,1.7183 -298.271097,0 -309.566797,-0.061 -313.144297,-1.7037 z m 622.694897,-10.0671 c 1.5956,-1.1382 3.5799,-3.5 4.4096,-5.2484 1.3845,-2.9177 1.508,-31.6502 1.5013,-349.45024 -0.01,-317.091743 -0.1338,-346.537733 -1.5086,-349.434823 -0.8257,-1.74003 -2.8067,-4.0948996 -4.4023,-5.2330496 l -2.9011,-2.06935 -311.2886,0 -311.288697,0 -2.9011,2.06935 c -1.5955998,1.13815 -3.5782998,3.4964796 -4.4059998,5.2407496 -1.3809,2.91016 -1.4859,31.78083 -1.2742,350.507983 l 0.2308,347.33658 2.0581,2.8853 c 1.1319,1.5869 3.4282998,3.5616 5.1030998,4.3883 2.7911,1.3778 28.918197,1.4853 313.405797,1.29 l 310.3608,-0.2131 2.9011,-2.0693 z M 252.19802,523.59052 c 0,-1.27577 0.1601,-2.31958 0.3558,-2.31958 0.1956,0 0.5553,1.04381 0.7991,2.31958 0.2439,1.27578 0.084,2.31959 -0.3557,2.31959 -0.4396,0 -0.7992,-1.04381 -0.7992,-2.31959 z m -42.7793,-13.288 c 0.7487,-0.52324 1.0782,-1.72447 0.7827,-2.85414 -0.2805,-1.07285 -0.1039,-1.95064 0.3925,-1.95064 1.4488,0 0.4555,4.92233 -1.0763,5.33413 -1.1566,0.31095 -1.1734,0.22153 -0.099,-0.52935 z m 39.8969,0 c 0.7487,-0.52324 1.0782,-1.72447 0.7827,-2.85414 -0.2805,-1.07285 -0.1039,-1.95064 0.3925,-1.95064 1.4488,0 0.4555,4.92233 -1.0763,5.33413 -1.1566,0.31095 -1.1733,0.22153 -0.099,-0.52935 z m -70.9809,-12.22746 c 0,-6.88918 0.146,-9.70748 0.3245,-6.26289 0.1786,3.44459 0.1786,9.08119 0,12.52577 -0.1785,3.44459 -0.3245,0.62629 -0.3245,-6.26288 z m 5.567,0 c 0,-6.88918 0.146,-9.70748 0.3246,-6.26289 0.1785,3.44459 0.1785,9.08119 0,12.52577 -0.1786,3.44459 -0.3246,0.62629 -0.3246,-6.26288 z m 13.4357,10.43814 c -1.1541,-1.4716 -1.1213,-1.50442 0.3503,-0.35031 1.5455,1.2121 2.0371,1.97402 1.2734,1.97402 -0.1927,0 -0.9233,-0.73067 -1.6237,-1.62371 z m 39.8969,0 c -1.1541,-1.4716 -1.1213,-1.50442 0.3503,-0.35031 1.5456,1.2121 2.0371,1.97402 1.2734,1.97402 -0.1927,0 -0.9233,-0.73067 -1.6237,-1.62371 z m -118.2688,-2.31958 -1.7675,-2.08763 2.0876,1.76751 c 1.9619,1.66103 2.5101,2.40774 1.7676,2.40774 -0.1761,0 -1.1155,-0.93943 -2.0877,-2.08762 z m 9.6565,-0.40186 c 0.6698,-0.26802 1.47,-0.23507 1.7783,0.0732 0.3083,0.30831 -0.2397,0.5276 -1.2177,0.48731 -1.0809,-0.0445 -1.3008,-0.26437 -0.5606,-0.56056 z m 6.4948,0 c 0.6698,-0.26802 1.4701,-0.23507 1.7784,0.0732 0.3083,0.30831 -0.2397,0.5276 -1.2178,0.48731 -1.0809,-0.0445 -1.3007,-0.26437 -0.5606,-0.56056 z m -39.7229,-0.64433 c 0,-0.19267 0.7307,-0.92334 1.6237,-1.62372 1.4716,-1.1541 1.5044,-1.12128 0.3503,0.35032 -1.2121,1.54554 -1.974,2.03704 -1.974,1.2734 z m 99.479,-13.27363 -0.2007,-12.23219 -2.5515,-0.38653 -2.5515,-0.38652 2.5806,-0.13902 c 1.4194,-0.0765 2.7898,0.40605 3.0455,1.07224 0.2556,0.6662 0.3328,6.40718 0.1715,12.75773 l -0.2933,11.54648 -0.2006,-12.23219 z m 39.8969,0 -0.2006,-12.23219 -2.5516,-0.38653 -2.5515,-0.38652 2.5806,-0.13902 c 1.4194,-0.0765 2.7899,0.40605 3.0455,1.07224 0.2556,0.6662 0.3328,6.40718 0.1715,12.75773 l -0.2933,11.54648 -0.2006,-12.23219 z m -34.1099,-0.98805 0.043,-11.83131 4.8127,-0.27843 c 3.8978,-0.22549 4.8913,-0.62502 5.2265,-2.10184 0.326,-1.43617 0.3876,-1.37704 0.2904,0.27842 -0.1093,1.86085 -0.6788,2.1339 -4.9672,2.38135 l -4.8438,0.27949 -0.3026,11.55181 -0.3027,11.55181 0.043,-11.8313 z m 39.8969,0 0.043,-11.83131 4.8127,-0.27843 c 3.8978,-0.22549 4.8913,-0.62502 5.2265,-2.10184 0.326,-1.43617 0.3876,-1.37704 0.2904,0.27842 -0.1093,1.86085 -0.6788,2.1339 -4.9672,2.38135 l -4.8438,0.27949 -0.3026,11.55181 -0.3026,11.55181 0.043,-11.8313 z m -166.4299,7.57591 c 0.045,-1.08088 0.2644,-1.30073 0.5606,-0.56057 0.268,0.66978 0.2351,1.47004 -0.073,1.77835 -0.3083,0.30831 -0.5276,-0.23969 -0.4873,-1.21778 z m 25.0516,0 c 0.045,-1.08088 0.2644,-1.30073 0.5605,-0.56057 0.2681,0.66978 0.2351,1.47004 -0.073,1.77835 -0.3083,0.30831 -0.5276,-0.23969 -0.4873,-1.21778 z m -19.4846,-1.85567 c 0.045,-1.08088 0.2644,-1.30073 0.5606,-0.56057 0.268,0.66978 0.2351,1.47004 -0.073,1.77835 -0.3083,0.30831 -0.5276,-0.23969 -0.4873,-1.21778 z m 40.8248,0 c 0.044,-1.08088 0.2644,-1.30073 0.5606,-0.56057 0.268,0.66978 0.235,1.47004 -0.073,1.77835 -0.3083,0.30831 -0.5276,-0.23969 -0.4873,-1.21778 z m 24.2657,-5.95361 c 0,-1.78609 0.191,-2.51676 0.4243,-1.62371 0.2334,0.89304 0.2334,2.35438 0,3.24742 -0.2333,0.89304 -0.4243,0.16237 -0.4243,-1.62371 z m -65.0905,-2.39691 c 0.045,-1.08088 0.2644,-1.30073 0.5606,-0.56057 0.268,0.66978 0.2351,1.47005 -0.073,1.77836 -0.3083,0.30831 -0.5276,-0.2397 -0.4873,-1.21779 z m 19.4846,-0.92783 c 0.045,-1.08088 0.2644,-1.30073 0.5605,-0.56057 0.2681,0.66977 0.2351,1.47004 -0.073,1.77835 -0.3083,0.30831 -0.5276,-0.2397 -0.4873,-1.21778 z m 21.3402,0 c 0.044,-1.08088 0.2644,-1.30073 0.5606,-0.56057 0.268,0.66977 0.235,1.47004 -0.073,1.77835 -0.3083,0.30831 -0.5276,-0.2397 -0.4873,-1.21778 z m -1.0011,-9.20104 c 1.1985,-1.27577 2.3879,-2.31958 2.6431,-2.31958 0.2551,0 -0.5167,1.04381 -1.7153,2.31958 -1.1985,1.27578 -2.3879,2.31959 -2.643,2.31959 -0.2552,0 0.5167,-1.04381 1.7152,-2.31959 z m 80.987,-7.42268 c 0.01,-2.55154 0.1872,-3.48523 0.4004,-2.07487 0.2133,1.41037 0.2076,3.498 -0.013,4.63918 -0.2202,1.14118 -0.3947,-0.0127 -0.3877,-2.56431 z m 39.8969,0 c 0.01,-2.55154 0.1872,-3.48523 0.4005,-2.07487 0.2132,1.41037 0.2075,3.498 -0.013,4.63918 -0.2202,1.14118 -0.3947,-0.0127 -0.3877,-2.56431 z m -23.388,-4.71649 c 0.045,-1.08088 0.2644,-1.30073 0.5606,-0.56057 0.268,0.66978 0.2351,1.47004 -0.073,1.77835 -0.3083,0.30831 -0.5276,-0.23969 -0.4873,-1.21778 z m 6.4949,0 c 0.044,-1.08088 0.2644,-1.30073 0.5605,-0.56057 0.2681,0.66978 0.2351,1.47004 -0.073,1.77835 -0.3083,0.30831 -0.5276,-0.23969 -0.4873,-1.21778 z m -5.033,-3.40206 c 0.2365,-0.38274 1.2158,-0.69588 2.1762,-0.69588 0.9604,0 1.9397,0.31314 2.1763,0.69588 0.2365,0.38273 -0.7428,0.69587 -2.1763,0.69587 -1.4334,0 -2.4127,-0.31314 -2.1762,-0.69587 z m 40.9713,-41.2266 c 0.6698,-0.26803 1.4701,-0.23507 1.7784,0.0732 0.3083,0.30831 -0.2397,0.52761 -1.2178,0.48732 -1.0809,-0.0445 -1.3007,-0.26438 -0.5606,-0.56056 z m 14.8454,0 c 0.6698,-0.26803 1.47,-0.23507 1.7783,0.0732 0.3084,0.30831 -0.2397,0.52761 -1.2177,0.48732 -1.0809,-0.0445 -1.3008,-0.26438 -0.5606,-0.56056 z m 117.835,0 c 0.6698,-0.26803 1.4701,-0.23507 1.7784,0.0732 0.3083,0.30831 -0.2397,0.52761 -1.2178,0.48732 -1.0809,-0.0445 -1.3007,-0.26438 -0.5606,-0.56056 z m 13.9176,0 c 0.6697,-0.26803 1.47,-0.23507 1.7783,0.0732 0.3083,0.30831 -0.2397,0.52761 -1.2178,0.48732 -1.0808,-0.0445 -1.3007,-0.26438 -0.5605,-0.56056 z m -345.4606,-37.40743 0.016,-36.64948 8.0778,-0.26749 8.0778,-0.26749 0.2727,16.73767 c 0.15,9.20572 -0.041,16.73717 -0.4232,16.73656 -0.3827,-6.1e-4 -0.6958,-7.30781 -0.6958,-16.23822 l 0,-16.23712 -7.4121,0 -7.412,0 -0.2586,36.41753 -0.2586,36.41753 0.016,-36.64949 z m 15.694,24.12371 c 0,-7.39948 0.1441,-10.42654 0.3202,-6.7268 0.1761,3.69974 0.1761,9.75387 0,13.45361 -0.1761,3.69974 -0.3202,0.67268 -0.3202,-6.72681 z m 52.9411,-24.12371 c 0,-20.66752 0.1222,-29.12242 0.2715,-18.78866 0.1493,10.33376 0.1493,27.24356 0,37.57732 -0.1493,10.33377 -0.2715,1.87887 -0.2715,-18.78866 z m 42.5616,31.08248 c 0,-3.57217 0.1718,-4.91981 0.3727,-2.99478 0.2008,1.92505 0.1975,4.84773 -0.01,6.49485 -0.205,1.64713 -0.3693,0.0721 -0.3652,-3.50007 z m 153.0483,5.34779 c 2.4394,-0.19177 6.1971,-0.18945 8.3505,0.006 2.1534,0.19458 0.1576,0.35148 -4.4352,0.34865 -4.5928,-0.003 -6.3547,-0.16204 -3.9153,-0.35379 z m 139.3094,-18.8014 c 0,-10.97165 0.1342,-15.46005 0.2983,-9.97423 0.164,5.48583 0.164,14.46263 0,19.94846 -0.1641,5.48582 -0.2983,0.99742 -0.2983,-9.97423 z m 50.6368,-17.16495 0,-36.64949 -6.4789,0 -6.4789,0 -0.2645,23.42784 -0.2646,23.42784 -0.2153,-23.89176 -0.2153,-23.89175 7.4227,0 7.4227,0 0,37.1134 c 0,20.41237 -0.2088,37.11341 -0.4639,37.11341 -0.2552,0 -0.464,-16.49227 -0.464,-36.64949 z m 18.98,-0.46392 c 0,-20.66752 0.1222,-29.12242 0.2715,-18.78866 0.1493,10.33376 0.1493,27.24356 0,37.57732 -0.1493,10.33377 -0.2715,1.87887 -0.2715,-18.78866 z m 42.5616,31.08248 c 0,-3.57217 0.1718,-4.91981 0.3727,-2.99478 0.2008,1.92505 0.1975,4.84773 -0.01,6.49485 -0.205,1.64713 -0.3693,0.0721 -0.3652,-3.50007 z m -313.1588,-6.66474 c 0.6697,-0.26803 1.47,-0.23507 1.7783,0.0732 0.3083,0.30831 -0.2397,0.52761 -1.2178,0.48732 -1.0808,-0.0445 -1.3007,-0.26438 -0.5605,-0.56056 z m 134.0141,-0.0307 c 1.4034,-0.21259 3.6998,-0.21259 5.1031,0 1.4034,0.21259 0.2552,0.38653 -2.5515,0.38653 -2.8067,0 -3.9549,-0.17394 -2.5516,-0.38653 z m -252.2598,-9.54166 c 0,-5.35824 0.1534,-7.55025 0.3408,-4.87113 0.1874,2.67912 0.1874,7.06314 0,9.74227 -0.1874,2.67912 -0.3408,0.48711 -0.3408,-4.87114 z m 404.5361,0 c 0,-5.35824 0.1533,-7.55025 0.3408,-4.87113 0.1874,2.67912 0.1874,7.06314 0,9.74227 -0.1875,2.67912 -0.3408,0.48711 -0.3408,-4.87114 z m -270.27,2.24227 c 0.045,-1.08088 0.2644,-1.30073 0.5605,-0.56057 0.2681,0.66978 0.2351,1.47005 -0.073,1.77836 -0.3083,0.30831 -0.5276,-0.2397 -0.4873,-1.21779 z m 85.4341,-10.59278 c 0,-1.27578 0.2106,-1.79768 0.4679,-1.1598 0.2574,0.63789 0.2574,1.6817 0,2.31959 -0.2573,0.63789 -0.4679,0.11598 -0.4679,-1.15979 z m 16.6277,0.3866 c 0.045,-1.08088 0.2644,-1.30073 0.5606,-0.56057 0.268,0.66977 0.2351,1.47004 -0.073,1.77835 -0.3083,0.30831 -0.5276,-0.23969 -0.4873,-1.21778 z m 36.1856,0 c 0.044,-1.08088 0.2644,-1.30073 0.5606,-0.56057 0.268,0.66977 0.235,1.47004 -0.073,1.77835 -0.3083,0.30831 -0.5276,-0.23969 -0.4874,-1.21778 z m 16.8087,-0.85052 c 0.019,-1.53093 0.2268,-2.04489 0.4621,-1.14214 0.2352,0.90276 0.2197,2.15534 -0.035,2.78351 -0.2541,0.62817 -0.4466,-0.11044 -0.4277,-1.64137 z m -181.2271,-8.58247 c -1.1541,-1.47161 -1.1213,-1.50442 0.3503,-0.35032 1.5456,1.2121 2.0371,1.97403 1.2734,1.97403 -0.1927,0 -0.9233,-0.73067 -1.6237,-1.62371 z m 181.2271,-3.47939 c 0.019,-1.53092 0.2268,-2.04489 0.4621,-1.14213 0.2352,0.90275 0.2197,2.15533 -0.035,2.7835 -0.2541,0.62817 -0.4466,-0.11044 -0.4277,-1.64137 z m -69.5877,-0.92783 c 0.019,-1.53093 0.2269,-2.04489 0.4621,-1.14214 0.2353,0.90276 0.2198,2.15533 -0.034,2.78351 -0.2541,0.62817 -0.4466,-0.11044 -0.4277,-1.64137 z m 16.5934,-0.0773 c 0.045,-1.08088 0.2644,-1.30073 0.5606,-0.56057 0.268,0.66978 0.2351,1.47004 -0.073,1.77835 -0.3083,0.30831 -0.5276,-0.23969 -0.4873,-1.21778 z m 36.1856,0 c 0.044,-1.08088 0.2644,-1.30073 0.5606,-0.56057 0.268,0.66978 0.235,1.47004 -0.073,1.77835 -0.3083,0.30831 -0.5276,-0.23969 -0.4874,-1.21778 z m -272.5223,-8.73714 c 0,-4.84794 0.1564,-6.83119 0.3475,-4.40722 0.1912,2.42397 0.1912,6.39046 0,8.81443 -0.1911,2.42397 -0.3475,0.44072 -0.3475,-4.40721 z m 404.5361,0 c 0,-4.84794 0.1564,-6.83119 0.3475,-4.40722 0.1912,2.42397 0.1912,6.39046 0,8.81443 -0.1911,2.42397 -0.3475,0.44072 -0.3475,-4.40721 z m -301.8076,2.24227 c 0.044,-1.08088 0.2644,-1.30074 0.5606,-0.56057 0.268,0.66977 0.235,1.47004 -0.073,1.77835 -0.3083,0.30831 -0.5276,-0.2397 -0.4873,-1.21778 z m -146.6712,0.19092 c 0,-0.19267 0.7307,-0.92334 1.6237,-1.62371 1.4716,-1.15411 1.5044,-1.12129 0.3503,0.35031 -1.2121,1.54554 -1.974,2.03704 -1.974,1.2734 z m 361.8557,-2.48796 c 0,-1.56104 0.3615,-2.61482 0.8034,-2.34172 0.7474,0.46193 0.3397,5.17999 -0.4477,5.17999 -0.1956,0 -0.3557,-1.27722 -0.3557,-2.83827 z m -215.1845,-5.12564 c 0.044,-1.08089 0.2644,-1.30074 0.5606,-0.56057 0.268,0.66977 0.235,1.47004 -0.073,1.77835 -0.3083,0.30831 -0.5276,-0.2397 -0.4873,-1.21778 z m 17.0917,-1.31444 c 0.9236,-1.02062 1.8881,-1.85567 2.1433,-1.85567 0.2551,0 -0.2918,0.83505 -1.2155,1.85567 -0.9236,1.02062 -1.8881,1.85567 -2.1433,1.85567 -0.2551,0 0.2918,-0.83505 1.2155,-1.85567 z m -92.943,-7.8866 c 0,-3.57216 0.1718,-4.91981 0.3727,-2.99477 0.2008,1.92504 0.1975,4.84772 -0.01,6.49484 -0.205,1.64713 -0.3693,0.0721 -0.3652,-3.50007 z m 96.9443,5.39712 c 0.6698,-0.26803 1.47,-0.23507 1.7783,0.0732 0.3083,0.30831 -0.2397,0.52761 -1.2178,0.48732 -1.0808,-0.0445 -1.3007,-0.26438 -0.5605,-0.56056 z m 6.4368,0.0193 c 0.6379,-0.2574 1.6817,-0.2574 2.3196,0 0.6379,0.25739 0.116,0.46799 -1.1598,0.46799 -1.2757,0 -1.7977,-0.2106 -1.1598,-0.46799 z m 25.5955,-5.88034 c 0,-3.82732 0.1638,-5.39304 0.3639,-3.47938 0.2002,1.91366 0.2002,5.04511 0,6.95877 -0.2001,1.91366 -0.3639,0.34793 -0.3639,-3.47939 z m 55.6701,0 c 0,-3.82732 0.1638,-5.39304 0.3639,-3.47938 0.2002,1.91366 0.2002,5.04511 0,6.95877 -0.2001,1.91366 -0.3639,0.34793 -0.3639,-3.47939 z m 39.411,5.86104 c 0.6698,-0.26803 1.47,-0.23507 1.7783,0.0732 0.3083,0.30831 -0.2397,0.52761 -1.2178,0.48732 -1.0808,-0.0445 -1.3007,-0.26438 -0.5605,-0.56056 z m 180.4784,-5.39712 c 0,-3.57216 0.1718,-4.91981 0.3727,-2.99477 0.2008,1.92504 0.1975,4.84772 -0.01,6.49484 -0.205,1.64713 -0.3693,0.0721 -0.3652,-3.50007 z m -482.7787,3.82495 c 0,-0.19267 0.7307,-0.92334 1.6237,-1.62372 1.4716,-1.1541 1.5045,-1.12128 0.3503,0.35032 -1.212,1.54554 -1.974,2.03704 -1.974,1.2734 z m 17.6289,0 c 0,-0.19267 0.7307,-0.92334 1.6237,-1.62372 1.4716,-1.1541 1.5044,-1.12128 0.3503,0.35032 -1.2121,1.54554 -1.974,2.03704 -1.974,1.2734 z m -13.9175,-4.63918 c 0,-0.19266 0.7306,-0.92333 1.6237,-1.62371 1.4716,-1.15411 1.5044,-1.12129 0.3503,0.35031 -1.2121,1.54554 -1.974,2.03705 -1.974,1.2734 z m 4.3186,-5.44866 c 0.2365,-0.38273 4.3719,-0.69587 9.1897,-0.69587 4.8179,0 8.7597,0.31314 8.7597,0.69587 0,0.38274 -4.1354,0.69588 -9.1897,0.69588 -5.0544,0 -8.9963,-0.31314 -8.7597,-0.69588 z m 84.7535,0.23196 -8.8144,-0.57263 8.5277,-0.1776 c 4.8862,-0.10176 8.7726,0.21861 9.1012,0.75023 0.3154,0.51031 0.4444,0.84791 0.2867,0.75023 -0.1577,-0.0977 -4.2532,-0.43528 -9.1012,-0.75023 z m 38.6485,-0.23196 c 0.2366,-0.38273 4.1632,-0.69587 8.7259,-0.69587 4.5626,0 8.2957,0.31314 8.2957,0.69587 0,0.38274 -3.9266,0.69588 -8.7258,0.69588 -4.7992,0 -8.5323,-0.31314 -8.2958,-0.69588 z m 229.7278,-0.4537 c 2.9343,-0.18413 7.7358,-0.18413 10.6701,0 2.9343,0.18413 0.5335,0.33478 -5.335,0.33478 -5.8686,0 -8.2694,-0.15065 -5.3351,-0.33478 z m -175.7667,-0.87599 c 0.6697,-0.26802 1.47,-0.23506 1.7783,0.0732 0.3083,0.30831 -0.2397,0.52761 -1.2178,0.48732 -1.0808,-0.0445 -1.3007,-0.26438 -0.5605,-0.56056 z m 113.1958,0 c 0.6698,-0.26802 1.4701,-0.23506 1.7784,0.0732 0.3083,0.30831 -0.2397,0.52761 -1.2178,0.48732 -1.0809,-0.0445 -1.3007,-0.26438 -0.5606,-0.56056 z m 13.9176,0 c 0.6697,-0.26802 1.47,-0.23506 1.7783,0.0732 0.3083,0.30831 -0.2397,0.52761 -1.2178,0.48732 -1.0808,-0.0445 -1.3007,-0.26438 -0.5605,-0.56056 z m 166.9523,-170.70232 c 0.6379,-0.2574 1.6817,-0.2574 2.3196,0 0.6379,0.25739 0.116,0.46799 -1.1598,0.46799 -1.2758,0 -1.7977,-0.2106 -1.1598,-0.46799 z m 6.7268,-2.63294 c 1.1985,-1.27577 2.3879,-2.31959 2.643,-2.31959 0.2552,0 -0.5166,1.04382 -1.7152,2.31959 -1.1985,1.27577 -2.3879,2.31959 -2.643,2.31959 -0.2552,0 0.5167,-1.04382 1.7152,-2.31959 z m -4.2189,-30.3866 -3.6677,-3.9433 3.9433,3.66769 c 3.6672,3.4109 4.3697,4.21891 3.6677,4.21891 -0.1516,0 -1.9261,-1.77449 -3.9433,-3.9433 z m 7.9302,3.65297 c 0,-0.15968 1.357,-1.51664 3.0155,-3.01546 l 3.0155,-2.72514 -2.7252,3.01546 c -2.5402,2.81084 -3.3058,3.44195 -3.3058,2.72514 z m -25.8918,-7.36431 c 0.2183,-0.12758 2.0623,-1.6933 4.0979,-3.47938 l 3.7011,-3.24743 -3.1974,3.47939 c -1.7586,1.91366 -3.6027,3.47938 -4.098,3.47938 -0.4952,0 -0.7219,-0.10438 -0.5036,-0.23196 z m 29.0511,-3.71134 -1.7675,-2.08763 2.0876,1.76752 c 1.9619,1.66103 2.51,2.40774 1.7675,2.40774 -0.176,0 -1.1155,-0.93944 -2.0876,-2.08763 z m -60.2502,-4.63918 -5.5379,-5.79897 5.7989,5.53797 c 3.1895,3.04588 5.799,5.65542 5.799,5.79897 0,0.68558 -0.9157,-0.15122 -6.06,-5.53797 z m -37.2986,3.30032 c 0.9027,-0.23524 2.1553,-0.21977 2.7835,0.0344 0.6281,0.25417 -0.1105,0.44664 -1.6414,0.42773 -1.5309,-0.0189 -2.0449,-0.22686 -1.1421,-0.4621 z m 6.4948,0 c 0.9028,-0.23524 2.1553,-0.21977 2.7835,0.0344 0.6282,0.25417 -0.1104,0.44664 -1.6413,0.42773 -1.531,-0.0189 -2.0449,-0.22686 -1.1422,-0.4621 z m 65.1191,-6.08382 -3.6677,-3.9433 3.9433,3.66768 c 2.1688,2.01723 3.9433,3.79171 3.9433,3.9433 0,0.70199 -0.808,-4.5e-4 -4.2189,-3.66768 z m -86.7589,-1.39175 -3.1974,-3.47939 3.4794,3.19748 c 3.2385,2.97613 3.9059,3.76129 3.1974,3.76129 -0.155,0 -1.7207,-1.56572 -3.4794,-3.47938 z m 17.5049,-6.43279 c 0.6698,-0.26802 1.47,-0.23506 1.7783,0.0732 0.3084,0.30831 -0.2397,0.5276 -1.2177,0.48732 -1.0809,-0.0445 -1.3008,-0.26438 -0.5606,-0.56056 z m 5.567,0 c 0.6698,-0.26802 1.47,-0.23506 1.7784,0.0732 0.3083,0.30831 -0.2397,0.5276 -1.2178,0.48732 -1.0809,-0.0445 -1.3008,-0.26438 -0.5606,-0.56056 z m 72.4749,-1.78724 c -1.2372,-1.33158 -3.0844,-2.76645 -4.1051,-3.18861 -1.3031,-0.53901 -1.4264,-0.78507 -0.4139,-0.82636 0.7929,-0.0324 2.8581,1.40252 4.5892,3.1886 1.7311,1.78609 2.9296,3.24743 2.6633,3.24743 -0.2663,0 -1.4964,-1.08948 -2.7335,-2.42106 z m -102.632,-11.03255 c 0.01,-3.06186 0.1784,-4.20258 0.3849,-2.53493 0.2065,1.66764 0.2023,4.1728 -0.01,5.56701 -0.2117,1.39421 -0.3807,0.0298 -0.3755,-3.03208 z m 41.5383,1.77835 c 0.045,-1.08088 0.2644,-1.30073 0.5606,-0.56057 0.268,0.66978 0.2351,1.47004 -0.073,1.77835 -0.3083,0.30832 -0.5276,-0.23969 -0.4873,-1.21778 z m -27.6743,-2.70619 c 0.01,-2.04123 0.2003,-2.76703 0.4223,-1.61289 0.2219,1.15414 0.2135,2.82425 -0.019,3.71134 -0.2322,0.88709 -0.4138,-0.0573 -0.4035,-2.09845 z m 31.5444,-4.81484 c 0.893,-0.23337 2.3544,-0.23337 3.2474,0 0.8931,0.23338 0.1624,0.42433 -1.6237,0.42433 -1.7861,0 -2.5168,-0.19095 -1.6237,-0.42433 z m 28.6774,-9.566599 c 0,-1.27577 0.2106,-1.79768 0.468,-1.1598 0.2574,0.63789 0.2574,1.68171 0,2.31959 -0.2574,0.63789 -0.468,0.11598 -0.468,-1.15979 z m -49.4957,0.29402 c 0.6698,-0.26802 1.47,-0.23507 1.7783,0.0732 0.3084,0.30831 -0.2397,0.5276 -1.2177,0.48731 -1.0809,-0.0445 -1.3008,-0.26437 -0.5606,-0.56056 z m 7.7775,-4.46928 c 0.019,-1.53093 0.2269,-2.04489 0.4621,-1.14214 0.2353,0.90276 0.2198,2.15534 -0.034,2.78351 -0.2542,0.62817 -0.4466,-0.11044 -0.4277,-1.64137 z m 41.645,-6.57216 c 0.045,-1.08088 0.2643,-1.30073 0.5605,-0.56057 0.2681,0.66977 0.2351,1.47003 -0.073,1.77835 -0.3083,0.30831 -0.5276,-0.23969 -0.4873,-1.21778 z m -64.0939,-1.66475 c 0,-0.19267 0.7307,-0.92334 1.6237,-1.62371 1.4716,-1.15411 1.5044,-1.12129 0.3503,0.35031 -1.2121,1.54554 -1.974,2.03704 -1.974,1.2734 z m 46.3215,-2.20123 -2.2493,-2.55155 2.5515,2.24936 c 1.4034,1.23716 2.5516,2.38535 2.5516,2.55155 0,0.72768 -0.7514,0.13544 -2.8538,-2.24936 z m -38.8988,-5.22145 c 0,-0.19267 0.7306,-0.92334 1.6237,-1.62371 1.4716,-1.15411 1.5044,-1.12129 0.3503,0.35031 -1.2121,1.54554 -1.974,2.03704 -1.974,1.2734 z m 23.9497,-12.34536 c 0.6698,-0.26802 1.4701,-0.23507 1.7784,0.0732 0.3083,0.30832 -0.2397,0.5276 -1.2178,0.48732 -1.0809,-0.0445 -1.3007,-0.26438 -0.5606,-0.56057 z m 11.134,0 c 0.6698,-0.26802 1.4701,-0.23507 1.7784,0.0732 0.3083,0.30832 -0.2397,0.5276 -1.2178,0.48732 -1.0809,-0.0445 -1.3007,-0.26438 -0.5606,-0.56057 z M 7.2496232,12.526987 c 0,-0.15968 1.3569,-1.51664 3.0153998,-3.0154696 l 3.0155,-2.72513 -2.7251,3.01546 C 8.0151232,12.612687 7.2496232,13.243797 7.2496232,12.526987 Z M 638.58292,9.8018474 l -2.7251,-3.01546 3.0155,2.72513 c 1.6585,1.4988296 3.0154,2.8557896 3.0154,3.0154696 0,0.71681 -0.7655,0.0857 -3.3058,-2.7251396 z"
     id="path3517" />
  <path
     style="fill:#238dc6"
     d="m 142.86002,506.42557 c 0,-1.27577 0.2106,-1.79768 0.468,-1.15979 0.2574,0.63789 0.2574,1.6817 0,2.31959 -0.2574,0.63788 -0.468,0.11598 -0.468,-1.1598 z m -16.6156,-13.67772 c 3.4446,-0.17853 9.0812,-0.17853 12.5258,0 3.4446,0.17852 0.6263,0.32458 -6.2629,0.32458 -6.8892,0 -9.7075,-0.14606 -6.2629,-0.32458 z m -26.1381,-14.69856 c 0.045,-1.08088 0.2644,-1.30073 0.5606,-0.56057 0.268,0.66977 0.235,1.47004 -0.073,1.77835 -0.3083,0.30831 -0.5276,-0.2397 -0.4873,-1.21778 z m 156.7309,-57.38297 c -10.2438,-2.35009 -10.2062,-2.31232 -10.2062,-10.24871 0,-3.83995 0.1044,-6.97615 0.232,-6.96932 0.1275,0.006 3.7809,1.25382 8.1185,2.77109 12.5544,4.39143 21.2104,3.58308 24.0032,-2.24155 1.0918,-2.27719 1.0727,-3.06743 -0.136,-5.60193 -1.0974,-2.30129 -3.5201,-4.06027 -11.0074,-7.99178 -15.5243,-8.15162 -19.67,-13.1251 -19.67,-23.59773 0,-9.15551 4.4425,-15.5344 13.3051,-19.10429 5.249,-2.11433 18.7261,-1.65759 26.2113,0.88831 3.4446,1.17159 6.2629,2.54063 6.2629,3.04231 0,0.82586 -3.6433,10.02026 -4.3203,10.90295 -0.1554,0.20265 -3.0134,-0.52802 -6.3511,-1.62371 -12.0908,-3.96913 -19.9472,-1.86746 -19.9472,5.33613 0,4.46244 1.7158,6.01884 12.9897,11.78334 13.7925,7.05221 18.5376,12.97468 18.5516,23.15465 0.01,5.37166 -4.0393,12.98388 -8.456,15.90671 -6.8599,4.53971 -19.0178,6.01671 -29.5801,3.59353 z m 133.8585,0.40946 c -6.6263,-1.41112 -12.0654,-4.32513 -16.4026,-8.78773 -13.3018,-13.68658 -12.4574,-46.49431 1.5043,-58.44498 7.2998,-6.24836 20.5288,-9.19986 31.813,-7.09776 17.7954,3.31504 26.5572,15.36854 26.7083,36.74211 0.1336,18.88914 -6.4884,30.76818 -20.0173,35.90874 -5.3804,2.04441 -17.7574,2.92506 -23.6057,1.67962 z m 16.9876,-13.83237 c 7.7447,-3.51748 11.0597,-11.63969 10.4131,-25.51375 -0.4696,-10.07551 -2.685,-15.81834 -7.5269,-19.51142 -6.7001,-5.11038 -18.9692,-3.91675 -24.2501,2.35923 -6.7121,7.97688 -6.9168,30.04283 -0.3561,38.38345 4.4293,5.63083 14.4159,7.59987 21.72,4.28249 z m -346.6193,-22.82815 0,-36.64949 7.4227,0 7.4227,0 0,16.23712 c 0,8.93041 0.3131,16.22126 0.6958,16.2019 0.3828,-0.0194 1.904,-1.79385 3.3805,-3.9433 1.4765,-2.14945 7.0817,-9.4403 12.456,-16.2019 l 9.7715,-12.29382 8.1883,0 c 4.5035,0 8.1883,0.20659 8.1883,0.45908 0,0.25249 -5.4614,7.37937 -12.1365,15.83749 -6.675,8.45814 -11.9289,15.91935 -11.6752,16.58048 0.2537,0.66113 5.4742,9.15885 11.6011,18.88382 6.1269,9.72496 11.6042,18.54944 12.1718,19.60993 1.0105,1.88811 0.8529,1.92809 -7.5832,1.92415 l -8.6151,-0.004 -9.1522,-14.85193 c -5.0337,-8.16856 -9.5401,-15.09172 -10.0143,-15.38479 -0.4742,-0.29307 -2.3055,0.56799 -4.0695,1.91348 l -3.2073,2.44603 0,12.94247 0,12.94248 -7.4227,0 -7.4227,0 0,-36.64949 z m 68.6598,-0.46392 0,-37.1134 20.8763,0 20.8763,0 0,6.49484 0,6.49485 -13.4536,0 -13.4536,0 0,8.35052 0,8.35051 12.5257,0 12.5258,0 0,6.49485 0,6.49484 -12.5258,0 -12.5257,0 0,9.27835 0,9.27835 13.4536,0 13.4536,0 0,6.49485 0,6.49485 -20.8763,0 -20.8763,0 0,-37.11341 z m 72.3711,22.81717 0,-14.29623 -9.3641,-17.48212 c -5.1502,-9.61516 -10.5816,-19.67413 -12.0697,-22.35325 l -2.7058,-4.87114 8.353,0 8.353,0 7.5085,14.99489 7.5085,14.99487 7.723,-14.76292 7.7229,-14.76292 7.9699,-0.26808 c 4.3835,-0.14745 7.9699,0.005 7.9699,0.33893 0,0.33385 -5.2191,10.28179 -11.5979,22.10652 l -11.598,21.4995 0,14.57909 0,14.5791 -7.8866,0 -7.8866,0 0,-14.29624 z m 247.732,-22.35325 0,-36.64949 9.9957,0 9.9957,0 15.9837,27.57292 15.9836,27.57292 0,-27.57292 0,-27.57292 6.4949,0 6.4948,0 0,36.64949 0,36.64949 -9.6038,0 -9.6038,0 -15.9886,-27.83506 c -8.7937,-15.30928 -16.0583,-27.83525 -16.1436,-27.83551 -0.085,-2.5e-4 -0.014,12.52552 0.1594,27.83505 l 0.3145,27.83552 -7.0413,0 -7.0412,0 0,-36.64949 z m 84.433,-0.46392 0,-37.1134 20.8763,0 20.8762,0 0,6.49484 0,6.49485 -13.4536,0 -13.4536,0 0,8.35052 0,8.35051 12.5258,0 12.5258,0 0,6.49485 0,6.49484 -12.5258,0 -12.5258,0 0,9.27835 0,9.27835 13.4536,0 13.4536,0 0,6.49485 0,6.49485 -20.8762,0 -20.8763,0 0,-37.11341 z m -213.4021,6.03093 0,-30.15464 -9.7423,0 -9.7422,0 0,-6.49485 0,-6.49484 27.3711,0 27.3711,0 0,6.49484 0,6.49485 -9.7422,0 -9.7423,0 0,30.15464 0,30.15464 -7.8866,0 -7.8866,0 0,-30.15464 z M 4.4864232,124.85339 c 0.02,-100.298473 0.099,-105.246113 1.7387,-108.788663 2.1056,-4.54786 5.9305998,-8.2461396 10.5049998,-10.1569696 3.0948,-1.2928 34.748997,-1.44097 307.839097,-1.44097 273.09,0 304.7442,0.14817 307.839,1.44097 4.5744,1.91083 8.3994,5.6091096 10.505,10.1569696 1.6401,3.54255 1.7192,8.49019 1.7387,108.788663 l 0.02,105.07733 -320.103,0 -320.1030968,0 0.02,-105.07733 z M 580.88362,172.39261 c 4.3995,-4.82865 3.6552,-6.81181 -6.2629,-16.6887 -4.8479,-4.82778 -8.8144,-9.18367 -8.8144,-9.67977 0,-0.49609 1.3245,-2.26861 2.9435,-3.93893 l 2.9435,-3.03693 4.4394,4.15256 c 2.4417,2.2839 4.924,4.15255 5.5162,4.15255 1.4634,0 8.2811,-6.91022 8.2811,-8.39358 0,-1.44884 -23.1565,-25.00848 -24.5806,-25.00848 -0.5568,0 -2.8097,1.83123 -5.0063,4.0694 -4.5297,4.61546 -4.4551,5.27414 1.2146,10.72881 l 3.3265,3.20028 -2.9684,3.06261 c -1.6326,1.68443 -3.4142,3.06261 -3.9591,3.06261 -0.5448,0 -6.5821,-5.60302 -13.4162,-12.45115 l -12.4255,-12.45116 2.8559,-4.48183 c 4.8527,-7.61534 6.9662,-15.402819 6.5044,-23.966369 -0.5941,-11.01984 -5.0422,-18.27884 -14.0494,-22.928 -6.1425,-3.17048 -17.018,-3.39146 -25.2924,-0.5139 -20.9726,7.29356 -37.2745,29.73569 -35.3244,48.629789 2.2845,22.13514 24.2718,30.91944 46.968,18.76456 l 6.8883,-3.68903 25.7533,25.69306 c 25.2306,25.1716 25.8158,25.68107 28.8333,25.10255 1.694,-0.32478 4.2282,-1.85071 5.6316,-3.39095 z m -90.4727,-53.26186 c -1.9185,-0.6905 -4.1381,-1.7948 -4.9323,-2.45399 -4.3109,-3.57769 -5.4897,-12.96931 -2.2872,-18.221619 2.8387,-4.65565 9.5179,-7.38268 14.5484,-5.93995 l 2.7556,0.7903 -0.3648,-5.21831 c -0.3023,-4.32423 0.01,-5.75858 1.8049,-8.37147 5.9503,-8.64716 16.8972,-8.52323 23.4526,0.26552 2.7142,3.63885 2.568,11.23602 -0.2936,15.25469 -3.0917,4.34199 -6.9105,6.007349 -12.6785,5.529029 l -4.8392,-0.40131 0.8028,2.79937 c 0.9045,3.15372 -0.1867,8.26651 -2.452,11.48949 -3.0612,4.35513 -10.1636,6.40494 -15.5167,4.47825 z"
     id="path3515" />
  <path
     style="fill:#2f729b"
     d="m 254.28562,525.33817 c -0.6378,-0.2808 -1.1597,-1.31079 -1.1597,-2.28888 0,-1.44268 0.67,-1.77835 3.5496,-1.77835 4.0431,0 6.5791,-2.16545 8.7705,-7.48879 1.3439,-3.26458 1.263,-3.56577 -5.478,-20.38786 -3.7632,-9.39089 -6.8421,-17.42625 -6.8421,-17.85636 0,-0.4301 1.1102,-0.64989 2.4671,-0.48842 2.2599,0.26892 2.8791,1.38507 7.3693,13.28328 2.6962,7.14433 5.1519,13.82474 5.4572,14.84536 0.3842,1.2844 2.2228,-2.71445 5.9725,-12.98969 4.9907,-13.67609 5.6089,-14.86848 7.8488,-15.13895 1.3373,-0.16147 2.4314,0.11697 2.4314,0.61877 0,1.61793 -15.5823,41.92577 -17.1078,44.25402 -2.7039,4.12661 -9.7131,6.9854 -13.2788,5.41587 z M 84.45322,510.45082 c -1.1695,-0.24921 -3.5366,-1.86333 -5.2602,-3.58695 -7.1696,-7.16966 -6.1574,-25.28095 1.7007,-30.4298 5.1212,-3.35554 13.4876,-2.58256 18.1993,1.68146 1.3045,1.18057 1.412,0.35262 1.0885,-8.38591 l -0.3589,-9.6958 2.8887,0 2.8888,0 0,25.05155 0,25.05154 -2.3196,0 c -1.868,0 -2.3196,-0.46077 -2.3196,-2.3668 l 0,-2.36681 -3.0998,2.36432 c -3.1176,2.3779 -9.1631,3.58774 -13.4079,2.6832 z m 12.4607,-6.21983 c 2.1997,-1.89206 2.6052,-3.04053 2.9421,-8.3313 0.7974,-12.52226 -1.9198,-17.30917 -9.8252,-17.30917 -6.9872,0 -10.4101,4.53621 -10.4101,13.79613 0,6.46532 0.9257,9.38891 3.8295,12.09415 3.0336,2.82625 10.0387,2.69628 13.4637,-0.24981 z m 28.8052,5.4895 c -6.4499,-2.30031 -9.3838,-6.28321 -10.4283,-14.15701 -0.8875,-6.69095 1.4454,-14.11229 5.5767,-17.73957 6.9866,-6.13437 17.8356,-4.27023 21.7085,3.73008 1.0962,2.26449 1.9932,5.65553 1.9932,7.53565 l 0,3.41841 -12.0619,0 -12.0619,0 0,2.41132 c 0,3.79944 2.7739,8.67004 5.8409,10.25608 2.8409,1.46907 11.2438,1.40555 14.8035,-0.11191 1.2968,-0.55281 1.6237,-0.22737 1.6237,1.61654 0,1.95753 -0.627,2.46659 -4.1222,3.34669 -5.3019,1.33503 -8.4823,1.25936 -12.8722,-0.30628 z m 13.283,-22.82553 c 0,-2.62758 -2.4033,-7.0322 -4.2168,-7.72809 -3.2761,-1.25717 -8.7701,-0.5791 -10.6656,1.31637 -1.8053,1.80536 -3.6743,5.59279 -3.6743,7.44603 0,0.4802 4.1421,0.86744 9.2784,0.86744 8.7347,0 9.2783,-0.11143 9.2783,-1.90175 z m 61.5422,22.81723 c -1.6184,-0.70396 -3.3928,-2.12152 -3.9433,-3.15011 -0.5799,-1.08353 -1.0009,-7.3597 -1.0009,-14.92087 l 0,-13.05069 -2.7835,0 c -3.5472,0 -3.5621,-1.40543 -0.034,-3.22979 1.9448,-1.00566 3.0414,-2.50616 3.7471,-5.12692 1.4178,-5.2653 3.7097,-4.97485 3.7097,0.47011 l 0,4.17526 5.103,0 c 4.4846,0 5.1031,0.22493 5.1031,1.85567 0,1.63075 -0.6185,1.85567 -5.1031,1.85567 l -5.103,0 0,11.8554 c 0,14.11712 0.7631,15.97965 6.5474,15.97965 2.9647,0 3.6587,0.33151 3.6587,1.74746 0,2.89384 -5,3.67111 -9.9011,1.53916 z m 39.8969,0 c -1.6184,-0.70396 -3.3928,-2.12152 -3.9433,-3.15011 -0.5799,-1.08353 -1.0009,-7.3597 -1.0009,-14.92087 l 0,-13.05069 -2.7835,0 c -3.5472,0 -3.562,-1.40543 -0.034,-3.22979 1.9448,-1.00566 3.0414,-2.50616 3.7471,-5.12692 1.4178,-5.2653 3.7097,-4.97485 3.7097,0.47011 l 0,4.17526 5.1031,0 c 4.4845,0 5.103,0.22493 5.103,1.85567 0,1.63075 -0.6185,1.85567 -5.103,1.85567 l -5.1031,0 0,11.8554 c 0,14.11712 0.7631,15.97965 6.5474,15.97965 2.9647,0 3.6587,0.33151 3.6587,1.74746 0,2.89384 -5,3.67111 -9.9011,1.53916 z m -182.1607,-23.23507 0,-23.6598 2.7835,0 2.7835,0 0,23.6598 0,23.65979 -2.7835,0 -2.7835,0 0,-23.65979 z m 95.567,6.03093 0,-17.62887 2.3196,0 c 1.8557,0 2.3196,0.46392 2.3196,2.31959 0,1.27577 0.4175,2.31959 0.9278,2.31959 0.5103,0 0.9278,-0.43794 0.9278,-0.9732 0,-1.33727 7.3159,-4.54847 10.4194,-4.57344 3.7102,-0.0299 9.3614,2.48466 10.9361,4.86601 1.0232,1.54732 1.4506,5.77486 1.6869,16.68578 l 0.3166,14.6134 -2.4011,0 -2.4012,0 0,-11.9234 c 0,-16.93481 -1.271,-19.62299 -9.2783,-19.62299 -8.5688,0 -10.2062,3.11848 -10.2062,19.43846 l 0,12.10793 -2.7835,0 -2.7835,0 0,-17.62886 z m 64.0206,0 0,-17.62887 2.7835,0 2.7835,0 0,17.62887 0,17.62886 -2.7835,0 -2.7835,0 0,-17.62886 z m 1.0786,-24.01089 c -0.6825,-0.43263 -1.1,-1.7832 -0.9278,-3.00126 0.2347,-1.66024 0.8938,-2.21466 2.6327,-2.21466 1.7389,0 2.398,0.55442 2.6327,2.21466 0.2678,1.89353 -1.0489,3.78785 -2.6327,3.78785 -0.2551,0 -1.0223,-0.35397 -1.7049,-0.78659 z"
     id="path3513" />
</svg>
