<?xml version="1.0" encoding="UTF-8" standalone="no"?>
<svg
   xmlns:dc="http://purl.org/dc/elements/1.1/"
   xmlns:cc="http://creativecommons.org/ns#"
   xmlns:rdf="http://www.w3.org/1999/02/22-rdf-syntax-ns#"
   xmlns:svg="http://www.w3.org/2000/svg"
   xmlns="http://www.w3.org/2000/svg"
   viewBox="0 0 787.09227 334.71213"
   height="334.71213"
   width="787.09229"
   version="1.1"
   id="svg3603">
  <metadata
     id="metadata3609">
    <rdf:RDF>
      <cc:Work
         rdf:about="">
        <dc:format>image/svg+xml</dc:format>
        <dc:type
           rdf:resource="http://purl.org/dc/dcmitype/StillImage" />
        <dc:title></dc:title>
      </cc:Work>
    </rdf:RDF>
  </metadata>
  <defs
     id="defs3607" />
  <path
     style="fill:#e8edf2"
     d="M 23.134661,333.5235 C 16.15673,331.96984 10.084515,328.58006 6.2318058,324.08759 -0.01211522,316.80684 0.36840155,326.23782 0.04832636,170.83244 -0.12307764,87.611463 0.1730961,25.391892 0.75249216,22.902472 1.3699277,20.249605 1.7996968,74.022628 1.8758966,163.46349 c 0.06787,79.67167 0.453745,146.24016 0.857489,147.92998 0.5067117,2.12077 3.0008421,4.94775 8.0525814,9.12723 12.099795,10.01056 -32.525165,8.96574 382.932253,8.96574 405.71169,0 371.42942,0.56705 379.72994,-6.28093 8.11472,-6.6947 7.63622,3.6211 7.31283,-157.64802 l -0.28931,-144.26962 -2.87867,-4.527162 c -1.58326,-2.489941 -3.44529,-4.424751 -4.13788,-4.299579 -0.69255,0.125171 -1.13877,-0.07966 -0.99157,-0.45517 0.52261,-1.333408 -6.18769,-6.598448 -10.71343,-8.405922 C 757.17214,1.771689 755.74646,1.764241 389.78369,1.656947 187.7297,1.597709 23.902462,1.236525 25.723127,0.854315 27.543793,0.472106 192.91313,0.110922 393.21054,0.051684 792.64069,-0.066449 765.35925,-0.434515 774.35976,5.19392 c 5.09082,3.183518 7.15,5.245281 10.21312,10.225808 l 2.51941,4.096522 0,147.92997 0,147.92997 -2.3865,4.21438 c -3.04448,5.37632 -9.26119,10.50515 -15.72153,12.97034 l -5.06409,1.93239 -367.44337,0.17178 C 79.343904,334.81336 28.225766,334.65708 23.134661,333.5235 Z"
     id="path3619" />
  <text
     xml:space="preserve"
     style="font-style:normal;font-weight:normal;font-size:40px;line-height:125%;font-family:sans-serif;letter-spacing:0px;word-spacing:0px;fill:#808080;fill-opacity:1;stroke:none;stroke-width:1px;stroke-linecap:butt;stroke-linejoin:miter;stroke-opacity:1"
     x="112.84717"
     y="189.36995"
     id="text3433"><tspan
       id="tspan3435"
       x="112.84717"
       y="189.36995"
       style="font-style:normal;font-variant:normal;font-weight:normal;font-stretch:normal;font-size:70px;font-family:'Open Sans';-inkscape-font-specification:'Open Sans';letter-spacing:0px;word-spacing:0px;fill:#808080;fill-opacity:1">Technical Preview</tspan></text>
  <text
     xml:space="preserve"
     style="font-style:normal;font-weight:normal;font-size:40px;line-height:125%;font-family:sans-serif;letter-spacing:0px;word-spacing:0px;fill:#248ec7;fill-opacity:1;stroke:none;stroke-width:1px;stroke-linecap:butt;stroke-linejoin:miter;stroke-opacity:1"
     x="112.84717"
     y="82.980682"
     id="text3433-8"><tspan
       id="tspan3435-1"
       x="112.84717"
       y="82.980682"
       style="font-style:normal;font-variant:normal;font-weight:normal;font-stretch:normal;font-size:70px;font-family:'Open Sans';-inkscape-font-specification:'Open Sans';letter-spacing:0px;word-spacing:0px;fill:#248ec7;fill-opacity:1">Supported</tspan></text>
  <text
     xml:space="preserve"
     style="font-style:normal;font-weight:normal;font-size:40px;line-height:125%;font-family:sans-serif;letter-spacing:0px;word-spacing:0px;fill:#d40000;fill-opacity:1;stroke:none;stroke-width:1px;stroke-linecap:butt;stroke-linejoin:miter;stroke-opacity:1"
     x="112.84717"
     y="288.43964"
     id="text3433-5"><tspan
       id="tspan3435-3"
       x="112.84717"
       y="288.43964"
       style="font-style:normal;font-variant:normal;font-weight:normal;font-stretch:normal;font-size:70px;font-family:'Open Sans';-inkscape-font-specification:'Open Sans';letter-spacing:0px;word-spacing:0px;fill:#d40000;fill-opacity:1">Unsupported</tspan></text>
  <rect
     style="fill:#248ec7;fill-opacity:0.85882353"
     id="rect3364"
     width="68.372383"
     height="68.372383"
     x="2.4883537"
     y="27.508896" />
  <rect
     style="fill:#808080;fill-opacity:0.85882353"
     id="rect3364-5"
     width="68.372383"
     height="68.372383"
     x="2.4883537"
     y="129.42444" />
  <rect
     style="fill:#d40000;fill-opacity:1"
     id="rect3364-9"
     width="68.372383"
     height="68.372383"
     x="2.4883537"
     y="231.33995" />
</svg>
