<?xml version="1.0" encoding="UTF-8" standalone="no"?>
<svg
   xmlns:dc="http://purl.org/dc/elements/1.1/"
   xmlns:cc="http://creativecommons.org/ns#"
   xmlns:rdf="http://www.w3.org/1999/02/22-rdf-syntax-ns#"
   xmlns:svg="http://www.w3.org/2000/svg"
   xmlns="http://www.w3.org/2000/svg"
   viewBox="0 0 653.93164 727.20954"
   height="727.20953"
   width="653.93164"
   version="1.1"
   id="svg5026">
  <metadata
     id="metadata5032">
    <rdf:RDF>
      <cc:Work
         rdf:about="">
        <dc:format>image/svg+xml</dc:format>
        <dc:type
           rdf:resource="http://purl.org/dc/dcmitype/StillImage" />
        <dc:title></dc:title>
      </cc:Work>
    </rdf:RDF>
  </metadata>
  <defs
     id="defs5030" />
  <path
     style="fill:#d2dde7"
     d="m 16.064035,725.50575 c -5.70838,-2.62054 -14.0357196,-11.1547 -15.2368096,-15.61519 -0.72173,-2.68032 -0.94246,-102.80091 -0.77323,-350.72352 l 0.23684,-346.972374 2.53649,-3.6319834 c 1.39507,-1.99759 4.07838,-4.675796 5.96291,-5.951569 L 12.216655,0.29152659 322.52611,0.05411639 c 221.59904,-0.16954 311.38242,0.05151 314.0627,0.7732338 4.46266,1.20167001 12.99605,9.52745681 15.6173,15.23737181 1.64333,3.579694 1.7045,15.980126 1.72415,349.591648 0.0183,310.63063 -0.12648,346.23187 -1.4206,349.3299 -1.91083,4.57438 -5.60911,8.39936 -10.15696,10.50495 -3.58899,1.66166 -13.91219,1.7183 -313.14433,1.7183 -298.271135,0 -309.566875,-0.0614 -313.144335,-1.70378 z m 620.831655,-9.03997 c 1.74568,-0.82837 4.10518,-2.81161 5.24332,-4.40721 l 2.06936,-2.90107 0.23723,-239.61341 0.23722,-239.61339 -320.11363,0 -320.1136346,0 0.23723,239.61339 0.23723,239.61341 2.05811,2.88528 c 1.13196,1.5869 3.4283496,3.56064 5.1030896,4.38608 2.78629,1.3733 29.32192,1.50261 312.337755,1.52193 283.47226,0.0194 309.55773,-0.1046 312.46672,-1.48501 z M 378.39653,523.35708 c -6.31672,-3.16813 -7.42786,-9.86651 -2.42012,-14.58942 2.24837,-2.12048 2.92155,-3.35643 2.33381,-4.28481 -1.35608,-2.14202 -0.97089,-5.08169 0.99299,-7.57836 1.51883,-1.93087 1.60997,-2.43972 0.51243,-2.8609 -4.55385,-1.74747 -5.38943,-12.61202 -1.30752,-17.00107 3.4363,-3.69487 5.82217,-4.1629 17.68413,-3.46907 9.82749,0.57483 10.95426,0.8181 10.95426,2.36496 0,1.16533 -0.6767,1.72884 -2.08763,1.73844 -3.0681,0.0209 -4.47603,1.16281 -3.44461,2.79379 1.37801,2.17903 1.03064,7.3429 -0.68988,10.25551 -1.97576,3.34469 -6.37539,5.4932 -11.24873,5.4932 -4.01566,0 -6.65286,1.82235 -6.65286,4.59724 0,2.098 2.48818,2.79644 10.0203,2.81277 9.05489,0.0197 13.17558,2.92074 13.17558,9.27611 0,4.56112 -2.483,8.31895 -6.78834,10.27364 -5.19908,2.36046 -16.49181,2.45601 -21.03381,0.17798 z m 18.18167,-4.51625 c 3.42124,-1.62349 4.99798,-5.17203 3.41596,-7.68777 -0.72211,-1.14828 -2.88485,-1.54116 -9.64695,-1.75246 -7.97998,-0.24936 -8.85331,-0.10353 -10.33987,1.7265 -2.1312,2.6236 -2.05397,5.07436 0.23196,7.36029 2.37637,2.37637 11.65299,2.57703 16.3389,0.35343 z m -1.75005,-28.38887 c 2.82915,-2.27761 2.16845,-9.93543 -1.04218,-12.07923 -2.02816,-1.35423 -8.58004,-0.75649 -10.01442,0.91363 -3.52964,4.10972 -2.54932,10.54157 1.85498,12.17054 2.68413,0.99275 7.35364,0.48278 9.20162,-1.00494 z m -279.02184,19.01545 c -6.56239,-2.46588 -10.15513,-8.78751 -10.18581,-17.9226 -0.0249,-7.40655 2.61851,-13.30143 7.4023,-16.5075 4.51055,-3.02294 13.57605,-2.59568 17.22313,0.81174 3.36479,3.14366 4.83389,6.2716 5.57716,11.87469 l 0.63465,4.78427 -12.70783,0 c -12.26475,0 -12.68947,0.0647 -12.18139,1.85567 0.28955,1.02062 0.7846,2.7951 1.10011,3.9433 1.80667,6.5747 10.26991,8.59266 20.14483,4.8033 1.23595,-0.47428 1.54955,-0.0296 1.54955,2.19739 0,2.29744 -0.51759,2.97243 -2.92196,3.8106 -3.01064,1.04952 -13.16725,1.27632 -15.63474,0.34914 z m 13.91752,-22.55621 c 0,-2.82061 -2.94618,-7.50066 -5.28052,-8.38817 -5.57201,-2.11848 -12.34834,1.80592 -12.34834,7.15134 0,2.1534 0.16495,2.19446 8.81443,2.19446 5.44059,0 8.81443,-0.36655 8.81443,-0.95763 z m 19.16564,22.19721 c -3.24505,-1.92868 -4.32028,-6.63006 -4.32028,-18.89019 l 0,-11.62774 -2.31958,0 c -3.25894,0 -3.0135,-2.84596 0.41359,-4.79573 1.91643,-1.0903 2.90585,-2.53122 3.34482,-4.87113 0.5085,-2.71053 1.03177,-3.32283 2.83969,-3.32283 2.00821,0 2.21633,0.39209 2.21633,4.17526 l 0,4.17526 5.16762,0 c 4.82832,0 5.14816,0.13708 4.87114,2.08763 -0.2583,1.8187 -0.92399,2.12376 -5.16763,2.36807 l -4.87113,0.28045 0,11.94709 c 0,13.98452 0.64902,15.39378 6.71481,14.58019 3.45048,-0.46281 3.58719,-0.38079 3.31322,1.98774 -0.26707,2.30887 -0.61958,2.48527 -5.38886,2.69655 -2.8067,0.12435 -5.87288,-0.23144 -6.81374,-0.79062 z m 76.53984,-0.49417 c -5.28971,-2.69374 -7.97868,-7.88141 -8.31336,-16.03839 -0.24172,-5.89147 0.0581,-7.69234 1.85567,-11.14755 3.2978,-6.33874 6.13091,-7.94091 14.0419,-7.94091 5.54368,0 7.18184,0.37306 9.78235,2.2278 8.94201,6.3776 8.87162,25.45343 -0.11811,32.00444 -3.53391,2.57524 -12.98555,3.06547 -17.24845,0.89461 z m 11.60053,-4.07086 c 6.91586,-2.41088 9.04351,-16.49562 3.48901,-23.09677 -4.32538,-5.14042 -12.89171,-4.5122 -15.87825,1.16445 -2.21713,4.2142 -2.11371,14.10742 0.18818,18.00226 2.55227,4.31849 6.98811,5.7473 12.20106,3.93006 z m -178.749315,-18.99413 0,-23.6598 3.28871,0 c 3.25318,0 3.4211,0.20238 15.54124,18.7313 l 12.25253,18.7313 0.25117,-18.7313 0.25117,-18.7313 2.7643,0 2.76429,0 0,23.6598 0,23.65979 -3.29103,0 c -3.25825,0 -3.41761,-0.19282 -16.00515,-19.36567 l -12.71413,-19.36566 0.29913,19.36566 0.29914,19.36567 -2.85068,0 -2.85069,0 0,-23.65979 z m 113.678385,22.55644 c -1.07851,-3.04756 -8.83302,-32.14882 -8.83302,-33.14873 0,-0.70563 1.10376,-1.01513 2.96881,-0.83248 l 2.9688,0.29075 3.40387,13.4536 c 1.87213,7.39949 3.64393,12.82732 3.93736,12.06186 0.29341,-0.76547 2.24522,-6.92397 4.33733,-13.68557 l 3.80383,-12.29381 3.17924,0 3.17925,0 3.80419,12.29381 c 2.09232,6.7616 4.03744,12.9201 4.32251,13.68557 0.28507,0.76546 1.65789,-2.99227 3.05072,-8.35052 4.86643,-18.72121 4.40346,-17.62886 7.47161,-17.62886 1.58932,0 2.74009,0.48896 2.72958,1.15979 -0.01,0.63789 -2.04281,8.4665 -4.51739,17.39691 l -4.49925,16.23711 -3.60115,0.26035 -3.60116,0.26036 -2.60327,-8.61087 c -1.4318,-4.73598 -3.31067,-11.0302 -4.17526,-13.98715 l -1.57199,-5.3763 -4.21167,13.72681 -4.21169,13.7268 -3.45041,0.28841 c -2.22524,0.186 -3.60326,-0.14345 -3.88084,-0.92784 z m 86.73399,-16.52552 0,-17.62886 2.21901,0 c 1.60951,0 2.38346,0.65525 2.81776,2.38563 l 0.59875,2.38563 3.24545,-2.84955 c 2.58635,-2.27084 4.08685,-2.84955 7.38844,-2.84955 3.98474,0 4.14297,0.1063 4.14297,2.78351 0,2.65896 -0.17758,2.7835 -3.96881,2.7835 -8.43769,0 -10.87656,4.46638 -10.87656,19.91865 l 0,10.69991 -2.7835,0 -2.78351,0 0,-17.62887 z m 26.90722,-7.42268 0,-25.05154 2.78351,0 2.7835,0 0,15.37093 0,15.37093 7.52369,-7.94825 c 6.65175,-7.02713 7.89939,-7.94825 10.76565,-7.94825 l 3.24197,0 -5.89452,6.56013 c -3.24199,3.60808 -6.27038,7.09438 -6.72977,7.74734 -0.57898,0.82295 1.34257,4.06292 6.26289,10.56004 3.90398,5.15507 7.09813,9.60175 7.09813,9.88153 0,0.27978 -1.44258,0.50869 -3.20572,0.50869 -3.21105,0 -4.4296,-1.27175 -14.95279,-15.60553 -0.11962,-0.16293 -1.09319,0.25065 -2.16351,0.91907 -1.68582,1.05281 -1.94602,2.11592 -1.94602,7.95089 l 0,6.73557 -2.7835,0 -2.78351,0 0,-25.05155 z m 34.3299,7.42268 0,-17.62886 2.7835,0 2.78351,0 0,17.62886 0,17.62887 -2.78351,0 -2.7835,0 0,-17.62887 z m 16.70103,0 0,-17.62886 2.25706,0 c 1.41794,0 2.46919,0.66835 2.82765,1.79775 0.5469,1.72313 0.71317,1.7004 4.00583,-0.54755 2.97678,-2.03231 4.2124,-2.29712 9.25864,-1.98418 10.29112,0.63817 12.15704,4.39563 12.22897,24.62573 l 0.0404,11.36598 -3.24742,0 -3.24742,0 0,-13.35082 c 0,-11.76615 -0.21067,-13.61081 -1.77483,-15.54124 -1.45982,-1.80165 -2.60846,-2.17847 -6.47178,-2.12313 -8.43212,0.12079 -10.29662,3.84386 -10.30491,20.57704 l -0.005,10.43815 -2.78351,0 -2.7835,0 0,-17.62887 z m -16.72384,-24.6151 c -1.63865,-1.97446 0.2447,-6.00345 2.80631,-6.00345 2.56162,0 4.44496,4.02899 2.80631,6.00345 -0.64782,0.78057 -1.91066,1.41923 -2.80631,1.41923 -0.89565,0 -2.15848,-0.63866 -2.80631,-1.41923 z m -100.92104,-47.607 c -6.79795,-2.41846 -11.29963,-6.34116 -14.57162,-12.6975 l -2.7835,-5.40737 0,-27.43961 0,-27.4396 8.11856,-0.26808 8.11855,-0.26808 0,25.53282 c 0,28.28509 0.48086,31.23274 5.58719,34.24912 3.56449,2.1056 12.66481,2.21245 16.56705,0.19452 5.79588,-2.99717 6.11275,-4.65462 6.44126,-33.69287 l 0.29653,-26.21134 7.82202,0 7.82203,0 0,26.2749 c 0,29.59702 -0.50564,32.89487 -6.03391,39.35341 -1.81073,2.11543 -5.67701,5.01299 -8.59174,6.43903 -4.54252,2.22245 -6.62656,2.63108 -14.58951,2.86066 -7.25257,0.20909 -10.36747,-0.1155 -14.20291,-1.48001 z m 208.22384,0.23731 c -12.72232,-4.04523 -19.84284,-13.36805 -22.11457,-28.95435 -2.54451,-17.45792 3.06278,-33.45222 14.2346,-40.6029 9.08152,-5.81273 26.86744,-6.83091 37.07197,-2.12222 13.25395,6.1158 19.21127,18.52212 18.2595,38.02601 -0.60008,12.29716 -2.98452,18.86836 -9.2508,25.49403 -6.57485,6.95193 -11.81503,8.99442 -23.9343,9.32899 -6.8825,0.19 -11.0703,-0.15332 -14.2664,-1.16956 z m 23.53205,-15.22265 c 8.20988,-5.84596 10.099,-28.77607 3.22823,-39.1842 -3.10966,-4.71065 -7.09975,-6.61007 -13.88563,-6.61007 -12.50028,0 -18.19508,7.44669 -18.33941,23.9811 -0.13956,15.98931 4.66563,23.43245 16.01982,24.81435 3.82608,0.46567 10.16803,-1.00103 12.97699,-3.00118 z m -390.384545,-21.1173 0.2426,-36.88144 10.06788,0 10.0679,0 15.44757,26.62275 15.447585,26.62275 0.24597,-26.85471 0.24598,-26.85471 6.94474,0 6.94475,0 0,37.11341 0,37.1134 -10.04865,0 -10.04864,0 -11.032025,-19.25258 c -6.0676,-10.58892 -13.13206,-22.85069 -15.69877,-27.24839 l -4.66676,-7.99581 0.31547,27.24839 0.31547,27.24839 -7.51684,0 -7.51684,0 0.24261,-36.88145 z m 84.211675,-0.23195 0,-37.11341 21.34021,0 21.34021,0 0,6.49485 0,6.49484 -13.45361,0 -13.45361,0 0,8.35052 0,8.35052 12.52577,0 12.52578,0 0,6.49484 0,6.49485 -12.52578,0 -12.52577,0 0,9.27835 0,9.27835 13.45361,0 13.45361,0 0,6.49484 0,6.49485 -21.34021,0 -21.34021,0 0,-37.1134 z m 148.45361,6.49484 0,-30.61856 -10.20618,0 -10.20619,0 0,-6.49484 0,-6.49485 28.29897,0 28.29897,0 0,6.49485 0,6.49484 -10.20619,0 -10.20618,0 0,30.61856 0,30.61856 -7.8866,0 -7.8866,0 0,-30.61856 z m 47.01031,30 c -0.34021,-0.3402 -0.61856,-17.04123 -0.61856,-37.1134 l 0,-36.49485 15.6048,0 c 16.77695,0 22.22334,0.94992 28.08545,4.89846 6.32583,4.26087 9.6184,14.33745 7.34179,22.46873 -1.25258,4.47377 -7.21345,12.04343 -10.24034,13.00413 -1.00245,0.31816 -1.82262,0.97699 -1.82262,1.46407 0,0.48709 4.59278,7.75652 10.20618,16.1543 5.6134,8.39779 10.20619,15.4866 10.20619,15.75291 0,0.26631 -3.89964,0.48421 -8.66586,0.48421 l -8.66586,0 -8.73825,-14.14949 -8.73825,-14.14948 -3.9361,-0.28531 -3.9361,-0.28531 0,14.43479 0,14.4348 -7.73195,0 c -4.25258,0 -8.01032,-0.27835 -8.35052,-0.61856 z m 28.92739,-42.5761 c 2.05393,-0.82183 4.05738,-2.4369 4.65795,-3.755 1.45955,-3.20336 1.31745,-7.93117 -0.30812,-10.25201 -1.5222,-2.17325 -7.71978,-4.03545 -13.43035,-4.03545 l -3.7644,0 0,9.74227 0,9.74227 4.6204,0 c 2.54122,0 6.24225,-0.64894 8.22452,-1.44208 z m 120.76333,6.08126 0,-37.11341 10.08492,0 10.08491,0 15.55182,26.90722 c 8.5535,14.79897 15.65634,26.90722 15.78411,26.90722 0.12775,0 0.17756,-12.00387 0.11068,-26.67526 l -0.12159,-26.67526 7.19072,-0.27098 7.19072,-0.27099 0,37.18282 0,37.18281 -10.27944,-0.26235 -10.27943,-0.26234 -15.04047,-26.17042 c -8.27226,-14.39373 -15.25591,-26.38587 -15.51924,-26.64919 -0.26332,-0.26333 -0.29828,11.61775 -0.0777,26.40238 l 0.40107,26.88115 -7.54056,0 -7.54056,0 0,-37.1134 z m 4.63918,-223.13647 0,-7.87875 51.26288,-0.23981 51.26289,-0.23981 0.26555,-9.04639 0.26556,-9.0464 -51.52844,0 -51.52844,0 0,-7.83183 c 0,-4.73605 -0.40695,-8.08336 -1.02952,-8.46812 -1.24893,-0.77188 -25.8777,23.54739 -25.8777,25.55251 0,1.9681 23.28689,25.07734 25.27012,25.07734 1.43571,0 1.6371,-0.96919 1.6371,-7.87874 z m 90.68343,-50.79394 c 6.76845,-6.7545 12.30626,-12.907201 12.30626,-13.672661 0,-1.96809 -23.28689,-25.077338 -25.27012,-25.077338 -1.43584,0 -1.6371,0.96954 -1.6371,7.886598 l 0,7.886597 -50.0272,0 c -27.51497,0 -50.68765,0.253429 -51.49485,0.563187 -1.19416,0.458239 -1.46764,2.187176 -1.46764,9.278346 l 0,8.715171 51.49485,0 51.49484,0 0,7.73195 c 0,7.13059 0.36198,8.96908 1.76591,8.96908 0.29084,0 6.06661,-5.52642 12.83505,-12.28093 z M 9.3871854,10.149979 C 10.507905,8.9308196 13.094965,7.1625246 15.136195,6.2204316 c 2.10807,-0.972935 2.97028,-1.721696 1.9959,-1.733271 -5.25611,-0.06243 -11.3179396,5.509228 -12.2587696,11.2675184 l -0.50544,3.093548 1.49081,-3.240798 c 0.81995,-1.782438 2.40777,-4.238291 3.52849,-5.45745 z M 643.2271,12.371837 c -1.87313,-3.9473274 -5.60922,-6.7998304 -9.84271,-7.5149004 l -3.09355,-0.522524 3.74973,1.789826 c 4.27422,2.040179 8.46952,6.5977734 9.42963,10.2439524 0.46393,1.76183 0.7502,2.020453 0.98852,0.893052 0.18452,-0.872841 -0.36971,-3.073074 -1.23162,-4.889406 z"
     id="path5042" />
  <path
     style="fill:#238dc6"
     d="m 380.65209,524.05073 c -6.74691,-2.10287 -9.38801,-9.76227 -4.98302,-14.45116 1.16061,-1.23541 2.6637,-2.24619 3.3402,-2.24619 1.44409,0 1.63866,-1.4936 0.30219,-2.31959 -1.64266,-1.01522 -1.04177,-6.56805 0.90101,-8.32623 1.81326,-1.64099 1.80959,-1.67024 -0.43196,-3.43344 -2.85913,-2.249 -4.23208,-7.09313 -3.24756,-11.45835 1.63498,-7.24929 5.79045,-8.93803 20.01191,-8.13268 8.59506,0.48673 9.67382,0.73917 9.67382,2.26369 0,1.30127 -0.69688,1.71588 -2.88409,1.71588 -2.70945,0 -2.8387,0.1545 -2.13448,2.55154 2.73244,9.30071 -2.51541,16.00516 -12.52789,16.00516 -4.38759,0 -7.12664,2.80678 -5.57265,5.71046 0.76065,1.42129 2.05381,1.71246 7.61051,1.71366 10.88391,0.003 16.22279,3.96872 14.98489,11.13258 -1.08579,6.28362 -5.83267,9.26702 -15.58954,9.79798 -3.6403,0.1981 -7.8943,-0.0374 -9.45334,-0.52331 z m 17.21607,-5.44182 c 1.59524,-1.16749 2.40954,-2.75587 2.60765,-5.08646 0.24896,-2.92877 -0.0427,-3.51458 -2.14803,-4.31503 -1.33985,-0.50941 -5.27529,-0.92621 -8.74541,-0.92621 -4.97804,0 -6.82515,0.40576 -8.75403,1.92302 -4.18757,3.29393 -2.73872,8.98897 2.65838,10.44939 3.38781,0.91673 12.00999,-0.30915 14.38144,-2.04471 z M 394.49561,490.585 c 3.35026,-2.63531 3.43226,-8.30782 0.1673,-11.57277 -5.00356,-5.00356 -13.49578,-1.47399 -13.49578,5.60918 0,6.83844 7.78694,10.32256 13.32848,5.96359 z m -278.36308,18.53827 c -10.39323,-3.01087 -14.0414,-21.23136 -6.13286,-30.63013 9.0035,-10.70005 25.22694,-4.53335 25.27591,9.60766 l 0.0153,4.40722 -12.06185,0 c -13.54571,0 -13.74103,0.12712 -10.53263,6.85521 2.79773,5.86689 9.75719,7.51192 19.66053,4.6472 1.88998,-0.54671 2.12879,-0.34213 1.85567,1.5897 -0.5377,3.80313 -10.4476,5.73421 -18.08003,3.52314 z m 13.5913,-23.17109 c 0,-7.57075 -9.02086,-11.06871 -14.7976,-5.73798 -1.52077,1.40335 -3.03396,3.69975 -3.36264,5.1031 l -0.59763,2.55154 9.37894,0 c 8.85987,0 9.37893,-0.10609 9.37893,-1.91666 z m 20.84408,23.30185 c -4.07401,-1.65136 -4.58623,-3.42718 -5.07088,-17.58011 l -0.46392,-13.54734 -2.55155,-0.29359 c -3.27185,-0.37647 -3.24701,-1.61872 0.0666,-3.33225 1.76904,-0.91481 2.98478,-2.57757 3.74859,-5.12692 1.58565,-5.29245 3.83943,-5.05633 3.83943,0.40224 l 0,4.17526 5.1031,0 c 4.43889,0 5.10309,0.23521 5.10309,1.80718 0,1.52593 -0.75812,1.85083 -4.87113,2.08763 l -4.87114,0.28045 -0.26146,11.48381 c -0.31581,13.8707 0.48562,15.88732 6.31378,15.88732 3.00188,0 3.68995,0.32752 3.68995,1.7564 0,2.74747 -5.27003,3.82575 -9.77448,1.99992 z m 76.90483,-0.0819 c -3.7281,-1.14231 -8.29572,-6.32745 -9.54879,-10.83974 -3.96134,-14.26469 4.49971,-26.50086 17.32518,-25.05523 15.05049,1.69639 19.47599,24.80115 6.5799,34.35246 -2.85255,2.11271 -9.99189,2.87979 -14.35629,1.54251 z m 11.62719,-5.18739 c 6.3464,-4.4452 6.3464,-20.36383 0,-24.80903 -1.18807,-0.83218 -3.85319,-1.51303 -5.92249,-1.51303 -6.9026,0 -10.6701,4.91413 -10.6701,13.91752 0,9.0034 3.7675,13.91753 10.6701,13.91753 2.0693,0 4.73442,-0.68086 5.92249,-1.51301 z m -180.819405,-18.43545 0,-23.65981 3.06454,0 c 2.96482,0 3.48563,0.64087 16.00516,19.6948 l 12.94061,19.69479 0.25042,-19.69479 0.25041,-19.6948 2.30113,0 2.30114,0 0,23.65981 0,23.65979 -3.11458,0 c -3.03179,0 -3.4572,-0.52374 -16.00515,-19.70493 l -12.89058,-19.70493 -0.25041,19.70493 -0.25041,19.70493 -2.30114,0 -2.30114,0 0,-23.65979 z m 114.123715,23.20934 c 0,-0.37789 -7.46648,-28.11164 -8.93369,-33.18358 -0.3722,-1.28665 0.10078,-1.62371 2.27847,-1.62371 l 2.74819,0 3.54491,14.37328 c 1.9497,7.90531 3.81371,13.85505 4.14224,13.22165 0.32853,-0.6334 2.42965,-7.10138 4.66916,-14.37328 l 4.07182,-13.22165 2.86312,0 2.86313,0 3.9913,13.22165 c 2.19522,7.2719 4.26262,13.73988 4.59421,14.37328 0.3316,0.6334 2.19813,-5.31634 4.14783,-13.22165 l 3.54491,-14.37328 2.74818,0 c 2.17655,0 2.65111,0.33774 2.28148,1.62371 -0.25668,0.89304 -2.4403,8.82603 -4.85249,17.62886 l -4.38578,16.00516 -3.05674,0 -3.05674,0 -3.80796,-12.29382 c -2.09437,-6.76159 -4.14328,-13.33762 -4.55313,-14.6134 -0.69279,-2.15646 -0.82328,-2.02596 -1.85565,1.85567 -0.61075,2.29639 -2.6371,8.87243 -4.50299,14.6134 l -3.39253,10.43815 -3.04562,0 c -1.67509,0 -3.04563,-0.2027 -3.04563,-0.45044 z m 86.28866,-17.17843 0,-17.62885 2.31959,0 c 1.95876,0 2.31959,0.43299 2.31959,2.7835 0,2.9298 1.28605,3.75053 2.18916,1.39706 0.89662,-2.33656 6.42766,-5.10127 10.21287,-5.10493 3.26831,-0.003 3.5378,0.18232 3.02814,2.08416 -0.30771,1.14819 -0.56518,2.31693 -0.57214,2.59719 -0.007,0.28026 -1.43524,0.34348 -3.17392,0.1405 -2.59817,-0.30332 -3.79637,0.21255 -6.72681,2.89614 l -3.56555,3.2652 -0.30385,12.59946 -0.30384,12.59944 -2.71162,0 -2.71162,0 0,-17.62887 z m 26.90722,-7.42268 0,-25.05154 2.8446,0 2.84461,0 -0.29306,15.77441 c -0.16118,8.67592 -0.0842,15.74039 0.17086,15.6988 0.25516,-0.0416 3.73842,-3.79986 7.74058,-8.35172 6.64966,-7.56302 7.56718,-8.27612 10.64833,-8.27612 l 3.37168,0 -7.3235,7.36669 -7.3235,7.36672 5.42098,7.24669 c 2.98154,3.98568 6.44085,8.60365 7.68735,10.26216 l 2.26637,3.01547 -3.14418,0 c -2.87969,0 -3.67542,-0.70922 -9.45894,-8.43055 -6.11263,-8.16071 -6.37189,-8.37884 -8.09996,-6.81496 -1.45305,1.31499 -1.78521,2.88359 -1.78521,8.43055 l 0,6.81496 -2.7835,0 -2.78351,0 0,-25.05155 z m 34.3299,7.42268 0,-17.62885 2.7835,0 2.78351,0 0,17.62885 0,17.62887 -2.78351,0 -2.7835,0 0,-17.62887 z m 16.70103,0 0,-17.62885 2.31959,0 c 1.70102,0 2.31958,0.49484 2.31958,1.85566 0,2.3526 0.44449,2.32702 4.03203,-0.23196 3.76736,-2.68725 12.76014,-2.88849 16.54288,-0.37019 3.70511,2.46661 4.47664,6.03231 4.47664,20.68906 l 0,13.31516 -2.31959,0 -2.31959,0 -0.006,-11.36598 c -0.007,-17.06051 -1.36737,-20.18041 -8.79434,-20.18041 -4.70279,0 -8.4443,2.1997 -9.65659,5.67727 -0.56525,1.62258 -1.02804,8.10692 -1.02804,14.40963 l 0,11.45949 -2.78351,0 -2.7835,0 0,-17.62887 z m -16.31973,-24.46834 c -1.03147,-2.68798 0.0193,-4.75845 2.41491,-4.75845 1.94464,0 2.30688,0.43708 2.30688,2.78351 0,2.18184 -0.45214,2.84771 -2.09178,3.08053 -1.22676,0.1742 -2.31435,-0.283 -2.63001,-1.10559 z m -97.48504,-47.01338 c -7.85316,-1.55369 -14.71598,-6.69126 -18.53981,-13.87909 -1.55489,-2.9228 -1.75579,-6.05314 -2.0097,-31.31444 l -0.28212,-28.067 7.40737,0 7.40737,0 0.29743,25.74741 c 0.27612,23.9033 0.43259,25.98001 2.18466,28.99485 2.7133,4.66886 7.09744,6.67502 13.66647,6.25369 6.17161,-0.39584 9.6084,-2.46326 12.04795,-7.24748 1.42682,-2.79819 1.62244,-6.22746 1.62371,-28.46498 l 10e-4,-25.2835 7.96011,0 7.96011,0 -0.30547,27.13917 c -0.28366,25.20155 -0.4438,27.43802 -2.24293,31.32485 -5.63438,12.17249 -20.51135,18.09361 -37.17659,14.79652 z m 207.63834,-0.0336 c -9.77552,-1.92115 -17.30974,-7.98416 -21.79858,-17.542 -2.52139,-5.36863 -2.86655,-7.16854 -3.20727,-16.72496 -0.91212,-25.58258 9.05636,-38.65504 30.8801,-40.49554 16.0679,-1.35509 28.82728,5.13693 34.3699,17.48752 6.75655,15.05562 4.65798,36.91508 -4.59422,47.85487 -7.005,8.28271 -21.69117,12.16337 -35.64993,9.42011 z m 15.74447,-13.04211 c 8.18673,-2.73138 11.96835,-10.3144 11.96835,-23.99926 0,-10.04095 -1.79732,-16.31334 -5.77355,-20.14882 -3.78459,-3.65064 -7.0338,-4.9085 -12.61159,-4.88236 -12.49634,0.0586 -18.26434,7.96359 -18.26434,25.03118 0,10.01289 0.86283,13.65445 4.47742,18.89677 3.57535,5.18541 12.89814,7.53992 20.20371,5.10249 z m -385.145055,-23.56674 0,-36.68088 9.92192,0.26335 9.92192,0.26336 15.40641,26.64276 c 8.473525,14.6535 15.595675,26.83202 15.826995,27.06333 0.2313,0.23132 0.26985,-11.8623 0.0856,-26.87473 l -0.33493,-27.29529 7.06026,0 7.06025,0 0,36.68087 0,36.68088 -9.91275,-0.26335 -9.91274,-0.26335 -8.044185,-13.91753 c -4.42429,-7.65463 -11.62437,-20.13483 -16.00018,-27.73376 l -7.956,-13.81624 0.54204,27.96572 0.54205,27.96573 -7.10334,0 -7.10335,0 0,-36.68088 z m 83.505155,-0.44995 0,-37.13083 21.10825,0.24939 21.10825,0.24937 0.27435,6.2629 0.27435,6.26288 -13.496,0 -13.496,0 0,8.35052 0,8.35052 12.56817,0 12.56816,0 -0.27435,6.26288 -0.27435,6.26289 -12.29382,0.25889 -12.29381,0.25889 0,9.25142 0,9.25142 13.45361,0 13.45361,0 0,6.49484 0,6.49485 -21.34021,0 -21.34021,0 0,-37.13082 z m 346.08248,0.48134 0,-36.64948 9.66198,0 9.66199,0 14.89788,25.76408 c 8.19384,14.17025 15.43228,26.49583 16.08544,27.39021 0.9725,1.33167 1.13621,-3.33399 0.90405,-25.76407 l -0.28349,-27.39022 7.0103,0 7.0103,0 0,36.64948 0,36.64949 -9.97423,-0.013 -9.97422,-0.013 -15.7034,-27.40359 c -8.63686,-15.07198 -15.94356,-27.55243 -16.23711,-27.73435 -0.29354,-0.18192 -0.41178,12.15554 -0.26273,27.41659 l 0.27099,27.74733 -6.53387,0 -6.53388,0 0,-36.64949 z m -197.62887,5.567 0,-30.15463 -9.74227,0 -9.74226,0 0,-6.49484 0,-6.49485 27.37113,0 27.37113,0 0,6.49485 0,6.49484 -9.74227,0 -9.74226,0 0,30.15463 0,30.15464 -7.8866,0 -7.8866,0 0,-30.15464 z m 47.31959,-6.49484 0,-36.64949 12.81928,0 c 19.10544,0 27.06475,1.9484 32.81757,8.03359 3.39406,3.59015 4.46624,6.84012 4.46624,13.538 0,7.17804 -2.63639,12.89582 -7.60596,16.49577 -2.0066,1.45357 -4.1432,2.81803 -4.748,3.03212 -0.6531,0.2312 3.04493,6.51815 9.10654,15.4819 5.6134,8.30095 10.34536,15.45826 10.51546,15.90512 0.17011,0.44687 -3.45059,0.81248 -8.04599,0.81248 l -8.35528,0 -8.55679,-13.91753 -8.55679,-13.91753 -4.50546,0 -4.50546,0 0,13.91753 0,13.91753 -7.42268,0 -7.42268,0 0,-36.64948 z m 30.65535,-6.26289 c 5.61996,-3.79108 5.61701,-11.50911 -0.006,-15.30928 -2.45836,-1.6613 -4.38749,-2.08763 -9.44679,-2.08763 l -6.35764,0 0,9.74227 0,9.74228 6.35764,0 c 5.05758,0 6.99045,-0.4269 9.45235,-2.08763 z M 4.4864754,124.85339 c 0.0195,-100.298473 0.0985,-105.246118 1.73867,-108.788668 2.10559,-4.547857 5.9305796,-8.2461354 10.5049696,-10.1569654 3.09487,-1.292802 34.74902,-1.440973 307.839075,-1.440973 273.09005,0 304.74421,0.148171 307.83908,1.440973 4.57439,1.91083 8.39938,5.6091084 10.50497,10.1569654 1.64014,3.54255 1.71921,8.490195 1.73867,108.788668 l 0.0204,105.07732 -320.10309,0 -320.1030946,0 0.0204,-105.07732 z M 494.17744,167.58018 c 0.67566,-0.67566 1.1134,-3.95876 1.1134,-8.35051 l 0,-7.23712 51.01325,0 51.01326,0 0.5267,-2.09854 c 0.28968,-1.1542 0.40202,-5.22508 0.24963,-9.04641 l -0.27707,-6.94783 -51.26288,-0.23982 -51.26289,-0.2398 0,-6.87503 c 0,-7.93523 -0.51511,-9.8103 -2.69507,-9.8103 -1.58434,0 -26.06781,24.02569 -26.06781,25.5804 0,0.89469 25.13103,26.37836 26.01334,26.37836 0.2875,0 1.02377,-0.50102 1.63614,-1.1134 z m 91.85354,-58.57692 c 6.73726,-6.80393 12.24955,-12.759261 12.24955,-13.234091 0,-0.47483 -5.81929,-6.671481 -12.93175,-13.770328 -15.22151,-15.19238 -15.83113,-15.315587 -15.83113,-3.199502 l 0,7.301219 -51.26289,0.239808 -51.26289,0.239818 0,8.814435 0,8.814441 51.26289,0.23981 51.26289,0.23982 0,6.87502 c 0,7.93525 0.51511,9.8103 2.69507,9.8103 0.86279,0 7.081,-5.56684 13.81826,-12.37075 z"
     id="path5040" />
  <path
     style="fill:#2f729b"
     d="m 381.16713,523.95258 c -4.92924,-1.48334 -7.42268,-4.26656 -7.42268,-8.2853 0,-3.66628 2.89037,-8.31391 5.17044,-8.31391 1.52075,0 1.77199,-1.46952 0.39657,-2.31958 -1.59885,-0.98814 -1.04817,-6.56226 0.81488,-8.24829 1.69435,-1.53336 1.6686,-1.65126 -0.92783,-4.24769 -2.17256,-2.17255 -2.67055,-3.47105 -2.67055,-6.96326 0,-9.9524 4.48779,-12.64302 19.78552,-11.86227 8.50203,0.43392 9.94676,0.73138 9.70466,1.99814 -0.16597,0.8684 -1.52569,1.68155 -3.26443,1.95224 -2.37771,0.37016 -2.80038,0.7452 -2.0913,1.85567 1.20464,1.88655 1.1509,8.96346 -0.0856,11.2739 -1.32692,2.47937 -7.87357,5.38127 -12.19757,5.40675 -2.65353,0.0157 -3.81227,0.56108 -4.98089,2.34461 -2.36588,3.6108 -0.48292,5.0973 6.46486,5.10363 11.11755,0.0101 15.68068,2.69428 15.68068,9.22384 0,7.29324 -4.80126,10.92934 -15.39959,11.66243 -3.15136,0.21797 -7.19108,-0.0434 -8.97717,-0.58091 z m 16.61112,-5.24986 c 3.04056,-2.2595 3.81423,-7.43887 1.37736,-9.22077 -1.02438,-0.74904 -4.47641,-1.20075 -9.17643,-1.20075 -6.29979,0 -7.86703,0.30998 -9.56493,1.89183 -3.54275,3.30057 -2.24696,8.51438 2.60855,10.49586 2.76805,1.1296 12.29847,-0.14033 14.75545,-1.96617 z m -2.86855,-28.08653 c 3.07828,-2.86785 2.85247,-9.38888 -0.41409,-11.95836 -5.70436,-4.48705 -13.32848,-0.87305 -13.32848,6.31799 0,2.87711 0.53658,4.10824 2.44472,5.60918 3.21164,2.52628 8.60371,2.54117 11.29785,0.0312 z m -278.46894,18.17643 c -6.44988,-2.30032 -9.38372,-6.28322 -10.42823,-14.15701 -0.88758,-6.69095 1.4454,-14.11228 5.57666,-17.73958 6.98665,-6.13436 17.83564,-4.27023 21.70852,3.7301 1.09622,2.26449 1.99313,5.65553 1.99313,7.53564 l 0,3.41841 -12.06185,0 -12.06186,0 0,2.41133 c 0,3.79943 2.77383,8.67004 5.84089,10.25607 2.84088,1.46908 11.24376,1.40556 14.80344,-0.11191 1.29681,-0.55281 1.62371,-0.22736 1.62371,1.61654 0,1.95753 -0.62702,2.4666 -4.1222,3.3467 -5.3019,1.33502 -8.4823,1.25936 -12.87221,-0.30628 z m 13.28307,-22.82553 c 0,-2.62759 -2.40338,-7.0322 -4.21682,-7.72809 -3.27615,-1.25716 -8.77012,-0.5791 -10.66559,1.31637 -1.80536,1.80536 -3.67429,5.59279 -3.67429,7.44603 0,0.48019 4.14206,0.86744 9.27835,0.86744 8.73472,0 9.27835,-0.11143 9.27835,-1.90175 z m 20.71739,22.81722 c -1.61833,-0.70395 -3.39281,-2.1215 -3.9433,-3.15011 -0.57989,-1.08352 -1.00089,-7.3597 -1.00089,-14.92087 l 0,-13.05068 -2.78351,0 c -3.54718,0 -3.56202,-1.40543 -0.0341,-3.2298 1.94474,-1.00566 3.04141,-2.50615 3.74711,-5.12692 1.41784,-5.26529 3.70971,-4.97484 3.70971,0.47012 l 0,4.17526 5.1031,0 c 4.48453,0 5.10309,0.22492 5.10309,1.85567 0,1.63074 -0.61856,1.85567 -5.10309,1.85567 l -5.1031,0 0,11.8554 c 0,14.11711 0.76316,15.97965 6.54746,15.97965 2.96464,0 3.65873,0.3315 3.65873,1.74746 0,2.89384 -5.00006,3.6711 -9.90117,1.53915 z m 76.71192,-0.12546 c -4.97681,-2.15822 -7.35096,-4.92563 -8.95279,-10.43575 -1.61453,-5.55376 -1.16869,-12.54014 1.07744,-16.88368 4.55713,-8.81252 16.54264,-10.75267 24.59075,-3.98064 5.26211,4.42777 6.97554,17.20785 3.26338,24.34071 -3.71181,7.1322 -12.51168,10.19751 -19.97878,6.95936 z m 11.85408,-4.60922 c 3.27871,-2.29651 4.84032,-6.31947 4.84032,-12.46946 0,-9.21493 -3.60532,-13.91752 -10.6701,-13.91752 -7.06478,0 -10.6701,4.70259 -10.6701,13.91752 0,9.21494 3.60532,13.91753 10.6701,13.91753 2.0693,0 4.6927,-0.65164 5.82978,-1.44807 z m -180.726695,-18.50038 0,-23.6598 3.01547,0.006 c 2.90292,0.006 3.5085,0.75887 16.2265,20.18041 l 13.21103,20.17485 0.0106,-20.18042 0.0106,-20.18041 2.31959,0 2.31959,0 0,23.6598 0,23.65979 -3.01547,-0.006 c -2.90292,-0.005 -3.50884,-0.75818 -16.23436,-20.18041 l -13.2189,-20.17484 -0.003,20.18041 -0.003,20.18042 -2.31959,0 -2.31959,0 0,-23.65979 z m 110.038735,7.32055 c -2.42118,-8.98657 -4.62484,-16.91955 -4.89702,-17.62887 -0.35215,-0.91768 0.27877,-1.28962 2.1876,-1.28962 l 2.68248,0 3.81521,15.01792 3.81521,15.01792 1.55293,-5.50761 c 0.85411,-3.02918 2.89885,-9.68286 4.54388,-14.78596 2.84428,-8.82337 3.12609,-9.29181 5.74691,-9.55274 l 2.75595,-0.2744 4.08488,13.728 c 2.24668,7.5504 4.32859,14.20328 4.62648,14.78418 0.29789,0.5809 2.2013,-5.5776 4.22981,-13.68556 l 3.68821,-14.74175 2.67394,0 c 1.75693,0 2.52199,0.39774 2.23084,1.15979 -0.2437,0.63789 -2.46731,8.57088 -4.94134,17.62887 l -4.49824,16.46907 -2.92037,0 c -2.88134,0 -2.95833,-0.1209 -5.7612,-9.04639 -1.56246,-4.97552 -3.5467,-11.51556 -4.40943,-14.53343 -0.99327,-3.47454 -1.80898,-5.00592 -2.22399,-4.17526 -0.36047,0.72148 -2.4689,7.26152 -4.6854,14.53343 l -4.03,13.22165 -2.9326,0 -2.9326,0 -4.40214,-16.33924 z m 90.37364,-1.28962 0,-17.62886 2.31959,0 c 2.05095,0 2.31959,0.39257 2.31959,3.38975 l 0,3.38975 3.25211,-3.34859 c 4.77658,-4.91829 13.03299,-6.05279 11.87694,-1.632 -0.36812,1.40768 -1.26745,1.9211 -3.40737,1.94531 -3.77258,0.0427 -6.75544,1.74609 -8.98796,5.13277 -1.53594,2.32999 -1.79454,4.4207 -1.79977,14.55084 l -0.006,11.8299 -2.7835,0 -2.78351,0 0,-17.62887 z m 26.90722,-7.42269 0,-25.05153 2.31959,0 2.31959,0 0,15.8505 c 0,8.71779 0.35075,15.71135 0.77944,15.54125 0.4287,-0.1701 4.07062,-3.96263 8.09315,-8.42784 5.85733,-6.50192 7.82684,-8.11856 9.89065,-8.11856 1.41734,0 2.57696,0.25326 2.57696,0.5628 0,0.30955 -2.96519,3.62083 -6.58932,7.35841 -4.4436,4.58271 -6.35156,7.1942 -5.85917,8.01967 0.40159,0.67324 3.79958,5.29494 7.55107,10.27046 l 6.8209,9.0464 -3.08195,0 c -2.76028,0 -3.58942,-0.70213 -7.94365,-6.72681 -8.36311,-11.57148 -7.23092,-10.64339 -9.91173,-8.12491 -2.04258,1.9189 -2.32635,2.95803 -2.32635,8.5186 0,6.13676 -0.0719,6.33312 -2.31959,6.33312 l -2.31959,0 0,-25.05156 z m 34.3299,7.42269 0,-17.62886 2.7835,0 2.78351,0 0,17.62886 0,17.62887 -2.78351,0 -2.7835,0 0,-17.62887 z m 16.70103,0 0,-17.62886 2.31959,0 c 1.85567,0 2.31958,0.46392 2.31958,2.31959 0,1.27577 0.41753,2.31958 0.92784,2.31958 0.51031,0 0.92783,-0.43795 0.92783,-0.97319 0,-1.33727 7.31587,-4.54847 10.41937,-4.57344 3.71015,-0.0299 9.36136,2.48466 10.93609,4.86601 1.02321,1.54731 1.45061,5.77485 1.68694,16.68578 l 0.31652,14.6134 -2.40111,0 -2.40111,0 0,-11.92341 c 0,-16.9348 -1.27105,-19.62298 -9.27835,-19.62298 -8.56882,0 -10.20618,3.11848 -10.20618,19.43846 l 0,12.10793 -2.78351,0 -2.7835,0 0,-17.62887 z M 321.00864,467.5693 c -0.68254,-0.43263 -1.10006,-1.7832 -0.92784,-3.00126 0.23474,-1.66024 0.89382,-2.21466 2.63272,-2.21466 1.7389,0 2.39798,0.55442 2.63273,2.21466 0.26773,1.89352 -1.04891,3.78785 -2.63273,3.78785 -0.25515,0 -1.02235,-0.35397 -1.70488,-0.78659 z"
     id="path5038" />
</svg>
