<?xml version="1.0" encoding="UTF-8" standalone="no"?>
<svg
   xmlns:dc="http://purl.org/dc/elements/1.1/"
   xmlns:cc="http://creativecommons.org/ns#"
   xmlns:rdf="http://www.w3.org/1999/02/22-rdf-syntax-ns#"
   xmlns:svg="http://www.w3.org/2000/svg"
   xmlns="http://www.w3.org/2000/svg"
   viewBox="0 0 653.93164 727.20954"
   height="727.20953"
   width="653.93164"
   version="1.1"
   id="svg5231">
  <metadata
     id="metadata5237">
    <rdf:RDF>
      <cc:Work
         rdf:about="">
        <dc:format>image/svg+xml</dc:format>
        <dc:type
           rdf:resource="http://purl.org/dc/dcmitype/StillImage" />
        <dc:title></dc:title>
      </cc:Work>
    </rdf:RDF>
  </metadata>
  <defs
     id="defs5235" />
  <path
     style="fill:#d2dde7"
     d="M 16.064035,725.50574 C 10.355653,722.88519 2.0283199,714.35105 0.82722994,709.89055 c -0.721732,-2.68032 -0.942466,-102.80092 -0.773234,-350.72352 L 0.29083894,12.194666 2.8273289,8.562683 c 1.395069,-1.99759 4.078379,-4.675796 5.962909,-5.9515688 L 12.216659,0.29152665 322.5261,0.05411635 c 221.59904,-0.1695399 311.38242,0.05151 314.0627,0.7732339 4.46267,1.20167005 12.99605,9.52745675 15.6173,15.23737175 1.64334,3.579694 1.7045,15.980126 1.72415,349.591648 0.0183,310.63062 -0.12648,346.23186 -1.42059,349.32988 -1.91083,4.57439 -5.60911,8.39938 -10.15697,10.50497 -3.58899,1.66164 -13.91219,1.71829 -313.14433,1.71829 -298.271128,0 -309.56686,-0.0614 -313.144325,-1.70377 z m 620.831645,-9.03997 c 1.74569,-0.82837 4.10518,-2.81162 5.24332,-4.40722 l 2.06936,-2.90107 0.23723,-239.61339 0.23723,-239.6134 -320.11363,0 -320.1136361,0 0.237231,239.6134 0.23723,239.61339 2.058108,2.88528 c 1.131958,1.5869 3.4283501,3.56064 5.1030921,4.38609 2.786289,1.37331 29.321918,1.5026 312.337745,1.52194 283.47226,0.0194 309.55774,-0.10462 312.46672,-1.48502 z m -437.58422,-216.999 0,-25.51547 2.25706,0 c 1.47303,0 2.47039,0.67216 2.87121,1.93501 l 0.61415,1.93501 2.24458,-2.10868 c 3.34159,-3.13926 12.09141,-3.62035 16.48287,-0.90627 5.20443,3.2165 7.33203,8.74387 6.9388,18.02654 -0.26928,6.35655 -0.73096,8.29452 -2.64579,11.10609 -4.20997,6.18156 -12.77821,8.06646 -19.73023,4.3404 l -3.46564,-1.85748 0,9.28016 0,9.28015 -2.78351,0 -2.7835,0 0,-25.51546 z m 19.75145,5.02403 c 3.72791,-1.69856 5.68324,-6.1582 5.66065,-12.91063 -0.0242,-7.24471 -1.89155,-11.31792 -5.96137,-13.00369 -3.95369,-1.63768 -8.96509,-0.28435 -11.47522,3.09887 -2.61856,3.52934 -2.76967,15.68595 -0.24293,19.54224 2.59214,3.95612 7.55415,5.30747 12.01887,3.27321 z m -151.040112,4.52659 c -7.836955,-2.73942 -12.277619,-9.47807 -13.156831,-19.9653 -1.048877,-12.511 4.78717,-23.21136 14.192313,-26.02155 4.801669,-1.43472 13.942661,-1.47289 18.078644,-0.0755 4.04859,1.36785 3.86672,1.08438 2.54996,3.97433 -0.97162,2.13247 -1.48368,2.38655 -3.51412,1.74361 -1.30722,-0.41391 -5.299451,-0.75257 -8.871616,-0.75257 -5.232678,0 -7.058622,0.40214 -9.395919,2.06935 -4.589259,3.27356 -6.377276,7.89616 -6.377276,16.48735 0,8.55033 1.708761,12.47443 7.008927,16.09571 2.932361,2.00349 3.908327,2.14899 11.779732,1.75615 8.545842,-0.42651 8.582482,-0.41889 8.582482,1.78493 0,1.52206 -0.74327,2.49585 -2.37999,3.11813 -3.08785,1.174 -14.91641,1.03675 -18.496306,-0.21461 z m 36.787952,-0.40315 c -5.289706,-2.69374 -7.978676,-7.88142 -8.313356,-16.03839 -0.24172,-5.89148 0.0581,-7.69234 1.85567,-11.14755 3.297796,-6.33875 6.130906,-7.94091 14.041896,-7.94091 5.54368,0 7.18184,0.37306 9.78235,2.22779 8.94201,6.37761 8.87161,25.45343 -0.11811,32.00445 -3.53391,2.57524 -12.98555,3.06546 -17.24845,0.89461 z m 11.60053,-4.07086 c 6.91586,-2.41089 9.0435,-16.49563 3.48901,-23.09678 -4.32538,-5.14041 -12.89171,-4.5122 -15.87825,1.16446 -2.21713,4.21419 -2.11371,14.10741 0.18818,18.00226 2.55227,4.31849 6.98811,5.7473 12.20106,3.93006 z m 129.38137,4.47171 c -1.22658,-0.65879 -3.10544,-2.37659 -4.17526,-3.81731 -1.73666,-2.33879 -1.98059,-4.1534 -2.27621,-16.93299 l -0.3311,-14.31349 3.34657,0 3.34656,0 0,13.49578 c 0,13.26461 0.0409,13.53673 2.39013,15.88592 2.05209,2.05209 2.97597,2.3241 6.5325,1.92322 7.8667,-0.88669 9.62088,-4.68817 9.62889,-20.86677 l 0.005,-10.43815 2.7835,0 2.78351,0 0,17.62887 0,17.62886 -2.40645,0 c -1.64645,0 -2.56369,-0.60128 -2.90433,-1.9039 -0.49391,-1.88871 -0.51564,-1.8872 -2.72662,0.1899 -2.70587,2.54204 -12.38219,3.46151 -15.99687,1.52006 z m 39.48857,0.0933 c -3.24505,-1.92867 -4.32028,-6.63006 -4.32028,-18.89018 l 0,-11.62774 -2.31959,0 c -3.25893,0 -3.01349,-2.84597 0.41359,-4.79573 1.91644,-1.09031 2.90585,-2.53123 3.34482,-4.87113 0.5085,-2.71054 1.03177,-3.32283 2.8397,-3.32283 2.0082,0 2.21633,0.39208 2.21633,4.17526 l 0,4.17525 5.16762,0 c 4.82831,0 5.14816,0.13708 4.87113,2.08763 -0.2583,1.81871 -0.92398,2.12376 -5.16762,2.36808 l -4.87113,0.28045 0,11.94709 c 0,13.98451 0.64902,15.39377 6.7148,14.58018 3.45048,-0.4628 3.5872,-0.38078 3.31323,1.98775 -0.26707,2.30886 -0.61958,2.48526 -5.38886,2.69655 -2.8067,0.12435 -5.87288,-0.23144 -6.81374,-0.79063 z m 27.22611,0.35901 c -6.56239,-2.46588 -10.15512,-8.78752 -10.18581,-17.9226 -0.0249,-7.40656 2.61851,-13.30144 7.40231,-16.5075 4.51055,-3.02295 13.57604,-2.59569 17.22313,0.81173 3.36478,3.14366 4.83388,6.27161 5.57715,11.87469 l 0.63466,4.78427 -12.70783,0 c -12.26476,0 -12.68948,0.0647 -12.18139,1.85567 0.28955,1.02062 0.78459,2.79511 1.1001,3.9433 1.80667,6.57471 10.26991,8.59266 20.14483,4.8033 1.23595,-0.47428 1.54955,-0.0296 1.54955,2.19739 0,2.29744 -0.51758,2.97243 -2.92195,3.8106 -3.01064,1.04952 -13.16725,1.27632 -15.63475,0.34915 z m 13.91753,-22.55622 c 0,-2.82061 -2.94618,-7.50065 -5.28053,-8.38817 -5.57201,-2.11848 -12.34834,1.80592 -12.34834,7.15135 0,2.15339 0.16495,2.19446 8.81443,2.19446 5.4406,0 8.81444,-0.36655 8.81444,-0.95764 z m -188.35052,4.66898 0,-17.62887 2.25706,0 c 1.45163,0 2.46991,0.67061 2.85351,1.87925 0.58133,1.83158 0.66708,1.81982 3.38115,-0.46392 3.96457,-3.33597 11.52493,-3.33706 15.48815,-0.002 l 2.78204,2.34093 3.44955,-2.34093 c 6.30118,-4.2761 16.21773,-2.63795 19.05323,3.14746 0.72735,1.48408 1.32577,7.79153 1.56995,16.54769 l 0.39457,14.14948 -3.34656,0 -3.34656,0 0,-13.49577 c 0,-13.26113 -0.0415,-13.5373 -2.38776,-15.88355 -1.98048,-1.98048 -2.96012,-2.29486 -5.7435,-1.84318 -6.79577,1.1028 -8.51241,5.37012 -8.54764,21.24828 l -0.0221,9.97384 -2.7835,0 -2.78351,0 0,-13.49577 c 0,-13.09175 -0.0682,-13.56397 -2.27741,-15.7732 -2.48446,-2.48446 -4.35934,-2.77831 -8.50531,-1.33301 -4.67892,1.63108 -5.39283,3.8424 -5.7609,17.84425 l -0.33536,12.75773 -2.69453,0 -2.69453,0 0,-17.62886 z m 25.93351,-71.72273 c -8.25146,-2.33574 -16.1117,-9.10803 -19.46628,-16.77195 -4.36071,-9.96252 -4.812,-27.76674 -0.96011,-37.87796 2.64369,-6.93968 8.97886,-13.88954 15.6451,-17.16311 4.93832,-2.42504 6.06433,-2.59827 16.88902,-2.59827 13.21618,0 17.13177,1.21626 24.05667,7.47249 7.43229,6.71463 11.16031,16.6541 11.18735,29.8272 0.0359,17.49264 -6.82602,30.20863 -19.26698,35.70409 -5.50052,2.4297 -21.61978,3.23754 -28.08477,1.40751 z m 21.51288,-14.74867 c 2.62239,-1.47387 4.32768,-3.46538 6.15726,-7.19072 2.26749,-4.61702 2.53037,-6.16445 2.53037,-14.89457 0,-8.77144 -0.25662,-10.26481 -2.57514,-14.98607 -2.8354,-5.77376 -4.91833,-7.53275 -10.79334,-9.11471 -5.29711,-1.42637 -12.71596,0.1244 -16.2436,3.39542 -4.81607,4.46571 -6.50125,9.8014 -6.53939,20.70536 -0.0306,8.7611 0.21995,10.25953 2.48832,14.8783 3.34429,6.80948 7.33813,9.19484 15.44405,9.2241 4.39074,0.0159 6.83447,-0.50131 9.53147,-2.01711 z M 60.1362,383.02347 l 0,-37.1134 9.974227,0.008 9.974226,0.008 11.110811,19.24443 c 6.11095,10.58445 13.209286,22.84244 15.774096,27.23998 l 4.66328,7.99556 -0.33434,-27.24813 -0.33436,-27.24854 7.52418,0 7.52417,0 0,37.14379 0,37.14378 -10.3965,-0.26234 -10.3965,-0.26235 -14.703776,-25.51546 c -8.087089,-14.0335 -15.072748,-26.14175 -15.523698,-26.90722 -0.479086,-0.81322 -0.59105,9.8895 -0.269348,25.74743 l 0.550559,27.13917 -7.568514,0 -7.568513,0 0,-37.1134 z m 169.08995,0.68501 c -6.76599,-20.02366 -12.29821,-36.73606 -12.29382,-37.13865 0.005,-0.40261 3.62906,-0.61137 8.05483,-0.46392 l 8.04682,0.26808 7.74784,24.58763 c 4.26131,13.52319 8.00031,26.15334 8.30887,28.067 0.71515,4.4352 1.79199,4.44432 2.62158,0.0222 0.69544,-3.707 2.1813,-8.61312 10.82531,-35.74384 l 5.54276,-17.39691 7.83205,0 c 4.73477,0 7.83206,0.37644 7.83206,0.95189 0,0.52354 -5.5167,17.22458 -12.25933,37.11341 l -12.25933,36.16152 -8.84892,-0.0109 -8.84892,-0.0109 -12.3018,-36.40665 z m 54.53103,36.19643 c 0.007,-0.12757 5.79805,-16.72422 12.86897,-36.88144 l 12.85624,-36.64948 9.99868,0 9.99868,0 12.25467,34.79381 c 6.74008,19.1366 12.55251,35.73325 12.91653,36.88144 0.6543,2.06385 0.56248,2.08763 -8.0614,2.08763 l -8.72324,0 -2.60298,-8.81443 -2.60298,-8.81443 -13.17022,0 -13.17021,0 -2.60298,8.81443 -2.60299,8.81443 -8.68476,0 c -4.7766,0 -8.67901,-0.10438 -8.67201,-0.23196 z m 44.52335,-31.38552 c 0,-0.54942 -1.96104,-7.43645 -4.35785,-15.30452 l -4.35785,-14.30559 -4.43087,14.60864 c -2.43699,8.03476 -4.44246,14.92179 -4.4566,15.30452 -0.0141,0.38273 3.9408,0.69588 8.78873,0.69588 5.67595,0 8.81444,-0.35568 8.81444,-0.99893 z m 235.78166,-214.2588 c 4.01359,-4.99438 6.65579,-4.95212 11.07338,0.17708 3.19248,3.70674 3.47544,3.83529 6.05623,2.7514 1.48901,-0.62535 3.6888,-1.88676 4.88843,-2.80315 l 2.18114,-1.66614 -2.06045,-4.78965 c -1.94093,-4.5118 -1.97202,-4.92462 -0.53605,-7.1162 0.91204,-1.39193 2.40105,-2.32654 3.70663,-2.32654 1.20022,0 3.48699,-0.26095 5.08171,-0.57989 2.84718,-0.56944 2.89948,-0.67689 2.89948,-5.9572 0,-5.23676 -0.0727,-5.39138 -2.7835,-5.91495 -1.53093,-0.29571 -4.03956,-0.78035 -5.57473,-1.07698 -4.32773,-0.83623 -5.07676,-3.26601 -2.84534,-9.23002 l 1.89145,-5.05535 -2.3027,-1.40208 c -1.26649,-0.77114 -3.35867,-2.04596 -4.6493,-2.83292 -2.24887,-1.37125 -2.45174,-1.30759 -4.87114,1.52859 -1.38849,1.62769 -2.85842,3.52415 -3.26651,4.21434 -1.60096,2.70772 -5.68936,1.41579 -9.33989,-2.95142 l -3.51606,-4.20633 -3.40722,2.02981 c -6.0793,3.62169 -6.14695,3.77369 -3.91983,8.80846 2.51367,5.68258 1.45434,8.40839 -3.57996,9.21175 -7.94618,1.26805 -7.50537,0.86697 -7.50537,6.82881 0,5.98007 0.61618,6.54499 7.16933,6.57272 2.11959,0.009 3.41605,0.65668 4.43885,2.21766 1.32658,2.02462 1.29038,2.59667 -0.44253,6.99312 -1.03802,2.63346 -1.8873,4.95775 -1.8873,5.16509 0,0.65422 7.83447,5.10337 9.00267,5.11255 0.61384,0.005 2.4582,-1.66132 4.09858,-3.70256 z m -1.11076,-15.70183 c -5.97668,-5.97666 -1.88729,-15.84456 6.56621,-15.84456 3.02266,0 4.43916,0.58507 6.56621,2.71213 5.97668,5.97667 1.88729,15.84457 -6.56621,15.84457 -3.02266,0 -4.43916,-0.58507 -6.56621,-2.71214 z m -51.05403,1.4342 c 0.58333,-0.70286 1.36513,-3.66209 1.73733,-6.57605 0.6145,-4.81097 0.94767,-5.41185 3.62341,-6.53496 2.81641,-1.18214 3.16223,-1.07601 7.82221,2.4008 2.68154,2.0007 5.03988,3.63763 5.24075,3.63763 1.09709,0 11.36149,-10.70287 11.36149,-11.84682 0,-0.74699 -1.44947,-3.33273 -3.22104,-5.74609 -2.95827,-4.02997 -3.13258,-4.62224 -2.13682,-7.26032 1.12366,-2.97691 1.90035,-3.34445 9.33451,-4.41734 l 4.44058,-0.64085 -0.26532,-8.47213 -0.26531,-8.47211 -5.88073,-0.93427 c -5.44457,-0.86497 -5.97755,-1.16455 -7.18623,-4.03915 -1.41924,-3.375356 -1.35582,-3.585956 2.6195,-8.69823 1.6707,-2.148541 2.49358,-4.099258 2.1654,-5.133293 -0.29115,-0.917314 -2.82174,-3.931749 -5.62356,-6.698755 l -5.09419,-5.030919 -5.34546,3.751526 c -5.06278,3.553141 -5.49897,3.688132 -8.24861,2.552739 -2.64116,-1.090597 -2.96324,-1.684169 -3.56881,-6.577 -0.3661,-2.958018 -1.09405,-5.900122 -1.61766,-6.538008 -0.61538,-0.749675 -3.54474,-1.159794 -8.28407,-1.159794 -8.28142,0 -8.27456,-0.0062 -9.54708,8.655791 -0.56791,3.865871 -1.05488,4.647319 -3.54967,5.696299 -2.7516,1.156959 -3.1282,1.037024 -7.78583,-2.479525 l -4.89438,-3.695291 -2.67377,1.903888 c -3.38914,2.413282 -9.45393,9.091194 -9.45393,10.409685 0,0.55054 1.49814,2.829247 3.32919,5.063808 2.80743,3.426093 3.22996,4.514633 2.69602,6.945639 -0.70917,3.22881 -1.15594,3.48599 -8.61448,4.95881 l -5.29732,1.04605 0,8.34781 0,8.34783 6.0229,0.93198 c 5.61542,0.86893 6.12718,1.15158 7.56434,4.17796 1.53574,3.23395 1.53039,3.25968 -1.44932,6.9573 -1.64493,2.04124 -3.30672,4.24569 -3.69289,4.89878 -0.7533,1.27399 2.63788,5.60219 8.25031,10.52997 l 3.27192,2.87278 5.08879,-3.84207 c 4.99291,-3.76969 5.14133,-3.81491 7.87719,-2.40014 1.53362,0.79307 2.78841,1.5633 2.78841,1.71163 0,1.10167 2.1237,11.4254 2.46369,11.97647 0.80574,1.30598 14.85585,0.79481 15.99854,-0.58206 z m -14.11535,-27.50059 c -7.26442,-2.18048 -12.6974,-9.97824 -12.6974,-18.22415 0,-17.204126 21.2277,-25.218649 32.81741,-12.39022 6.65599,7.36738 6.78156,17.39945 0.31004,24.7701 -5.10896,5.81877 -12.9972,8.07531 -20.43005,5.84427 z m 71.84531,-37.097756 c 1.67815,0 3.20304,1.16665 5.45729,4.17526 1.72061,2.296386 3.27425,4.175256 3.45251,4.175256 0.17827,0 1.35324,-0.62629 2.61106,-1.39175 1.25782,-0.76547 3.32316,-2.02269 4.58965,-2.793836 l 2.3027,-1.40208 -1.89145,-5.055351 c -1.46426,-3.913599 -1.66396,-5.480434 -0.88417,-6.937478 0.99858,-1.865863 1.88195,-2.2029 8.60836,-3.284377 l 3.47938,-0.559418 0,-5.416752 c 0,-5.952839 -0.62165,-6.520641 -7.16933,-6.548347 -2.16684,-0.0092 -3.41687,-0.657937 -4.52432,-2.348127 -1.4414,-2.199853 -1.4138,-2.615694 0.4755,-7.161853 l 2.00576,-4.826396 -2.1206,-1.620484 c -1.16634,-0.891267 -3.33889,-2.132137 -4.8279,-2.757488 -2.58079,-1.083881 -2.86375,-0.955328 -6.05623,2.751409 -2.23324,2.592993 -4.10485,3.888414 -5.61793,3.888414 -1.51308,0 -3.38469,-1.295421 -5.61793,-3.888414 -3.19248,-3.706737 -3.47544,-3.83529 -6.05623,-2.751409 -1.48901,0.625351 -3.67319,1.874995 -4.85374,2.776984 l -2.14646,1.63998 1.94613,4.937359 c 1.78943,4.539811 1.8298,5.114902 0.50136,7.142357 -1.0228,1.560981 -2.31926,2.208698 -4.43885,2.217668 -6.54053,0.02768 -7.16933,0.599238 -7.16933,6.516668 0,5.245384 0.0722,5.399021 2.7835,5.922714 1.53093,0.295701 4.03956,0.780339 5.57473,1.076972 4.32323,0.835357 5.15951,3.403548 2.85368,8.763604 -1.06346,2.472065 -1.93356,4.729645 -1.93356,5.016845 0,0.28719 1.98325,1.7806 4.40722,3.318666 l 4.40721,2.79649 3.76155,-4.186536 c 2.56291,-2.8525 4.50364,-4.18655 6.09044,-4.18655 z m -6.67593,-11.990481 c -5.97668,-5.976673 -1.88729,-15.844567 6.56621,-15.844567 5.4255,0 9.27835,3.852853 9.27835,9.27835 0,8.453493 -9.8679,12.542892 -15.84456,6.566217 z M 9.3871869,10.149979 C 10.507907,8.93082 13.094963,7.162525 15.1362,6.220432 17.244265,5.247497 18.106478,4.498736 17.132093,4.487161 11.875982,4.424731 5.8141589,9.996389 4.8733289,15.754679 l -0.505446,3.093548 1.490816,-3.240798 c 0.819948,-1.782438 2.407768,-4.238291 3.528488,-5.45745 z M 643.22709,12.371837 c -1.87312,-3.947327 -5.60922,-6.79983 -9.8427,-7.5149 l -3.09355,-0.522524 3.74972,1.789826 c 4.27422,2.040179 8.46952,6.597773 9.42963,10.243952 0.46393,1.76183 0.75021,2.020453 0.98853,0.893052 0.18452,-0.872841 -0.36972,-3.073074 -1.23163,-4.889406 z"
     id="path5247" />
  <path
     style="fill:#238dc6"
     d="m 199.31146,499.46677 0,-25.51547 2.31958,0 c 1.87691,0 2.31959,0.45842 2.31959,2.40207 l 0,2.40207 2.81082,-2.36516 c 6.94398,-5.84297 17.68733,-3.70732 21.98189,4.36975 2.33757,4.39644 2.22023,16.658 -0.20508,21.43037 -2.80966,5.52866 -6.07794,7.48255 -12.51608,7.48255 -4.18791,0 -6.07216,-0.48125 -8.28247,-2.11541 l -2.86124,-2.1154 0,9.77004 0,9.77005 -2.78351,0 -2.7835,0 0,-25.51546 z m 21.23177,4.51791 c 6.3464,-4.44519 6.3464,-20.36383 0,-24.80903 -4.65316,-3.25919 -12.26001,-1.37081 -14.31789,3.55438 -1.59564,3.8189 -1.76674,12.93581 -0.32063,17.08413 1.80043,5.16471 9.91748,7.47726 14.63852,4.17052 z m -151.513339,5.05951 c -4.897696,-1.37482 -10.915721,-7.54239 -12.513884,-12.82485 -1.839536,-6.08028 -1.534132,-16.66356 0.620971,-21.5187 4.235417,-9.54179 14.08766,-14.1495 25.920635,-12.1226 3.307591,0.56657 6.251621,1.26793 6.542271,1.5586 0.29066,0.29066 0.0702,1.53417 -0.4898,2.76337 -0.97894,2.1485 -1.15511,2.18609 -4.55795,0.97248 -13.214972,-4.71311 -23.488099,3.27979 -23.488099,18.27468 0,12.78503 5.425525,18.91133 16.701031,18.85818 3.31701,-0.0157 7.179128,-0.33674 8.582478,-0.71355 2.26765,-0.6089 2.55155,-0.43611 2.55155,1.55287 0,1.26957 -0.70261,2.51435 -1.62372,2.87663 -2.94083,1.15668 -14.543631,1.36201 -18.245483,0.32289 z m 37.824289,0.12788 c -3.7281,-1.14231 -8.295716,-6.32746 -9.548786,-10.83974 -3.96134,-14.26469 4.499696,-26.50085 17.325176,-25.05524 15.05048,1.69641 19.47599,24.80115 6.5799,34.35248 -2.85255,2.1127 -9.9919,2.87979 -14.35629,1.5425 z m 11.62719,-5.18739 c 2.9455,-2.06311 4.74761,-6.77164 4.74761,-12.40451 0,-9.0034 -3.7675,-13.91753 -10.6701,-13.91753 -6.9026,0 -10.6701,4.91413 -10.6701,13.91753 0,9.00339 3.7675,13.91752 10.6701,13.91752 2.06929,0 4.73442,-0.68085 5.92249,-1.51301 z m 128.34629,5.15381 c -5.67358,-1.72703 -6.68404,-4.90553 -6.68799,-21.0377 l -0.003,-14.14949 2.31959,0 2.31958,0 0.0222,10.90206 c 0.035,17.215 1.43785,20.64433 8.44531,20.64433 9.22353,0 11.01705,-3.24263 11.01705,-19.91865 l 0,-11.62774 2.7835,0 2.78351,0 0,17.62887 0,17.62886 -2.31959,0 c -1.70103,0 -2.31959,-0.49484 -2.31959,-1.85567 0,-2.33266 -0.37579,-2.31936 -3.68938,0.13049 -3.08685,2.2822 -10.03472,3.06581 -14.6707,1.65464 z m 40.13199,0.11553 c -4.074,-1.65137 -4.58622,-3.42718 -5.07087,-17.58011 l -0.46392,-13.54735 -2.55155,-0.29359 c -3.27185,-0.37646 -3.24701,-1.61871 0.0666,-3.33225 1.76904,-0.91481 2.98478,-2.57756 3.74858,-5.12692 1.58565,-5.29244 3.83944,-5.05633 3.83944,0.40225 l 0,4.17525 5.10309,0 c 4.4389,0 5.1031,0.23522 5.1031,1.80718 0,1.52593 -0.75812,1.85083 -4.87114,2.08763 l -4.87113,0.28045 -0.26147,11.48381 c -0.3158,13.8707 0.48562,15.88732 6.31378,15.88732 3.00188,0 3.68996,0.32752 3.68996,1.7564 0,2.74747 -5.27003,3.82576 -9.77449,1.99993 z m 25.87391,-0.13076 c -10.39324,-3.01088 -14.0414,-21.23137 -6.13286,-30.63013 9.0035,-10.70005 25.22693,-4.53335 25.2759,9.60766 l 0.0153,4.40721 -12.06186,0 c -13.5457,0 -13.74102,0.12713 -10.53262,6.85522 2.79773,5.8669 9.75718,7.51192 19.66052,4.64721 1.88999,-0.54672 2.12879,-0.34213 1.85567,1.5897 -0.53769,3.80313 -10.44759,5.7342 -18.08002,3.52313 z m 13.5913,-23.1711 c 0,-7.57074 -9.02087,-11.06871 -14.79761,-5.73797 -1.52077,1.40335 -3.03395,3.69974 -3.36264,5.10309 l -0.59763,2.55155 9.37894,0 c 8.85988,0 9.37894,-0.10608 9.37894,-1.91667 z m -188.35052,5.62801 0,-17.62887 2.31959,0 c 1.70103,0 2.31959,0.49485 2.31959,1.85567 0,2.19952 1.17838,2.39797 2.77996,0.46819 1.74757,-2.10569 7.73842,-3.57371 11.61565,-2.84633 1.89232,0.355 4.46821,1.67308 5.7242,2.92907 l 2.28362,2.28362 2.74312,-2.3082 c 5.6571,-4.76012 15.12,-3.93579 18.5026,1.61182 1.58275,2.59579 1.80826,4.72655 1.8113,17.11441 l 0.003,14.14948 -2.31959,0 -2.31959,0 0,-11.9234 c 0,-16.40453 -1.3696,-19.62299 -8.35052,-19.62299 -7.54892,0 -9.27835,3.62321 -9.27835,19.43846 l 0,12.10793 -2.7835,0 -2.78351,0 0,-13.91752 c 0,-12.68042 -0.16495,-14.08248 -1.85567,-15.7732 -2.67763,-2.67763 -8.43527,-2.49121 -11.77816,0.38134 -2.60098,2.23505 -2.60355,2.24898 -2.90368,15.7732 l -0.30042,13.53618 -2.71505,0 -2.71506,0 0,-17.62886 z m 29.01313,-71.43227 c -6.6263,-1.41111 -12.06538,-4.32513 -16.40253,-8.78773 -13.30183,-13.68657 -12.45743,-46.4943 1.50423,-58.44497 7.29981,-6.24836 20.52878,-9.19986 31.81301,-7.09776 17.79537,3.31504 26.55723,15.36854 26.70832,36.74211 0.13355,18.88914 -6.48841,30.76817 -20.01729,35.90874 -5.38044,2.0444 -17.75739,2.92506 -23.60574,1.67961 z m 16.98764,-13.83237 c 7.74471,-3.51747 11.05966,-11.63969 10.41303,-25.51374 -0.46959,-10.07551 -2.68498,-15.81834 -7.52686,-19.51142 -6.70007,-5.11038 -18.96916,-3.91675 -24.25004,2.35923 -6.71212,7.97688 -6.91683,30.04283 -0.3561,38.38345 4.4292,5.63082 14.41582,7.59987 21.71997,4.28248 z M 60.1362,383.48739 l 0,-36.64949 9.995716,0 9.995715,0 15.983673,27.57292 15.983656,27.57292 0,-27.57292 0,-27.57292 6.49485,0 6.49484,0 0,36.64949 0,36.64948 -9.60384,0 -9.60384,0 -15.988536,-27.83505 c -8.793702,-15.30928 -16.058318,-27.83525 -16.143588,-27.83551 -0.08527,-2.5e-4 -0.01354,12.52552 0.159409,27.83505 l 0.314448,27.83551 -7.041252,0 -7.041251,0 0,-36.64948 z m 180.55686,32.73982 c -0.81289,-2.18732 -6.43212,-18.71013 -12.48719,-36.71738 l -11.00922,-32.74044 7.84887,0.26622 7.84887,0.26621 7.28143,23.13787 c 4.00479,12.72583 7.75431,25.2516 8.33227,27.83505 1.73816,7.76949 1.96537,7.77294 3.81761,0.058 1.48917,-6.20268 5.75246,-20.16076 14.38222,-47.08763 l 1.41246,-4.40721 7.7828,0 7.78279,0 -12.36791,36.41752 -12.36792,36.41753 -8.38955,0.26559 -8.38956,0.26559 -1.47797,-3.97693 z m 43.959,3.24991 c -0.0111,-0.4026 5.68911,-17.11989 12.66718,-37.14953 l 12.68739,-36.41752 9.46293,0 9.46295,0 9.99872,28.53093 c 5.49929,15.69201 11.39431,32.40854 13.10002,37.14785 l 3.10131,8.61692 -8.45559,-0.26641 -8.45559,-0.26641 -2.46917,-8.35051 -2.46919,-8.35052 -13.59251,-0.25652 -13.59251,-0.25651 -2.63925,8.60703 -2.63924,8.60703 -8.07362,0.26808 c -4.44049,0.14745 -8.08271,-0.0613 -8.09383,-0.46391 z m 44.17251,-31.58252 c -0.27987,-0.89304 -2.40599,-7.86217 -4.72475,-15.48695 -2.31874,-7.62479 -4.3383,-13.98566 -4.48792,-14.13527 -0.1496,-0.14962 -1.39526,3.58369 -2.76812,8.29623 -1.37285,4.71254 -3.50414,11.80409 -4.7362,15.75898 l -2.24009,7.19073 9.73296,0 c 8.84478,0 9.68653,-0.14818 9.22412,-1.62372 z M 4.4864739,124.85337 C 4.5059239,24.554917 4.5849979,19.607272 6.2251449,16.064722 8.3307349,11.516865 12.155723,7.818587 16.73011,5.907757 19.824981,4.614955 51.479139,4.466784 324.56919,4.466784 c 273.09005,0 304.74421,0.148171 307.83908,1.440973 4.57438,1.91083 8.39937,5.609108 10.50496,10.156965 1.64015,3.54255 1.71922,8.490195 1.73867,108.788648 l 0.0204,105.07732 -320.10309,0 -320.1030931,0 0.02038,-105.07732 z M 564.07423,174.7532 c 2.35069,-3.12033 3.75531,-4.15367 5.67537,-4.17526 1.40335,-0.0158 2.55775,0.28445 2.56535,0.66719 0.007,0.38273 1.39432,2.32762 3.08163,4.32197 l 3.06783,3.6261 4.80402,-2.69826 c 2.64222,-1.48405 4.79528,-3.32456 4.78459,-4.09002 -0.0107,-0.76546 -0.8349,-3.18858 -1.83158,-5.38469 -2.38962,-5.26532 -1.24404,-7.26015 4.63349,-8.06852 6.29614,-0.86594 6.63804,-1.2724 6.31646,-7.50914 l -0.28262,-5.48095 -5.25487,-0.83395 c -6.65784,-1.0566 -7.77862,-2.91464 -5.28,-8.75328 0.94625,-2.21112 1.72044,-4.54554 1.72044,-5.18759 0,-0.64206 -2.16378,-2.34504 -4.80839,-3.78443 l -4.8084,-2.61705 -3.77408,4.33281 c -2.21012,2.53732 -4.54306,4.31469 -5.62975,4.28909 -1.09283,-0.0258 -3.10737,-1.74525 -4.90053,-4.18281 -1.67468,-2.27649 -3.39658,-4.13908 -3.82644,-4.13908 -2.05374,0 -9.36321,4.96263 -9.34148,6.34221 0.0134,0.84941 0.78304,3.21449 1.71036,5.25573 2.49125,5.48382 1.28888,7.39955 -5.30053,8.44535 l -5.24859,0.833 0,6.03093 0,6.03093 5.34414,0.80255 c 4.5362,0.68121 5.42813,1.13714 5.89962,3.0157 0.30551,1.21724 -0.11611,3.89161 -0.93694,5.94304 -0.82081,2.05143 -1.49239,4.27749 -1.49239,4.94682 0,1.04299 7.70667,6.08048 9.40195,6.1456 0.32312,0.0124 1.99323,-1.84338 3.71134,-4.12399 z m 0.90636,-14.7771 c -1.2196,-0.67598 -2.77052,-2.2269 -3.4465,-3.4465 -5.78272,-10.43328 9.65134,-19.45398 15.7168,-9.18597 2.4162,4.0903 1.94955,7.21354 -1.60954,10.77263 -3.43198,3.43198 -6.77275,4.0148 -10.66076,1.85984 z m -51.75111,-2.88046 c 1.8148,-8.70535 2.00779,-9.12304 4.6173,-9.99287 2.22725,-0.74242 3.1653,-0.40371 6.8652,2.47885 2.35699,1.83632 4.86111,3.33876 5.56469,3.33876 1.6285,0 9.73134,-7.54112 11.34742,-10.56079 1.12787,-2.10746 0.94771,-2.62765 -2.27011,-6.55456 -3.14587,-3.83912 -3.40937,-4.5647 -2.63651,-7.25955 0.80097,-2.79279 1.25087,-3.06427 6.69152,-4.03767 3.20806,-0.57396 6.23758,-1.44831 6.73227,-1.94301 0.49469,-0.49468 0.77711,-4.3951 0.6276,-8.66759 l -0.27184,-7.76816 -2.7835,-0.68612 c -1.53093,-0.37736 -4.35629,-0.93399 -6.27859,-1.23695 -2.82096,-0.44459 -3.73353,-1.12376 -4.7314,-3.52131 -1.18444,-2.845786 -1.08641,-3.160546 2.33528,-7.498885 1.96439,-2.490625 3.57161,-4.854971 3.57161,-5.254098 0,-1.27556 -11.07203,-12.021606 -12.38629,-12.021606 -0.69541,0 -3.19228,1.472059 -5.5486,3.271241 -3.35131,2.558917 -4.81095,3.139037 -6.7032,2.664112 -2.75006,-0.69022 -3.02818,-1.220554 -4.47049,-8.524622 l -1.04606,-5.297329 -8.27204,-0.270321 c -9.4991,-0.310418 -9.49009,-0.316813 -10.36749,7.36159 -0.49622,4.342545 -0.98285,5.410826 -2.85292,6.262887 -3.27597,1.492631 -3.77183,1.357353 -8.13768,-2.220135 -2.17967,-1.786083 -4.5594,-3.247423 -5.28829,-3.247423 -1.7454,0 -11.93983,10.33161 -11.92824,12.088763 0.005,0.750665 1.46629,3.198089 3.24743,5.43872 1.78112,2.24063 3.23841,4.16157 3.23841,4.26876 0,0.10719 -0.44608,1.47452 -0.99129,3.038506 -0.88758,2.5461 -1.4943,2.90738 -5.79897,3.45299 -8.63412,1.09437 -8.1562,0.4845 -7.85699,10.02619 l 0.26581,8.47669 2.7835,0.68647 c 1.53093,0.37757 4.31258,0.92616 6.18145,1.21909 2.76872,0.43398 3.58673,1.07411 4.41734,3.45683 0.89869,2.578 0.72528,3.34862 -1.46466,6.50871 -1.36623,1.97147 -2.83212,3.79961 -3.25755,4.06253 -0.42542,0.26292 -0.77349,1.11069 -0.77349,1.88392 0,1.8094 10.07404,12.40213 11.79484,12.40213 0.7184,0 3.22004,-1.46134 5.5592,-3.24742 4.75328,-3.62939 4.85475,-3.65738 8.02414,-2.21331 1.86692,0.85062 2.38361,1.94648 2.9121,6.17638 1.00799,8.06769 0.55635,7.73499 10.09498,7.43625 l 8.47041,-0.2653 0.7737,-3.71134 z M 497.95452,132.0049 c -6.98668,-2.18513 -12.85952,-10.21818 -12.85952,-17.58967 0,-7.72663 5.89313,-15.473896 13.43925,-17.667616 12.19326,-3.544674 23.6638,5.090596 23.6638,17.814626 0,12.48166 -12.1516,21.22446 -24.24353,17.44266 z m 66.19867,-32.398836 c 3.96889,-5.39516 6.02078,-5.40229 10.41789,-0.0362 1.88172,2.296386 3.79387,4.175256 4.24921,4.175256 1.609,0 9.25405,-5.104836 9.25405,-6.179206 0,-0.59929 -0.77419,-2.89873 -1.72044,-5.109844 -2.49862,-5.838643 -1.37784,-7.696692 5.28,-8.75329 l 5.25487,-0.833946 0,-6.030928 0,-6.030927 -5.22678,-0.785118 c -6.59133,-0.990087 -7.83173,-2.969478 -5.32234,-8.493233 0.92732,-2.041237 1.69656,-4.337628 1.70942,-5.103092 0.0129,-0.765464 -2.13842,-2.605973 -4.78064,-4.090018 l -4.80402,-2.698266 -3.06783,3.626101 c -1.68731,1.994355 -3.07404,3.939245 -3.08163,4.321976 -0.008,0.382732 -1.26638,0.695877 -2.79731,0.695877 -1.53093,0 -2.79919,-0.313145 -2.81835,-0.695877 -0.0192,-0.382731 -1.42383,-2.318497 -3.12149,-4.301701 l -3.08667,-3.605824 -4.76509,2.59349 c -2.62081,1.426421 -4.7651,3.144973 -4.7651,3.819007 0,0.674035 0.67158,2.90396 1.49239,4.955389 0.82083,2.05143 1.24245,4.725794 0.93694,5.943032 -0.47149,1.878563 -1.36342,2.334494 -5.89962,3.015709 l -5.34414,0.802548 0,6.030927 0,6.030928 5.24859,0.832999 c 6.58941,1.045797 7.79178,2.961531 5.30053,8.445351 -0.92732,2.04124 -1.69697,4.41072 -1.71036,5.26554 -0.0231,1.47359 6.55768,6.039676 8.99266,6.239586 0.62171,0.051 2.50058,-1.76977 4.17526,-4.046256 z m 0.8274,-14.784598 c -6.11773,-3.390796 -6.17995,-12.132299 -0.11187,-15.716803 3.68073,-2.174257 6.84029,-1.923546 10.07653,0.799572 8.61573,7.249658 -0.14269,20.361133 -9.96466,14.917231 z"
     id="path5245" />
  <path
     style="fill:#2f729b"
     d="m 199.31146,499.46677 0,-25.51547 2.31958,0 c 1.85567,0 2.31959,0.46392 2.31959,2.31959 0,1.27577 0.41753,2.31959 0.92784,2.31959 0.51031,0 0.92783,-0.441 0.92783,-0.98001 0,-0.53901 1.92592,-1.83194 4.27982,-2.87317 8.97244,-3.96894 17.66174,0.57715 19.75446,10.33519 0.5595,2.60884 1.01727,5.53729 1.01727,6.50768 0,9.43161 -5.17998,17.03971 -12.33166,18.11217 -4.1621,0.62415 -9.69465,-0.99292 -12.6988,-3.71164 -1.29304,-1.17019 -1.40342,-0.2748 -1.09111,8.84982 l 0.34747,10.15171 -2.88615,0 -2.88614,0 0,-25.51546 z m 22.04449,3.94329 c 2.79655,-2.98533 3.93489,-6.5727 3.93489,-12.40029 0,-8.53257 -3.77804,-13.34713 -10.47364,-13.34713 -7.26608,0 -9.93873,3.7426 -9.93873,13.91753 0,10.40191 2.54222,13.83791 10.27641,13.88931 3.22823,0.0214 4.71405,-0.472 6.20107,-2.05942 z m -150.549647,5.91555 c -10.304107,-2.71704 -15.252168,-9.9267 -15.288901,-22.27697 -0.02487,-8.36392 1.243683,-12.88464 4.839768,-17.24732 5.304978,-6.43585 15.180439,-9.19833 24.295214,-6.79611 4.72992,1.24657 5.69391,2.19184 4.36883,4.28401 -0.63308,0.99956 -1.785,1.016 -6.270761,0.0895 -7.290997,-1.50593 -11.687772,-0.56816 -16.123011,3.43881 -4.335485,3.91685 -5.898581,8.15986 -5.840371,15.85366 0.09521,12.58424 6.995453,19.37432 18.833665,18.53299 3.31701,-0.23573 6.761598,-0.72832 7.654638,-1.09464 1.29101,-0.52956 1.62372,-0.19075 1.62372,1.65355 0,1.27577 -0.66133,2.57337 -1.46962,2.88353 -2.5677,0.98533 -13.732037,1.44135 -16.623171,0.679 z m 35.728277,-0.66676 c -4.97681,-2.15822 -7.350956,-4.92564 -8.952796,-10.43575 -1.61452,-5.55377 -1.16868,-12.54015 1.07745,-16.88369 4.557126,-8.81252 16.542636,-10.75267 24.590746,-3.98063 5.2621,4.42776 6.97554,17.20785 3.26338,24.34071 -3.71181,7.13219 -12.51168,10.19751 -19.97878,6.95936 z m 11.85408,-4.60923 c 3.27871,-2.2965 4.84032,-6.31946 4.84032,-12.46945 0,-9.21493 -3.60532,-13.91753 -10.6701,-13.91753 -7.06478,0 -10.6701,4.7026 -10.6701,13.91753 0,9.21493 3.60532,13.91752 10.6701,13.91752 2.06929,0 4.6927,-0.65163 5.82978,-1.44807 z m 128.08274,4.57729 c -5.4282,-2.25334 -6.3352,-5.27853 -6.3352,-21.13026 l 0,-13.54535 2.31959,0 2.31958,0 0,11.92341 c 0,16.9348 1.27105,19.62298 9.27835,19.62298 8.56883,0 10.20619,-3.11848 10.20619,-19.43846 l 0,-12.10793 2.7835,0 2.78351,0 0,17.62887 0,17.62886 -2.31959,0 c -1.85567,0 -2.31959,-0.46391 -2.31959,-2.31958 0,-1.27578 -0.41752,-2.31959 -0.92783,-2.31959 -0.51031,0 -0.92784,0.43794 -0.92784,0.9732 0,1.41365 -7.41279,4.55773 -10.6701,4.52562 -1.53093,-0.0151 -4.31669,-0.66388 -6.19057,-1.44177 z m 40.36157,0.1574 c -1.61833,-0.70396 -3.39282,-2.12152 -3.9433,-3.15011 -0.57989,-1.08353 -1.00089,-7.3597 -1.00089,-14.92087 l 0,-13.05069 -2.78351,0 c -3.54719,0 -3.56202,-1.40543 -0.034,-3.22979 1.94474,-1.00566 3.0414,-2.50616 3.74711,-5.12692 1.41775,-5.2653 3.70962,-4.97485 3.70962,0.47012 l 0,4.17525 5.10309,0 c 4.48454,0 5.1031,0.22493 5.1031,1.85567 0,1.63075 -0.61856,1.85567 -5.1031,1.85567 l -5.10309,0 0,11.85541 c 0,14.11711 0.76315,15.97964 6.54745,15.97964 2.96465,0 3.65874,0.33151 3.65874,1.74746 0,2.89384 -5.00006,3.67111 -9.90117,1.53916 z m 26.30882,0.008 c -6.44989,-2.30032 -9.38373,-6.28322 -10.42823,-14.15701 -0.88759,-6.69095 1.4454,-14.11229 5.57665,-17.73958 6.98665,-6.13436 17.83564,-4.27023 21.70853,3.73009 1.09622,2.26449 1.99313,5.65553 1.99313,7.53565 l 0,3.4184 -12.06186,0 -12.06185,0 0,2.41133 c 0,3.79944 2.77382,8.67004 5.84089,10.25607 2.84088,1.46908 11.24375,1.40556 14.80344,-0.1119 1.2968,-0.55282 1.62371,-0.22737 1.62371,1.61654 0,1.95752 -0.62702,2.46659 -4.12221,3.34669 -5.3019,1.33502 -8.48229,1.25936 -12.8722,-0.30628 z m 13.28307,-22.82558 c 0,-2.62758 -2.40338,-7.0322 -4.21683,-7.72808 -3.27615,-1.25717 -8.77012,-0.5791 -10.66558,1.31636 -1.80536,1.80536 -3.67429,5.5928 -3.67429,7.44604 0,0.48019 4.14206,0.86743 9.27835,0.86743 8.73472,0 9.27835,-0.11143 9.27835,-1.90175 z m -188.35052,5.61309 0,-17.62887 2.31959,0 c 1.85567,0 2.31959,0.46392 2.31959,2.31959 0,2.86078 0.23917,2.86921 3.2128,0.11334 4.47551,-4.14775 12.49005,-4.10589 16.6831,0.0871 l 2.3243,2.3243 2.81184,-2.36601 c 3.70657,-3.11887 9.74509,-4.01959 14.27073,-2.12866 5.24554,2.19173 6.16115,5.37563 6.16115,21.42461 l 0,13.48343 -2.25274,0 -2.25275,0 -0.2988,-13.82304 c -0.26015,-12.0351 -0.52743,-14.07529 -2.06632,-15.7732 -2.56231,-2.82707 -8.87742,-2.68015 -12.33024,0.28686 -2.60098,2.23505 -2.60355,2.24898 -2.90368,15.7732 l -0.30042,13.53618 -2.25113,0 -2.25114,0 -0.0222,-10.90206 c -0.0351,-17.2986 -1.42516,-20.64433 -8.57708,-20.64433 -2.74777,0 -4.2505,0.64513 -6.31751,2.71214 l -2.7121,2.71213 0,13.06106 0,13.06106 -2.7835,0 -2.78351,0 0,-17.62886 z"
     id="path5243" />
</svg>
