<?xml version="1.0" encoding="UTF-8" standalone="no"?>
<svg
   xmlns:dc="http://purl.org/dc/elements/1.1/"
   xmlns:cc="http://creativecommons.org/ns#"
   xmlns:rdf="http://www.w3.org/1999/02/22-rdf-syntax-ns#"
   xmlns:svg="http://www.w3.org/2000/svg"
   xmlns="http://www.w3.org/2000/svg"
   viewBox="0 0 653.93164 728.13733"
   height="728.13733"
   width="653.93164"
   version="1.1"
   id="svg5320">
  <metadata
     id="metadata5326">
    <rdf:RDF>
      <cc:Work
         rdf:about="">
        <dc:format>image/svg+xml</dc:format>
        <dc:type
           rdf:resource="http://purl.org/dc/dcmitype/StillImage" />
        <dc:title></dc:title>
      </cc:Work>
    </rdf:RDF>
  </metadata>
  <defs
     id="defs5324" />
  <path
     style="fill:#d2dde7"
     d="M 16.064028,726.43358 C 10.355664,723.81304 2.0283127,715.27889 0.82722975,710.8184 c -0.721733,-2.6803 -0.942464,-102.93171 -0.773235,-351.18742 L 0.29083175,12.194665 2.8273217,8.5626834 c 1.395069,-1.99759 4.078379,-4.675796 5.962909,-5.951569 L 12.216652,0.29152639 322.5261,0.05411639 c 221.59904,-0.16954 311.38242,0.05151 314.0627,0.773234 4.46266,1.20167001 12.99604,9.52745561 15.6173,15.23737061 1.64334,3.579723 1.70449,15.993912 1.72415,350.055569 0.0183,311.05003 -0.12646,346.69575 -1.4206,349.7938 -1.91083,4.57439 -5.60911,8.39938 -10.15696,10.50497 -3.58899,1.66164 -13.91219,1.71829 -313.14433,1.71829 -298.271135,0 -309.566867,-0.0614 -313.144332,-1.70377 z m 620.831652,-9.03997 c 1.74568,-0.82837 4.10518,-2.81162 5.24332,-4.40722 l 2.06936,-2.90107 0.23722,-240.07731 0.23722,-240.07731 -320.11362,0 -320.1136123,0 0.237219,240.07731 0.237221,240.07731 2.058108,2.88528 c 1.131958,1.58691 3.4283503,3.56064 5.1030923,4.38609 2.786289,1.37331 29.321918,1.5026 312.337752,1.52194 283.47226,0.0194 309.55773,-0.10462 312.46672,-1.48502 z M 139.00217,523.1849 c 0,-2.56914 0.17669,-2.6965 3.08595,-2.22439 5.98431,0.97111 6.1924,0.15307 6.1924,-24.34352 l 0,-21.73785 2.78351,0 2.7835,0 0,22.80333 0,22.80334 -2.71213,2.71212 c -2.28534,2.28535 -3.4534,2.71214 -7.42268,2.71214 -4.59298,0 -4.71055,-0.068 -4.71055,-2.72517 z m 297.84796,1.10002 c -6.31672,-3.16815 -7.42786,-9.86651 -2.42012,-14.58943 2.24837,-2.12047 2.92155,-3.35642 2.3338,-4.2848 -1.35607,-2.14202 -0.97088,-5.08169 0.993,-7.57837 1.51883,-1.93087 1.60997,-2.43972 0.51242,-2.86089 -4.55385,-1.74748 -5.38942,-12.61203 -1.30751,-17.00107 3.4363,-3.69488 5.82217,-4.1629 17.68413,-3.46908 9.82749,0.57483 10.95426,0.8181 10.95426,2.36497 0,1.16532 -0.6767,1.72884 -2.08763,1.73844 -3.0681,0.0209 -4.47603,1.16281 -3.44461,2.79378 1.37801,2.17903 1.03063,7.34291 -0.68988,10.25551 -1.97576,3.34469 -6.37539,5.4932 -11.24874,5.4932 -4.01566,0 -6.65285,1.82236 -6.65285,4.59724 0,2.098 2.48817,2.79645 10.0203,2.81278 9.05489,0.0197 13.17557,2.92074 13.17557,9.27609 0,4.56113 -2.48299,8.31895 -6.78833,10.27364 -5.19908,2.36046 -16.49182,2.45602 -21.03381,0.17799 z m 18.18167,-4.51626 c 3.42123,-1.62349 4.99798,-5.17203 3.41595,-7.68777 -0.7221,-1.14828 -2.88484,-1.54116 -9.64694,-1.75246 -7.97998,-0.24935 -8.85331,-0.10352 -10.33988,1.7265 -2.1312,2.6236 -2.05396,5.07437 0.23196,7.36029 2.37637,2.37638 11.653,2.57704 16.33891,0.35344 z m -1.75006,-28.38886 c 2.82916,-2.27761 2.16846,-9.93544 -1.04218,-12.07924 -2.02815,-1.35423 -8.58003,-0.75649 -10.01441,0.91363 -3.52964,4.10973 -2.54933,10.54157 1.85498,12.17055 2.68413,0.99274 7.35364,0.48278 9.20161,-1.00494 z M 65.834758,509.06167 c -7.889993,-3.90543 -11.902433,-12.99329 -11.042598,-25.01061 0.584603,-8.1706 3.592345,-14.20952 8.95404,-17.97786 3.722877,-2.61653 4.511839,-2.79199 12.554401,-2.79199 7.881868,0 8.886738,0.21126 12.319358,2.59007 2.10776,1.46068 4.90523,4.69732 6.41552,7.42268 2.4251,4.37617 2.67803,5.66513 2.67803,13.64704 0,7.95239 -0.25813,9.28011 -2.63938,13.57602 -4.24915,7.66569 -9.58823,10.54825 -19.535151,10.54696 -3.928686,-5.1e-4 -6.897686,-0.61312 -9.70422,-2.00231 z m 19.075981,-5.38208 c 4.92325,-3.00188 6.30793,-6.67625 6.30793,-16.73859 0,-7.63489 -0.29135,-9.28306 -2.1772,-12.31631 -2.7982,-4.50069 -6.25636,-6.24039 -12.404602,-6.24039 -10.736416,0 -15.108921,5.50455 -15.108921,19.02062 0,7.14295 0.314155,8.8558 2.172458,11.84471 1.194852,1.92181 3.28248,4.0971 4.639175,4.83398 3.716914,2.01883 12.967444,1.7933 16.57116,-0.40402 z m 31.581061,5.52945 c -4.14882,-2.22363 -4.39684,-2.24981 -4.39684,-0.46392 0,0.86598 -0.87629,1.39175 -2.31959,1.39175 l -2.31959,0 0,-25.05154 0,-25.05155 2.78351,0 2.7835,0 0,9.44008 0,9.44009 2.3323,-2.19108 c 1.75835,-1.65189 3.68634,-2.28901 7.83468,-2.58908 7.01387,-0.50734 11.07758,1.75658 14.00397,7.80169 1.73486,3.58377 1.97465,5.34448 1.62778,11.95302 -0.32841,6.25725 -0.84169,8.38911 -2.66461,11.06719 -4.14661,6.09188 -12.75921,7.9547 -19.66511,4.25335 z m 10.80759,-3.67148 c 4.53487,-1.72415 7.08333,-10.77905 5.21989,-18.54674 -1.46058,-6.0884 -3.66525,-7.93642 -9.46805,-7.93642 -3.85274,0 -4.97515,0.41045 -6.74315,2.46587 -3.6814,4.27988 -4.13221,15.79713 -0.82245,21.01187 2.23504,3.52145 7.16066,4.77453 11.81376,3.00542 z m 46.03268,4.85769 c -6.56239,-2.46588 -10.15513,-8.78752 -10.18581,-17.9226 -0.0249,-7.40656 2.61851,-13.30143 7.4023,-16.5075 4.51055,-3.02295 13.57605,-2.59569 17.22314,0.81173 3.36478,3.14366 4.83388,6.27161 5.57715,11.87469 l 0.63466,4.78427 -12.70784,0 c -12.26475,0 -12.68947,0.0647 -12.18138,1.85567 0.28954,1.02062 0.78459,2.79511 1.1001,3.9433 1.80667,6.57471 10.26991,8.59266 20.14483,4.8033 1.23595,-0.47428 1.54955,-0.0296 1.54955,2.19739 0,2.29744 -0.51758,2.97243 -2.92196,3.8106 -3.01064,1.04952 -13.16725,1.27632 -15.63474,0.34915 z m 13.91753,-22.55622 c 0,-2.82061 -2.94619,-7.50065 -5.28053,-8.38817 -5.57201,-2.11847 -12.34834,1.80592 -12.34834,7.15135 0,2.15339 0.16495,2.19446 8.81443,2.19446 5.4406,0 8.81444,-0.36655 8.81444,-0.95764 z m 20.31762,21.13056 c -9.54434,-6.34271 -9.89749,-25.81929 -0.59114,-32.60104 3.00394,-2.18904 12.72915,-3.12216 16.67228,-1.5997 2.14876,0.82966 2.41064,1.29902 1.72719,3.09566 -0.507,1.33283 -1.44573,2.02342 -2.53277,1.86328 -0.94997,-0.13995 -3.79492,-0.2925 -6.32213,-0.33902 -3.98212,-0.0733 -4.92458,0.28439 -7.06676,2.6819 -4.56506,5.10917 -4.38398,16.61755 0.33572,21.33725 2.45183,2.45182 7.11423,3.11231 12.48576,1.76875 2.89327,-0.72369 3.01546,-0.64284 3.01546,1.99476 0,3.23431 -1.51478,3.86145 -9.3731,3.88061 -3.86151,0.009 -6.00837,-0.52597 -8.35051,-2.08245 z m 30.39441,1.06665 c -3.24505,-1.92867 -4.32028,-6.63006 -4.32028,-18.89018 l 0,-11.62774 -2.31959,0 c -3.25894,0 -3.0135,-2.84597 0.41359,-4.79573 1.91644,-1.09031 2.90585,-2.53123 3.34482,-4.87113 0.5085,-2.71054 1.03177,-3.32283 2.83969,-3.32283 2.00821,0 2.21633,0.39208 2.21633,4.17526 l 0,4.17525 5.16763,0 c 4.82831,0 5.14815,0.13708 4.87113,2.08763 -0.2583,1.81871 -0.92398,2.12376 -5.16762,2.36808 l -4.87114,0.28045 0,11.94709 c 0,13.98451 0.64902,15.39377 6.71481,14.58018 3.45048,-0.4628 3.5872,-0.38078 3.31323,1.98775 -0.26707,2.30886 -0.61959,2.48526 -5.38886,2.69655 -2.8067,0.12435 -5.87288,-0.23144 -6.81374,-0.79063 z m 35.34467,-0.0499 c -2.01791,-0.73699 -2.55155,-1.52052 -2.55155,-3.7463 0,-2.49313 0.23831,-2.74002 2.08763,-2.16287 1.14819,0.35834 5.42783,0.86797 9.51031,1.13251 6.63749,0.43012 7.69259,0.26738 9.97422,-1.53848 2.81225,-2.22583 3.47893,-6.80237 1.39176,-9.55398 -0.63789,-0.84096 -4.70877,-3.16216 -9.04639,-5.15824 -9.7559,-4.48944 -12.20063,-6.96859 -12.71071,-12.88973 -0.71938,-8.35047 4.89919,-13.25654 15.17052,-13.24675 10.1578,0.01 14.17329,2.2302 11.54314,6.38321 -0.65335,1.03164 -1.41031,1.07741 -3.83559,0.23196 -4.37545,-1.5253 -12.16189,-1.31675 -14.60009,0.39103 -1.527,1.06956 -2.06212,2.37632 -2.06212,5.03575 0,4.29817 1.99524,6.16989 9.9497,9.33371 6.91255,2.74942 10.15785,5.02908 11.86842,8.33696 3.1509,6.09316 0.56304,13.30283 -5.97156,16.63653 -2.84914,1.45353 -5.38904,1.87609 -10.93846,1.81984 -3.97523,-0.0403 -8.37588,-0.4926 -9.77923,-1.00515 z m 40.7378,0.0499 c -3.24505,-1.92867 -4.32028,-6.63006 -4.32028,-18.89018 l 0,-11.62774 -2.31959,0 c -3.25893,0 -3.01349,-2.84597 0.4136,-4.79573 1.91643,-1.09031 2.90585,-2.53123 3.34481,-4.87113 0.5085,-2.71054 1.03177,-3.32283 2.8397,-3.32283 2.0082,0 2.21633,0.39208 2.21633,4.17526 l 0,4.17525 5.16762,0 c 4.82832,0 5.14816,0.13708 4.87113,2.08763 -0.2583,1.81871 -0.92398,2.12376 -5.16762,2.36808 l -4.87113,0.28045 0,11.94709 c 0,13.98451 0.64902,15.39377 6.7148,14.58018 3.45048,-0.4628 3.5872,-0.38078 3.31323,1.98775 -0.26707,2.30886 -0.61958,2.48526 -5.38886,2.69655 -2.8067,0.12435 -5.87288,-0.23144 -6.81374,-0.79063 z m 25.50891,-0.49416 c -5.2897,-2.69374 -7.97868,-7.88142 -8.31336,-16.03839 -0.24172,-5.89148 0.0581,-7.69234 1.85567,-11.14755 3.2978,-6.33875 6.13091,-7.94091 14.0419,-7.94091 5.54369,0 7.18184,0.37306 9.78235,2.22779 8.94201,6.37761 8.87162,25.45343 -0.11811,32.00445 -3.53391,2.57524 -12.98555,3.06546 -17.24845,0.89461 z m 11.60053,-4.07086 c 6.91586,-2.41089 9.04351,-16.49563 3.48901,-23.09678 -4.32538,-5.14041 -12.89171,-4.5122 -15.87825,1.16446 -2.21713,4.2142 -2.11371,14.10741 0.18818,18.00226 2.55227,4.31849 6.98811,5.7473 12.20106,3.93006 z m 50.74972,4.50204 c -5.47135,-2.64782 -6.54656,-13.0812 -1.77137,-17.18865 3.00507,-2.58485 7.96738,-3.97614 14.20533,-3.98276 l 4.87114,-0.005 0,-3.24742 c 0,-6.30115 -4.8966,-8.42243 -12.91295,-5.59409 -3.74151,1.32008 -3.89376,1.29734 -4.65889,-0.69587 -0.93806,-2.44371 -0.5827,-2.86819 3.5608,-4.25352 4.95398,-1.65628 12.19775,-1.30455 15.57781,0.75641 4.05063,2.46984 4.91669,6.28364 4.9229,21.67859 l 0.006,12.81936 -2.51485,-0.29359 c -1.79632,-0.2097 -2.67164,-0.95632 -3.06364,-2.61317 -0.45627,-1.9286 -0.69704,-2.07555 -1.42843,-0.87183 -2.54289,4.18505 -11.5083,6.0492 -16.79302,3.49172 z m 12.53136,-4.86989 c 2.99754,-1.55009 4.77374,-4.9761 4.77374,-9.2078 l 0,-3.01996 -6.06086,0.62733 c -7.03037,0.72766 -9.71234,2.58621 -9.71234,6.73045 0,5.53746 5.23048,7.85324 10.99946,4.86998 z m 66.01085,5.29188 c -6.56239,-2.46588 -10.15513,-8.78752 -10.18581,-17.9226 -0.0249,-7.40656 2.61851,-13.30143 7.40231,-16.5075 4.51054,-3.02295 13.57604,-2.59569 17.22313,0.81173 3.36478,3.14366 4.83388,6.27161 5.57715,11.87469 l 0.63466,4.78427 -12.70784,0 c -12.26475,0 -12.68947,0.0647 -12.18138,1.85567 0.28955,1.02062 0.78459,2.79511 1.1001,3.9433 1.80667,6.57471 10.26991,8.59266 20.14483,4.8033 1.23595,-0.47428 1.54955,-0.0296 1.54955,2.19739 0,2.29744 -0.51758,2.97243 -2.92196,3.8106 -3.01063,1.04952 -13.16725,1.27632 -15.63474,0.34915 z M 494.363,487.83903 c 0,-2.82061 -2.94619,-7.50065 -5.28053,-8.38817 -5.57201,-2.11847 -12.34834,1.80592 -12.34834,7.15135 0,2.15339 0.16495,2.19446 8.81443,2.19446 5.4406,0 8.81444,-0.36655 8.81444,-0.95764 z m -121.5464,4.66898 0,-17.62887 2.21901,0 c 1.60951,0 2.38346,0.65526 2.81776,2.38563 l 0.59875,2.38563 3.24545,-2.84954 c 2.58635,-2.27084 4.08685,-2.84955 7.38844,-2.84955 3.98474,0 4.14297,0.1063 4.14297,2.7835 0,2.65896 -0.17758,2.78351 -3.96881,2.78351 -8.43769,0 -10.87655,4.46637 -10.87655,19.91865 l 0,10.6999 -2.78351,0 -2.78351,0 0,-17.62886 z m -224.55888,-24.6151 c -1.63865,-1.97446 0.2447,-6.00346 2.80631,-6.00346 2.56161,0 4.44496,4.029 2.80631,6.00346 -0.64782,0.78057 -1.91066,1.41922 -2.80631,1.41922 -0.89565,0 -2.15849,-0.63865 -2.80631,-1.41922 z M 66.167121,421.36153 c -1.020619,-0.22867 -3.838918,-1.04884 -6.262887,-1.82261 l -4.407216,-1.40684 0,-7.77907 0,-7.77906 4.407216,1.88953 c 11.10725,4.76204 22.474545,5.49266 26.278215,1.68899 2.49097,-2.49097 2.34175,-7.44214 -0.29883,-9.91592 -1.1482,-1.07566 -5.774784,-3.86689 -10.281307,-6.20273 -11.033454,-5.71893 -14.023953,-8.16697 -16.812517,-13.7629 -5.884555,-11.80876 -0.554953,-24.47035 12.218393,-29.02736 5.883713,-2.09908 16.771871,-1.65672 25.265681,1.02647 4.108811,1.29797 7.470571,2.47857 7.470571,2.62354 0,0.37097 -4.776961,12.13037 -5.043611,12.41581 -0.12041,0.1289 -2.68821,-0.63056 -5.70621,-1.6877 -3.01802,-1.05714 -7.86213,-1.99042 -10.76471,-2.07396 -4.420101,-0.12721 -5.663594,0.21091 -7.654637,2.0814 -2.855941,2.68302 -3.123889,6.73016 -0.611894,9.24216 0.970931,0.97093 5.668095,3.77755 10.438141,6.23692 9.59392,4.94651 16.174701,10.37898 18.088141,14.93187 1.79512,4.27135 1.5453,12.98598 -0.50143,17.49234 -2.204891,4.85455 -7.687671,9.3641 -13.489511,11.09503 -4.26982,1.27387 -17.919659,1.72257 -22.331598,0.73409 z m 184.828289,0.0469 c -0.35917,-0.35918 -0.65303,-17.07571 -0.65303,-37.14788 l 0,-36.49485 21.84652,0 21.84651,0 -0.27435,6.26289 -0.27435,6.26289 -13.22165,0.25743 -13.22165,0.25743 0,9.22595 0,9.22594 12.29381,0.25889 12.29382,0.25889 0.27435,6.26289 0.27435,6.26289 -12.54461,0 -12.5446,0 -0.25552,14.6134 -0.25552,14.6134 -7.46553,0.26643 c -4.10605,0.14653 -7.7594,-0.0275 -8.11855,-0.3866 z m -133.75512,-36.2668 c -5.01943,-19.79127 -9.32555,-36.52302 -9.56914,-37.18169 -0.34521,-0.93344 1.36062,-1.13808 7.73403,-0.92783 l 8.17694,0.26974 5.35959,22.73195 c 2.94778,12.50258 5.63604,24.71521 5.9739,27.13918 0.6068,4.35351 2.23089,6.18286 2.23089,2.51284 0,-1.50904 10.62254,-44.60199 12.63585,-51.26051 0.43798,-1.44845 1.4679,-1.62584 8.08036,-1.39175 l 7.57841,0.26829 4.86827,18.5567 c 2.67754,10.20618 5.84345,23.14948 7.03535,28.76288 l 2.16709,10.20619 0.65955,-4.91741 c 0.36276,-2.70457 3.14757,-15.56157 6.18848,-28.57111 3.0409,-13.00956 5.52891,-23.84441 5.52891,-24.07746 0,-0.23305 3.54897,-0.42373 7.8866,-0.42373 4.33763,0 7.8866,0.27963 7.8866,0.62141 0,0.66217 -16.02308,64.25803 -17.66837,70.12601 l -0.97556,3.47938 -9.10109,0 -9.10109,0 -5.63901,-22.03608 c -3.10147,-12.11985 -6.0213,-23.91495 -6.48853,-26.21134 -0.8358,-4.10791 -0.86024,-4.13036 -1.51574,-1.39175 -0.36643,1.53093 -3.2807,13.22165 -6.47615,25.97938 l -5.80991,23.19587 -9.26,0.26247 -9.25999,0.26246 -9.12624,-35.98411 z m 99.70003,-1.19032 0,-37.1134 7.88659,0 7.8866,0 0,37.1134 0,37.1134 -7.8866,0 -7.88659,0 0,-37.1134 z m 102.98969,6.49485 0,-30.61856 -9.74227,0 -9.74227,0 0,-6.49485 0,-6.49484 27.83505,0 27.83505,0 0,6.49484 0,6.49485 -9.74226,0 -9.74227,0 0,30.61856 0,30.61855 -8.35052,0 -8.35051,0 0,-30.61855 z m 154.94845,-214.32989 0,-4.63918 47.31959,0 47.31958,0 0,4.63918 0,4.63917 13.91753,0 13.91753,0 0,-13.91753 0,-13.91752 -4.63918,0 -4.63917,0 0,-37.57732 0,-37.577319 4.63917,0 4.63918,0 0,-13.917526 0,-13.917525 -13.91753,0 -13.91753,0 0,4.639175 0,4.639175 -47.31958,0 -47.31959,0 0,-4.639175 0,-4.639175 -13.45361,0 -13.45361,0 0,13.917525 0,13.917526 4.63918,0 4.63917,0 0,37.577319 0,37.57732 -4.63917,0 -4.63918,0 0,13.91752 0,13.91753 13.45361,0 13.45361,0 0,-4.63917 z m -18.5567,-9.27836 0,-4.63917 5.10309,0 5.10309,0 0,4.63917 0,4.63918 -5.10309,0 -5.10309,0 0,-4.63918 z m 121.54639,0 0,-4.63917 5.56701,0 5.56701,0 0,4.63917 0,4.63918 -5.56701,0 -5.56701,0 0,-4.63918 z m -102.98969,-9.27835 0,-4.63917 -4.63918,0 -4.63917,0 0,-37.57732 0,-37.577319 4.63917,0 4.63918,0 0,-4.639176 0,-4.639175 47.31959,0 47.31958,0 0,4.639175 0,4.639176 4.63918,0 4.63918,0 0,37.577319 0,37.57732 -4.63918,0 -4.63918,0 0,4.63917 0,4.63918 -47.31958,0 -47.31959,0 0,-4.63918 z m 94.63917,-32.45005 0,-27.810892 -14.14948,-0.25612 -14.14948,-0.25613 -0.26442,-9.51031 -0.26442,-9.510307 -32.44176,0 -32.44177,0 0,27.810879 0,27.81089 14.14948,0.25612 14.14948,0.25613 0.26442,9.51031 0.26442,9.51031 32.44176,0 32.44177,0 0,-27.81088 z m -56.59793,13.42944 0,-5.1031 13.91752,0 13.91753,0 0,-13.91752 0,-13.91753 9.74227,0 9.74226,0 0,19.02062 0,19.02062 -23.65979,0 -23.65979,0 0,-5.10309 z m -27.83505,-32.47423 0,-19.020622 23.65979,0 23.65979,0 0,19.020622 0,19.02062 -23.65979,0 -23.65979,0 0,-19.02062 z m -28.76289,-42.216495 0,-4.639175 5.10309,0 5.10309,0 0,4.639175 0,4.639175 -5.10309,0 -5.10309,0 0,-4.639175 z m 121.54639,0 0,-4.639175 5.56701,0 5.56701,0 0,4.639175 0,4.639175 -5.56701,0 -5.56701,0 0,-4.639175 z M 9.3871797,10.149978 C 10.5079,8.9308204 13.094956,7.1625244 15.136193,6.2204324 17.244259,5.2474964 18.106472,4.4987354 17.132086,4.4871614 11.875975,4.4247274 5.8141517,9.9963884 4.8733217,15.754678 l -0.505446,3.093548 1.490816,-3.240797 c 0.819948,-1.782439 2.407768,-4.238291 3.528488,-5.457451 z M 643.22709,12.371836 c -1.87313,-3.9473266 -5.60922,-6.7998296 -9.84271,-7.5148996 l -3.09355,-0.522524 3.74973,1.789826 c 4.27422,2.04018 8.46951,6.5977726 9.42963,10.2439516 0.46393,1.76183 0.7502,2.020453 0.98852,0.893053 0.18452,-0.872842 -0.36971,-3.073074 -1.23162,-4.889407 z"
     id="path5336" />
  <path
     style="fill:#238dc5"
     d="m 140.16197,525.29558 c -0.63789,-0.25739 -1.1598,-1.26825 -1.1598,-2.24633 0,-1.44059 0.66966,-1.77836 3.52578,-1.77836 1.93917,0 4.0268,-0.50103 4.63917,-1.1134 0.80361,-0.8036 1.1134,-7.25773 1.1134,-23.19587 l 0,-22.08248 2.78351,0 2.7835,0 0,21.20176 c 0,13.12408 -0.39182,22.32572 -1.02843,24.1519 -1.52536,4.37566 -7.97076,6.95378 -12.65713,5.06278 z m 298.94372,-0.31703 c -6.74691,-2.10286 -9.38801,-9.76226 -4.98302,-14.45115 1.16061,-1.23541 2.6637,-2.2462 3.3402,-2.2462 1.44408,0 1.63866,-1.4936 0.30219,-2.31958 -1.64266,-1.01522 -1.04177,-6.56805 0.90101,-8.32624 1.81326,-1.64098 1.80958,-1.67023 -0.43196,-3.43343 -2.85914,-2.249 -4.23208,-7.09313 -3.24757,-11.45836 1.63499,-7.24928 5.79046,-8.93803 20.01191,-8.13267 8.59507,0.48673 9.67382,0.73916 9.67382,2.26369 0,1.30127 -0.69687,1.71587 -2.88409,1.71587 -2.70944,0 -2.83869,0.15451 -2.13447,2.55155 2.73243,9.3007 -2.51541,16.00515 -12.52789,16.00515 -4.38759,0 -7.12665,2.80679 -5.57265,5.71047 0.76065,1.42128 2.05381,1.71246 7.61051,1.71365 10.8839,0.003 16.22279,3.96872 14.98489,11.13258 -1.08579,6.28363 -5.83267,9.26703 -15.58954,9.79799 -3.6403,0.19809 -7.8943,-0.0374 -9.45334,-0.52332 z m 17.21607,-5.44182 c 1.59524,-1.16748 2.40954,-2.75586 2.60765,-5.08644 0.24896,-2.92878 -0.0427,-3.51459 -2.14803,-4.31505 -1.33985,-0.50941 -5.27529,-0.9262 -8.74541,-0.9262 -4.97804,0 -6.82516,0.40576 -8.75403,1.92301 -4.18757,3.29394 -2.73872,8.98898 2.65838,10.4494 3.38781,0.91673 12.00999,-0.30915 14.38144,-2.04472 z m -3.37255,-28.0239 c 3.35025,-2.63531 3.43226,-8.30782 0.1673,-11.57276 -5.00356,-5.00357 -13.49578,-1.47399 -13.49578,5.60918 0,6.83844 7.78694,10.32256 13.32848,5.96358 z M 67.845367,509.54056 c -4.891006,-1.73269 -10.052686,-7.36762 -11.516839,-12.57275 -1.441585,-5.12489 -1.441585,-14.92873 0,-20.05362 4.020971,-14.29473 24.067686,-18.91507 34.945131,-8.05411 6.02374,6.01461 8.06926,17.22168 5.07273,27.79261 -3.22517,11.3775 -16.20134,17.24519 -28.501022,12.88787 z m 14.820632,-4.3872 c 3.6262,-1.5451 6.67511,-4.73472 8.09645,-8.47009 1.36637,-3.59089 1.36812,-15.88691 0.003,-19.48454 -4.80742,-12.66741 -24.61613,-12.59658 -28.807369,0.103 -1.366602,4.14084 -1.347849,15.74424 0.03132,19.38351 3.050652,8.04986 12.538767,11.93569 20.676809,8.46812 z m 35.339311,4.62627 c -1.59725,-0.72335 -3.1876,-1.77394 -3.53414,-2.33464 -0.97154,-1.57198 -2.10936,-1.21227 -2.64505,0.83621 -0.29034,1.11025 -1.26558,1.85567 -2.4278,1.85567 -1.92353,0 -1.94254,-0.24515 -1.94254,-25.05154 l 0,-25.05155 2.78351,0 2.7835,0 0,9.30613 0,9.30612 2.86124,-2.1154 c 3.92928,-2.90504 12.52935,-2.99079 16.3233,-0.16275 4.73041,3.52608 6.30626,7.43505 6.31923,15.67516 0.0132,8.34517 -1.87354,13.39288 -6.18208,16.5398 -3.16913,2.31471 -10.51656,2.92795 -14.33917,1.19679 z m 10.68224,-4.86711 c 5.80735,-4.06763 6.57477,-18.67482 1.26033,-23.98927 -1.78959,-1.78958 -3.28972,-2.33277 -6.44251,-2.33277 -5.2987,0 -7.54546,1.2614 -9.16938,5.14798 -1.56672,3.74969 -1.72097,12.88992 -0.28696,17.00354 1.80044,5.16471 9.91748,7.47726 14.63852,4.17052 z m 44.97075,5.13858 c -10.39324,-3.01088 -14.0414,-21.23137 -6.13286,-30.63013 9.00349,-10.70005 25.22693,-4.53335 25.2759,9.60766 l 0.0153,4.40721 -12.06186,0 c -13.5457,0 -13.74102,0.12713 -10.53263,6.85522 2.79773,5.8669 9.75719,7.51192 19.66053,4.64721 1.88998,-0.54672 2.12879,-0.34213 1.85567,1.5897 -0.5377,3.80313 -10.4476,5.7342 -18.08002,3.52313 z M 187.2496,486.88 c 0,-7.57074 -9.02087,-11.06871 -14.79761,-5.73797 -1.52077,1.40335 -3.03396,3.69974 -3.36264,5.10309 l -0.59763,2.55155 9.37894,0 c 8.85988,0 9.37894,-0.10608 9.37894,-1.91667 z m 21.3586,22.09708 c -5.7499,-2.93766 -7.905,-7.42752 -7.905,-16.46907 0,-5.67388 0.41701,-7.68685 2.25844,-10.90198 3.15581,-5.51002 8.60519,-8.08589 15.58269,-7.36574 5.85719,0.60451 7.18962,1.4924 6.32547,4.21509 -0.50973,1.60599 -0.97364,1.76735 -2.93608,1.02123 -6.36634,-2.42047 -13.3165,0.36681 -15.20834,6.09915 -0.62034,1.87966 -0.94948,5.88407 -0.73142,8.89871 0.68811,9.51313 5.54645,13.23362 14.80443,11.33714 4.57831,-0.93785 4.58604,-0.9353 4.30753,1.42421 -0.49225,4.17038 -9.81686,5.15455 -16.49772,1.74126 z m 31.03186,1.20478 c -4.074,-1.65137 -4.58622,-3.42718 -5.07088,-17.58011 l -0.46391,-13.54735 -2.55155,-0.29358 c -3.27185,-0.37647 -3.24702,-1.61872 0.0666,-3.33226 1.76904,-0.91481 2.98478,-2.57756 3.74858,-5.12692 1.58565,-5.29244 3.83944,-5.05633 3.83944,0.40225 l 0,4.17525 5.10309,0 c 4.43889,0 5.10309,0.23522 5.10309,1.80718 0,1.52593 -0.75811,1.85083 -4.87113,2.08763 l -4.87113,0.28045 -0.26147,11.48381 c -0.31581,13.8707 0.48562,15.88732 6.31378,15.88732 3.00188,0 3.68995,0.32752 3.68995,1.7564 0,2.74747 -5.27003,3.82576 -9.77448,1.99993 z m 38.07345,0.48339 c -0.51031,-0.20133 -2.07603,-0.61929 -3.47938,-0.92881 -2.05102,-0.45236 -2.55155,-1.07866 -2.55155,-3.19267 l 0,-2.62991 4.84138,1.25584 c 9.82958,2.54976 17.1159,0.60932 18.69175,-4.97784 1.31988,-4.67961 -0.99678,-7.18946 -10.86269,-11.76854 -9.70461,-4.50422 -11.88005,-6.90622 -11.97554,-13.22272 -0.10843,-7.1724 4.73533,-11.46952 13.68655,-12.14195 4.81071,-0.36138 12.63392,1.44103 13.13604,3.02644 0.15807,0.49911 -0.0505,1.44052 -0.46349,2.09205 -0.59802,0.94346 -2.05874,0.96841 -7.17563,0.12259 -7.41684,-1.22601 -10.54133,-0.42793 -12.99692,3.31978 -1.19843,1.82902 -1.37162,3.09133 -0.73769,5.37647 0.8543,3.07948 2.73101,4.29803 15.03022,9.75912 5.52482,2.45313 7.58891,5.54364 7.58891,11.36265 0,7.95727 -5.12797,12.06355 -15.74063,12.60449 -3.33492,0.16998 -6.48102,0.14434 -6.99133,-0.057 z m 38.00903,-0.48339 c -4.07401,-1.65137 -4.58623,-3.42718 -5.07088,-17.58011 l -0.46392,-13.54735 -2.55155,-0.29358 c -3.27185,-0.37647 -3.24701,-1.61872 0.0666,-3.33226 1.76904,-0.91481 2.98478,-2.57756 3.74858,-5.12692 1.58566,-5.29244 3.83944,-5.05633 3.83944,0.40225 l 0,4.17525 5.10309,0 c 4.4389,0 5.1031,0.23522 5.1031,1.80718 0,1.52593 -0.75812,1.85083 -4.87114,2.08763 l -4.87113,0.28045 -0.26146,11.48381 c -0.31581,13.8707 0.48562,15.88732 6.31377,15.88732 3.00188,0 3.68996,0.32752 3.68996,1.7564 0,2.74747 -5.27003,3.82576 -9.77448,1.99993 z m 25.8739,-0.0819 c -3.7281,-1.14232 -8.29572,-6.32746 -9.54879,-10.83974 -3.96134,-14.26469 4.49971,-26.50085 17.32518,-25.05524 15.05049,1.69641 19.47599,24.80115 6.5799,34.35248 -2.85255,2.1127 -9.99189,2.87979 -14.35629,1.5425 z m 11.62719,-5.18739 c 6.3464,-4.44519 6.3464,-20.36383 0,-24.80903 -1.18807,-0.83217 -3.85319,-1.51303 -5.92249,-1.51303 -6.9026,0 -10.6701,4.91413 -10.6701,13.91753 0,9.00339 3.7675,13.91752 10.6701,13.91752 2.0693,0 4.73442,-0.68085 5.92249,-1.51301 z m 49.48093,4.7543 c -3.74257,-1.62607 -6.18277,-6.75037 -5.3439,-11.22194 1.07742,-5.74318 8.86115,-9.64823 19.23126,-9.64823 l 3.78707,0 -0.54565,-3.3625 c -0.30012,-1.84937 -1.28452,-4.17892 -2.18755,-5.17677 -1.64082,-1.81308 -3.18516,-1.87992 -13.28279,-0.57494 -1.78583,0.23079 -2.31959,-0.11785 -2.31959,-1.5151 0,-2.48148 6.80724,-4.49266 12.98969,-3.83776 3.6432,0.38592 5.18696,1.09839 7.19072,3.31863 l 2.55155,2.8272 0,14.83072 c 0,13.92885 -0.10673,14.83072 -1.75509,14.83072 -1.12084,0 -1.97612,-0.88068 -2.36674,-2.43702 l -0.61165,-2.43702 -2.04048,1.9113 c -4.17129,3.90722 -9.89461,4.83987 -15.29685,2.49269 z m 12.68402,-4.7543 c 2.45602,-1.72026 4.74761,-6.57371 4.74761,-10.05512 0,-2.10023 -0.369,-2.34705 -3.47938,-2.32725 -11.27181,0.0717 -17.1249,5.52314 -12.70512,11.83326 1.78219,2.54444 8.15156,2.85024 11.43689,0.54911 z m 65.38312,5.13857 c -10.39324,-3.01087 -14.0414,-21.23136 -6.13286,-30.63012 9.0035,-10.70006 25.22693,-4.53335 25.2759,9.60766 l 0.0153,4.40719 -12.06186,0 c -13.5457,0 -13.74102,0.12713 -10.53262,6.85522 2.79772,5.8669 9.75718,7.51192 19.66052,4.64721 1.88998,-0.54672 2.12879,-0.34213 1.85567,1.5897 -0.5377,3.80313 -10.4476,5.7342 -18.08002,3.52313 z m 13.5913,-23.17111 c 0,-7.57074 -9.02087,-11.06871 -14.79761,-5.73797 -1.52077,1.40335 -3.03395,3.69974 -3.36264,5.10309 l -0.59763,2.55155 9.37894,0 c 8.85988,0 9.37894,-0.10608 9.37894,-1.91667 z m -121.5464,5.62801 0,-17.62887 2.31959,0 c 1.95876,0 2.31959,0.433 2.31959,2.78351 0,2.92979 1.28605,3.75052 2.18916,1.39706 0.89662,-2.33657 6.42766,-5.10128 10.21287,-5.10493 3.26832,-0.003 3.53781,0.18232 3.02814,2.08416 -0.30771,1.14819 -0.56518,2.31693 -0.57214,2.59719 -0.007,0.28026 -1.43524,0.34349 -3.17392,0.1405 -2.59817,-0.30331 -3.79637,0.21255 -6.72681,2.89615 l -3.56555,3.2652 -0.30384,12.59945 -0.30385,12.59944 -2.71162,0 -2.71162,0 0,-17.62886 z M 148.66183,468.03965 c -1.03148,-2.68796 0.0193,-4.75844 2.41491,-4.75844 1.94464,0 2.30688,0.43707 2.30688,2.7835 0,2.18184 -0.45215,2.84771 -2.09178,3.08054 -1.22676,0.1742 -2.31435,-0.283 -2.63001,-1.1056 z M 65.703203,420.66629 C 55.4594,418.3162 55.497018,418.35397 55.497018,410.41757 c 0,-3.83994 0.104381,-6.97614 0.231959,-6.96931 0.127577,0.006 3.780927,1.25382 8.118556,2.77109 12.554341,4.39143 21.210346,3.58308 24.003136,-2.24156 1.09187,-2.27718 1.0727,-3.06742 -0.13592,-5.60192 -1.09741,-2.30129 -3.52015,-4.06027 -11.007478,-7.99178 -15.524308,-8.15162 -19.66998,-13.1251 -19.66998,-23.59773 0,-9.15551 4.442541,-15.5344 13.305087,-19.10429 5.249014,-2.11433 18.726141,-1.65758 26.211341,0.88831 3.44459,1.17159 6.262891,2.54063 6.262891,3.04231 0,0.82586 -3.643281,10.02026 -4.320291,10.90295 -0.15543,0.20265 -3.01345,-0.52802 -6.35115,-1.62371 -12.090807,-3.96913 -19.94712,-1.86745 -19.94712,5.33613 0,4.46244 1.715749,6.01884 12.98969,11.78333 13.79244,7.05222 18.537521,12.97469 18.551521,23.15466 0.007,5.37166 -4.039211,12.98388 -8.455901,15.90671 -6.85997,4.53971 -19.017849,6.0167 -29.580156,3.59353 z m 60.791687,-0.76137 c -0.59979,-1.79662 -18.11127,-71.05436 -18.11127,-71.62989 0,-0.2801 3.32411,-0.50929 7.38692,-0.50929 l 7.38691,0 0.90817,3.47939 c 2.35536,9.024 9.4215,40.39431 10.44969,46.39175 0.63429,3.69974 1.43199,6.7268 1.77269,6.7268 0.34069,0 0.88411,-1.98325 1.20761,-4.40722 0.3235,-2.42396 2.46828,-11.71391 4.76619,-20.64432 2.2979,-8.93042 5.06496,-19.6977 6.14904,-23.92729 l 1.97104,-7.69019 7.49487,0.26751 7.49488,0.26749 6.25528,25.05155 c 3.44041,13.77835 6.54609,26.72165 6.90152,28.76288 l 0.64624,3.71134 0.76878,-3.71134 c 0.42284,-2.04123 3.34948,-15.08891 6.50363,-28.99484 l 5.73485,-25.28351 7.65322,0 7.65322,0 -4.86406,18.78866 c -2.67523,10.33377 -6.86477,26.84051 -9.3101,36.68166 l -4.44604,17.89299 -8.92773,-0.26413 -8.92774,-0.26413 -6.23567,-24.58762 c -3.42962,-13.5232 -6.26067,-25.84021 -6.29121,-27.37114 -0.0759,-3.80529 -1.41198,-1.30349 -2.22976,4.17526 -0.34276,2.29639 -3.17267,14.09149 -6.28869,26.21134 l -5.66549,22.03608 -8.7099,0 c -6.14286,0 -8.82402,-0.34182 -9.09709,-1.15979 z m 90.44543,-35.48969 0,-36.64949 7.88659,0 7.8866,0 0,36.64949 0,36.64948 -7.8866,0 -7.88659,0 0,-36.64948 z m 34.32989,0 0,-36.64949 20.87629,0 20.87629,0 0,6.49485 0,6.49485 -13.45361,0 -13.45361,0 0,9.27835 0,9.27835 12.52578,0 12.52577,0 0,6.49484 0,6.49485 -12.52577,0 -12.52578,0 0,14.38144 0,14.38144 -7.42268,0 -7.42268,0 0,-36.64948 z m 69.58763,5.56701 0,-30.15464 -10.20618,0 -10.20619,0 0,-6.49485 0,-6.49484 27.83505,0 27.83505,0 0,6.49484 0,6.49485 -10.20618,0 -10.20619,0 0,30.15464 0,30.15464 -7.42268,0 -7.42268,0 0,-30.15464 z M 4.4864667,124.85338 C 4.5059167,24.554917 4.5849867,19.607272 6.2251377,16.064721 8.3307277,11.516864 12.155716,7.8185874 16.730103,5.9077564 c 3.094871,-1.292802 34.749029,-1.440972 307.839077,-1.440972 273.09005,0 304.74421,0.14817 307.83908,1.440972 4.57439,1.910831 8.39938,5.6091076 10.50497,10.1569646 1.64014,3.542551 1.71921,8.490196 1.73867,108.788659 l 0.0204,105.07732 -320.10309,0 -320.1030903,0 0.02038,-105.07732 z m 471.3198333,51.26289 0,-4.63918 46.85567,0 46.85566,0 0,4.63918 0,4.63917 13.91753,0 13.91753,0 0,-13.86669 0,-13.86669 -4.40722,-0.28279 -4.40722,-0.2828 -0.24248,-37.34536 -0.24249,-37.345359 4.64971,0 4.6497,0 0,-13.917526 0,-13.917525 -13.91753,0 -13.91753,0 0,4.639175 0,4.639175 -46.85566,0 -46.85567,0 0,-4.639175 0,-4.639175 -14.38145,0 -14.38144,0 0,13.917525 0,13.917526 4.63917,0 4.63918,0 0,37.577319 0,37.57732 -4.63918,0 -4.63917,0 0,13.91752 0,13.91753 14.38144,0 14.38145,0 0,-4.63917 z m -18.55671,-9.27836 0,-4.63917 4.17526,0 4.17526,0 0,4.63917 0,4.63918 -4.17526,0 -4.17526,0 0,-4.63918 z m 121.5464,0 0,-4.63917 4.63917,0 4.63918,0 0,4.63917 0,4.63918 -4.63918,0 -4.63917,0 0,-4.63918 z m -102.98969,-9.27835 0,-4.63917 -4.63918,0 -4.63918,0 0,-37.57732 0,-37.577319 4.63918,0 4.63918,0 0,-4.639176 0,-4.639175 46.85567,0 46.85566,0 0,4.639175 0,4.639176 4.63918,0 4.63918,0 0,37.577319 0,37.57732 -4.63918,0 -4.63918,0 0,4.63917 0,4.63918 -46.85566,0 -46.85567,0 0,-4.63918 z m 93.71133,-32.93814 0,-28.298972 -13.91752,0 -13.91753,0 0,-9.27835 0,-9.278347 -32.93814,0 -32.93814,0 0,28.298969 0,28.29897 13.91752,0 13.91753,0 0,9.27835 0,9.27835 32.93814,0 32.93814,0 0,-28.29897 z m -55.97937,18.40206 c -0.34021,-0.3402 -0.61856,-2.42783 -0.61856,-4.63918 l 0,-4.02061 14.38144,0 14.38144,0 0,-13.91753 0,-13.91752 9.27835,0 9.27835,0 0,18.5567 0,18.5567 -23.04123,0 c -12.67269,0 -23.31959,-0.27835 -23.65979,-0.61856 z m -28.45361,-37.42268 0,-18.556702 23.19587,0 23.19588,0 0,18.556702 0,18.5567 -23.19588,0 -23.19587,0 0,-18.5567 z m -27.83506,-41.752575 0,-4.639175 4.17526,0 4.17526,0 0,4.639175 0,4.639175 -4.17526,0 -4.17526,0 0,-4.639175 z m 121.5464,0 0,-4.639175 4.63917,0 4.63918,0 0,4.639175 0,4.639175 -4.63918,0 -4.63917,0 0,-4.639175 z"
     id="path5334" />
  <path
     style="fill:#2f729b"
     d="m 140.16197,525.29558 c -0.63789,-0.25739 -1.1598,-1.26825 -1.1598,-2.24633 0,-1.44059 0.66966,-1.77836 3.52578,-1.77836 1.93917,0 4.0268,-0.50103 4.63917,-1.1134 0.80361,-0.8036 1.1134,-7.25773 1.1134,-23.19587 l 0,-22.08248 2.78351,0 2.7835,0 -0.006,20.64433 c -0.006,23.98187 -0.56741,27.16168 -5.13219,29.06896 -3.15523,1.31834 -6.36856,1.58266 -8.5482,0.70315 z m 299.45876,-0.41518 c -4.92925,-1.48333 -7.42268,-4.26654 -7.42268,-8.28529 0,-3.66628 2.89037,-8.31391 5.17043,-8.31391 1.52076,0 1.772,-1.46953 0.39658,-2.31958 -1.59886,-0.98815 -1.04817,-6.56227 0.81488,-8.2483 1.69435,-1.53336 1.6686,-1.65126 -0.92784,-4.24768 -2.17255,-2.17256 -2.67055,-3.47105 -2.67055,-6.96327 0,-9.95239 4.48779,-12.64302 19.78553,-11.86227 8.50203,0.43393 9.94676,0.73139 9.70466,1.99814 -0.16597,0.8684 -1.52569,1.68156 -3.26443,1.95224 -2.37771,0.37016 -2.80038,0.7452 -2.0913,1.85567 1.20463,1.88657 1.15089,8.96347 -0.0856,11.2739 -1.32693,2.47937 -7.87357,5.38128 -12.19757,5.40676 -2.65353,0.0157 -3.81227,0.56108 -4.98089,2.34461 -2.36588,3.6108 -0.48292,5.09729 6.46486,5.10362 11.12501,0.0101 15.50287,2.58541 15.59378,9.17309 0.10138,7.34515 -4.64427,10.97525 -15.31269,11.71318 -3.15136,0.21798 -7.19109,-0.0434 -8.97717,-0.58091 z m 16.61112,-5.24985 c 3.04055,-2.2595 3.81423,-7.43887 1.37735,-9.22076 -1.02437,-0.74904 -4.4764,-1.20075 -9.17642,-1.20075 -6.29979,0 -7.86703,0.30998 -9.56493,1.89182 -3.54276,3.30058 -2.24696,8.51438 2.60855,10.49585 2.76805,1.1296 12.29847,-0.14032 14.75545,-1.96616 z m -2.86855,-28.08652 c 3.07828,-2.86786 2.85247,-9.38889 -0.41409,-11.95837 -5.70436,-4.48705 -13.32848,-0.87305 -13.32848,6.31799 0,2.87712 0.53657,4.10824 2.44471,5.60918 3.21165,2.52628 8.60372,2.54117 11.29786,0.0312 z M 69.938113,510.07268 C 60.66675,507.7718 55.520969,499.65621 55.506082,487.31141 c -0.01407,-11.66829 3.025365,-18.01657 10.482831,-21.89485 7.675845,-3.99183 20.649996,-2.19595 25.874606,3.58157 7.28374,8.05454 7.28374,27.8312 0,35.88574 -4.15169,4.59105 -14.4825,7.03591 -21.925406,5.18881 z m 14.260966,-5.47178 c 5.24296,-2.67476 7.9009,-8.61573 7.9009,-17.6599 0,-9.48111 -2.55412,-14.8454 -8.42057,-17.6853 -7.265167,-3.51701 -15.259803,-1.61544 -20.021399,4.7622 -4.563742,6.11264 -4.060757,21.06891 0.907108,26.97288 4.628014,5.50008 12.935248,7.02754 19.633961,3.61012 z m 34.418331,5.0448 c -1.7709,-0.79572 -3.91279,-2.07389 -4.75976,-2.84038 -1.39146,-1.25926 -1.59711,-1.16583 -2.13291,0.96896 -0.38574,1.5369 -1.23532,2.36259 -2.43096,2.36259 -1.78673,0 -1.838,-0.69887 -1.838,-25.05154 l 0,-25.05155 2.86796,0 2.86796,0 -0.31642,9.61439 -0.31641,9.61437 3.15493,-2.40819 c 2.53129,-1.93217 4.18521,-2.4082 8.36716,-2.4082 9.70974,0 14.37343,5.86046 14.37343,18.06186 0,7.95844 -1.85619,12.86024 -5.98244,15.79838 -3.56494,2.53847 -9.8365,3.14473 -13.85454,1.33931 z m 10.9883,-5.16494 c 2.90062,-2.70234 3.82945,-5.62818 3.82945,-12.06296 0,-6.32102 -1.76917,-11.36351 -4.49963,-12.8248 -2.37511,-1.27112 -8.98654,-1.29866 -11.32496,-0.0472 -3.07276,1.64454 -4.58778,5.92503 -4.58778,12.96224 0,6.88844 1.47353,11.20666 4.4072,12.91536 2.96428,1.72653 9.8859,1.19068 12.17572,-0.94261 z m 44.36081,5.23969 c -6.44988,-2.30031 -9.38372,-6.28321 -10.42822,-14.15701 -0.88759,-6.69095 1.4454,-14.11228 5.57665,-17.73957 6.98665,-6.13436 17.83564,-4.27023 21.70853,3.73008 1.09622,2.26449 1.99313,5.65554 1.99313,7.53565 l 0,3.41841 -12.06186,0 -12.06186,0 0,2.34939 c 0,4.08591 2.48335,8.58176 5.64269,10.21552 3.03618,1.57007 11.30864,1.56487 15.00164,-0.009 1.29681,-0.55281 1.62372,-0.22736 1.62372,1.61654 0,1.95753 -0.62703,2.4666 -4.12221,3.34669 -5.3019,1.33503 -8.48229,1.25936 -12.87221,-0.30627 z m 13.28308,-22.82553 c 0,-2.62758 -2.40338,-7.0322 -4.21683,-7.72808 -3.27615,-1.25717 -8.77012,-0.5791 -10.66558,1.31636 -1.80537,1.80536 -3.6743,5.5928 -3.6743,7.44604 0,0.48019 4.14206,0.86743 9.27835,0.86743 8.73473,0 9.27836,-0.11143 9.27836,-1.90175 z m 23.63075,23.18433 c -3.43075,-0.99793 -6.38592,-3.6492 -8.49781,-7.62392 -1.96336,-3.69519 -2.19386,-15.78897 -0.36643,-19.22567 3.67713,-6.91529 9.74645,-9.90939 17.83278,-8.79723 4.8618,0.66867 5.75832,1.32614 4.89085,3.58676 -0.45425,1.18374 -1.56227,1.34677 -6.00043,0.88289 -4.27738,-0.44708 -5.96391,-0.22782 -7.8739,1.02365 -3.25904,2.1354 -5.05911,6.78314 -5.05911,13.06247 0,5.67464 1.64609,9.75193 4.84032,11.98926 2.32583,1.62907 8.6692,1.91002 12.26422,0.5432 2.14978,-0.81734 2.37999,-0.68693 2.37999,1.34815 0,1.81314 -0.6793,2.44166 -3.47938,3.21928 -4.06353,1.1285 -7.02931,1.12609 -10.9311,-0.009 z m 28.55291,-0.40079 c -1.6806,-0.7304 -3.43134,-2.38885 -3.9433,-3.73543 -0.50643,-1.33199 -0.92078,-8.03122 -0.92078,-14.88718 l 0,-12.46537 -2.7835,0 c -3.54719,0 -3.56203,-1.40543 -0.034,-3.22979 1.94474,-1.00566 3.0414,-2.50616 3.7471,-5.12692 1.41775,-5.2653 3.70963,-4.97485 3.70963,0.47012 l 0,4.17525 5.10309,0 c 4.48453,0 5.10309,0.22493 5.10309,1.85567 0,1.63075 -0.61856,1.85567 -5.10309,1.85567 l -5.10309,0 0,11.85541 c 0,14.11711 0.76315,15.97964 6.54745,15.97964 2.96465,0 3.65873,0.33151 3.65873,1.74746 0,2.91596 -5.00046,3.67017 -9.98128,1.50547 z m 36.19262,0.30445 c -3.34513,-0.74913 -3.9433,-1.23303 -3.9433,-3.1901 0,-2.17853 0.1938,-2.26593 3.47939,-1.56911 1.91366,0.40585 6.33435,0.73792 9.82377,0.73792 5.80139,0 6.53594,-0.22281 8.58247,-2.60329 1.23095,-1.4318 2.23809,-3.59178 2.23809,-4.79995 0,-2.30332 -4.09898,-7.90604 -5.78409,-7.90604 -0.53898,0 -4.04736,-1.47536 -7.7964,-3.27858 -7.76198,-3.73337 -9.61539,-6.23604 -9.61539,-12.98383 0,-3.47952 0.49952,-4.79223 2.63689,-6.9296 3.3157,-3.3157 9.40487,-5.00786 15.23673,-4.23424 6.99706,0.9282 8.97464,1.93583 8.36613,4.26276 -0.41769,1.59725 -0.99819,1.88105 -2.94191,1.43824 -10.51846,-2.39627 -17.09397,-1.0837 -18.28189,3.64934 -1.42368,5.67238 1.10283,8.40592 11.92539,12.90263 8.20379,3.40863 10.89371,6.55937 10.89371,12.75993 0,4.0348 -0.41084,5.07162 -3.059,7.71977 -4.74812,4.74812 -12.29535,6.14382 -21.76059,4.02415 z m 39.88985,-0.30445 c -1.6806,-0.7304 -3.43134,-2.38885 -3.9433,-3.73543 -0.50643,-1.33199 -0.92077,-8.03122 -0.92077,-14.88718 l 0,-12.46537 -2.78351,0 c -3.54719,0 -3.56202,-1.40543 -0.034,-3.22979 1.94474,-1.00566 3.04141,-2.50616 3.74711,-5.12692 1.41775,-5.2653 3.70962,-4.97485 3.70962,0.47012 l 0,4.17525 5.10309,0 c 4.48454,0 5.1031,0.22493 5.1031,1.85567 0,1.63075 -0.61856,1.85567 -5.1031,1.85567 l -5.10309,0 0,11.85541 c 0,14.11711 0.76316,15.97964 6.54746,15.97964 2.96464,0 3.65873,0.33151 3.65873,1.74746 0,2.91596 -5.00047,3.67017 -9.98129,1.50547 z m 25.76111,-0.0918 c -4.97681,-2.15822 -7.35096,-4.92564 -8.95279,-10.43575 -1.61453,-5.55377 -1.16869,-12.54015 1.07744,-16.88369 4.55713,-8.81252 16.54264,-10.75267 24.59075,-3.98063 5.26211,4.42776 6.97554,17.20785 3.26338,24.34071 -3.71181,7.13219 -12.51168,10.19751 -19.97878,6.95936 z m 11.85408,-4.60923 c 3.27871,-2.29651 4.84032,-6.31947 4.84032,-12.46946 0,-9.21493 -3.60532,-13.91753 -10.6701,-13.91753 -7.06478,0 -10.6701,4.7026 -10.6701,13.91753 0,9.21493 3.60532,13.91752 10.6701,13.91752 2.0693,0 4.6927,-0.65163 5.82978,-1.44807 z m 49.68142,4.73469 c -3.59541,-1.56398 -5.04596,-4.08882 -5.11234,-8.89857 -0.10109,-7.32465 4.08953,-10.40437 15.70939,-11.54496 6.35204,-0.6235 6.7268,-0.78767 6.7268,-2.9467 0,-2.50264 -1.54825,-5.94893 -3.15436,-7.02136 -1.50956,-1.00795 -8.40993,-0.85332 -11.32166,0.25371 -1.91062,0.72642 -2.72182,0.66929 -3.29361,-0.23196 -1.20605,-1.90092 -0.968,-2.28718 2.2284,-3.61565 4.392,-1.82539 12.8089,-1.61535 15.87901,0.39627 3.76469,2.46671 4.3014,4.98425 4.3014,20.17682 0,13.23856 -0.0829,13.85712 -1.85567,13.85712 -1.21831,0 -1.85567,-0.61856 -1.85567,-1.80091 0,-2.64193 -1.37684,-3.04957 -3.26251,-0.96592 -1.68546,1.86242 -6.83805,3.70945 -10.1911,3.65318 -1.02062,-0.0172 -3.17976,-0.60711 -4.79808,-1.31107 z m 13.6891,-5.86826 c 2.22739,-1.99019 3.00239,-3.58445 3.38272,-6.95876 l 0.49336,-4.37713 -4.06396,0.006 c -8.73664,0.0107 -13.80623,3.03892 -13.80623,8.24638 0,6.00663 8.60154,7.90219 13.99411,3.08393 z m 64.57848,5.87656 c -6.44988,-2.30031 -9.38372,-6.28321 -10.42822,-14.15701 -0.88759,-6.69095 1.4454,-14.11228 5.57665,-17.73957 6.98665,-6.13436 17.83564,-4.27023 21.70853,3.73008 1.09622,2.26449 1.99313,5.65554 1.99313,7.53565 l 0,3.41841 -12.06186,0 -12.06185,0 0,2.34939 c 0,4.08591 2.48334,8.58176 5.64268,10.21552 3.03618,1.57007 11.30864,1.56487 15.00164,-0.009 1.29681,-0.55281 1.62372,-0.22736 1.62372,1.61654 0,1.95753 -0.62703,2.4666 -4.12221,3.34669 -5.3019,1.33503 -8.48229,1.25936 -12.87221,-0.30627 z M 494.363,486.89488 c 0,-2.62758 -2.40338,-7.0322 -4.21683,-7.72808 -3.27615,-1.25717 -8.77012,-0.5791 -10.66558,1.31636 -1.80537,1.80536 -3.67429,5.5928 -3.67429,7.44604 0,0.48019 4.14205,0.86743 9.27835,0.86743 8.73472,0 9.27835,-0.11143 9.27835,-1.90175 z m -121.5464,5.61309 0,-17.62887 2.31959,0 c 2.05095,0 2.31959,0.39258 2.31959,3.38976 l 0,3.38975 3.25211,-3.34859 c 4.77658,-4.91828 13.03299,-6.05279 11.87694,-1.632 -0.36812,1.40767 -1.26744,1.9211 -3.40737,1.94531 -3.77258,0.0427 -6.75544,1.74609 -8.98796,5.13277 -1.53594,2.32999 -1.79454,4.4207 -1.79977,14.55084 l -0.006,11.82989 -2.78351,0 -2.78351,0 0,-17.62886 z M 149.35914,468.49712 c -0.68253,-0.43263 -1.10006,-1.78319 -0.92783,-3.00126 0.23474,-1.66024 0.89382,-2.21465 2.63272,-2.21465 1.7389,0 2.39798,0.55441 2.63272,2.21465 0.26774,1.89353 -1.04891,3.78785 -2.63272,3.78785 -0.25516,0 -1.02235,-0.35397 -1.70489,-0.78659 z"
     id="path5332" />
</svg>
