<?xml version="1.0" encoding="UTF-8" standalone="no"?>
<svg
   xmlns:dc="http://purl.org/dc/elements/1.1/"
   xmlns:cc="http://creativecommons.org/ns#"
   xmlns:rdf="http://www.w3.org/1999/02/22-rdf-syntax-ns#"
   xmlns:svg="http://www.w3.org/2000/svg"
   xmlns="http://www.w3.org/2000/svg"
   xmlns:xlink="http://www.w3.org/1999/xlink"
   xmlns:sodipodi="http://sodipodi.sourceforge.net/DTD/sodipodi-0.dtd"
   xmlns:inkscape="http://www.inkscape.org/namespaces/inkscape"
   version="1.1"
   id="svg3475"
   viewBox="0 0 652.09496 70.000008"
   height="19.755558mm"
   width="184.03569mm"
   inkscape:version="0.91 r13725"
   sodipodi:docname="distros-all.svg">
  <sodipodi:namedview
     pagecolor="#ffffff"
     bordercolor="#666666"
     borderopacity="1"
     objecttolerance="10"
     gridtolerance="10"
     guidetolerance="10"
     inkscape:pageopacity="0"
     inkscape:pageshadow="2"
     inkscape:window-width="1920"
     inkscape:window-height="1180"
     id="namedview4341"
     showgrid="false"
     inkscape:zoom="1.747991"
     inkscape:cx="235.08754"
     inkscape:cy="50.4593"
     inkscape:window-x="1364"
     inkscape:window-y="-3"
     inkscape:window-maximized="1"
     inkscape:current-layer="svg3475" />
  <defs
     id="defs3477">
    <clipPath
       clipPathUnits="userSpaceOnUse"
       id="clipPath16">
      <path
         d="m 0,595.28 841.89,0 L 841.89,0 0,0 0,595.28 Z"
         id="path18" />
    </clipPath>
  </defs>
  <metadata
     id="metadata3480">
    <rdf:RDF>
      <cc:Work
         rdf:about="">
        <dc:format>image/svg+xml</dc:format>
        <dc:type
           rdf:resource="http://purl.org/dc/dcmitype/StillImage" />
        <dc:title />
      </cc:Work>
    </rdf:RDF>
  </metadata>
  <g
     id="g3515"
     transform="matrix(2.3716754,0,0,2.3716754,-575.31871,-1477.556)">
    <path
       inkscape:connector-curvature="0"
       id="path3421"
       style="fill:#ffffff"
       d="m 269.74203,646.09799 c -0.569,-0.13 -1.173,-0.213 -1.783,-0.213 -1.045,0 -1.995,0.182 -2.696,0.473 -0.078,0.039 -0.132,0.12 -0.132,0.211 0,0.034 0.007,0.068 0.021,0.096 0.082,0.24 -0.054,0.499 -0.732,0.65 -1.006,0.22 -1.641,1.259 -2.004,1.602 -0.427,0.405 -1.631,0.654 -1.45,0.411 0.142,-0.187 0.684,-0.776 1.013,-1.412 0.296,-0.568 0.559,-0.73 0.92,-1.273 0.107,-0.159 0.518,-0.718 0.638,-1.16 0.134,-0.432 0.089,-0.974 0.141,-1.197 0.074,-0.322 0.377,-1.019 0.4,-1.415 0.013,-0.221 -0.931,0.32 -1.379,0.32 -0.448,0 -0.885,-0.269 -1.285,-0.287 -0.495,-0.024 -0.814,0.381 -1.263,0.309 -0.255,-0.04 -0.472,-0.265 -0.918,-0.281 -0.637,-0.024 -1.416,0.353 -2.877,0.307 -1.438,-0.047 -2.766,-1.818 -2.947,-2.099 -0.213,-0.329 -0.473,-0.329 -0.755,-0.069 -0.283,0.257 -0.633,0.054 -0.731,-0.119 -0.189,-0.33 -0.693,-1.293 -1.474,-1.496 -1.08,-0.28 -1.627,0.598 -1.556,1.295 0.072,0.709 0.531,0.908 0.744,1.285 0.211,0.376 0.32,0.62 0.718,0.787 0.284,0.118 0.389,0.292 0.305,0.524 -0.074,0.202 -0.368,0.249 -0.563,0.258 -0.411,0.02 -0.699,-0.092 -0.91,-0.226 -0.244,-0.157 -0.444,-0.373 -0.656,-0.74 -0.248,-0.406 -0.637,-0.582 -1.09,-0.582 -0.216,0 -0.419,0.057 -0.598,0.148 -0.71,0.371 -1.556,0.589 -2.466,0.589 l -1.028,10e-4 c 1.969,5.837 7.492,10.039 13.997,10.039 5.195,0 9.764,-2.68 12.396,-6.736" />
    <path
       inkscape:connector-curvature="0"
       id="path3423"
       style="fill:#000000"
       d="m 269.74203,646.09999 c -0.569,-0.132 -1.173,-0.214 -1.783,-0.214 -1.045,0 -1.995,0.182 -2.696,0.473 -0.078,0.039 -0.132,0.119 -0.132,0.211 0,0.033 0.007,0.068 0.021,0.095 0.082,0.241 -0.054,0.501 -0.732,0.651 -1.006,0.221 -1.641,1.258 -2.004,1.601 -0.427,0.406 -1.631,0.655 -1.45,0.413 0.142,-0.189 0.684,-0.778 1.013,-1.414 0.296,-0.567 0.559,-0.73 0.92,-1.272 0.107,-0.159 0.518,-0.719 0.638,-1.16 0.134,-0.433 0.089,-0.974 0.141,-1.197 0.074,-0.322 0.377,-1.019 0.4,-1.414 0.013,-0.223 -0.931,0.318 -1.379,0.318 -0.448,0 -0.885,-0.268 -1.285,-0.286 -0.495,-0.025 -0.814,0.381 -1.263,0.309 -0.255,-0.04 -0.472,-0.265 -0.918,-0.282 -0.637,-0.023 -1.416,0.354 -2.877,0.307 -1.438,-0.047 -2.766,-1.816 -2.947,-2.097 -0.213,-0.331 -0.473,-0.331 -0.755,-0.071 -0.283,0.258 -0.633,0.055 -0.731,-0.118 -0.189,-0.331 -0.693,-1.294 -1.474,-1.497 -1.08,-0.28 -1.627,0.598 -1.556,1.296 0.072,0.708 0.531,0.907 0.744,1.284 0.211,0.376 0.32,0.621 0.718,0.788 0.284,0.117 0.389,0.292 0.305,0.524 -0.074,0.202 -0.368,0.249 -0.563,0.258 -0.411,0.019 -0.699,-0.092 -0.91,-0.228 -0.244,-0.154 -0.444,-0.371 -0.656,-0.739 -0.248,-0.405 -0.637,-0.582 -1.09,-0.582 -0.216,0 -0.419,0.058 -0.598,0.148 -0.71,0.371 -1.556,0.59 -2.466,0.59 l -1.028,0 c -0.5,-1.481 -0.77,-3.068 -0.77,-4.717 0,-8.152 6.611,-14.759 14.767,-14.759 8.154,0 14.766,6.607 14.766,14.759 0,2.958 -0.871,5.71 -2.37,8.022" />
    <path
       inkscape:connector-curvature="0"
       id="path3425"
       style="fill:#000000"
       d="m 260.59743,644.74649 c 0.076,0.073 0.207,0.322 0.047,0.639 -0.09,0.168 -0.187,0.285 -0.359,0.423 -0.209,0.167 -0.614,0.359 -1.17,0.005 -0.3,-0.189 -0.319,-0.253 -0.732,-0.199 -0.295,0.038 -0.412,-0.261 -0.307,-0.508 0.107,-0.247 0.542,-0.447 1.085,-0.129 0.245,0.143 0.625,0.447 0.957,0.177 0.139,-0.109 0.222,-0.183 0.413,-0.405 0.009,-0.009 0.021,-0.014 0.035,-0.014 0.012,0 0.023,0.004 0.031,0.011" />
    <path
       inkscape:connector-curvature="0"
       id="path3427"
       style="fill:#e93442"
       d="m 256.19613,630.34699 c -1.705,0.123 -1.883,0.307 -2.202,0.646 -0.45,0.481 -1.044,-0.621 -1.044,-0.621 -0.357,-0.075 -0.788,-0.649 -0.555,-1.184 0.23,-0.53 0.654,-0.372 0.786,-0.207 0.161,0.201 0.506,0.53 0.954,0.518 0.448,-0.012 0.964,-0.106 1.685,-0.106 0.73,0 1.22,0.272 1.247,0.507 0.025,0.199 -0.059,0.387 -0.871,0.447 m 1.792,-2.817 -0.008,0 c -0.026,0 -0.047,-0.02 -0.047,-0.044 0,-0.018 0.011,-0.034 0.027,-0.041 0.331,-0.174 0.824,-0.314 1.388,-0.37 0.169,-0.018 0.335,-0.028 0.494,-0.028 l 0.085,0 c 0.947,0.022 1.704,0.398 1.693,0.84 -0.012,0.442 -0.787,0.783 -1.735,0.763 -0.305,-0.008 -0.593,-0.052 -0.84,-0.124 -0.031,-0.007 -0.051,-0.032 -0.051,-0.062 0,-0.029 0.02,-0.054 0.052,-0.062 0.589,-0.136 0.988,-0.36 0.96,-0.571 -0.038,-0.279 -0.809,-0.431 -1.725,-0.339 -0.101,0.01 -0.198,0.023 -0.293,0.038 m 7.69,6.621 c -0.146,0.49 -0.353,1.117 -1.277,1.591 -0.135,0.069 -0.185,-0.044 -0.124,-0.15 0.35,-0.594 0.411,-0.742 0.513,-0.975 0.141,-0.343 0.217,-0.83 -0.066,-1.844 -0.555,-1.997 -1.715,-4.668 -2.556,-5.533 -0.813,-0.836 -2.285,-1.072 -3.617,-0.73 -0.49,0.125 -1.449,0.623 -3.227,0.223 -3.077,-0.693 -3.533,0.847 -3.709,1.518 -0.178,0.671 -0.602,2.578 -0.602,2.578 -0.141,0.778 -0.326,2.128 4.453,3.039 2.226,0.423 2.338,0.999 2.438,1.412 0.177,0.741 0.459,1.165 0.777,1.377 0.318,0.212 0,0.388 -0.353,0.423 -0.947,0.099 -4.452,-0.906 -6.526,-2.083 -1.696,-1.036 -1.724,-1.968 -1.336,-2.76 -2.562,-0.277 -4.485,0.24 -4.833,1.453 -0.599,2.08 4.576,5.634 10.469,7.418 6.184,1.871 12.544,0.564 13.251,-3.321 0.321,-1.765 -1.166,-3.071 -3.675,-3.636" />
    <g
       id="g3880"
       transform="translate(242.24903,623.16199)">
      <path
         inkscape:connector-curvature="0"
         id="path3430"
         style="fill:#000000"
         d="m 29.7137,22.1489 0.133,0 0.201,0.33 0.13,0 -0.218,-0.336 c 0.113,-0.014 0.198,-0.073 0.198,-0.209 0,-0.151 -0.089,-0.217 -0.268,-0.217 l -0.291,0 0,0.762 0.115,0 0,-0.33 z m 0,-0.098 0,-0.237 0.157,0 c 0.079,0 0.165,0.019 0.165,0.112 0,0.118 -0.086,0.125 -0.184,0.125 l -0.138,0 z" />
      <path
         inkscape:connector-curvature="0"
         id="path3432"
         style="fill:#000000"
         d="m 30.5965,22.0991 c 0,0.411 -0.334,0.745 -0.746,0.745 -0.412,0 -0.747,-0.334 -0.747,-0.745 0,-0.411 0.335,-0.747 0.747,-0.747 0.412,0 0.746,0.336 0.746,0.747 m -0.746,-0.614 c -0.34,0 -0.615,0.274 -0.615,0.615 0,0.337 0.275,0.611 0.615,0.611 0.338,0 0.613,-0.274 0.613,-0.611 0,-0.341 -0.275,-0.615 -0.613,-0.615" />
    </g>
    <path
       inkscape:connector-curvature="0"
       id="path3434"
       style="fill:#000000"
       d="m 279.63943,639.00819 c 0,-1.354 -0.029,-2.349 -0.083,-3.249 l 2.214,0 0.096,1.921 0.072,0 c 0.498,-1.424 1.678,-2.15 2.769,-2.15 0.249,0 0.395,0.009 0.601,0.056 l 0,2.408 c -0.24,-0.048 -0.464,-0.073 -0.772,-0.073 -1.218,0 -2.064,0.775 -2.293,1.934 -0.042,0.225 -0.066,0.496 -0.066,0.771 l 0,5.243 -2.559,0 0.021,-6.861 z" />
    <path
       inkscape:connector-curvature="0"
       id="path3436"
       style="fill:#000000"
       d="m 288.39633,641.50229 c 0.067,1.832 1.486,2.634 3.124,2.634 1.176,0 2.019,-0.185 2.791,-0.468 l 0.379,1.759 c -0.865,0.367 -2.066,0.64 -3.534,0.64 -3.285,0 -5.21,-2.027 -5.21,-5.125 0,-2.791 1.693,-5.43 4.947,-5.43 3.29,0 4.36,2.703 4.36,4.916 0,0.476 -0.042,0.856 -0.09,1.094 l -6.767,-0.02 z m 4.448,-1.781 c 0.012,-0.937 -0.396,-2.464 -2.109,-2.464 -1.575,0 -2.23,1.429 -2.345,2.464 l 4.454,0 z" />
    <path
       inkscape:connector-curvature="0"
       id="path3438"
       style="fill:#000000"
       d="m 303.71853,641.48569 c 0,0.268 -0.02,0.518 -0.078,0.746 -0.257,1.107 -1.163,1.819 -2.209,1.819 -1.61,0 -2.532,-1.357 -2.532,-3.214 0,-1.876 0.913,-3.329 2.56,-3.329 1.151,0 1.975,0.812 2.2,1.796 0.044,0.207 0.059,0.463 0.059,0.667 l 0,1.515 z m 2.556,-9.621 -2.556,-0.721 0,5.704 -0.042,0 c -0.453,-0.747 -1.451,-1.317 -2.836,-1.317 -2.433,0 -4.551,2.012 -4.535,5.399 0,3.108 1.913,5.167 4.329,5.167 1.459,0 2.681,-0.695 3.285,-1.828 l 0.045,0 0.115,1.601 2.28,0 c -0.047,-0.688 -0.085,-1.8 -0.085,-2.835 l 0,-11.17 z" />
    <path
       inkscape:connector-curvature="0"
       id="path3440"
       style="fill:#000000"
       d="m 313.03883,635.51889 c -0.771,0 -1.462,0.222 -2.041,0.58 -0.602,0.352 -1.091,0.897 -1.383,1.459 l -0.041,0 0,-4.731 -1.001,-0.296 0,13.339 1.001,0 0,-6.188 c 0,-0.411 0.031,-0.696 0.137,-0.997 0.432,-1.26 1.619,-2.292 3.054,-2.292 2.072,0 2.79,1.661 2.79,3.483 l 0,5.994 1.001,0 0,-6.103 c 0,-3.769 -2.558,-4.248 -3.517,-4.248" />
    <path
       inkscape:connector-curvature="0"
       id="path3442"
       style="fill:#000000"
       d="m 325.54183,643.46619 c 0,0.801 0.032,1.628 0.148,2.403 l -0.922,0 -0.148,-1.449 -0.047,0 c -0.491,0.78 -1.619,1.68 -3.228,1.68 -2.037,0 -2.986,-1.433 -2.986,-2.781 0,-2.335 2.064,-3.743 6.183,-3.699 l 0,-0.27 c 0,-1.002 -0.195,-2.998 -2.591,-2.983 -0.886,0 -1.809,0.237 -2.542,0.754 l -0.318,-0.727 c 0.926,-0.627 2.055,-0.875 2.971,-0.875 2.921,0 3.48,2.192 3.48,4 l 0,3.947 z m -1,-3.005 c -2.206,-0.063 -5.117,0.271 -5.117,2.7 0,1.454 0.96,2.108 2.015,2.108 1.687,0 2.647,-1.044 2.997,-2.029 0.072,-0.215 0.105,-0.433 0.105,-0.607 l 0,-2.172 z" />
    <path
       inkscape:connector-curvature="0"
       id="path3444"
       style="fill:#000000"
       d="m 329.52913,633.52089 0,2.229 2.887,0 0,0.812 -2.887,0 0,6.577 c 0,1.287 0.399,2.093 1.488,2.093 0.521,0 0.891,-0.068 1.15,-0.159 l 0.121,0.775 c -0.327,0.138 -0.786,0.243 -1.397,0.243 -0.739,0 -1.352,-0.232 -1.748,-0.716 -0.458,-0.532 -0.615,-1.381 -0.615,-2.414 l 0,-6.399 -1.708,0 0,-0.812 1.708,0 0,-1.86 1.001,-0.369 z" />
    <use
       xlink:href="#g3880"
       height="30"
       width="93"
       y="0"
       x="0"
       id="use3884"
       transform="translate(61.718299,0.0205039)" />
  </g>
  <g
     transform="matrix(0.18828005,0,0,-0.18828005,413.28351,91.794058)"
     id="g10">
    <g
       id="g12">
      <g
         clip-path="url(#clipPath16)"
         id="g14">
        <g
           transform="translate(612.1582,483.5337)"
           id="g20">
          <path
             inkscape:connector-curvature="0"
             id="path22"
             style="fill:#d62a24;fill-opacity:1;fill-rule:evenodd;stroke:none"
             d="m 0,0 1.658,-11.531 c -38.736,-0.225 -75.914,-6.385 -111.447,-18.168 -29.686,-9.959 -62.947,-25.856 -99.796,-47.89 -46.123,-28.166 -78.128,-46.185 -95.638,-54.439 -37.68,-17.817 -75.815,-27.965 -114.522,-30.319 44.616,-1.691 86.975,4.034 127.59,17.377 29.908,9.951 63.6,26.084 100.866,48.539 40.865,24.144 72.449,41.105 94.791,51.074 32.09,13.869 64.822,24.279 98.529,31.169 L 3.697,-25.629 40.217,-7.207 0,0 Z" />
        </g>
        <g
           transform="translate(137.8179,385.7261)"
           id="g24">
          <path
             inkscape:connector-curvature="0"
             id="path26"
             style="fill:#100f0d;fill-opacity:1;fill-rule:nonzero;stroke:none"
             d="M 0,0 C 97.92,123.616 266.317,116.356 318.379,51.854 287.29,72.464 241.531,88.181 205.734,83.028 262.201,75.97 280.172,49.894 288.834,37.653 269.21,51.532 219.41,81.935 168.771,72.687 204.338,68.306 245.203,51.513 261.967,21.71 233.324,42.901 185.393,69.96 139.881,59.495 179.1,54.175 218.52,37.368 236.143,4.889 204.436,27.11 89.984,73.165 0,0" />
        </g>
        <g
           transform="translate(709.9414,417.4263)"
           id="g28">
          <path
             inkscape:connector-curvature="0"
             id="path30"
             style="fill:#100f0d;fill-opacity:1;fill-rule:nonzero;stroke:none"
             d="m 0,0 c -97.826,-123.886 -270.195,-115.477 -322.26,-50.94 31.1,-20.649 89.658,-43.965 124.91,-36.325 -55.603,9.545 -86.986,38.188 -95.375,50.504 19.34,-13.961 70,-45.633 120.643,-36.385 -35.576,4.383 -76.992,22.522 -94.051,52.233 28.635,-21.152 77.707,-49.412 123.258,-39.233 -39.252,5.594 -79.533,23.688 -97.438,56.085 C -208.313,-26.214 -89.904,-73.437 0,0" />
        </g>
        <g
           transform="translate(197.9233,290.4658)"
           id="g32">
          <path
             inkscape:connector-curvature="0"
             id="path34"
             style="fill:#100f0d;fill-opacity:1;fill-rule:nonzero;stroke:none"
             d="M 0,0 9.967,0 21.29,-56.555 32.484,0 l 9.475,0 7.09,-81.578 -10.218,0 -3.214,57.326 -10.97,-57.326 -7.467,0 -10.711,57.326 -3.362,-57.326 -9.979,0 L 0,0 Z" />
        </g>
        <path
           inkscape:connector-curvature="0"
           id="path36"
           style="fill:#100f0d;fill-opacity:1;fill-rule:nonzero;stroke:none"
           d="m 273.759,290.466 11.213,0 0,-81.578 -11.213,0 0,81.578 z" />
        <g
           transform="translate(323.1851,254.9248)"
           id="g38">
          <path
             inkscape:connector-curvature="0"
             id="path40"
             style="fill:#100f0d;fill-opacity:1;fill-rule:nonzero;stroke:none"
             d="m 0,0 c 4.582,0 8.289,0.607 11.168,1.932 2.84,1.287 4.303,4.713 4.412,10.3 l 0,1.504 c 0,5.748 -1.234,9.2 -3.756,10.362 C 9.344,25.283 5.414,25.863 0,25.863 L 0,0 Z m 0,-46.037 -11.09,0 0,81.621 13.344,0 c 7.478,0 13.4,-1.361 17.807,-4.164 4.412,-2.807 6.591,-8.387 6.591,-16.69 0,-5.65 -1.115,-10.273 -3.295,-13.834 -2.211,-3.576 -6.211,-5.785 -12.002,-6.73 l 19.418,-40.203 -11.964,0 -18.539,39.674 -0.27,0 0,-39.674 z" />
        </g>
        <g
           transform="translate(397.6636,269.4229)"
           id="g42">
          <path
             inkscape:connector-curvature="0"
             id="path44"
             style="fill:#100f0d;fill-opacity:1;fill-rule:nonzero;stroke:none"
             d="m 0,0 -7.479,-35.225 14.808,0 L 0,0 Z m -5.234,21.086 10.335,0 18.915,-81.621 -10.818,0 -4.109,16.224 -18.564,0 -3.855,-16.224 -11.096,0 19.192,81.621 z" />
        </g>
        <g
           transform="translate(449.5801,290.4658)"
           id="g46">
          <path
             inkscape:connector-curvature="0"
             id="path48"
             style="fill:#100f0d;fill-opacity:1;fill-rule:nonzero;stroke:none"
             d="m 0,0 10.342,0 21.685,-56.555 0,56.555 10.202,0 0,-81.578 -10.202,0 -21.418,57.156 0,-57.156 L 0,-81.578 0,0 Z" />
        </g>
        <g
           transform="translate(532.2734,280.3643)"
           id="g50">
          <path
             inkscape:connector-curvature="0"
             id="path52"
             style="fill:#100f0d;fill-opacity:1;fill-rule:nonzero;stroke:none"
             d="m 0,0 -14.928,0 0,10.145 41.1,0 0,-10.145 -15.076,0 0,-71.477 L 0,-71.477 0,0 Z" />
        </g>
        <path
           inkscape:connector-curvature="0"
           id="path54"
           style="fill:#100f0d;fill-opacity:1;fill-rule:nonzero;stroke:none"
           d="m 580.771,290.466 11.195,0 0,-81.578 -11.195,0 0,81.578 z" />
        <g
           transform="translate(617.9551,222.6709)"
           id="g56">
          <path
             inkscape:connector-curvature="0"
             id="path58"
             style="fill:#100f0d;fill-opacity:1;fill-rule:nonzero;stroke:none"
             d="m 0,0 c 0.354,-0.141 0.672,-0.322 1.004,-0.477 1.17,-0.677 2.434,-1.293 3.738,-1.878 1.334,-0.592 2.696,-1.086 4.119,-1.524 0.735,-0.129 1.496,-0.275 2.301,-0.424 0.789,-0.099 1.559,-0.176 2.291,-0.176 l 0.559,0 0.592,0 c 1.636,0.176 3.224,0.727 4.718,1.674 1.498,0.973 2.598,2.41 3.366,4.301 0.255,0.43 0.423,0.832 0.55,1.272 0.114,0.423 0.227,0.859 0.326,1.361 0,0.414 0.02,0.838 0.041,1.25 0.057,0.391 0.079,0.83 0.079,1.226 0,2.905 -0.996,5.614 -2.928,8.071 -1.953,2.431 -4.135,4.697 -6.576,6.787 -0.803,0.662 -1.608,1.31 -2.326,1.922 -0.743,0.629 -1.51,1.23 -2.258,1.844 -2.752,2.314 -5.227,4.865 -7.485,7.689 -2.238,2.836 -3.718,6.129 -4.451,9.875 0,0.311 -0.056,0.637 -0.113,1.004 -0.127,0.301 -0.127,0.646 -0.127,0.984 -0.1,0 -0.149,0.045 -0.149,0.114 l 0,0.226 c -0.048,0.338 -0.148,0.721 -0.197,1.158 -0.021,0.373 -0.049,0.762 -0.049,1.102 0,3.031 0.655,6.014 1.932,8.857 1.291,2.846 3.104,5.323 5.412,7.387 1.67,1.574 3.492,2.752 5.467,3.492 2.018,0.75 4.035,1.201 6.109,1.362 l 0.733,0 0.777,0 c 1.057,0 2.137,-0.036 3.215,-0.176 1.101,-0.125 2.23,-0.323 3.375,-0.565 1.353,-0.324 2.637,-0.697 3.906,-1.113 1.285,-0.424 2.569,-0.945 3.811,-1.51 l 0,-10.92 c -0.143,0.082 -0.34,0.166 -0.565,0.295 -0.199,0.155 -0.396,0.254 -0.543,0.34 -1.093,0.555 -2.252,1.135 -3.564,1.65 -1.268,0.565 -2.574,0.973 -3.906,1.311 -0.75,0.191 -1.51,0.326 -2.25,0.451 -0.743,0.137 -1.504,0.199 -2.239,0.199 l -0.324,0 -0.416,0 C 16.297,58.34 14.66,57.893 13.074,57.057 11.529,56.238 10.271,54.869 9.342,52.965 9.102,52.457 8.877,51.908 8.678,51.273 8.453,50.666 8.305,50.031 8.234,49.354 c 0,-0.311 -0.021,-0.633 -0.05,-0.989 -0.049,-0.322 -0.071,-0.662 -0.071,-0.984 0,-0.34 0.022,-0.678 0.071,-0.988 0.029,-0.34 0.05,-0.623 0.05,-0.883 0.071,-0.662 0.219,-1.305 0.444,-1.955 0.199,-0.612 0.424,-1.186 0.664,-1.756 1.347,-2.574 3.019,-4.795 5.115,-6.674 2.08,-1.877 4.238,-3.717 6.477,-5.551 2.48,-1.99 4.888,-4.099 7.16,-6.236 2.269,-2.174 4.049,-4.791 5.289,-7.859 0.34,-0.741 0.566,-1.588 0.763,-2.555 0.155,-0.959 0.282,-1.889 0.352,-2.815 0,-0.498 0.041,-0.972 0.07,-1.423 0.057,-0.446 0.078,-0.938 0.078,-1.442 0,-0.486 -0.021,-1.006 -0.078,-1.558 -0.029,-0.549 -0.099,-1.098 -0.197,-1.692 -0.154,-1.39 -0.43,-2.808 -0.789,-4.232 -0.367,-1.412 -0.848,-2.709 -1.439,-3.844 -1.842,-3.746 -4.416,-6.385 -7.741,-7.939 -3.308,-1.555 -6.793,-2.299 -10.445,-2.299 -0.734,0 -1.531,0.043 -2.301,0.129 -0.761,0.078 -1.595,0.162 -2.422,0.238 -1.74,0.17 -3.504,0.553 -5.226,1.129 -1.75,0.578 -3.358,1.256 -4.862,1.996 l 0,11.336 C -0.605,0.34 -0.295,0.186 0,0" />
        </g>
        <g
           transform="translate(200.6743,167.7217)"
           id="g60">
          <path
             inkscape:connector-curvature="0"
             id="path62"
             style="fill:#100f0d;fill-opacity:1;fill-rule:nonzero;stroke:none"
             d="m 0,0 c -0.885,0 -1.735,-0.033 -2.554,-0.1 -0.818,-0.066 -1.47,-0.166 -1.956,-0.298 l 0,-19.764 c 0.177,-0.088 0.452,-0.145 0.829,-0.166 0.375,-0.022 0.763,-0.043 1.16,-0.067 0.399,-0.021 0.786,-0.033 1.162,-0.033 l 0.829,0 c 1.236,0 2.43,0.155 3.581,0.465 1.149,0.309 2.166,0.873 3.051,1.692 0.883,0.818 1.602,1.923 2.155,3.316 0.553,1.392 0.829,3.15 0.829,5.271 0,1.858 -0.255,3.405 -0.763,4.643 -0.509,1.238 -1.172,2.232 -1.99,2.984 C 5.515,-1.305 4.554,-0.773 3.448,-0.465 2.343,-0.156 1.194,0 0,0 m -9.483,3.582 c 1.414,0.397 2.918,0.662 4.509,0.795 1.592,0.133 3.161,0.199 4.709,0.199 1.768,0 3.515,-0.199 5.239,-0.597 1.724,-0.397 3.283,-1.127 4.675,-2.188 1.393,-1.061 2.521,-2.521 3.383,-4.377 0.863,-1.857 1.293,-4.223 1.293,-7.098 0,-2.785 -0.409,-5.15 -1.226,-7.095 -0.819,-1.946 -1.903,-3.528 -3.25,-4.742 -1.35,-1.217 -2.897,-2.1 -4.643,-2.653 -1.747,-0.553 -3.548,-0.83 -5.404,-0.83 l -0.864,0 c -0.397,0 -0.818,0.012 -1.259,0.033 -0.443,0.024 -0.873,0.055 -1.293,0.1 -0.421,0.045 -0.719,0.088 -0.896,0.133 l 0,-17.641 -4.973,0 0,45.961 z" />
        </g>
        <g
           transform="translate(224.6421,158.5029)"
           id="g64">
          <path
             inkscape:connector-curvature="0"
             id="path66"
             style="fill:#100f0d;fill-opacity:1;fill-rule:nonzero;stroke:none"
             d="m 0,0 0,-20.295 c 0,-3.359 0.342,-5.76 1.028,-7.195 0.685,-1.438 1.934,-2.156 3.747,-2.156 0.929,0 1.758,0.187 2.487,0.564 0.73,0.375 1.382,0.873 1.957,1.492 0.574,0.619 1.083,1.326 1.525,2.123 0.442,0.795 0.796,1.613 1.062,2.453 l 0,23.014 4.774,0 0,-23.742 c 0,-1.592 0.056,-3.24 0.166,-4.942 0.11,-1.703 0.275,-3.195 0.498,-4.476 l -3.383,0 -1.193,4.642 -0.199,0 c -0.752,-1.459 -1.836,-2.73 -3.25,-3.814 -1.416,-1.082 -3.184,-1.625 -5.306,-1.625 -1.415,0 -2.653,0.178 -3.714,0.531 -1.06,0.354 -1.968,0.994 -2.719,1.924 -0.752,0.928 -1.316,2.199 -1.691,3.813 -0.377,1.613 -0.564,3.681 -0.564,6.201 L -4.775,0 0,0 Z" />
        </g>
        <g
           transform="translate(248.2124,158.5029)"
           id="g68">
          <path
             inkscape:connector-curvature="0"
             id="path70"
             style="fill:#100f0d;fill-opacity:1;fill-rule:nonzero;stroke:none"
             d="m 0,0 3.383,0 0.861,-3.516 0.199,0 c 0.62,1.284 1.426,2.289 2.421,3.018 0.995,0.73 2.199,1.096 3.615,1.096 1.016,0 2.166,-0.2 3.449,-0.598 l -0.929,-4.842 c -1.15,0.399 -2.167,0.598 -3.051,0.598 -1.415,0 -2.565,-0.41 -3.448,-1.227 -0.886,-0.82 -1.459,-1.914 -1.725,-3.283 l 0,-24.406 L 0,-33.16 0,0 Z" />
        </g>
        <g
           transform="translate(281.8237,145.3721)"
           id="g72">
          <path
             inkscape:connector-curvature="0"
             id="path74"
             style="fill:#100f0d;fill-opacity:1;fill-rule:nonzero;stroke:none"
             d="m 0,0 c 0.088,3.314 -0.377,5.746 -1.394,7.295 -1.017,1.547 -2.41,2.32 -4.178,2.32 -2.033,0 -3.647,-0.773 -4.841,-2.32 C -11.607,5.746 -12.314,3.314 -12.535,0 L 0,0 Z m 3.713,-17.775 c -1.061,-0.973 -2.41,-1.725 -4.045,-2.254 -1.637,-0.532 -3.361,-0.797 -5.174,-0.797 -2.078,0 -3.879,0.41 -5.404,1.226 -1.526,0.819 -2.786,1.991 -3.781,3.516 -0.995,1.525 -1.724,3.35 -2.188,5.473 -0.465,2.121 -0.697,4.509 -0.697,7.162 0,5.658 1.039,9.97 3.117,12.931 2.078,2.963 5.018,4.446 8.82,4.446 1.239,0 2.465,-0.157 3.682,-0.465 1.215,-0.311 2.31,-0.93 3.283,-1.858 C 2.298,10.678 3.083,9.373 3.68,7.693 4.277,6.012 4.576,3.822 4.576,1.127 4.576,0.375 4.543,-0.432 4.477,-1.295 4.41,-2.156 4.332,-3.051 4.244,-3.98 l -16.846,0 c 0,-1.901 0.155,-3.625 0.464,-5.172 0.31,-1.549 0.796,-2.864 1.46,-3.948 0.662,-1.084 1.514,-1.923 2.553,-2.519 1.038,-0.598 2.332,-0.897 3.88,-0.897 1.194,0 2.376,0.221 3.548,0.664 1.172,0.442 2.066,0.973 2.685,1.592 l 1.725,-3.515 z" />
        </g>
        <g
           transform="translate(318.2983,167.7217)"
           id="g76">
          <path
             inkscape:connector-curvature="0"
             id="path78"
             style="fill:#100f0d;fill-opacity:1;fill-rule:nonzero;stroke:none"
             d="m 0,0 c -0.885,0 -1.735,-0.033 -2.553,-0.1 -0.818,-0.066 -1.47,-0.166 -1.957,-0.298 l 0,-19.764 c 0.177,-0.088 0.453,-0.145 0.83,-0.166 0.375,-0.022 0.762,-0.043 1.16,-0.067 0.399,-0.021 0.785,-0.033 1.161,-0.033 l 0.829,0 c 1.237,0 2.43,0.155 3.581,0.465 1.15,0.309 2.166,0.873 3.051,1.692 0.884,0.818 1.602,1.923 2.156,3.316 0.553,1.392 0.828,3.15 0.828,5.271 0,1.858 -0.254,3.405 -0.762,4.643 -0.51,1.238 -1.172,2.232 -1.99,2.984 -0.818,0.752 -1.78,1.284 -2.885,1.592 C 2.344,-0.156 1.194,0 0,0 m -9.483,3.582 c 1.415,0.397 2.918,0.662 4.509,0.795 1.592,0.133 3.161,0.199 4.709,0.199 1.768,0 3.515,-0.199 5.24,-0.597 1.724,-0.397 3.283,-1.127 4.675,-2.188 1.393,-1.061 2.52,-2.521 3.383,-4.377 0.862,-1.857 1.293,-4.223 1.293,-7.098 0,-2.785 -0.41,-5.15 -1.226,-7.095 -0.82,-1.946 -1.903,-3.528 -3.25,-4.742 -1.35,-1.217 -2.897,-2.1 -4.643,-2.653 -1.748,-0.553 -3.549,-0.83 -5.405,-0.83 l -0.863,0 c -0.398,0 -0.818,0.012 -1.259,0.033 -0.444,0.024 -0.874,0.055 -1.293,0.1 -0.422,0.045 -0.72,0.088 -0.897,0.133 l 0,-17.641 -4.973,0 0,45.961 z" />
        </g>
        <g
           transform="translate(342.6313,133.2354)"
           id="g80">
          <path
             inkscape:connector-curvature="0"
             id="path82"
             style="fill:#100f0d;fill-opacity:1;fill-rule:nonzero;stroke:none"
             d="m 0,0 c 0,-1.549 0.21,-2.654 0.63,-3.316 0.42,-0.664 1.006,-0.997 1.758,-0.997 0.928,0 2.011,0.245 3.25,0.731 L 6.102,-7.43 C 5.526,-7.783 4.72,-8.068 3.681,-8.291 2.642,-8.512 1.702,-8.623 0.862,-8.623 c -1.68,0 -3.041,0.521 -4.078,1.559 -1.04,1.039 -1.558,2.863 -1.558,5.472 l 0,40.123 4.774,0 L 0,0 Z" />
        </g>
        <g
           transform="translate(367.5015,140.4639)"
           id="g84">
          <path
             inkscape:connector-curvature="0"
             id="path86"
             style="fill:#100f0d;fill-opacity:1;fill-rule:nonzero;stroke:none"
             d="m 0,0 c -0.438,0.043 -0.874,0.076 -1.311,0.1 -0.437,0.021 -0.874,0.033 -1.31,0.033 -1.049,0 -2.076,-0.09 -3.081,-0.266 -1.005,-0.178 -1.901,-0.486 -2.686,-0.928 -0.786,-0.443 -1.409,-1.041 -1.868,-1.791 -0.459,-0.752 -0.687,-1.703 -0.687,-2.851 0,-1.77 0.425,-3.141 1.277,-4.113 0.852,-0.973 1.955,-1.459 3.309,-1.459 1.835,0 3.253,0.441 4.259,1.326 1.005,0.885 1.703,1.857 2.098,2.918 L 0,0 Z m -14.26,16.049 c 1.282,0.797 2.841,1.416 4.676,1.857 1.834,0.442 3.77,0.664 5.803,0.664 1.857,0 3.349,-0.277 4.476,-0.83 C 1.824,17.188 2.707,16.436 3.35,15.486 3.989,14.535 4.41,13.451 4.609,12.236 4.809,11.02 4.907,9.748 4.907,8.422 4.907,5.77 4.851,3.184 4.736,0.662 4.623,-1.857 4.566,-4.244 4.566,-6.5 c 0,-1.68 0.057,-3.238 0.17,-4.676 0.115,-1.437 0.327,-2.797 0.635,-4.078 l -3.738,0 -1.16,3.912 -0.263,0 c -0.659,-1.15 -1.624,-2.144 -2.897,-2.984 -1.272,-0.84 -2.984,-1.26 -5.134,-1.26 -2.37,0 -4.312,0.83 -5.825,2.486 -1.515,1.659 -2.272,3.948 -2.272,6.866 0,1.9 0.317,3.492 0.953,4.775 0.637,1.281 1.535,2.32 2.698,3.117 1.162,0.795 2.543,1.36 4.144,1.692 1.601,0.33 3.389,0.496 5.361,0.496 l 1.315,0 c 0.438,0 0.9,-0.022 1.383,-0.067 0.13,1.371 0.197,2.588 0.197,3.649 0,2.519 -0.373,4.289 -1.117,5.306 -0.746,1.016 -2.104,1.526 -4.076,1.526 -1.226,0 -2.562,-0.19 -4.008,-0.565 -1.446,-0.377 -2.651,-0.851 -3.614,-1.425 l -1.578,3.779 z" />
        </g>
        <g
           transform="translate(387.437,137.0811)"
           id="g88">
          <path
             inkscape:connector-curvature="0"
             id="path90"
             style="fill:#100f0d;fill-opacity:1;fill-rule:nonzero;stroke:none"
             d="m 0,0 1.393,-6.434 0.332,0 L 2.719,0 7.76,21.422 l 4.842,0 -7.893,-29.777 c -0.619,-2.389 -1.238,-4.622 -1.857,-6.7 -0.62,-2.078 -1.293,-3.881 -2.023,-5.406 -0.729,-1.525 -1.548,-2.719 -2.454,-3.58 -0.906,-0.863 -1.979,-1.293 -3.217,-1.293 -1.238,0 -2.32,0.199 -3.25,0.596 l 0.797,4.509 c 0.618,-0.22 1.236,-0.265 1.857,-0.132 0.618,0.132 1.204,0.509 1.757,1.129 0.552,0.619 1.062,1.535 1.526,2.752 0.464,1.216 0.872,2.796 1.227,4.742 l -10.744,33.16 5.438,0 L 0,0 Z" />
        </g>
        <g
           transform="translate(423.7129,148.5557)"
           id="g92">
          <path
             inkscape:connector-curvature="0"
             id="path94"
             style="fill:#d62a24;fill-opacity:1;fill-rule:nonzero;stroke:none"
             d="m 0,0 c 0,-2.609 0.188,-5.086 0.564,-7.43 0.375,-2.343 0.961,-4.398 1.758,-6.168 0.795,-1.767 1.834,-3.181 3.117,-4.244 1.282,-1.06 2.829,-1.592 4.643,-1.592 3.316,0 5.836,1.592 7.561,4.776 1.724,3.183 2.586,8.068 2.586,14.658 0,2.563 -0.188,5.018 -0.563,7.361 -0.377,2.342 -0.963,4.41 -1.758,6.202 -0.797,1.791 -1.836,3.216 -3.117,4.277 -1.283,1.06 -2.852,1.592 -4.709,1.592 -3.273,0 -5.769,-1.592 -7.494,-4.776 C 0.863,11.473 0,6.586 0,0 m -5.238,0 c 0,7.869 1.259,13.838 3.779,17.906 2.522,4.067 6.367,6.102 11.541,6.102 2.785,0 5.15,-0.565 7.096,-1.692 1.945,-1.127 3.525,-2.73 4.742,-4.808 1.215,-2.078 2.111,-4.6 2.685,-7.561 C 25.18,6.984 25.469,3.668 25.469,0 c 0,-7.871 -1.272,-13.84 -3.815,-17.908 -2.543,-4.069 -6.4,-6.102 -11.572,-6.102 -2.742,0 -5.086,0.565 -7.031,1.692 -1.946,1.127 -3.537,2.73 -4.776,4.808 -1.238,2.078 -2.132,4.598 -2.685,7.561 -0.553,2.961 -0.828,6.277 -0.828,9.949" />
        </g>
        <g
           transform="translate(460.3301,130.5811)"
           id="g96">
          <path
             inkscape:connector-curvature="0"
             id="path98"
             style="fill:#d62a24;fill-opacity:1;fill-rule:nonzero;stroke:none"
             d="m 0,0 c 0.617,-0.529 1.314,-0.951 2.088,-1.26 0.773,-0.308 1.801,-0.465 3.084,-0.465 2.344,0 4.201,1.196 5.572,3.582 1.369,2.389 2.055,5.791 2.055,10.213 0,1.858 -0.121,3.537 -0.365,5.041 -0.243,1.502 -0.629,2.797 -1.161,3.881 -0.529,1.082 -1.205,1.922 -2.021,2.52 -0.82,0.597 -1.824,0.894 -3.02,0.894 C 3.006,24.406 0.928,22.439 0,18.504 L 0,0 Z m -4.775,27.922 3.38,0 0.731,-3.582 0.266,0 c 1.634,2.918 4.199,4.379 7.693,4.379 3.492,0 6.111,-1.305 7.859,-3.914 1.746,-2.61 2.619,-6.875 2.619,-12.801 0,-2.785 -0.289,-5.295 -0.863,-7.527 C 16.336,2.244 15.518,0.342 14.457,-1.227 13.396,-2.797 12.104,-3.99 10.578,-4.809 9.053,-5.625 7.361,-6.035 5.504,-6.035 4.221,-6.035 3.205,-5.957 2.453,-5.803 1.701,-5.646 0.883,-5.326 0,-4.842 l 0,-13.662 -4.775,0 0,46.426 z" />
        </g>
        <g
           transform="translate(500.209,145.3721)"
           id="g100">
          <path
             inkscape:connector-curvature="0"
             id="path102"
             style="fill:#d62a24;fill-opacity:1;fill-rule:nonzero;stroke:none"
             d="m 0,0 c 0.088,3.314 -0.377,5.746 -1.393,7.295 -1.017,1.547 -2.412,2.32 -4.179,2.32 -2.033,0 -3.647,-0.773 -4.842,-2.32 C -11.607,5.746 -12.314,3.314 -12.535,0 L 0,0 Z m 3.713,-17.775 c -1.061,-0.973 -2.41,-1.725 -4.045,-2.254 -1.637,-0.532 -3.361,-0.797 -5.174,-0.797 -2.078,0 -3.879,0.41 -5.404,1.226 -1.526,0.819 -2.785,1.991 -3.781,3.516 -0.995,1.525 -1.725,3.35 -2.188,5.473 -0.465,2.121 -0.697,4.509 -0.697,7.162 0,5.658 1.039,9.97 3.117,12.931 2.078,2.963 5.018,4.446 8.82,4.446 1.239,0 2.465,-0.157 3.682,-0.465 1.215,-0.311 2.311,-0.93 3.283,-1.858 C 2.297,10.678 3.084,9.373 3.68,7.693 4.277,6.012 4.576,3.822 4.576,1.127 4.576,0.375 4.543,-0.432 4.477,-1.295 4.41,-2.156 4.332,-3.051 4.244,-3.98 l -16.846,0 c 0,-1.901 0.155,-3.625 0.465,-5.172 0.309,-1.549 0.795,-2.864 1.459,-3.948 0.662,-1.084 1.514,-1.923 2.553,-2.519 1.039,-0.598 2.332,-0.897 3.879,-0.897 1.195,0 2.377,0.221 3.549,0.664 1.172,0.442 2.066,0.973 2.685,1.592 l 1.725,-3.515 z" />
        </g>
        <g
           transform="translate(527.3672,125.3428)"
           id="g104">
          <path
             inkscape:connector-curvature="0"
             id="path106"
             style="fill:#d62a24;fill-opacity:1;fill-rule:nonzero;stroke:none"
             d="m 0,0 0,20.229 c 0,3.314 -0.389,5.712 -1.162,7.195 -0.774,1.48 -2.154,2.221 -4.145,2.221 -1.769,0 -3.228,-0.53 -4.377,-1.592 -1.15,-1.061 -1.99,-2.365 -2.519,-3.912 l 0,-24.141 -4.776,0 0,33.16 3.448,0 0.863,-3.515 0.199,0 c 0.84,1.195 1.979,2.21 3.416,3.05 1.436,0.84 3.149,1.262 5.139,1.262 1.414,0 2.664,-0.199 3.748,-0.598 1.082,-0.398 1.988,-1.072 2.719,-2.023 0.728,-0.951 1.281,-2.221 1.658,-3.813 0.375,-1.591 0.562,-3.605 0.562,-6.035 L 4.773,0 0,0 Z" />
        </g>
        <g
           transform="translate(538.9199,131.5107)"
           id="g108">
          <path
             inkscape:connector-curvature="0"
             id="path110"
             style="fill:#d62a24;fill-opacity:1;fill-rule:nonzero;stroke:none"
             d="m 0,0 c 0.838,-0.576 2.021,-1.117 3.547,-1.625 1.525,-0.51 3.262,-0.764 5.207,-0.764 2.475,0 4.486,0.608 6.035,1.825 1.547,1.214 2.32,3.127 2.32,5.736 0,1.724 -0.441,3.228 -1.326,4.51 -0.885,1.283 -1.988,2.464 -3.314,3.548 -1.328,1.084 -2.754,2.145 -4.28,3.184 -1.525,1.039 -2.951,2.19 -4.277,3.449 -1.326,1.26 -2.432,2.707 -3.316,4.344 -0.885,1.635 -1.326,3.604 -1.326,5.902 0,3.715 1.117,6.467 3.349,8.258 2.233,1.789 5.141,2.686 8.721,2.686 2.211,0 4.18,-0.199 5.902,-0.598 1.725,-0.396 3.117,-0.906 4.18,-1.525 L 19.83,34.553 c -0.797,0.486 -1.935,0.927 -3.416,1.326 -1.482,0.398 -3.195,0.598 -5.141,0.598 -2.386,0 -4.156,-0.586 -5.304,-1.758 -1.151,-1.172 -1.725,-2.643 -1.725,-4.41 0,-1.549 0.442,-2.918 1.326,-4.112 0.885,-1.195 1.991,-2.322 3.317,-3.383 1.326,-1.062 2.752,-2.134 4.277,-3.216 1.525,-1.084 2.951,-2.289 4.277,-3.616 1.327,-1.326 2.432,-2.83 3.317,-4.509 0.885,-1.68 1.326,-3.67 1.326,-5.969 0,-3.891 -1.15,-6.942 -3.449,-9.152 -2.299,-2.211 -5.549,-3.317 -9.748,-3.317 -2.653,0 -4.832,0.244 -6.533,0.731 -1.704,0.486 -3.063,1.037 -4.079,1.658 L 0,0 Z" />
        </g>
        <g
           transform="translate(562.6484,158.5029)"
           id="g112">
          <path
             inkscape:connector-curvature="0"
             id="path114"
             style="fill:#d62a24;fill-opacity:1;fill-rule:nonzero;stroke:none"
             d="m 0,0 4.047,0 0,6.566 4.775,1.526 0,-8.092 7.162,0 0,-4.311 -7.162,0 0,-19.763 c 0,-1.947 0.231,-3.35 0.696,-4.211 0.464,-0.863 1.226,-1.295 2.289,-1.295 0.882,0 1.646,0.1 2.287,0.299 0.64,0.199 1.338,0.453 2.09,0.763 l 0.927,-3.781 c -0.972,-0.486 -2.045,-0.873 -3.216,-1.16 -1.172,-0.287 -2.399,-0.432 -3.68,-0.432 -2.213,0 -3.793,0.719 -4.742,2.157 -0.952,1.435 -1.426,3.769 -1.426,6.996 l 0,20.427 L 0,-4.311 0,0 Z" />
        </g>
        <g
           transform="translate(598.4297,140.4639)"
           id="g116">
          <path
             inkscape:connector-curvature="0"
             id="path118"
             style="fill:#d62a24;fill-opacity:1;fill-rule:nonzero;stroke:none"
             d="m 0,0 c -0.438,0.043 -0.875,0.076 -1.313,0.1 -0.435,0.021 -0.873,0.033 -1.308,0.033 -1.049,0 -2.076,-0.09 -3.082,-0.266 -1.004,-0.178 -1.901,-0.486 -2.686,-0.928 -0.787,-0.443 -1.408,-1.041 -1.867,-1.791 -0.459,-0.752 -0.687,-1.703 -0.687,-2.851 0,-1.77 0.425,-3.141 1.277,-4.113 0.852,-0.973 1.955,-1.459 3.309,-1.459 1.834,0 3.253,0.441 4.259,1.326 1.004,0.885 1.703,1.857 2.098,2.918 L 0,0 Z m -14.26,16.049 c 1.281,0.797 2.84,1.416 4.676,1.857 1.834,0.442 3.77,0.664 5.803,0.664 1.857,0 3.349,-0.277 4.476,-0.83 1.127,-0.552 2.012,-1.304 2.653,-2.254 0.64,-0.951 1.062,-2.035 1.261,-3.25 C 4.807,11.02 4.906,9.748 4.906,8.422 4.906,5.77 4.85,3.184 4.736,0.662 4.621,-1.857 4.566,-4.244 4.566,-6.5 c 0,-1.68 0.055,-3.238 0.17,-4.676 0.114,-1.437 0.325,-2.797 0.635,-4.078 l -3.738,0 -1.16,3.912 -0.264,0 c -0.658,-1.15 -1.623,-2.144 -2.897,-2.984 -1.271,-0.84 -2.984,-1.26 -5.134,-1.26 -2.369,0 -4.311,0.83 -5.826,2.486 -1.514,1.659 -2.27,3.948 -2.27,6.866 0,1.9 0.316,3.492 0.953,4.775 0.637,1.281 1.535,2.32 2.697,3.117 1.163,0.795 2.543,1.36 4.145,1.692 1.6,0.33 3.387,0.496 5.361,0.496 l 1.315,0 c 0.437,0 0.898,-0.022 1.383,-0.067 0.13,1.371 0.195,2.588 0.195,3.649 0,2.519 -0.373,4.289 -1.115,5.306 -0.746,1.016 -2.106,1.526 -4.077,1.526 -1.226,0 -2.562,-0.19 -4.007,-0.565 -1.448,-0.377 -2.651,-0.851 -3.616,-1.425 l -1.576,3.779 z" />
        </g>
        <g
           transform="translate(628.5195,127.001)"
           id="g120">
          <path
             inkscape:connector-curvature="0"
             id="path122"
             style="fill:#d62a24;fill-opacity:1;fill-rule:nonzero;stroke:none"
             d="m 0,0 c -1.105,-0.842 -2.367,-1.459 -3.781,-1.857 -1.416,-0.399 -2.897,-0.598 -4.444,-0.598 -2.123,0 -3.912,0.41 -5.371,1.226 -1.459,0.819 -2.642,1.991 -3.549,3.516 -0.906,1.526 -1.57,3.359 -1.99,5.506 -0.42,2.143 -0.629,4.52 -0.629,7.129 0,5.658 1.004,9.971 3.018,12.932 2.012,2.962 4.896,4.445 8.654,4.445 1.725,0 3.205,-0.156 4.444,-0.465 1.238,-0.311 2.298,-0.709 3.183,-1.193 l -1.326,-4.18 c -1.77,1.018 -3.693,1.525 -5.77,1.525 -2.388,0 -4.189,-1.05 -5.406,-3.15 -1.217,-2.1 -1.824,-5.404 -1.824,-9.914 0,-1.815 0.133,-3.516 0.398,-5.108 0.266,-1.591 0.707,-2.972 1.327,-4.144 0.619,-1.172 1.414,-2.102 2.388,-2.785 0.971,-0.686 2.188,-1.03 3.647,-1.03 1.15,0 2.222,0.2 3.217,0.598 0.996,0.399 1.8,0.861 2.421,1.393 L 0,0 Z" />
        </g>
        <g
           transform="translate(640.5156,140.2646)"
           id="g124">
          <path
             inkscape:connector-curvature="0"
             id="path126"
             style="fill:#d62a24;fill-opacity:1;fill-rule:nonzero;stroke:none"
             d="m 0,0 -2.52,0 0,-14.922 -4.775,0 0,46.424 4.775,0 0,-28.252 2.188,0.928 7.76,14.06 5.504,0 L 5.107,4.842 2.785,2.719 5.504,0.133 l 8.557,-15.055 -5.706,0 L 0,0 Z" />
        </g>
        <g
           transform="translate(659.0625,168.2939)"
           id="g128">
          <path
             inkscape:connector-curvature="0"
             id="path130"
             style="fill:#d62a24;fill-opacity:1;fill-rule:nonzero;stroke:none"
             d="m 0,0 c -0.131,0 -0.268,-0.004 -0.414,-0.012 -0.147,-0.008 -0.258,-0.035 -0.34,-0.084 l 0,-1.459 0.705,0 c 0.824,0 1.238,0.276 1.238,0.826 C 1.189,-0.242 0.793,0 0,0 m -1.822,0.705 c 0.226,0.063 0.539,0.117 0.935,0.156 0.397,0.041 0.772,0.063 1.129,0.063 0.567,0 1.057,-0.121 1.471,-0.363 C 2.125,0.316 2.33,-0.096 2.33,-0.68 2.33,-1.117 2.193,-1.451 1.92,-1.688 1.643,-1.924 1.295,-2.055 0.875,-2.088 l 0.582,-0.267 1.504,-2.26 -1.262,0 -1.457,2.138 -0.996,0.317 0,-2.455 -1.068,0 0,5.32 z m -1.991,-2.648 c 0,-0.711 0.108,-1.332 0.327,-1.858 0.218,-0.525 0.513,-0.969 0.886,-1.324 0.371,-0.355 0.805,-0.619 1.299,-0.789 0.494,-0.17 1.026,-0.254 1.592,-0.254 0.598,0 1.15,0.084 1.652,0.254 0.502,0.17 0.934,0.43 1.299,0.777 0.365,0.348 0.651,0.785 0.862,1.313 0.21,0.525 0.316,1.152 0.316,1.881 0,0.697 -0.109,1.308 -0.328,1.836 C 3.873,0.416 3.578,0.857 3.205,1.215 2.832,1.572 2.396,1.834 1.895,2.004 1.393,2.174 0.857,2.26 0.291,2.26 -0.309,2.26 -0.859,2.174 -1.361,2.004 -1.863,1.834 -2.295,1.572 -2.66,1.215 -3.025,0.857 -3.309,0.416 -3.51,-0.107 -3.713,-0.635 -3.813,-1.246 -3.813,-1.943 m -1.314,0 c 0,0.875 0.147,1.648 0.438,2.32 0.293,0.67 0.685,1.238 1.179,1.701 0.494,0.461 1.067,0.809 1.725,1.043 0.654,0.236 1.347,0.352 2.076,0.352 0.762,0 1.475,-0.116 2.137,-0.352 C 3.092,2.887 3.668,2.539 4.152,2.078 4.639,1.615 5.023,1.047 5.307,0.377 5.59,-0.295 5.732,-1.068 5.732,-1.943 5.732,-2.816 5.584,-3.594 5.295,-4.275 5.004,-4.955 4.609,-5.525 4.115,-5.986 3.623,-6.447 3.049,-6.797 2.393,-7.031 1.736,-7.266 1.035,-7.383 0.291,-7.383 c -0.762,0 -1.471,0.117 -2.125,0.352 -0.656,0.234 -1.229,0.584 -1.713,1.045 -0.486,0.461 -0.871,1.031 -1.152,1.711 -0.285,0.681 -0.428,1.459 -0.428,2.332" />
        </g>
      </g>
    </g>
  </g>
  <g
     transform="matrix(0.77218373,0,0,0.77218373,582.42238,0.94272141)"
     id="g4011">
    <circle
       transform="translate(-667.12498,-0.244)"
       style="fill:#dd4814"
       id="circle3935"
       r="45.326"
       cy="45.326"
       cx="712.02698" />
    <path
       inkscape:connector-curvature="0"
       style="fill:#ffffff"
       id="path3937"
       d="m 14.082023,39.029 c -3.344,0 -6.0530003,2.709 -6.0530003,6.053 0,3.342 2.7090003,6.051 6.0530003,6.051 3.342,0 6.051,-2.709 6.051,-6.051 -0.001,-3.344 -2.71,-6.053 -6.051,-6.053 z m 43.207,27.504 c -2.895,1.672 -3.887,5.371 -2.215,8.264 1.67,2.895 5.369,3.887 8.264,2.215 2.895,-1.67 3.887,-5.369 2.215,-8.264 -1.671,-2.892 -5.372,-3.885 -8.264,-2.215 z m -30.063,-21.451 c 0,-5.98 2.971,-11.264 7.516,-14.463 l -4.424,-7.41 c -5.295,3.539 -9.234,8.947 -10.871,15.281 1.91,1.559 3.133,3.932 3.133,6.592 0,2.658 -1.223,5.031 -3.133,6.59 1.635,6.336 5.574,11.744 10.871,15.283 l 4.424,-7.412 c -4.545,-3.197 -7.516,-8.48 -7.516,-14.461 z m 17.676,-17.678 c 9.234,0 16.811,7.08 17.605,16.109 l 8.623,-0.127 c -0.424,-6.666 -3.336,-12.65 -7.811,-17.051 -2.301,0.869 -4.959,0.736 -7.256,-0.588 -2.301,-1.328 -3.744,-3.568 -4.139,-6 -2.236,-0.617 -4.59,-0.955 -7.023,-0.955 -4.184,0 -8.139,0.982 -11.65,2.721 l 4.205,7.535 c 2.262,-1.052 4.786,-1.644 7.446,-1.644 z m 0,35.354 c -2.66,0 -5.184,-0.592 -7.445,-1.645 l -4.205,7.535 c 3.512,1.74 7.467,2.723 11.65,2.723 2.434,0 4.787,-0.338 7.023,-0.957 0.395,-2.432 1.838,-4.67 4.139,-6 2.299,-1.326 4.955,-1.457 7.256,-0.588 4.475,-4.4 7.387,-10.385 7.811,-17.051 l -8.625,-0.127 c -0.794,9.032 -8.37,16.11 -17.604,16.11 z m 12.385,-39.131 c 2.895,1.672 6.594,0.682 8.264,-2.213 1.672,-2.895 0.682,-6.594 -2.213,-8.266 -2.895,-1.67 -6.594,-0.678 -8.266,2.217 -1.67,2.893 -0.678,6.592 2.215,8.262 z" />
  </g>
  <g
     id="g4343"
     transform="matrix(0.33109152,0,0,0.33109152,253.30179,0.75430852)">
    <path
       inkscape:connector-curvature="0"
       id="path4205"
       d="m 206.24755,211.27605 c -18.8774,-2.85596 -32.41302,-15.51914 -36.35629,-34.01296 -0.50452,-2.36623 -0.54371,-4.7336 -0.54371,-32.85 l 0,-30.3 10.2,0 10.2,0 0.15,30.3 0.15,30.3 0.84234,2.4 c 6.39753,18.22812 30.94686,20.10529 39.38278,3.01141 2.29746,-4.65538 2.21382,-3.29141 2.21968,-36.19968 0.004,-24.41908 0.0735,-29.34494 0.41594,-29.62915 0.29271,-0.24292 3.24548,-0.31814 10.275,-0.26173 l 9.86427,0.0791 0.0894,28.95 c 0.0948,30.66637 0.0421,32.16528 -1.30766,37.2088 -4.0422,15.10443 -15.93121,26.58444 -31.25344,30.17833 -3.15909,0.74097 -11.65325,1.23054 -14.32836,0.82583 z"
       style="fill:#000000;fill-opacity:1" />
    <path
       inkscape:connector-curvature="0"
       id="path4203"
       d="m 80.79522,208.88488 c -0.29594,-0.77121 0.14508,-5.52914 0.67867,-7.32179 1.61525,-5.4266 5.68961,-9.71488 10.90203,-11.47442 1.946,-0.6569 2.2548,-0.66757 23.7456,-0.82057 l 21.77397,-0.15501 1.46675,-0.9071 c 4.62249,-2.85872 4.69453,-9.42458 0.13652,-12.4421 -1.97388,-1.30677 -3.56756,-1.61509 -22.50121,-4.35325 -20.6917,-2.9924 -22.30761,-3.38271 -27.56098,-6.65699 -12.39042,-7.72261 -16.19671,-25.66819 -8.0811,-38.10007 4.55526,-6.97796 11.95336,-11.38322 20.79208,-12.38083 1.62618,-0.18354 13.28488,-0.30572 29.31445,-0.3072 26.0072,-0.002 26.62153,0.0108 26.925,0.57781 0.19403,0.36255 0.31055,3.91571 0.31055,9.46973 0,5.55401 -0.11652,9.10717 -0.31055,9.46972 -0.30347,0.56704 -0.92774,0.58043 -27.375,0.58686 -30.14747,0.007 -28.34834,-0.1123 -30.61692,2.0361 -3.13148,2.9656 -2.8039,8.43207 0.6638,11.07697 2.03747,1.55403 4.25853,2.00955 23.07178,4.73174 20.54669,2.97301 22.48337,3.44184 27.51689,6.66123 12.78171,8.17504 16.34101,26.56862 7.52954,38.91075 -4.64223,6.50233 -11.81247,10.62199 -20.12954,11.56543 -4.96073,0.56272 -58.03069,0.41057 -58.25233,-0.16701 z"
       style="fill:#000000;fill-opacity:1" />
    <path
       inkscape:connector-curvature="0"
       id="path4201"
       d="m 264.91565,208.79688 c -0.42828,-0.80025 -0.43518,-18.15447 -0.008,-18.95353 0.3035,-0.56709 0.92578,-0.58035 27.375,-0.58321 l 27.06445,-0.003 1.5,-0.70913 c 4.88952,-2.31152 5.65071,-9.14446 1.38222,-12.40743 -2.02776,-1.55006 -4.2537,-2.00597 -23.07093,-4.72532 -18.50462,-2.67416 -20.68393,-3.12215 -24.66592,-5.07043 -6.93639,-3.39377 -11.91534,-9.24915 -14.05865,-16.53331 -5.05531,-17.18082 5.89025,-33.51593 23.81328,-35.53886 4.09643,-0.46235 55.72356,-0.41611 56.19,0.0503 0.26457,0.26456 0.36,2.83333 0.36,9.69 0,6.85667 -0.0954,9.42543 -0.36,9.69 -0.27462,0.27462 -6.76662,0.36069 -27.375,0.36293 l -27.015,0.003 -1.51227,0.7042 c -5.03818,2.34608 -5.56791,9.58898 -0.92491,12.6462 2.25043,1.48181 3.44262,1.71759 22.82488,4.51394 15.54075,2.24212 18.08235,2.68297 20.93919,3.63198 9.04377,3.00424 14.98788,9.19473 17.80965,18.54782 1.14498,3.7952 1.23804,11.30755 0.1851,14.94064 -2.8965,9.99394 -10.5369,17.0965 -21.07164,19.58826 -3.72369,0.88076 -58.91639,1.02474 -59.38191,0.15491 z"
       style="fill:#000000;fill-opacity:1" />
    <path
       inkscape:connector-curvature="0"
       id="path4199"
       d="m 376.49261,209.05521 c -11.75301,-1.37675 -21.1185,-9.31234 -24.06657,-20.39214 -0.67824,-2.54908 -0.67848,-2.5588 -0.67848,-27 0,-24.4412 2.4e-4,-24.45092 0.67848,-27 2.99934,-11.27244 12.26496,-19.01021 24.44019,-20.41014 4.70421,-0.5409 60.09045,-0.3711 60.55248,0.18563 0.55974,0.67443 -0.0659,5.99412 -1.01133,8.59861 -1.98066,5.45667 -6.48978,9.39009 -12.13611,10.58662 -1.64748,0.34913 -6.0981,0.42983 -23.93982,0.43407 l -21.91608,0.005 -1.55937,0.77707 c -1.79922,0.89659 -3.126,2.36412 -3.61602,3.99961 -0.35916,1.19883 -0.50871,19.22332 -0.15948,19.22332 0.10062,0 0.91065,-0.66509 1.80006,-1.47797 1.89714,-1.73387 4.12764,-2.89328 6.38295,-3.31783 2.2221,-0.41831 45.22959,-0.4159 45.48822,0.002 0.25821,0.41781 -0.61836,3.00087 -1.88115,5.54326 -3.15855,6.35906 -8.52402,11.13277 -15.06627,13.40459 -4.15689,1.44349 -5.24994,1.54573 -18.45675,1.72649 -11.24046,0.15384 -12.72948,0.23054 -13.8,0.71088 -5.67693,2.54724 -6.33243,10.55926 -1.11483,13.62635 l 1.41483,0.83169 23.1,0.15 23.1,0.15 2.1306,0.7795 c 5.43924,1.98998 9.34563,6.25322 10.74018,11.72125 0.66963,2.6256 0.93273,6.45279 0.48102,6.99706 -0.41217,0.49666 -56.75916,0.63018 -60.90675,0.14433 z"
       style="fill:#000000;fill-opacity:1" />
    <path
       inkscape:connector-curvature="0"
       id="path4197"
       d="m 446.88026,208.99221 c -1.5888,-0.42031 -3.92358,-2.7165 -4.35108,-4.27919 -1.9905,-7.27602 7.66575,-11.76217 11.82237,-5.49251 3.30234,4.9811 -1.55676,11.33634 -7.47129,9.7717 z"
       style="fill:#000000;fill-opacity:1" />
    <path
       inkscape:connector-curvature="0"
       id="path4195"
       d="m 451.22537,207.16551 c 3.24141,-1.70997 3.60519,-6.27385 0.67806,-8.50649 -2.17194,-1.65662 -5.73816,-1.0921 -7.21689,1.1424 -2.99214,4.52144 1.76712,9.88137 6.53883,7.36409 z"
       style="fill:#ffffff;fill-opacity:1" />
    <path
       inkscape:connector-curvature="0"
       id="path4193"
       d="m 446.52572,205.36428 c -0.0842,-0.21931 -0.11367,-1.60306 -0.0656,-3.075 l 0.0874,-2.67626 1.7535,-0.0908 c 2.3076,-0.11952 3.1965,0.4225 3.1965,1.94911 0,0.60196 -0.22029,1.33789 -0.48954,1.6354 -0.45291,0.50047 -0.45198,0.59825 0.0126,1.3071 1.04925,1.60135 -0.19371,1.8223 -1.56132,0.27754 -0.95292,-1.07634 -1.56162,-1.14285 -1.56162,-0.17062 0,0.97009 -1.07064,1.62844 -1.37184,0.84355 z"
       style="fill:#000000;fill-opacity:1" />
    <path
       inkscape:connector-curvature="0"
       id="path4191"
       d="m 449.9495,201.74897 c 0.11742,-0.61842 -0.40368,-1.0742 -1.23636,-1.08136 -0.61371,-0.005 -0.96339,0.67748 -0.69939,1.3655 0.25833,0.67318 1.79688,0.44734 1.93575,-0.28414 z"
       style="fill:#ffffff;fill-opacity:1" />
    <path
       inkscape:connector-curvature="0"
       id="path4189"
       d="M 40.34756,26.816163 C 64.81473,10.594283 90.41204,1.4805135 114.74755,0.32647349 c 7.05738,-0.53313 14.16036,-0.31504 21.23244,-0.0382 15.80913,0.61876 36.46904,4.44506001 53.55813,9.91917951 3.86972,1.23958 3.77272,1.33009 3.95943,-3.6945195 l 0.15,-4.03659 4.8,0.80846 c 23.84343,4.01592 44.23681,10.2428195 50.00758,15.2692795 3.09869,2.69901 5.66392,7.82946 9.07962,18.15913 2.2258,6.73124 2.72306,8.59967 2.46656,9.2681 -0.5358,1.39627 -8.83827,5.92916 -13.29025,7.25606 -10.35814,3.08722 -24.18872,-0.96228 -42.52934,-12.4523 -3.63618,-2.27799 -5.27801,-2.9134 -5.28886,-2.04686 -0.003,0.20625 0.97616,2.72853 2.175,5.60506 l 2.17969,5.23006 4.5,2.15848 c 14.32215,6.86977 24.65904,10.06494 31.12015,9.61933 5.29844,-0.36541 11.90087,-2.25981 17.32494,-4.97096 1.66922,-0.83434 3.08709,-1.51697 3.15081,-1.51697 0.16745,0 -0.95514,3.96104 -1.52916,5.39566 -0.70461,1.761 -2.45018,3.0939 -6.86673,5.24337 -14.80406,7.20492 -29.50274,9.35088 -48.60001,7.09543 -10.27093,-1.21304 -13.97053,-1.11882 -17.16433,0.43712 -7.60084,3.70296 -7.32262,16.61303 0.62579,29.038397 l 1.08109,1.69002 -9.23107,0 -9.23108,0 -3.18686,-6.524997 c -5.86795,-12.01447 -10.07013,-16.76296 -17.28097,-19.52763 -5.25592,-2.01514 -14.62413,-2.72873 -19.22881,-1.46469 -10.50325,2.88328 -15.17835,12.91934 -12.42686,26.676797 l 0.16994,0.84971 -8.74787,-0.0796 -8.74786,-0.0796 -1.15646,-3.45 C 90.84673,79.353573 75.15081,64.447173 56.23667,60.669403 c -4.00521,-0.79997 -12.47555,-0.74749 -16.3747,0.10146 -15.69872,3.41805 -26.032426,18.04562 -23.235402,32.89019 2.302651,12.220797 10.640942,20.751367 22.820992,23.347227 2.96845,0.63265 10.33075,0.46805 13.14014,-0.29377 12.54023,-3.40053 16.91804,-17.159747 8.85686,-27.836697 -4.20731,-5.57255 -12.45154,-7.80922 -18.54612,-5.0316 -4.77253,2.17509 -6.04109,7.75243 -2.53101,11.12781 2.07106,1.99159 3.81193,2.23295 7.86012,1.0898 6.03665,-1.70467 9.57509,5.898887 4.30177,9.243837 -4.20593,2.6679 -10.33395,2.93667 -15.08152,0.66146 -13.73656,-6.583067 -13.36332,-25.138907 0.64776,-32.204087 5.4559,-2.75117 12.98528,-3.19456 19.3504,-1.13951 17.11233,5.52491 25.22803,25.1436 17.10021,41.337617 -3.72997,7.43166 -10.52248,13.00865 -18.74861,15.39356 -4.81128,1.39488 -13.4264,1.84099 -18.6,0.96315 -60.901255,-19.70935 -37.67844803,-75.682087 3.15,-103.503687 z"
       style="fill:#7dc246;fill-opacity:1" />
    <path
       inkscape:connector-curvature="0"
       id="path4187"
       d="m 238.33431,48.145523 c 13.52267,-4.29425 15.19392,-23.08185 2.63952,-29.67265 -10.95321,-5.75022 -23.74585,1.97329 -23.77184,14.35218 -0.0227,10.83143 10.72702,18.62477 21.13232,15.32047 z"
       style="fill:#ffffff;fill-opacity:1" />
    <path
       inkscape:connector-curvature="0"
       id="path4185"
       d="m 230.28675,43.134693 c -7.92328,-2.43135 -10.50053,-12.41408 -4.69559,-18.18796 2.39271,-2.37992 4.18019,-3.115 7.59235,-3.12228 12.83658,-0.0274 15.38137,17.67682 3.06651,21.33394 -2.11606,0.6284 -3.86079,0.62147 -5.96327,-0.0237 z"
       style="fill:#7dc246;fill-opacity:1" />
    <path
       inkscape:connector-curvature="0"
       id="path3357"
       d="m 238.49535,33.678963 c 1.54382,-0.61772 2.40221,-1.81241 2.40221,-3.34339 0,-3.81127 -7.22254,-5.17803 -9.98901,-1.89027 -2.89174,3.43664 2.60361,7.22754 7.5868,5.23366 z"
       style="fill:#ffffff;fill-opacity:1" />
  </g>
</svg>
