<?xml version="1.0" encoding="UTF-8" standalone="no"?>
<svg
   xmlns:dc="http://purl.org/dc/elements/1.1/"
   xmlns:cc="http://creativecommons.org/ns#"
   xmlns:rdf="http://www.w3.org/1999/02/22-rdf-syntax-ns#"
   xmlns:svg="http://www.w3.org/2000/svg"
   xmlns="http://www.w3.org/2000/svg"
   viewBox="0 0 735.15432 484.73325"
   height="484.73325"
   width="735.15436"
   xml:space="preserve"
   version="1.1"
   id="svg2"><metadata
     id="metadata8"><rdf:RDF><cc:Work
         rdf:about=""><dc:format>image/svg+xml</dc:format><dc:type
           rdf:resource="http://purl.org/dc/dcmitype/StillImage" /><dc:title></dc:title></cc:Work></rdf:RDF></metadata><defs
     id="defs6"><clipPath
       id="clipPath16"
       clipPathUnits="userSpaceOnUse"><path
         id="path18"
         d="m 0,595.28 841.89,0 L 841.89,0 0,0 0,595.28 Z" /></clipPath></defs><g
     transform="matrix(1.25,0,0,-1.25,-162.27241,614.41713)"
     id="g10"><g
       id="g12"><g
         clip-path="url(#clipPath16)"
         id="g14"><g
           transform="translate(612.1582,483.5337)"
           id="g20"><path
             id="path22"
             style="fill:#d62a24;fill-opacity:1;fill-rule:evenodd;stroke:none"
             d="m 0,0 1.658,-11.531 c -38.736,-0.225 -75.914,-6.385 -111.447,-18.168 -29.686,-9.959 -62.947,-25.856 -99.796,-47.89 -46.123,-28.166 -78.128,-46.185 -95.638,-54.439 -37.68,-17.817 -75.815,-27.965 -114.522,-30.319 44.616,-1.691 86.975,4.034 127.59,17.377 29.908,9.951 63.6,26.084 100.866,48.539 40.865,24.144 72.449,41.105 94.791,51.074 32.09,13.869 64.822,24.279 98.529,31.169 L 3.697,-25.629 40.217,-7.207 0,0 Z" /></g><g
           transform="translate(137.8179,385.7261)"
           id="g24"><path
             id="path26"
             style="fill:#100f0d;fill-opacity:1;fill-rule:nonzero;stroke:none"
             d="M 0,0 C 97.92,123.616 266.317,116.356 318.379,51.854 287.29,72.464 241.531,88.181 205.734,83.028 262.201,75.97 280.172,49.894 288.834,37.653 269.21,51.532 219.41,81.935 168.771,72.687 204.338,68.306 245.203,51.513 261.967,21.71 233.324,42.901 185.393,69.96 139.881,59.495 179.1,54.175 218.52,37.368 236.143,4.889 204.436,27.11 89.984,73.165 0,0" /></g><g
           transform="translate(709.9414,417.4263)"
           id="g28"><path
             id="path30"
             style="fill:#100f0d;fill-opacity:1;fill-rule:nonzero;stroke:none"
             d="m 0,0 c -97.826,-123.886 -270.195,-115.477 -322.26,-50.94 31.1,-20.649 89.658,-43.965 124.91,-36.325 -55.603,9.545 -86.986,38.188 -95.375,50.504 19.34,-13.961 70,-45.633 120.643,-36.385 -35.576,4.383 -76.992,22.522 -94.051,52.233 28.635,-21.152 77.707,-49.412 123.258,-39.233 -39.252,5.594 -79.533,23.688 -97.438,56.085 C -208.313,-26.214 -89.904,-73.437 0,0" /></g><g
           transform="translate(197.9233,290.4658)"
           id="g32"><path
             id="path34"
             style="fill:#100f0d;fill-opacity:1;fill-rule:nonzero;stroke:none"
             d="M 0,0 9.967,0 21.29,-56.555 32.484,0 l 9.475,0 7.09,-81.578 -10.218,0 -3.214,57.326 -10.97,-57.326 -7.467,0 -10.711,57.326 -3.362,-57.326 -9.979,0 L 0,0 Z" /></g><path
           id="path36"
           style="fill:#100f0d;fill-opacity:1;fill-rule:nonzero;stroke:none"
           d="m 273.759,290.466 11.213,0 0,-81.578 -11.213,0 0,81.578 z" /><g
           transform="translate(323.1851,254.9248)"
           id="g38"><path
             id="path40"
             style="fill:#100f0d;fill-opacity:1;fill-rule:nonzero;stroke:none"
             d="m 0,0 c 4.582,0 8.289,0.607 11.168,1.932 2.84,1.287 4.303,4.713 4.412,10.3 l 0,1.504 c 0,5.748 -1.234,9.2 -3.756,10.362 C 9.344,25.283 5.414,25.863 0,25.863 L 0,0 Z m 0,-46.037 -11.09,0 0,81.621 13.344,0 c 7.478,0 13.4,-1.361 17.807,-4.164 4.412,-2.807 6.591,-8.387 6.591,-16.69 0,-5.65 -1.115,-10.273 -3.295,-13.834 -2.211,-3.576 -6.211,-5.785 -12.002,-6.73 l 19.418,-40.203 -11.964,0 -18.539,39.674 -0.27,0 0,-39.674 z" /></g><g
           transform="translate(397.6636,269.4229)"
           id="g42"><path
             id="path44"
             style="fill:#100f0d;fill-opacity:1;fill-rule:nonzero;stroke:none"
             d="m 0,0 -7.479,-35.225 14.808,0 L 0,0 Z m -5.234,21.086 10.335,0 18.915,-81.621 -10.818,0 -4.109,16.224 -18.564,0 -3.855,-16.224 -11.096,0 19.192,81.621 z" /></g><g
           transform="translate(449.5801,290.4658)"
           id="g46"><path
             id="path48"
             style="fill:#100f0d;fill-opacity:1;fill-rule:nonzero;stroke:none"
             d="m 0,0 10.342,0 21.685,-56.555 0,56.555 10.202,0 0,-81.578 -10.202,0 -21.418,57.156 0,-57.156 L 0,-81.578 0,0 Z" /></g><g
           transform="translate(532.2734,280.3643)"
           id="g50"><path
             id="path52"
             style="fill:#100f0d;fill-opacity:1;fill-rule:nonzero;stroke:none"
             d="m 0,0 -14.928,0 0,10.145 41.1,0 0,-10.145 -15.076,0 0,-71.477 L 0,-71.477 0,0 Z" /></g><path
           id="path54"
           style="fill:#100f0d;fill-opacity:1;fill-rule:nonzero;stroke:none"
           d="m 580.771,290.466 11.195,0 0,-81.578 -11.195,0 0,81.578 z" /><g
           transform="translate(617.9551,222.6709)"
           id="g56"><path
             id="path58"
             style="fill:#100f0d;fill-opacity:1;fill-rule:nonzero;stroke:none"
             d="m 0,0 c 0.354,-0.141 0.672,-0.322 1.004,-0.477 1.17,-0.677 2.434,-1.293 3.738,-1.878 1.334,-0.592 2.696,-1.086 4.119,-1.524 0.735,-0.129 1.496,-0.275 2.301,-0.424 0.789,-0.099 1.559,-0.176 2.291,-0.176 l 0.559,0 0.592,0 c 1.636,0.176 3.224,0.727 4.718,1.674 1.498,0.973 2.598,2.41 3.366,4.301 0.255,0.43 0.423,0.832 0.55,1.272 0.114,0.423 0.227,0.859 0.326,1.361 0,0.414 0.02,0.838 0.041,1.25 0.057,0.391 0.079,0.83 0.079,1.226 0,2.905 -0.996,5.614 -2.928,8.071 -1.953,2.431 -4.135,4.697 -6.576,6.787 -0.803,0.662 -1.608,1.31 -2.326,1.922 -0.743,0.629 -1.51,1.23 -2.258,1.844 -2.752,2.314 -5.227,4.865 -7.485,7.689 -2.238,2.836 -3.718,6.129 -4.451,9.875 0,0.311 -0.056,0.637 -0.113,1.004 -0.127,0.301 -0.127,0.646 -0.127,0.984 -0.1,0 -0.149,0.045 -0.149,0.114 l 0,0.226 c -0.048,0.338 -0.148,0.721 -0.197,1.158 -0.021,0.373 -0.049,0.762 -0.049,1.102 0,3.031 0.655,6.014 1.932,8.857 1.291,2.846 3.104,5.323 5.412,7.387 1.67,1.574 3.492,2.752 5.467,3.492 2.018,0.75 4.035,1.201 6.109,1.362 l 0.733,0 0.777,0 c 1.057,0 2.137,-0.036 3.215,-0.176 1.101,-0.125 2.23,-0.323 3.375,-0.565 1.353,-0.324 2.637,-0.697 3.906,-1.113 1.285,-0.424 2.569,-0.945 3.811,-1.51 l 0,-10.92 c -0.143,0.082 -0.34,0.166 -0.565,0.295 -0.199,0.155 -0.396,0.254 -0.543,0.34 -1.093,0.555 -2.252,1.135 -3.564,1.65 -1.268,0.565 -2.574,0.973 -3.906,1.311 -0.75,0.191 -1.51,0.326 -2.25,0.451 -0.743,0.137 -1.504,0.199 -2.239,0.199 l -0.324,0 -0.416,0 C 16.297,58.34 14.66,57.893 13.074,57.057 11.529,56.238 10.271,54.869 9.342,52.965 9.102,52.457 8.877,51.908 8.678,51.273 8.453,50.666 8.305,50.031 8.234,49.354 c 0,-0.311 -0.021,-0.633 -0.05,-0.989 -0.049,-0.322 -0.071,-0.662 -0.071,-0.984 0,-0.34 0.022,-0.678 0.071,-0.988 0.029,-0.34 0.05,-0.623 0.05,-0.883 0.071,-0.662 0.219,-1.305 0.444,-1.955 0.199,-0.612 0.424,-1.186 0.664,-1.756 1.347,-2.574 3.019,-4.795 5.115,-6.674 2.08,-1.877 4.238,-3.717 6.477,-5.551 2.48,-1.99 4.888,-4.099 7.16,-6.236 2.269,-2.174 4.049,-4.791 5.289,-7.859 0.34,-0.741 0.566,-1.588 0.763,-2.555 0.155,-0.959 0.282,-1.889 0.352,-2.815 0,-0.498 0.041,-0.972 0.07,-1.423 0.057,-0.446 0.078,-0.938 0.078,-1.442 0,-0.486 -0.021,-1.006 -0.078,-1.558 -0.029,-0.549 -0.099,-1.098 -0.197,-1.692 -0.154,-1.39 -0.43,-2.808 -0.789,-4.232 -0.367,-1.412 -0.848,-2.709 -1.439,-3.844 -1.842,-3.746 -4.416,-6.385 -7.741,-7.939 -3.308,-1.555 -6.793,-2.299 -10.445,-2.299 -0.734,0 -1.531,0.043 -2.301,0.129 -0.761,0.078 -1.595,0.162 -2.422,0.238 -1.74,0.17 -3.504,0.553 -5.226,1.129 -1.75,0.578 -3.358,1.256 -4.862,1.996 l 0,11.336 C -0.605,0.34 -0.295,0.186 0,0" /></g><g
           transform="translate(200.6743,167.7217)"
           id="g60"><path
             id="path62"
             style="fill:#100f0d;fill-opacity:1;fill-rule:nonzero;stroke:none"
             d="m 0,0 c -0.885,0 -1.735,-0.033 -2.554,-0.1 -0.818,-0.066 -1.47,-0.166 -1.956,-0.298 l 0,-19.764 c 0.177,-0.088 0.452,-0.145 0.829,-0.166 0.375,-0.022 0.763,-0.043 1.16,-0.067 0.399,-0.021 0.786,-0.033 1.162,-0.033 l 0.829,0 c 1.236,0 2.43,0.155 3.581,0.465 1.149,0.309 2.166,0.873 3.051,1.692 0.883,0.818 1.602,1.923 2.155,3.316 0.553,1.392 0.829,3.15 0.829,5.271 0,1.858 -0.255,3.405 -0.763,4.643 -0.509,1.238 -1.172,2.232 -1.99,2.984 C 5.515,-1.305 4.554,-0.773 3.448,-0.465 2.343,-0.156 1.194,0 0,0 m -9.483,3.582 c 1.414,0.397 2.918,0.662 4.509,0.795 1.592,0.133 3.161,0.199 4.709,0.199 1.768,0 3.515,-0.199 5.239,-0.597 1.724,-0.397 3.283,-1.127 4.675,-2.188 1.393,-1.061 2.521,-2.521 3.383,-4.377 0.863,-1.857 1.293,-4.223 1.293,-7.098 0,-2.785 -0.409,-5.15 -1.226,-7.095 -0.819,-1.946 -1.903,-3.528 -3.25,-4.742 -1.35,-1.217 -2.897,-2.1 -4.643,-2.653 -1.747,-0.553 -3.548,-0.83 -5.404,-0.83 l -0.864,0 c -0.397,0 -0.818,0.012 -1.259,0.033 -0.443,0.024 -0.873,0.055 -1.293,0.1 -0.421,0.045 -0.719,0.088 -0.896,0.133 l 0,-17.641 -4.973,0 0,45.961 z" /></g><g
           transform="translate(224.6421,158.5029)"
           id="g64"><path
             id="path66"
             style="fill:#100f0d;fill-opacity:1;fill-rule:nonzero;stroke:none"
             d="m 0,0 0,-20.295 c 0,-3.359 0.342,-5.76 1.028,-7.195 0.685,-1.438 1.934,-2.156 3.747,-2.156 0.929,0 1.758,0.187 2.487,0.564 0.73,0.375 1.382,0.873 1.957,1.492 0.574,0.619 1.083,1.326 1.525,2.123 0.442,0.795 0.796,1.613 1.062,2.453 l 0,23.014 4.774,0 0,-23.742 c 0,-1.592 0.056,-3.24 0.166,-4.942 0.11,-1.703 0.275,-3.195 0.498,-4.476 l -3.383,0 -1.193,4.642 -0.199,0 c -0.752,-1.459 -1.836,-2.73 -3.25,-3.814 -1.416,-1.082 -3.184,-1.625 -5.306,-1.625 -1.415,0 -2.653,0.178 -3.714,0.531 -1.06,0.354 -1.968,0.994 -2.719,1.924 -0.752,0.928 -1.316,2.199 -1.691,3.813 -0.377,1.613 -0.564,3.681 -0.564,6.201 L -4.775,0 0,0 Z" /></g><g
           transform="translate(248.2124,158.5029)"
           id="g68"><path
             id="path70"
             style="fill:#100f0d;fill-opacity:1;fill-rule:nonzero;stroke:none"
             d="m 0,0 3.383,0 0.861,-3.516 0.199,0 c 0.62,1.284 1.426,2.289 2.421,3.018 0.995,0.73 2.199,1.096 3.615,1.096 1.016,0 2.166,-0.2 3.449,-0.598 l -0.929,-4.842 c -1.15,0.399 -2.167,0.598 -3.051,0.598 -1.415,0 -2.565,-0.41 -3.448,-1.227 -0.886,-0.82 -1.459,-1.914 -1.725,-3.283 l 0,-24.406 L 0,-33.16 0,0 Z" /></g><g
           transform="translate(281.8237,145.3721)"
           id="g72"><path
             id="path74"
             style="fill:#100f0d;fill-opacity:1;fill-rule:nonzero;stroke:none"
             d="m 0,0 c 0.088,3.314 -0.377,5.746 -1.394,7.295 -1.017,1.547 -2.41,2.32 -4.178,2.32 -2.033,0 -3.647,-0.773 -4.841,-2.32 C -11.607,5.746 -12.314,3.314 -12.535,0 L 0,0 Z m 3.713,-17.775 c -1.061,-0.973 -2.41,-1.725 -4.045,-2.254 -1.637,-0.532 -3.361,-0.797 -5.174,-0.797 -2.078,0 -3.879,0.41 -5.404,1.226 -1.526,0.819 -2.786,1.991 -3.781,3.516 -0.995,1.525 -1.724,3.35 -2.188,5.473 -0.465,2.121 -0.697,4.509 -0.697,7.162 0,5.658 1.039,9.97 3.117,12.931 2.078,2.963 5.018,4.446 8.82,4.446 1.239,0 2.465,-0.157 3.682,-0.465 1.215,-0.311 2.31,-0.93 3.283,-1.858 C 2.298,10.678 3.083,9.373 3.68,7.693 4.277,6.012 4.576,3.822 4.576,1.127 4.576,0.375 4.543,-0.432 4.477,-1.295 4.41,-2.156 4.332,-3.051 4.244,-3.98 l -16.846,0 c 0,-1.901 0.155,-3.625 0.464,-5.172 0.31,-1.549 0.796,-2.864 1.46,-3.948 0.662,-1.084 1.514,-1.923 2.553,-2.519 1.038,-0.598 2.332,-0.897 3.88,-0.897 1.194,0 2.376,0.221 3.548,0.664 1.172,0.442 2.066,0.973 2.685,1.592 l 1.725,-3.515 z" /></g><g
           transform="translate(318.2983,167.7217)"
           id="g76"><path
             id="path78"
             style="fill:#100f0d;fill-opacity:1;fill-rule:nonzero;stroke:none"
             d="m 0,0 c -0.885,0 -1.735,-0.033 -2.553,-0.1 -0.818,-0.066 -1.47,-0.166 -1.957,-0.298 l 0,-19.764 c 0.177,-0.088 0.453,-0.145 0.83,-0.166 0.375,-0.022 0.762,-0.043 1.16,-0.067 0.399,-0.021 0.785,-0.033 1.161,-0.033 l 0.829,0 c 1.237,0 2.43,0.155 3.581,0.465 1.15,0.309 2.166,0.873 3.051,1.692 0.884,0.818 1.602,1.923 2.156,3.316 0.553,1.392 0.828,3.15 0.828,5.271 0,1.858 -0.254,3.405 -0.762,4.643 -0.51,1.238 -1.172,2.232 -1.99,2.984 -0.818,0.752 -1.78,1.284 -2.885,1.592 C 2.344,-0.156 1.194,0 0,0 m -9.483,3.582 c 1.415,0.397 2.918,0.662 4.509,0.795 1.592,0.133 3.161,0.199 4.709,0.199 1.768,0 3.515,-0.199 5.24,-0.597 1.724,-0.397 3.283,-1.127 4.675,-2.188 1.393,-1.061 2.52,-2.521 3.383,-4.377 0.862,-1.857 1.293,-4.223 1.293,-7.098 0,-2.785 -0.41,-5.15 -1.226,-7.095 -0.82,-1.946 -1.903,-3.528 -3.25,-4.742 -1.35,-1.217 -2.897,-2.1 -4.643,-2.653 -1.748,-0.553 -3.549,-0.83 -5.405,-0.83 l -0.863,0 c -0.398,0 -0.818,0.012 -1.259,0.033 -0.444,0.024 -0.874,0.055 -1.293,0.1 -0.422,0.045 -0.72,0.088 -0.897,0.133 l 0,-17.641 -4.973,0 0,45.961 z" /></g><g
           transform="translate(342.6313,133.2354)"
           id="g80"><path
             id="path82"
             style="fill:#100f0d;fill-opacity:1;fill-rule:nonzero;stroke:none"
             d="m 0,0 c 0,-1.549 0.21,-2.654 0.63,-3.316 0.42,-0.664 1.006,-0.997 1.758,-0.997 0.928,0 2.011,0.245 3.25,0.731 L 6.102,-7.43 C 5.526,-7.783 4.72,-8.068 3.681,-8.291 2.642,-8.512 1.702,-8.623 0.862,-8.623 c -1.68,0 -3.041,0.521 -4.078,1.559 -1.04,1.039 -1.558,2.863 -1.558,5.472 l 0,40.123 4.774,0 L 0,0 Z" /></g><g
           transform="translate(367.5015,140.4639)"
           id="g84"><path
             id="path86"
             style="fill:#100f0d;fill-opacity:1;fill-rule:nonzero;stroke:none"
             d="m 0,0 c -0.438,0.043 -0.874,0.076 -1.311,0.1 -0.437,0.021 -0.874,0.033 -1.31,0.033 -1.049,0 -2.076,-0.09 -3.081,-0.266 -1.005,-0.178 -1.901,-0.486 -2.686,-0.928 -0.786,-0.443 -1.409,-1.041 -1.868,-1.791 -0.459,-0.752 -0.687,-1.703 -0.687,-2.851 0,-1.77 0.425,-3.141 1.277,-4.113 0.852,-0.973 1.955,-1.459 3.309,-1.459 1.835,0 3.253,0.441 4.259,1.326 1.005,0.885 1.703,1.857 2.098,2.918 L 0,0 Z m -14.26,16.049 c 1.282,0.797 2.841,1.416 4.676,1.857 1.834,0.442 3.77,0.664 5.803,0.664 1.857,0 3.349,-0.277 4.476,-0.83 C 1.824,17.188 2.707,16.436 3.35,15.486 3.989,14.535 4.41,13.451 4.609,12.236 4.809,11.02 4.907,9.748 4.907,8.422 4.907,5.77 4.851,3.184 4.736,0.662 4.623,-1.857 4.566,-4.244 4.566,-6.5 c 0,-1.68 0.057,-3.238 0.17,-4.676 0.115,-1.437 0.327,-2.797 0.635,-4.078 l -3.738,0 -1.16,3.912 -0.263,0 c -0.659,-1.15 -1.624,-2.144 -2.897,-2.984 -1.272,-0.84 -2.984,-1.26 -5.134,-1.26 -2.37,0 -4.312,0.83 -5.825,2.486 -1.515,1.659 -2.272,3.948 -2.272,6.866 0,1.9 0.317,3.492 0.953,4.775 0.637,1.281 1.535,2.32 2.698,3.117 1.162,0.795 2.543,1.36 4.144,1.692 1.601,0.33 3.389,0.496 5.361,0.496 l 1.315,0 c 0.438,0 0.9,-0.022 1.383,-0.067 0.13,1.371 0.197,2.588 0.197,3.649 0,2.519 -0.373,4.289 -1.117,5.306 -0.746,1.016 -2.104,1.526 -4.076,1.526 -1.226,0 -2.562,-0.19 -4.008,-0.565 -1.446,-0.377 -2.651,-0.851 -3.614,-1.425 l -1.578,3.779 z" /></g><g
           transform="translate(387.437,137.0811)"
           id="g88"><path
             id="path90"
             style="fill:#100f0d;fill-opacity:1;fill-rule:nonzero;stroke:none"
             d="m 0,0 1.393,-6.434 0.332,0 L 2.719,0 7.76,21.422 l 4.842,0 -7.893,-29.777 c -0.619,-2.389 -1.238,-4.622 -1.857,-6.7 -0.62,-2.078 -1.293,-3.881 -2.023,-5.406 -0.729,-1.525 -1.548,-2.719 -2.454,-3.58 -0.906,-0.863 -1.979,-1.293 -3.217,-1.293 -1.238,0 -2.32,0.199 -3.25,0.596 l 0.797,4.509 c 0.618,-0.22 1.236,-0.265 1.857,-0.132 0.618,0.132 1.204,0.509 1.757,1.129 0.552,0.619 1.062,1.535 1.526,2.752 0.464,1.216 0.872,2.796 1.227,4.742 l -10.744,33.16 5.438,0 L 0,0 Z" /></g><g
           transform="translate(423.7129,148.5557)"
           id="g92"><path
             id="path94"
             style="fill:#d62a24;fill-opacity:1;fill-rule:nonzero;stroke:none"
             d="m 0,0 c 0,-2.609 0.188,-5.086 0.564,-7.43 0.375,-2.343 0.961,-4.398 1.758,-6.168 0.795,-1.767 1.834,-3.181 3.117,-4.244 1.282,-1.06 2.829,-1.592 4.643,-1.592 3.316,0 5.836,1.592 7.561,4.776 1.724,3.183 2.586,8.068 2.586,14.658 0,2.563 -0.188,5.018 -0.563,7.361 -0.377,2.342 -0.963,4.41 -1.758,6.202 -0.797,1.791 -1.836,3.216 -3.117,4.277 -1.283,1.06 -2.852,1.592 -4.709,1.592 -3.273,0 -5.769,-1.592 -7.494,-4.776 C 0.863,11.473 0,6.586 0,0 m -5.238,0 c 0,7.869 1.259,13.838 3.779,17.906 2.522,4.067 6.367,6.102 11.541,6.102 2.785,0 5.15,-0.565 7.096,-1.692 1.945,-1.127 3.525,-2.73 4.742,-4.808 1.215,-2.078 2.111,-4.6 2.685,-7.561 C 25.18,6.984 25.469,3.668 25.469,0 c 0,-7.871 -1.272,-13.84 -3.815,-17.908 -2.543,-4.069 -6.4,-6.102 -11.572,-6.102 -2.742,0 -5.086,0.565 -7.031,1.692 -1.946,1.127 -3.537,2.73 -4.776,4.808 -1.238,2.078 -2.132,4.598 -2.685,7.561 -0.553,2.961 -0.828,6.277 -0.828,9.949" /></g><g
           transform="translate(460.3301,130.5811)"
           id="g96"><path
             id="path98"
             style="fill:#d62a24;fill-opacity:1;fill-rule:nonzero;stroke:none"
             d="m 0,0 c 0.617,-0.529 1.314,-0.951 2.088,-1.26 0.773,-0.308 1.801,-0.465 3.084,-0.465 2.344,0 4.201,1.196 5.572,3.582 1.369,2.389 2.055,5.791 2.055,10.213 0,1.858 -0.121,3.537 -0.365,5.041 -0.243,1.502 -0.629,2.797 -1.161,3.881 -0.529,1.082 -1.205,1.922 -2.021,2.52 -0.82,0.597 -1.824,0.894 -3.02,0.894 C 3.006,24.406 0.928,22.439 0,18.504 L 0,0 Z m -4.775,27.922 3.38,0 0.731,-3.582 0.266,0 c 1.634,2.918 4.199,4.379 7.693,4.379 3.492,0 6.111,-1.305 7.859,-3.914 1.746,-2.61 2.619,-6.875 2.619,-12.801 0,-2.785 -0.289,-5.295 -0.863,-7.527 C 16.336,2.244 15.518,0.342 14.457,-1.227 13.396,-2.797 12.104,-3.99 10.578,-4.809 9.053,-5.625 7.361,-6.035 5.504,-6.035 4.221,-6.035 3.205,-5.957 2.453,-5.803 1.701,-5.646 0.883,-5.326 0,-4.842 l 0,-13.662 -4.775,0 0,46.426 z" /></g><g
           transform="translate(500.209,145.3721)"
           id="g100"><path
             id="path102"
             style="fill:#d62a24;fill-opacity:1;fill-rule:nonzero;stroke:none"
             d="m 0,0 c 0.088,3.314 -0.377,5.746 -1.393,7.295 -1.017,1.547 -2.412,2.32 -4.179,2.32 -2.033,0 -3.647,-0.773 -4.842,-2.32 C -11.607,5.746 -12.314,3.314 -12.535,0 L 0,0 Z m 3.713,-17.775 c -1.061,-0.973 -2.41,-1.725 -4.045,-2.254 -1.637,-0.532 -3.361,-0.797 -5.174,-0.797 -2.078,0 -3.879,0.41 -5.404,1.226 -1.526,0.819 -2.785,1.991 -3.781,3.516 -0.995,1.525 -1.725,3.35 -2.188,5.473 -0.465,2.121 -0.697,4.509 -0.697,7.162 0,5.658 1.039,9.97 3.117,12.931 2.078,2.963 5.018,4.446 8.82,4.446 1.239,0 2.465,-0.157 3.682,-0.465 1.215,-0.311 2.311,-0.93 3.283,-1.858 C 2.297,10.678 3.084,9.373 3.68,7.693 4.277,6.012 4.576,3.822 4.576,1.127 4.576,0.375 4.543,-0.432 4.477,-1.295 4.41,-2.156 4.332,-3.051 4.244,-3.98 l -16.846,0 c 0,-1.901 0.155,-3.625 0.465,-5.172 0.309,-1.549 0.795,-2.864 1.459,-3.948 0.662,-1.084 1.514,-1.923 2.553,-2.519 1.039,-0.598 2.332,-0.897 3.879,-0.897 1.195,0 2.377,0.221 3.549,0.664 1.172,0.442 2.066,0.973 2.685,1.592 l 1.725,-3.515 z" /></g><g
           transform="translate(527.3672,125.3428)"
           id="g104"><path
             id="path106"
             style="fill:#d62a24;fill-opacity:1;fill-rule:nonzero;stroke:none"
             d="m 0,0 0,20.229 c 0,3.314 -0.389,5.712 -1.162,7.195 -0.774,1.48 -2.154,2.221 -4.145,2.221 -1.769,0 -3.228,-0.53 -4.377,-1.592 -1.15,-1.061 -1.99,-2.365 -2.519,-3.912 l 0,-24.141 -4.776,0 0,33.16 3.448,0 0.863,-3.515 0.199,0 c 0.84,1.195 1.979,2.21 3.416,3.05 1.436,0.84 3.149,1.262 5.139,1.262 1.414,0 2.664,-0.199 3.748,-0.598 1.082,-0.398 1.988,-1.072 2.719,-2.023 0.728,-0.951 1.281,-2.221 1.658,-3.813 0.375,-1.591 0.562,-3.605 0.562,-6.035 L 4.773,0 0,0 Z" /></g><g
           transform="translate(538.9199,131.5107)"
           id="g108"><path
             id="path110"
             style="fill:#d62a24;fill-opacity:1;fill-rule:nonzero;stroke:none"
             d="m 0,0 c 0.838,-0.576 2.021,-1.117 3.547,-1.625 1.525,-0.51 3.262,-0.764 5.207,-0.764 2.475,0 4.486,0.608 6.035,1.825 1.547,1.214 2.32,3.127 2.32,5.736 0,1.724 -0.441,3.228 -1.326,4.51 -0.885,1.283 -1.988,2.464 -3.314,3.548 -1.328,1.084 -2.754,2.145 -4.28,3.184 -1.525,1.039 -2.951,2.19 -4.277,3.449 -1.326,1.26 -2.432,2.707 -3.316,4.344 -0.885,1.635 -1.326,3.604 -1.326,5.902 0,3.715 1.117,6.467 3.349,8.258 2.233,1.789 5.141,2.686 8.721,2.686 2.211,0 4.18,-0.199 5.902,-0.598 1.725,-0.396 3.117,-0.906 4.18,-1.525 L 19.83,34.553 c -0.797,0.486 -1.935,0.927 -3.416,1.326 -1.482,0.398 -3.195,0.598 -5.141,0.598 -2.386,0 -4.156,-0.586 -5.304,-1.758 -1.151,-1.172 -1.725,-2.643 -1.725,-4.41 0,-1.549 0.442,-2.918 1.326,-4.112 0.885,-1.195 1.991,-2.322 3.317,-3.383 1.326,-1.062 2.752,-2.134 4.277,-3.216 1.525,-1.084 2.951,-2.289 4.277,-3.616 1.327,-1.326 2.432,-2.83 3.317,-4.509 0.885,-1.68 1.326,-3.67 1.326,-5.969 0,-3.891 -1.15,-6.942 -3.449,-9.152 -2.299,-2.211 -5.549,-3.317 -9.748,-3.317 -2.653,0 -4.832,0.244 -6.533,0.731 -1.704,0.486 -3.063,1.037 -4.079,1.658 L 0,0 Z" /></g><g
           transform="translate(562.6484,158.5029)"
           id="g112"><path
             id="path114"
             style="fill:#d62a24;fill-opacity:1;fill-rule:nonzero;stroke:none"
             d="m 0,0 4.047,0 0,6.566 4.775,1.526 0,-8.092 7.162,0 0,-4.311 -7.162,0 0,-19.763 c 0,-1.947 0.231,-3.35 0.696,-4.211 0.464,-0.863 1.226,-1.295 2.289,-1.295 0.882,0 1.646,0.1 2.287,0.299 0.64,0.199 1.338,0.453 2.09,0.763 l 0.927,-3.781 c -0.972,-0.486 -2.045,-0.873 -3.216,-1.16 -1.172,-0.287 -2.399,-0.432 -3.68,-0.432 -2.213,0 -3.793,0.719 -4.742,2.157 -0.952,1.435 -1.426,3.769 -1.426,6.996 l 0,20.427 L 0,-4.311 0,0 Z" /></g><g
           transform="translate(598.4297,140.4639)"
           id="g116"><path
             id="path118"
             style="fill:#d62a24;fill-opacity:1;fill-rule:nonzero;stroke:none"
             d="m 0,0 c -0.438,0.043 -0.875,0.076 -1.313,0.1 -0.435,0.021 -0.873,0.033 -1.308,0.033 -1.049,0 -2.076,-0.09 -3.082,-0.266 -1.004,-0.178 -1.901,-0.486 -2.686,-0.928 -0.787,-0.443 -1.408,-1.041 -1.867,-1.791 -0.459,-0.752 -0.687,-1.703 -0.687,-2.851 0,-1.77 0.425,-3.141 1.277,-4.113 0.852,-0.973 1.955,-1.459 3.309,-1.459 1.834,0 3.253,0.441 4.259,1.326 1.004,0.885 1.703,1.857 2.098,2.918 L 0,0 Z m -14.26,16.049 c 1.281,0.797 2.84,1.416 4.676,1.857 1.834,0.442 3.77,0.664 5.803,0.664 1.857,0 3.349,-0.277 4.476,-0.83 1.127,-0.552 2.012,-1.304 2.653,-2.254 0.64,-0.951 1.062,-2.035 1.261,-3.25 C 4.807,11.02 4.906,9.748 4.906,8.422 4.906,5.77 4.85,3.184 4.736,0.662 4.621,-1.857 4.566,-4.244 4.566,-6.5 c 0,-1.68 0.055,-3.238 0.17,-4.676 0.114,-1.437 0.325,-2.797 0.635,-4.078 l -3.738,0 -1.16,3.912 -0.264,0 c -0.658,-1.15 -1.623,-2.144 -2.897,-2.984 -1.271,-0.84 -2.984,-1.26 -5.134,-1.26 -2.369,0 -4.311,0.83 -5.826,2.486 -1.514,1.659 -2.27,3.948 -2.27,6.866 0,1.9 0.316,3.492 0.953,4.775 0.637,1.281 1.535,2.32 2.697,3.117 1.163,0.795 2.543,1.36 4.145,1.692 1.6,0.33 3.387,0.496 5.361,0.496 l 1.315,0 c 0.437,0 0.898,-0.022 1.383,-0.067 0.13,1.371 0.195,2.588 0.195,3.649 0,2.519 -0.373,4.289 -1.115,5.306 -0.746,1.016 -2.106,1.526 -4.077,1.526 -1.226,0 -2.562,-0.19 -4.007,-0.565 -1.448,-0.377 -2.651,-0.851 -3.616,-1.425 l -1.576,3.779 z" /></g><g
           transform="translate(628.5195,127.001)"
           id="g120"><path
             id="path122"
             style="fill:#d62a24;fill-opacity:1;fill-rule:nonzero;stroke:none"
             d="m 0,0 c -1.105,-0.842 -2.367,-1.459 -3.781,-1.857 -1.416,-0.399 -2.897,-0.598 -4.444,-0.598 -2.123,0 -3.912,0.41 -5.371,1.226 -1.459,0.819 -2.642,1.991 -3.549,3.516 -0.906,1.526 -1.57,3.359 -1.99,5.506 -0.42,2.143 -0.629,4.52 -0.629,7.129 0,5.658 1.004,9.971 3.018,12.932 2.012,2.962 4.896,4.445 8.654,4.445 1.725,0 3.205,-0.156 4.444,-0.465 1.238,-0.311 2.298,-0.709 3.183,-1.193 l -1.326,-4.18 c -1.77,1.018 -3.693,1.525 -5.77,1.525 -2.388,0 -4.189,-1.05 -5.406,-3.15 -1.217,-2.1 -1.824,-5.404 -1.824,-9.914 0,-1.815 0.133,-3.516 0.398,-5.108 0.266,-1.591 0.707,-2.972 1.327,-4.144 0.619,-1.172 1.414,-2.102 2.388,-2.785 0.971,-0.686 2.188,-1.03 3.647,-1.03 1.15,0 2.222,0.2 3.217,0.598 0.996,0.399 1.8,0.861 2.421,1.393 L 0,0 Z" /></g><g
           transform="translate(640.5156,140.2646)"
           id="g124"><path
             id="path126"
             style="fill:#d62a24;fill-opacity:1;fill-rule:nonzero;stroke:none"
             d="m 0,0 -2.52,0 0,-14.922 -4.775,0 0,46.424 4.775,0 0,-28.252 2.188,0.928 7.76,14.06 5.504,0 L 5.107,4.842 2.785,2.719 5.504,0.133 l 8.557,-15.055 -5.706,0 L 0,0 Z" /></g><g
           transform="translate(659.0625,168.2939)"
           id="g128"><path
             id="path130"
             style="fill:#d62a24;fill-opacity:1;fill-rule:nonzero;stroke:none"
             d="m 0,0 c -0.131,0 -0.268,-0.004 -0.414,-0.012 -0.147,-0.008 -0.258,-0.035 -0.34,-0.084 l 0,-1.459 0.705,0 c 0.824,0 1.238,0.276 1.238,0.826 C 1.189,-0.242 0.793,0 0,0 m -1.822,0.705 c 0.226,0.063 0.539,0.117 0.935,0.156 0.397,0.041 0.772,0.063 1.129,0.063 0.567,0 1.057,-0.121 1.471,-0.363 C 2.125,0.316 2.33,-0.096 2.33,-0.68 2.33,-1.117 2.193,-1.451 1.92,-1.688 1.643,-1.924 1.295,-2.055 0.875,-2.088 l 0.582,-0.267 1.504,-2.26 -1.262,0 -1.457,2.138 -0.996,0.317 0,-2.455 -1.068,0 0,5.32 z m -1.991,-2.648 c 0,-0.711 0.108,-1.332 0.327,-1.858 0.218,-0.525 0.513,-0.969 0.886,-1.324 0.371,-0.355 0.805,-0.619 1.299,-0.789 0.494,-0.17 1.026,-0.254 1.592,-0.254 0.598,0 1.15,0.084 1.652,0.254 0.502,0.17 0.934,0.43 1.299,0.777 0.365,0.348 0.651,0.785 0.862,1.313 0.21,0.525 0.316,1.152 0.316,1.881 0,0.697 -0.109,1.308 -0.328,1.836 C 3.873,0.416 3.578,0.857 3.205,1.215 2.832,1.572 2.396,1.834 1.895,2.004 1.393,2.174 0.857,2.26 0.291,2.26 -0.309,2.26 -0.859,2.174 -1.361,2.004 -1.863,1.834 -2.295,1.572 -2.66,1.215 -3.025,0.857 -3.309,0.416 -3.51,-0.107 -3.713,-0.635 -3.813,-1.246 -3.813,-1.943 m -1.314,0 c 0,0.875 0.147,1.648 0.438,2.32 0.293,0.67 0.685,1.238 1.179,1.701 0.494,0.461 1.067,0.809 1.725,1.043 0.654,0.236 1.347,0.352 2.076,0.352 0.762,0 1.475,-0.116 2.137,-0.352 C 3.092,2.887 3.668,2.539 4.152,2.078 4.639,1.615 5.023,1.047 5.307,0.377 5.59,-0.295 5.732,-1.068 5.732,-1.943 5.732,-2.816 5.584,-3.594 5.295,-4.275 5.004,-4.955 4.609,-5.525 4.115,-5.986 3.623,-6.447 3.049,-6.797 2.393,-7.031 1.736,-7.266 1.035,-7.383 0.291,-7.383 c -0.762,0 -1.471,0.117 -2.125,0.352 -0.656,0.234 -1.229,0.584 -1.713,1.045 -0.486,0.461 -0.871,1.031 -1.152,1.711 -0.285,0.681 -0.428,1.459 -0.428,2.332" /></g></g></g></g></svg>