<?xml version="1.0" encoding="UTF-8" standalone="no"?>
<svg
   xmlns:dc="http://purl.org/dc/elements/1.1/"
   xmlns:cc="http://creativecommons.org/ns#"
   xmlns:rdf="http://www.w3.org/1999/02/22-rdf-syntax-ns#"
   xmlns:svg="http://www.w3.org/2000/svg"
   xmlns="http://www.w3.org/2000/svg"
   viewBox="0 0 234.78751 108.8125"
   height="108.8125"
   width="234.78751"
   xml:space="preserve"
   version="1.1"
   id="svg2"><metadata
     id="metadata8"><rdf:RDF><cc:Work
         rdf:about=""><dc:format>image/svg+xml</dc:format><dc:type
           rdf:resource="http://purl.org/dc/dcmitype/StillImage" /><dc:title></dc:title></cc:Work></rdf:RDF></metadata><defs
     id="defs6" /><g
     transform="matrix(1.25,0,0,-1.25,0,108.8125)"
     id="g10"><g
       transform="scale(0.1,0.1)"
       id="g12"><path
         id="path14"
         style="fill:#18293b;fill-opacity:1;fill-rule:nonzero;stroke:none"
         d="m 573.535,235.203 c -1.25,0.195 -133.222,19.328 -134.562,19.531 -23.125,3.653 -34.883,15.063 -34.883,33.829 0,18.917 16.25,29.609 29.57,29.609 l 218.156,0 0,81.406 c 0,0 -215.539,0 -217.628,0 -69.063,0 -116.747,-52.519 -116.747,-111.015 0,-51.114 30.711,-104.059 100.997,-114.891 1.25,-0.227 133.308,-19.348 134.558,-19.539 23.223,-3.664 34.883,-15.121 34.883,-33.899 0,-18.906 -16.219,-29.5309 -29.656,-29.5309 l -159.348,0 0,-0.0703 c -32.246,-0.918 -66.277,-25.664 -66.277,-74.1797 0,-2.1093 0,-4.5703 0,-7.24216 0,0 224.433,0 225.281,0 69.062,0 116.621,52.51566 116.621,111.02306 0,51.121 -30.652,104.121 -100.965,114.969 z m 1157.345,82.969 c 32.32,0.898 66.34,25.715 66.34,74.25 0,2.031 0,4.5 0,7.156 l -235.95,0 c -69.08,0 -116.72,-52.519 -116.72,-111.015 l 0,0 c 0,0 0,-167.477 0,-168.329 0,-58.5074 47.69,-111.02306 116.72,-111.02306 2.14,0 235.95,0 235.95,0 0,2.67186 0,5.13286 0,7.24216 0,48.5157 -34.02,73.2617 -66.34,74.1797 l 0,0.0703 -170.06,0 c -13.35,0 -29.63,10.6249 -29.63,29.5309 0,18.778 12.37,33.899 34.96,33.899 22.5,0 72.34,0 73.69,0 64.85,0.41 102.25,40.133 114.01,85.562 l -177.29,0 c -31.9,0 -45.37,-25.312 -45.37,-25.312 l 0,74.18 c 0,18.917 16.19,29.609 29.63,29.609 l 170.06,0 z M 1855,43.5156 c 0,-2.3164 -1.68,-4.0625 -4.87,-4.0625 l -6.23,0 0,8.2813 6.14,0 c 3.02,0 4.96,-1.4063 4.96,-4.2188 z m 6.29,0.4375 c 0,5.7422 -4.26,9.1992 -11.08,9.1992 l -12.5,0 0,-27.9179 6.19,0 0,8.9922 4.91,0 6.07,-8.9922 7.25,0 -6.88,10 c 3.58,1.25 6.04,4.1406 6.04,8.7187 z m 10.84,-5.5078 c 0,-12.8515 -10.2,-23.3398 -23.6,-23.3398 -13.43,0 -23.45,10.3554 -23.45,23.2226 0,12.9297 10.11,23.3985 23.61,23.3985 13.38,0 23.44,-10.3985 23.44,-23.2813 z m 6.19,0 c 0,15.9766 -13.03,29.1992 -29.63,29.1992 -16.66,0 -29.79,-13.2812 -29.79,-29.3164 0,-16.0312 13.07,-29.18747 29.63,-29.18747 16.62,0 29.79,13.35937 29.79,29.30467 z m -922.324,361.2887 0,-232.187 c 0,-48.496 -39.277,-87.8126 -87.746,-87.8126 -48.535,0 -87.84,39.3166 -87.84,87.8126 l 0,232.187 -84.531,0 0,-227.332 C 695.879,77.1953 773.035,0 868.25,0 c 95.156,0 172.31,77.1953 172.31,172.402 l 0,227.332 -84.564,0 z m 466.314,-279.5 c 0,-58.5074 -47.68,-111.02306 -116.72,-111.02306 -2.12,0 -217.56,0 -217.56,0 l 0,81.49216 218,0 c 13.36,0 29.59,10.6249 29.59,29.5309 0,18.778 -11.72,30.235 -34.94,33.899 -1.25,0.191 -133.28,19.312 -134.46,19.539 -70.34,10.832 -101.07,63.777 -101.07,114.891 0,58.496 47.7,111.015 116.78,111.015 2.1,0 217.6,0 217.6,0 l 0,-81.406 -218.13,0 c -13.34,0 -29.53,-10.692 -29.53,-29.609 0,-18.766 11.72,-30.176 34.89,-33.829 1.27,-0.203 133.3,-19.336 134.49,-19.531 70.35,-10.848 101.06,-63.848 101.06,-114.969" /><path
         id="path16"
         style="fill:#4cbe52;fill-opacity:1;fill-rule:nonzero;stroke:none"
         d="m 895.156,735.73 c 0.653,17.032 7.813,32.844 20.352,44.477 12.402,11.676 28.68,17.691 45.683,17.137 35.313,-1.27 62.909,-30.957 61.749,-66.172 -0.66,-17.031 -7.84,-32.813 -20.25,-44.453 -12.436,-11.641 -28.784,-17.707 -45.846,-17.11 -35.242,1.278 -62.781,30.907 -61.688,66.121 z M 792.625,859.199 c 0,0 -0.566,-30.996 -0.566,-34.433 -15.215,5.086 -126.121,40.906 -230.157,44.562 -88.086,3.063 -208.437,7.281 -378.496,-97.285 l -5.027,-3.125 C 98.3125,718.984 43.0938,657.469 14.25,585.918 5.125,563.418 -6.98438,512.637 5.03125,464.891 10.2539,443.984 20,423.074 33.0938,404.227 62.5977,361.824 112.156,333.641 165.531,328.855 c 75.375,-6.687 132.465,27.129 152.817,90.489 13.937,43.789 0,107.922 -53.504,140.703 -43.528,26.641 -90.406,20.586 -117.531,2.656 -23.532,-15.672 -36.875,-39.863 -36.657,-66.582 0.5,-47.234 41.266,-72.363 70.516,-72.449 8.543,0 17.137,1.465 26.738,4.59 3.438,1.093 6.621,2.332 10.215,4.597 l 1.121,0.688 0.723,0.418 -0.281,-0.137 c 6.66,4.531 10.722,11.875 10.722,19.813 0,2.187 -0.312,4.375 -0.937,6.593 -3.469,11.981 -15.285,19.219 -27.571,16.903 l -1.621,-0.282 -2.246,-0.703 -3.281,-1.105 c -6.688,-1.707 -11.785,-1.817 -12.879,-1.817 -3.402,0.215 -20.371,5.254 -20.371,23.735 l 0,0.203 c 0.156,6.746 2.812,11.531 4.34,14.141 5.219,8.234 19.625,16.296 38.969,14.55 25.468,-2.179 43.781,-15.187 55.968,-39.785 11.25,-22.941 8.407,-51.094 -7.59,-71.719 -15.847,-20.468 -44.003,-29.191 -81.472,-25.109 -37.813,4.141 -69.781,25.883 -87.6877,59.766 -17.4688,33.047 -18.4649,72.316 -2.4375,102.5 38.2692,72.187 110.5352,71.457 150.0942,64.609 56.347,-9.734 141.691,-60.234 173.75,-177.012 l 77.871,0 c -9.649,29.731 -15.157,115.996 72.5,115.996 96.191,0 108.281,-67.714 135.566,-115.996 l 82.5,0 c -21.66,31.028 -36.934,65.625 -32.09,94.7 7.121,42.957 41.262,39.082 88.528,33.738 15.457,-1.817 33.093,-3.789 51.191,-4.207 50.879,-0.293 96.836,9.012 130.586,23.769 21.81,9.532 35.69,15.813 44.44,23.75 3.16,2.559 4.78,6.844 6.48,11.309 l 1.18,3.035 c 1.4,3.652 3.21,11.445 4.32,15.656 2.24,8.645 -5.42,4.043 -5.42,4.043 -14.71,-8.886 -51.78,-25.761 -86.43,-26.457 -42.871,-0.898 -129.375,43.164 -138.379,47.832 l -0.871,1.036 c -2.226,5.156 -15.156,35.89 -17.91,42.375 62.246,-41.047 113.879,-63.704 153.41,-67.208 44.02,-3.933 78.34,20.125 92.97,30.313 1.62,1.086 7.44,5 6.03,9.687 -5.72,20 -25.45,87 -41.91,103.985 -4.79,4.953 -8.62,9.738 -16.41,14.25 -62.926,36.676 -212.262,58.867 -219.274,59.863 0,0 -1.718,0.438 -1.691,-1.379" /><path
         id="path18"
         style="fill:#4cbe52;fill-opacity:1;fill-rule:nonzero;stroke:none"
         d="m 968.008,729.766 c -10.879,0 -19.727,5.964 -19.727,13.203 0,7.293 8.848,13.203 19.727,13.203 10.937,0 19.805,-5.91 19.805,-13.203 0,-7.239 -8.868,-13.203 -19.805,-13.203 z m -7.324,48.73 c -11.895,0.516 -23.145,-3.762 -31.836,-11.887 -8.723,-8.093 -13.789,-19.101 -14.16,-31.035 -0.782,-24.558 18.437,-45.281 43.007,-46.14 11.934,-0.371 23.243,3.859 31.961,11.906 8.723,8.203 13.724,19.207 14.154,31.051 0.76,24.621 -18.529,45.277 -43.126,46.105" /></g></g></svg>