<?xml version="1.0" encoding="UTF-8" standalone="no"?>
<svg
   xmlns:dc="http://purl.org/dc/elements/1.1/"
   xmlns:cc="http://creativecommons.org/ns#"
   xmlns:rdf="http://www.w3.org/1999/02/22-rdf-syntax-ns#"
   xmlns:svg="http://www.w3.org/2000/svg"
   xmlns="http://www.w3.org/2000/svg"
   viewBox="0 0 455.42206 211.42191"
   height="211.42191"
   width="455.42206"
   version="1.1"
   id="svg2">
  <metadata
     id="metadata8">
    <rdf:RDF>
      <cc:Work
         rdf:about="">
        <dc:format>image/svg+xml</dc:format>
        <dc:type
           rdf:resource="http://purl.org/dc/dcmitype/StillImage" />
        <dc:title></dc:title>
      </cc:Work>
    </rdf:RDF>
  </metadata>
  <defs
     id="defs6" />
  <path
     id="path4205"
     d="m 206.24755,211.27605 c -18.8774,-2.85596 -32.41302,-15.51914 -36.35629,-34.01296 -0.50452,-2.36623 -0.54371,-4.7336 -0.54371,-32.85 l 0,-30.3 10.2,0 10.2,0 0.15,30.3 0.15,30.3 0.84234,2.4 c 6.39753,18.22812 30.94686,20.10529 39.38278,3.01141 2.29746,-4.65538 2.21382,-3.29141 2.21968,-36.19968 0.004,-24.41908 0.0735,-29.34494 0.41594,-29.62915 0.29271,-0.24292 3.24548,-0.31814 10.275,-0.26173 l 9.86427,0.0791 0.0894,28.95 c 0.0948,30.66637 0.0421,32.16528 -1.30766,37.2088 -4.0422,15.10443 -15.93121,26.58444 -31.25344,30.17833 -3.15909,0.74097 -11.65325,1.23054 -14.32836,0.82583 z"
     style="fill:#000000;fill-opacity:1" />
  <path
     id="path4203"
     d="m 80.79522,208.88488 c -0.29594,-0.77121 0.14508,-5.52914 0.67867,-7.32179 1.61525,-5.4266 5.68961,-9.71488 10.90203,-11.47442 1.946,-0.6569 2.2548,-0.66757 23.7456,-0.82057 l 21.77397,-0.15501 1.46675,-0.9071 c 4.62249,-2.85872 4.69453,-9.42458 0.13652,-12.4421 -1.97388,-1.30677 -3.56756,-1.61509 -22.50121,-4.35325 -20.6917,-2.9924 -22.30761,-3.38271 -27.56098,-6.65699 -12.39042,-7.72261 -16.19671,-25.66819 -8.0811,-38.10007 4.55526,-6.97796 11.95336,-11.38322 20.79208,-12.38083 1.62618,-0.18354 13.28488,-0.30572 29.31445,-0.3072 26.0072,-0.002 26.62153,0.0108 26.925,0.57781 0.19403,0.36255 0.31055,3.91571 0.31055,9.46973 0,5.55401 -0.11652,9.10717 -0.31055,9.46972 -0.30347,0.56704 -0.92774,0.58043 -27.375,0.58686 -30.14747,0.007 -28.34834,-0.1123 -30.61692,2.0361 -3.13148,2.9656 -2.8039,8.43207 0.6638,11.07697 2.03747,1.55403 4.25853,2.00955 23.07178,4.73174 20.54669,2.97301 22.48337,3.44184 27.51689,6.66123 12.78171,8.17504 16.34101,26.56862 7.52954,38.91075 -4.64223,6.50233 -11.81247,10.62199 -20.12954,11.56543 -4.96073,0.56272 -58.03069,0.41057 -58.25233,-0.16701 z"
     style="fill:#000000;fill-opacity:1" />
  <path
     id="path4201"
     d="m 264.91565,208.79688 c -0.42828,-0.80025 -0.43518,-18.15447 -0.008,-18.95353 0.3035,-0.56709 0.92578,-0.58035 27.375,-0.58321 l 27.06445,-0.003 1.5,-0.70913 c 4.88952,-2.31152 5.65071,-9.14446 1.38222,-12.40743 -2.02776,-1.55006 -4.2537,-2.00597 -23.07093,-4.72532 -18.50462,-2.67416 -20.68393,-3.12215 -24.66592,-5.07043 -6.93639,-3.39377 -11.91534,-9.24915 -14.05865,-16.53331 -5.05531,-17.18082 5.89025,-33.51593 23.81328,-35.53886 4.09643,-0.46235 55.72356,-0.41611 56.19,0.0503 0.26457,0.26456 0.36,2.83333 0.36,9.69 0,6.85667 -0.0954,9.42543 -0.36,9.69 -0.27462,0.27462 -6.76662,0.36069 -27.375,0.36293 l -27.015,0.003 -1.51227,0.7042 c -5.03818,2.34608 -5.56791,9.58898 -0.92491,12.6462 2.25043,1.48181 3.44262,1.71759 22.82488,4.51394 15.54075,2.24212 18.08235,2.68297 20.93919,3.63198 9.04377,3.00424 14.98788,9.19473 17.80965,18.54782 1.14498,3.7952 1.23804,11.30755 0.1851,14.94064 -2.8965,9.99394 -10.5369,17.0965 -21.07164,19.58826 -3.72369,0.88076 -58.91639,1.02474 -59.38191,0.15491 z"
     style="fill:#000000;fill-opacity:1" />
  <path
     id="path4199"
     d="m 376.49261,209.05521 c -11.75301,-1.37675 -21.1185,-9.31234 -24.06657,-20.39214 -0.67824,-2.54908 -0.67848,-2.5588 -0.67848,-27 0,-24.4412 2.4e-4,-24.45092 0.67848,-27 2.99934,-11.27244 12.26496,-19.01021 24.44019,-20.41014 4.70421,-0.5409 60.09045,-0.3711 60.55248,0.18563 0.55974,0.67443 -0.0659,5.99412 -1.01133,8.59861 -1.98066,5.45667 -6.48978,9.39009 -12.13611,10.58662 -1.64748,0.34913 -6.0981,0.42983 -23.93982,0.43407 l -21.91608,0.005 -1.55937,0.77707 c -1.79922,0.89659 -3.126,2.36412 -3.61602,3.99961 -0.35916,1.19883 -0.50871,19.22332 -0.15948,19.22332 0.10062,0 0.91065,-0.66509 1.80006,-1.47797 1.89714,-1.73387 4.12764,-2.89328 6.38295,-3.31783 2.2221,-0.41831 45.22959,-0.4159 45.48822,0.002 0.25821,0.41781 -0.61836,3.00087 -1.88115,5.54326 -3.15855,6.35906 -8.52402,11.13277 -15.06627,13.40459 -4.15689,1.44349 -5.24994,1.54573 -18.45675,1.72649 -11.24046,0.15384 -12.72948,0.23054 -13.8,0.71088 -5.67693,2.54724 -6.33243,10.55926 -1.11483,13.62635 l 1.41483,0.83169 23.1,0.15 23.1,0.15 2.1306,0.7795 c 5.43924,1.98998 9.34563,6.25322 10.74018,11.72125 0.66963,2.6256 0.93273,6.45279 0.48102,6.99706 -0.41217,0.49666 -56.75916,0.63018 -60.90675,0.14433 z"
     style="fill:#000000;fill-opacity:1" />
  <path
     id="path4197"
     d="m 446.88026,208.99221 c -1.5888,-0.42031 -3.92358,-2.7165 -4.35108,-4.27919 -1.9905,-7.27602 7.66575,-11.76217 11.82237,-5.49251 3.30234,4.9811 -1.55676,11.33634 -7.47129,9.7717 z"
     style="fill:#000000;fill-opacity:1" />
  <path
     id="path4195"
     d="m 451.22537,207.16551 c 3.24141,-1.70997 3.60519,-6.27385 0.67806,-8.50649 -2.17194,-1.65662 -5.73816,-1.0921 -7.21689,1.1424 -2.99214,4.52144 1.76712,9.88137 6.53883,7.36409 z"
     style="fill:#ffffff;fill-opacity:1" />
  <path
     id="path4193"
     d="m 446.52572,205.36428 c -0.0842,-0.21931 -0.11367,-1.60306 -0.0656,-3.075 l 0.0874,-2.67626 1.7535,-0.0908 c 2.3076,-0.11952 3.1965,0.4225 3.1965,1.94911 0,0.60196 -0.22029,1.33789 -0.48954,1.6354 -0.45291,0.50047 -0.45198,0.59825 0.0126,1.3071 1.04925,1.60135 -0.19371,1.8223 -1.56132,0.27754 -0.95292,-1.07634 -1.56162,-1.14285 -1.56162,-0.17062 0,0.97009 -1.07064,1.62844 -1.37184,0.84355 z"
     style="fill:#000000;fill-opacity:1" />
  <path
     id="path4191"
     d="m 449.9495,201.74897 c 0.11742,-0.61842 -0.40368,-1.0742 -1.23636,-1.08136 -0.61371,-0.005 -0.96339,0.67748 -0.69939,1.3655 0.25833,0.67318 1.79688,0.44734 1.93575,-0.28414 z"
     style="fill:#ffffff;fill-opacity:1" />
  <path
     id="path4189"
     d="M 40.34756,26.816163 C 64.81473,10.594283 90.41204,1.4805135 114.74755,0.32647349 c 7.05738,-0.53313 14.16036,-0.31504 21.23244,-0.0382 15.80913,0.61876 36.46904,4.44506001 53.55813,9.91917951 3.86972,1.23958 3.77272,1.33009 3.95943,-3.6945195 l 0.15,-4.03659 4.8,0.80846 c 23.84343,4.01592 44.23681,10.2428195 50.00758,15.2692795 3.09869,2.69901 5.66392,7.82946 9.07962,18.15913 2.2258,6.73124 2.72306,8.59967 2.46656,9.2681 -0.5358,1.39627 -8.83827,5.92916 -13.29025,7.25606 -10.35814,3.08722 -24.18872,-0.96228 -42.52934,-12.4523 -3.63618,-2.27799 -5.27801,-2.9134 -5.28886,-2.04686 -0.003,0.20625 0.97616,2.72853 2.175,5.60506 l 2.17969,5.23006 4.5,2.15848 c 14.32215,6.86977 24.65904,10.06494 31.12015,9.61933 5.29844,-0.36541 11.90087,-2.25981 17.32494,-4.97096 1.66922,-0.83434 3.08709,-1.51697 3.15081,-1.51697 0.16745,0 -0.95514,3.96104 -1.52916,5.39566 -0.70461,1.761 -2.45018,3.0939 -6.86673,5.24337 -14.80406,7.20492 -29.50274,9.35088 -48.60001,7.09543 -10.27093,-1.21304 -13.97053,-1.11882 -17.16433,0.43712 -7.60084,3.70296 -7.32262,16.61303 0.62579,29.038397 l 1.08109,1.69002 -9.23107,0 -9.23108,0 -3.18686,-6.524997 c -5.86795,-12.01447 -10.07013,-16.76296 -17.28097,-19.52763 -5.25592,-2.01514 -14.62413,-2.72873 -19.22881,-1.46469 -10.50325,2.88328 -15.17835,12.91934 -12.42686,26.676797 l 0.16994,0.84971 -8.74787,-0.0796 -8.74786,-0.0796 -1.15646,-3.45 C 90.84673,79.353573 75.15081,64.447173 56.23667,60.669403 c -4.00521,-0.79997 -12.47555,-0.74749 -16.3747,0.10146 -15.69872,3.41805 -26.032426,18.04562 -23.235402,32.89019 2.302651,12.220797 10.640942,20.751367 22.820992,23.347227 2.96845,0.63265 10.33075,0.46805 13.14014,-0.29377 12.54023,-3.40053 16.91804,-17.159747 8.85686,-27.836697 -4.20731,-5.57255 -12.45154,-7.80922 -18.54612,-5.0316 -4.77253,2.17509 -6.04109,7.75243 -2.53101,11.12781 2.07106,1.99159 3.81193,2.23295 7.86012,1.0898 6.03665,-1.70467 9.57509,5.898887 4.30177,9.243837 -4.20593,2.6679 -10.33395,2.93667 -15.08152,0.66146 -13.73656,-6.583067 -13.36332,-25.138907 0.64776,-32.204087 5.4559,-2.75117 12.98528,-3.19456 19.3504,-1.13951 17.11233,5.52491 25.22803,25.1436 17.10021,41.337617 -3.72997,7.43166 -10.52248,13.00865 -18.74861,15.39356 -4.81128,1.39488 -13.4264,1.84099 -18.6,0.96315 -60.901255,-19.70935 -37.67844803,-75.682087 3.15,-103.503687 z"
     style="fill:#7dc246;fill-opacity:1" />
  <path
     id="path4187"
     d="m 238.33431,48.145523 c 13.52267,-4.29425 15.19392,-23.08185 2.63952,-29.67265 -10.95321,-5.75022 -23.74585,1.97329 -23.77184,14.35218 -0.0227,10.83143 10.72702,18.62477 21.13232,15.32047 z"
     style="fill:#ffffff;fill-opacity:1" />
  <path
     id="path4185"
     d="m 230.28675,43.134693 c -7.92328,-2.43135 -10.50053,-12.41408 -4.69559,-18.18796 2.39271,-2.37992 4.18019,-3.115 7.59235,-3.12228 12.83658,-0.0274 15.38137,17.67682 3.06651,21.33394 -2.11606,0.6284 -3.86079,0.62147 -5.96327,-0.0237 z"
     style="fill:#7dc246;fill-opacity:1" />
  <path
     id="path3357"
     d="m 238.49535,33.678963 c 1.54382,-0.61772 2.40221,-1.81241 2.40221,-3.34339 0,-3.81127 -7.22254,-5.17803 -9.98901,-1.89027 -2.89174,3.43664 2.60361,7.22754 7.5868,5.23366 z"
     style="fill:#ffffff;fill-opacity:1" />
</svg>
